<svg width="248" height="160" viewBox="0 0 248 160" fill="none" xmlns="http://www.w3.org/2000/svg">
<rect x="1" y="1" width="246" height="158" rx="9" fill="white"/>
<path d="M27.4716 27.5625C27.4186 27.0663 27.1951 26.6799 26.8011 26.4034C26.411 26.1269 25.9034 25.9886 25.2784 25.9886C24.839 25.9886 24.4621 26.0549 24.1477 26.1875C23.8333 26.3201 23.5928 26.5 23.4261 26.7273C23.2595 26.9545 23.1742 27.214 23.1705 27.5057C23.1705 27.7481 23.2254 27.9583 23.3352 28.1364C23.4489 28.3144 23.6023 28.4659 23.7955 28.5909C23.9886 28.7121 24.2027 28.8144 24.4375 28.8977C24.6723 28.9811 24.9091 29.0511 25.1477 29.108L26.2386 29.3807C26.678 29.483 27.1004 29.6212 27.5057 29.7955C27.9148 29.9697 28.2803 30.1894 28.6023 30.4545C28.928 30.7197 29.1856 31.0398 29.375 31.4148C29.5644 31.7898 29.6591 32.2292 29.6591 32.733C29.6591 33.4148 29.4848 34.0152 29.1364 34.5341C28.7879 35.0492 28.2841 35.4527 27.625 35.7443C26.9697 36.0322 26.1761 36.1761 25.2443 36.1761C24.339 36.1761 23.553 36.036 22.8864 35.7557C22.2235 35.4754 21.7045 35.0663 21.3295 34.5284C20.9583 33.9905 20.7576 33.3352 20.7273 32.5625H22.8011C22.8314 32.9678 22.9564 33.3049 23.1761 33.5739C23.3958 33.8428 23.6818 34.0436 24.0341 34.1761C24.3902 34.3087 24.7879 34.375 25.2273 34.375C25.6856 34.375 26.0871 34.3068 26.4318 34.1705C26.7803 34.0303 27.053 33.8371 27.25 33.5909C27.447 33.3409 27.5473 33.0492 27.5511 32.7159C27.5473 32.4129 27.4583 32.1629 27.2841 31.9659C27.1098 31.7652 26.8655 31.5985 26.5511 31.4659C26.2405 31.3295 25.8769 31.2083 25.4602 31.1023L24.1364 30.7614C23.178 30.5152 22.4205 30.142 21.8636 29.642C21.3106 29.1383 21.0341 28.4697 21.0341 27.6364C21.0341 26.9508 21.2197 26.3504 21.5909 25.8352C21.9659 25.3201 22.4754 24.9205 23.1193 24.6364C23.7633 24.3485 24.4924 24.2045 25.3068 24.2045C26.1326 24.2045 26.8561 24.3485 27.4773 24.6364C28.1023 24.9205 28.5928 25.3163 28.9489 25.8239C29.3049 26.3277 29.4886 26.9072 29.5 27.5625H27.4716ZM31.5384 36V24.3636H39.1065V26.1307H33.6463V29.2898H38.7145V31.0568H33.6463V34.233H39.152V36H31.5384ZM47.581 27.5625C47.5279 27.0663 47.3045 26.6799 46.9105 26.4034C46.5204 26.1269 46.0128 25.9886 45.3878 25.9886C44.9484 25.9886 44.5715 26.0549 44.2571 26.1875C43.9427 26.3201 43.7022 26.5 43.5355 26.7273C43.3688 26.9545 43.2836 27.214 43.2798 27.5057C43.2798 27.7481 43.3348 27.9583 43.4446 28.1364C43.5582 28.3144 43.7116 28.4659 43.9048 28.5909C44.098 28.7121 44.312 28.8144 44.5469 28.8977C44.7817 28.9811 45.0185 29.0511 45.2571 29.108L46.348 29.3807C46.7874 29.483 47.2098 29.6212 47.6151 29.7955C48.0241 29.9697 48.3897 30.1894 48.7116 30.4545C49.0374 30.7197 49.295 31.0398 49.4844 31.4148C49.6738 31.7898 49.7685 32.2292 49.7685 32.733C49.7685 33.4148 49.5942 34.0152 49.2457 34.5341C48.8973 35.0492 48.3935 35.4527 47.7344 35.7443C47.0791 36.0322 46.2855 36.1761 45.3537 36.1761C44.4484 36.1761 43.6624 36.036 42.9957 35.7557C42.3329 35.4754 41.8139 35.0663 41.4389 34.5284C41.0677 33.9905 40.867 33.3352 40.8366 32.5625H42.9105C42.9408 32.9678 43.0658 33.3049 43.2855 33.5739C43.5052 33.8428 43.7912 34.0436 44.1435 34.1761C44.4995 34.3087 44.8973 34.375 45.3366 34.375C45.795 34.375 46.1965 34.3068 46.5412 34.1705C46.8897 34.0303 47.1624 33.8371 47.3594 33.5909C47.5563 33.3409 47.6567 33.0492 47.6605 32.7159C47.6567 32.4129 47.5677 32.1629 47.3935 31.9659C47.2192 31.7652 46.9749 31.5985 46.6605 31.4659C46.3499 31.3295 45.9863 31.2083 45.5696 31.1023L44.2457 30.7614C43.2874 30.5152 42.5298 30.142 41.973 29.642C41.42 29.1383 41.1435 28.4697 41.1435 27.6364C41.1435 26.9508 41.3291 26.3504 41.7003 25.8352C42.0753 25.3201 42.5848 24.9205 43.2287 24.6364C43.8726 24.3485 44.6018 24.2045 45.4162 24.2045C46.242 24.2045 46.9654 24.3485 47.5866 24.6364C48.2116 24.9205 48.7022 25.3163 49.0582 25.8239C49.4143 26.3277 49.598 26.9072 49.6094 27.5625H47.581ZM57.9716 27.5625C57.9186 27.0663 57.6951 26.6799 57.3011 26.4034C56.911 26.1269 56.4034 25.9886 55.7784 25.9886C55.339 25.9886 54.9621 26.0549 54.6477 26.1875C54.3333 26.3201 54.0928 26.5 53.9261 26.7273C53.7595 26.9545 53.6742 27.214 53.6705 27.5057C53.6705 27.7481 53.7254 27.9583 53.8352 28.1364C53.9489 28.3144 54.1023 28.4659 54.2955 28.5909C54.4886 28.7121 54.7027 28.8144 54.9375 28.8977C55.1723 28.9811 55.4091 29.0511 55.6477 29.108L56.7386 29.3807C57.178 29.483 57.6004 29.6212 58.0057 29.7955C58.4148 29.9697 58.7803 30.1894 59.1023 30.4545C59.428 30.7197 59.6856 31.0398 59.875 31.4148C60.0644 31.7898 60.1591 32.2292 60.1591 32.733C60.1591 33.4148 59.9848 34.0152 59.6364 34.5341C59.2879 35.0492 58.7841 35.4527 58.125 35.7443C57.4697 36.0322 56.6761 36.1761 55.7443 36.1761C54.839 36.1761 54.053 36.036 53.3864 35.7557C52.7235 35.4754 52.2045 35.0663 51.8295 34.5284C51.4583 33.9905 51.2576 33.3352 51.2273 32.5625H53.3011C53.3314 32.9678 53.4564 33.3049 53.6761 33.5739C53.8958 33.8428 54.1818 34.0436 54.5341 34.1761C54.8902 34.3087 55.2879 34.375 55.7273 34.375C56.1856 34.375 56.5871 34.3068 56.9318 34.1705C57.2803 34.0303 57.553 33.8371 57.75 33.5909C57.947 33.3409 58.0473 33.0492 58.0511 32.7159C58.0473 32.4129 57.9583 32.1629 57.7841 31.9659C57.6098 31.7652 57.3655 31.5985 57.0511 31.4659C56.7405 31.3295 56.3769 31.2083 55.9602 31.1023L54.6364 30.7614C53.678 30.5152 52.9205 30.142 52.3636 29.642C51.8106 29.1383 51.5341 28.4697 51.5341 27.6364C51.5341 26.9508 51.7197 26.3504 52.0909 25.8352C52.4659 25.3201 52.9754 24.9205 53.6193 24.6364C54.2633 24.3485 54.9924 24.2045 55.8068 24.2045C56.6326 24.2045 57.3561 24.3485 57.9773 24.6364C58.6023 24.9205 59.0928 25.3163 59.4489 25.8239C59.8049 26.3277 59.9886 26.9072 60 27.5625H57.9716ZM64.1463 24.3636V36H62.0384V24.3636H64.1463ZM76.8267 30.1818C76.8267 31.4356 76.5919 32.5095 76.1222 33.4034C75.6563 34.2936 75.0199 34.9754 74.2131 35.4489C73.41 35.9223 72.4991 36.1591 71.4801 36.1591C70.4612 36.1591 69.5483 35.9223 68.7415 35.4489C67.9384 34.9716 67.3021 34.2879 66.8324 33.3977C66.3665 32.5038 66.1335 31.4318 66.1335 30.1818C66.1335 28.928 66.3665 27.8561 66.8324 26.9659C67.3021 26.072 67.9384 25.3883 68.7415 24.9148C69.5483 24.4413 70.4612 24.2045 71.4801 24.2045C72.4991 24.2045 73.41 24.4413 74.2131 24.9148C75.0199 25.3883 75.6563 26.072 76.1222 26.9659C76.5919 27.8561 76.8267 28.928 76.8267 30.1818ZM74.7074 30.1818C74.7074 29.2992 74.5691 28.5549 74.2926 27.9489C74.0199 27.339 73.6411 26.8788 73.1562 26.5682C72.6714 26.2538 72.1127 26.0966 71.4801 26.0966C70.8475 26.0966 70.2888 26.2538 69.804 26.5682C69.3191 26.8788 68.9384 27.339 68.6619 27.9489C68.3892 28.5549 68.2528 29.2992 68.2528 30.1818C68.2528 31.0644 68.3892 31.8106 68.6619 32.4205C68.9384 33.0265 69.3191 33.4867 69.804 33.8011C70.2888 34.1117 70.8475 34.267 71.4801 34.267C72.1127 34.267 72.6714 34.1117 73.1562 33.8011C73.6411 33.4867 74.0199 33.0265 74.2926 32.4205C74.5691 31.8106 74.7074 31.0644 74.7074 30.1818ZM88.3821 24.3636V36H86.5071L81.0241 28.0739H80.9276V36H78.8196V24.3636H80.706L86.1832 32.2955H86.2855V24.3636H88.3821ZM97.0028 27.5625C96.9498 27.0663 96.7263 26.6799 96.3324 26.4034C95.9422 26.1269 95.4347 25.9886 94.8097 25.9886C94.3703 25.9886 93.9934 26.0549 93.679 26.1875C93.3646 26.3201 93.1241 26.5 92.9574 26.7273C92.7907 26.9545 92.7055 27.214 92.7017 27.5057C92.7017 27.7481 92.7566 27.9583 92.8665 28.1364C92.9801 28.3144 93.1335 28.4659 93.3267 28.5909C93.5199 28.7121 93.7339 28.8144 93.9688 28.8977C94.2036 28.9811 94.4403 29.0511 94.679 29.108L95.7699 29.3807C96.2093 29.483 96.6316 29.6212 97.0369 29.7955C97.446 29.9697 97.8116 30.1894 98.1335 30.4545C98.4593 30.7197 98.7169 31.0398 98.9062 31.4148C99.0956 31.7898 99.1903 32.2292 99.1903 32.733C99.1903 33.4148 99.0161 34.0152 98.6676 34.5341C98.3191 35.0492 97.8153 35.4527 97.1562 35.7443C96.5009 36.0322 95.7074 36.1761 94.7756 36.1761C93.8703 36.1761 93.0843 36.036 92.4176 35.7557C91.7547 35.4754 91.2358 35.0663 90.8608 34.5284C90.4896 33.9905 90.2888 33.3352 90.2585 32.5625H92.3324C92.3627 32.9678 92.4877 33.3049 92.7074 33.5739C92.9271 33.8428 93.2131 34.0436 93.5653 34.1761C93.9214 34.3087 94.3191 34.375 94.7585 34.375C95.2169 34.375 95.6184 34.3068 95.9631 34.1705C96.3116 34.0303 96.5843 33.8371 96.7812 33.5909C96.9782 33.3409 97.0786 33.0492 97.0824 32.7159C97.0786 32.4129 96.9896 32.1629 96.8153 31.9659C96.6411 31.7652 96.3968 31.5985 96.0824 31.4659C95.7718 31.3295 95.4081 31.2083 94.9915 31.1023L93.6676 30.7614C92.7093 30.5152 91.9517 30.142 91.3949 29.642C90.8419 29.1383 90.5653 28.4697 90.5653 27.6364C90.5653 26.9508 90.7509 26.3504 91.1222 25.8352C91.4972 25.3201 92.0066 24.9205 92.6506 24.6364C93.2945 24.3485 94.0237 24.2045 94.8381 24.2045C95.6638 24.2045 96.3873 24.3485 97.0085 24.6364C97.6335 24.9205 98.1241 25.3163 98.4801 25.8239C98.8362 26.3277 99.0199 26.9072 99.0312 27.5625H97.0028Z" fill="#433F4C"/>
<path d="M25.0795 82.1591C24.322 82.1591 23.6439 82.017 23.0455 81.733C22.447 81.4451 21.9716 81.0511 21.6193 80.5511C21.2708 80.0511 21.0852 79.4792 21.0625 78.8352H23.108C23.1458 79.3125 23.3523 79.7027 23.7273 80.0057C24.1023 80.3049 24.553 80.4545 25.0795 80.4545C25.4924 80.4545 25.8598 80.3598 26.1818 80.1705C26.5038 79.9811 26.7576 79.7178 26.9432 79.3807C27.1288 79.0436 27.2197 78.6591 27.2159 78.2273C27.2197 77.7879 27.1269 77.3977 26.9375 77.0568C26.7481 76.7159 26.4886 76.4489 26.1591 76.2557C25.8295 76.0587 25.4508 75.9602 25.0227 75.9602C24.6742 75.9564 24.3314 76.0208 23.9943 76.1534C23.6572 76.286 23.3902 76.4602 23.1932 76.6761L21.2898 76.3636L21.8977 70.3636H28.6477V72.125H23.642L23.3068 75.2102H23.375C23.5909 74.9564 23.8958 74.7462 24.2898 74.5795C24.6837 74.4091 25.1155 74.3239 25.5852 74.3239C26.2898 74.3239 26.9186 74.4905 27.4716 74.8239C28.0246 75.1534 28.4602 75.608 28.7784 76.1875C29.0966 76.767 29.2557 77.4299 29.2557 78.1761C29.2557 78.9451 29.0777 79.6307 28.7216 80.233C28.3693 80.8314 27.8788 81.303 27.25 81.6477C26.625 81.9886 25.9015 82.1591 25.0795 82.1591ZM35.4205 82.1591C34.8636 82.1553 34.3201 82.0587 33.7898 81.8693C33.2595 81.6761 32.7822 81.3636 32.358 80.9318C31.9337 80.4962 31.5966 79.9186 31.3466 79.1989C31.0966 78.4754 30.9735 77.5795 30.9773 76.5114C30.9773 75.5152 31.0833 74.6269 31.2955 73.8466C31.5076 73.0663 31.8125 72.4072 32.2102 71.8693C32.608 71.3277 33.0871 70.9148 33.6477 70.6307C34.2121 70.3466 34.8428 70.2045 35.5398 70.2045C36.2708 70.2045 36.9186 70.3485 37.483 70.6364C38.0511 70.9242 38.5095 71.3182 38.858 71.8182C39.2064 72.3144 39.4223 72.875 39.5057 73.5H37.4318C37.3258 73.053 37.108 72.697 36.7784 72.4318C36.4527 72.1629 36.0398 72.0284 35.5398 72.0284C34.733 72.0284 34.1117 72.3788 33.6761 73.0795C33.2443 73.7803 33.0265 74.7424 33.0227 75.9659H33.1023C33.2879 75.6326 33.5284 75.3466 33.8239 75.108C34.1193 74.8693 34.4527 74.6856 34.8239 74.5568C35.1989 74.4242 35.5947 74.358 36.0114 74.358C36.6932 74.358 37.3049 74.5208 37.8466 74.8466C38.392 75.1723 38.8239 75.6212 39.142 76.1932C39.4602 76.7614 39.6174 77.4129 39.6136 78.1477C39.6174 78.9129 39.4432 79.6004 39.0909 80.2102C38.7386 80.8163 38.2481 81.2936 37.6193 81.642C36.9905 81.9905 36.2576 82.1629 35.4205 82.1591ZM35.4091 80.4545C35.822 80.4545 36.1913 80.3542 36.517 80.1534C36.8428 79.9527 37.1004 79.6818 37.2898 79.3409C37.4792 79 37.572 78.6174 37.5682 78.1932C37.572 77.7765 37.4811 77.3996 37.2955 77.0625C37.1136 76.7254 36.8617 76.4583 36.5398 76.2614C36.2178 76.0644 35.8504 75.9659 35.4375 75.9659C35.1307 75.9659 34.8447 76.0246 34.5795 76.142C34.3144 76.2595 34.0833 76.4223 33.8864 76.6307C33.6894 76.8352 33.5341 77.0739 33.4205 77.3466C33.3106 77.6155 33.2538 77.9034 33.25 78.2102C33.2538 78.6155 33.3485 78.9886 33.5341 79.3295C33.7197 79.6705 33.9754 79.9432 34.3011 80.1477C34.6269 80.3523 34.9962 80.4545 35.4091 80.4545ZM43.4716 80.4091L43.3977 81.0341C43.3447 81.5114 43.25 81.9962 43.1136 82.4886C42.9811 82.9848 42.8409 83.4413 42.6932 83.858C42.5455 84.2746 42.4261 84.6023 42.3352 84.8409H40.9489C41.0019 84.6098 41.0739 84.2955 41.1648 83.8977C41.2595 83.5 41.3504 83.053 41.4375 82.5568C41.5246 82.0606 41.5833 81.5568 41.6136 81.0455L41.6534 80.4091H43.4716ZM49.6577 82.1591C48.9001 82.1591 48.2221 82.017 47.6236 81.733C47.0251 81.4451 46.5497 81.0511 46.1974 80.5511C45.849 80.0511 45.6634 79.4792 45.6406 78.8352H47.6861C47.724 79.3125 47.9304 79.7027 48.3054 80.0057C48.6804 80.3049 49.1312 80.4545 49.6577 80.4545C50.0705 80.4545 50.438 80.3598 50.7599 80.1705C51.0819 79.9811 51.3357 79.7178 51.5213 79.3807C51.7069 79.0436 51.7978 78.6591 51.794 78.2273C51.7978 77.7879 51.705 77.3977 51.5156 77.0568C51.3262 76.7159 51.0668 76.4489 50.7372 76.2557C50.4077 76.0587 50.0289 75.9602 49.6009 75.9602C49.2524 75.9564 48.9096 76.0208 48.5724 76.1534C48.2353 76.286 47.9683 76.4602 47.7713 76.6761L45.8679 76.3636L46.4759 70.3636H53.2259V72.125H48.2202L47.8849 75.2102H47.9531C48.169 74.9564 48.474 74.7462 48.8679 74.5795C49.2618 74.4091 49.6937 74.3239 50.1634 74.3239C50.8679 74.3239 51.4967 74.4905 52.0497 74.8239C52.6027 75.1534 53.0384 75.608 53.3565 76.1875C53.6747 76.767 53.8338 77.4299 53.8338 78.1761C53.8338 78.9451 53.6558 79.6307 53.2997 80.233C52.9474 80.8314 52.4569 81.303 51.8281 81.6477C51.2031 81.9886 50.4796 82.1591 49.6577 82.1591ZM59.777 70.2045C60.3338 70.2083 60.8755 70.3068 61.402 70.5C61.9323 70.6894 62.4096 71 62.8338 71.4318C63.258 71.8598 63.5952 72.4337 63.8452 73.1534C64.0952 73.8731 64.2202 74.7633 64.2202 75.8239C64.224 76.8239 64.1179 77.7178 63.902 78.5057C63.6899 79.2898 63.3849 79.9527 62.9872 80.4943C62.5895 81.036 62.1103 81.4489 61.5497 81.733C60.9891 82.017 60.3584 82.1591 59.6577 82.1591C58.9228 82.1591 58.2713 82.0152 57.7031 81.7273C57.1387 81.4394 56.6823 81.0455 56.3338 80.5455C55.9853 80.0455 55.7713 79.4735 55.6918 78.8295H57.7656C57.8717 79.2917 58.0876 79.6591 58.4134 79.9318C58.7429 80.2008 59.1577 80.3352 59.6577 80.3352C60.4645 80.3352 61.0857 79.9848 61.5213 79.2841C61.9569 78.5833 62.1747 77.6098 62.1747 76.3636H62.0952C61.9096 76.697 61.669 76.9848 61.3736 77.2273C61.0781 77.4659 60.7429 77.6496 60.3679 77.7784C59.9967 77.9072 59.6027 77.9716 59.1861 77.9716C58.5043 77.9716 57.8906 77.8087 57.3452 77.483C56.8035 77.1572 56.3736 76.7102 56.0554 76.142C55.741 75.5739 55.5819 74.9242 55.5781 74.1932C55.5781 73.4356 55.7524 72.7557 56.1009 72.1534C56.4531 71.5473 56.9437 71.0701 57.5724 70.7216C58.2012 70.3693 58.9361 70.197 59.777 70.2045ZM59.7827 71.9091C59.3736 71.9091 59.0043 72.0095 58.6747 72.2102C58.349 72.4072 58.0914 72.6761 57.902 73.017C57.7164 73.3542 57.6236 73.7311 57.6236 74.1477C57.6274 74.5606 57.7202 74.9356 57.902 75.2727C58.0876 75.6098 58.3395 75.8769 58.6577 76.0739C58.9796 76.2708 59.3471 76.3693 59.7599 76.3693C60.0668 76.3693 60.3527 76.3106 60.6179 76.1932C60.883 76.0758 61.1141 75.9129 61.3111 75.7045C61.5118 75.4924 61.6671 75.2519 61.777 74.983C61.8906 74.714 61.9455 74.4299 61.9418 74.1307C61.9418 73.733 61.8471 73.3655 61.6577 73.0284C61.4721 72.6913 61.2164 72.4205 60.8906 72.2159C60.5687 72.0114 60.1993 71.9091 59.7827 71.9091ZM70.4134 82.2216C69.4777 82.2216 68.6747 81.9848 68.0043 81.5114C67.3376 81.0341 66.8243 80.3466 66.4645 79.4489C66.1084 78.5473 65.9304 77.4621 65.9304 76.1932C65.9342 74.9242 66.1141 73.8447 66.4702 72.9545C66.83 72.0606 67.3433 71.3788 68.0099 70.9091C68.6804 70.4394 69.4815 70.2045 70.4134 70.2045C71.3452 70.2045 72.1463 70.4394 72.8168 70.9091C73.4872 71.3788 74.0005 72.0606 74.3565 72.9545C74.7164 73.8485 74.8963 74.928 74.8963 76.1932C74.8963 77.4659 74.7164 78.553 74.3565 79.4545C74.0005 80.3523 73.4872 81.0379 72.8168 81.5114C72.1501 81.9848 71.349 82.2216 70.4134 82.2216ZM70.4134 80.4432C71.1406 80.4432 71.7145 80.0852 72.1349 79.3693C72.5592 78.6496 72.7713 77.5909 72.7713 76.1932C72.7713 75.2689 72.6747 74.4924 72.4815 73.8636C72.2884 73.2348 72.0156 72.7614 71.6634 72.4432C71.3111 72.1212 70.8944 71.9602 70.4134 71.9602C69.6899 71.9602 69.1179 72.3201 68.6974 73.0398C68.277 73.7557 68.0649 74.8068 68.0611 76.1932C68.0573 77.1212 68.1501 77.9015 68.3395 78.5341C68.5327 79.1667 68.8054 79.6439 69.1577 79.9659C69.5099 80.2841 69.9285 80.4432 70.4134 80.4432Z" fill="#433F4C"/>
<path d="M83.4773 123.273V124.864H78.3182V123.273H83.4773ZM79.608 132V122.449C79.608 121.862 79.7292 121.373 79.9716 120.983C80.2178 120.593 80.5473 120.301 80.9602 120.108C81.3731 119.915 81.8314 119.818 82.3352 119.818C82.6913 119.818 83.0076 119.847 83.2841 119.903C83.5606 119.96 83.7652 120.011 83.8977 120.057L83.4886 121.648C83.4015 121.621 83.2917 121.595 83.1591 121.568C83.0265 121.538 82.8788 121.523 82.7159 121.523C82.3333 121.523 82.0625 121.616 81.9034 121.801C81.7481 121.983 81.6705 122.244 81.6705 122.585V132H79.608ZM85.0881 132V123.273H87.0824V124.727H87.1733C87.3324 124.223 87.6051 123.835 87.9915 123.562C88.3816 123.286 88.8267 123.148 89.3267 123.148C89.4403 123.148 89.5672 123.153 89.7074 123.165C89.8513 123.172 89.9706 123.186 90.0653 123.205V125.097C89.9782 125.066 89.84 125.04 89.6506 125.017C89.465 124.991 89.285 124.977 89.1108 124.977C88.7358 124.977 88.3987 125.059 88.0994 125.222C87.804 125.381 87.571 125.602 87.4006 125.886C87.2301 126.17 87.1449 126.498 87.1449 126.869V132H85.0881ZM94.8793 132.17C94.027 132.17 93.2884 131.983 92.6634 131.608C92.0384 131.233 91.5535 130.708 91.2088 130.034C90.8679 129.36 90.6974 128.572 90.6974 127.67C90.6974 126.769 90.8679 125.979 91.2088 125.301C91.5535 124.623 92.0384 124.097 92.6634 123.722C93.2884 123.347 94.027 123.159 94.8793 123.159C95.7315 123.159 96.4702 123.347 97.0952 123.722C97.7202 124.097 98.2031 124.623 98.544 125.301C98.8887 125.979 99.0611 126.769 99.0611 127.67C99.0611 128.572 98.8887 129.36 98.544 130.034C98.2031 130.708 97.7202 131.233 97.0952 131.608C96.4702 131.983 95.7315 132.17 94.8793 132.17ZM94.8906 130.523C95.3527 130.523 95.7391 130.396 96.0497 130.142C96.3603 129.884 96.5914 129.54 96.7429 129.108C96.8982 128.676 96.9759 128.195 96.9759 127.665C96.9759 127.131 96.8982 126.648 96.7429 126.216C96.5914 125.78 96.3603 125.434 96.0497 125.176C95.7391 124.919 95.3527 124.79 94.8906 124.79C94.4171 124.79 94.0232 124.919 93.7088 125.176C93.3982 125.434 93.1652 125.78 93.0099 126.216C92.8584 126.648 92.7827 127.131 92.7827 127.665C92.7827 128.195 92.8584 128.676 93.0099 129.108C93.1652 129.54 93.3982 129.884 93.7088 130.142C94.0232 130.396 94.4171 130.523 94.8906 130.523ZM100.807 132V123.273H102.773V124.756H102.875C103.057 124.256 103.358 123.866 103.778 123.585C104.199 123.301 104.701 123.159 105.284 123.159C105.875 123.159 106.373 123.303 106.778 123.591C107.188 123.875 107.475 124.263 107.642 124.756H107.733C107.926 124.271 108.252 123.884 108.71 123.597C109.172 123.305 109.72 123.159 110.352 123.159C111.155 123.159 111.811 123.413 112.318 123.92C112.826 124.428 113.08 125.169 113.08 126.142V132H111.017V126.46C111.017 125.919 110.873 125.523 110.585 125.273C110.297 125.019 109.945 124.892 109.528 124.892C109.032 124.892 108.644 125.047 108.364 125.358C108.087 125.665 107.949 126.064 107.949 126.557V132H105.932V126.375C105.932 125.924 105.795 125.564 105.523 125.295C105.254 125.027 104.902 124.892 104.466 124.892C104.17 124.892 103.902 124.968 103.659 125.119C103.417 125.267 103.223 125.477 103.08 125.75C102.936 126.019 102.864 126.333 102.864 126.693V132H100.807ZM123.158 132.159C122.4 132.159 121.722 132.017 121.124 131.733C120.525 131.445 120.05 131.051 119.697 130.551C119.349 130.051 119.163 129.479 119.141 128.835H121.186C121.224 129.312 121.43 129.703 121.805 130.006C122.18 130.305 122.631 130.455 123.158 130.455C123.571 130.455 123.938 130.36 124.26 130.17C124.582 129.981 124.836 129.718 125.021 129.381C125.207 129.044 125.298 128.659 125.294 128.227C125.298 127.788 125.205 127.398 125.016 127.057C124.826 126.716 124.567 126.449 124.237 126.256C123.908 126.059 123.529 125.96 123.101 125.96C122.752 125.956 122.41 126.021 122.072 126.153C121.735 126.286 121.468 126.46 121.271 126.676L119.368 126.364L119.976 120.364H126.726V122.125H121.72L121.385 125.21H121.453C121.669 124.956 121.974 124.746 122.368 124.58C122.762 124.409 123.194 124.324 123.663 124.324C124.368 124.324 124.997 124.491 125.55 124.824C126.103 125.153 126.538 125.608 126.857 126.188C127.175 126.767 127.334 127.43 127.334 128.176C127.334 128.945 127.156 129.631 126.8 130.233C126.447 130.831 125.957 131.303 125.328 131.648C124.703 131.989 123.98 132.159 123.158 132.159ZM133.499 132.159C132.942 132.155 132.398 132.059 131.868 131.869C131.338 131.676 130.86 131.364 130.436 130.932C130.012 130.496 129.675 129.919 129.425 129.199C129.175 128.475 129.052 127.58 129.055 126.511C129.055 125.515 129.161 124.627 129.374 123.847C129.586 123.066 129.891 122.407 130.288 121.869C130.686 121.328 131.165 120.915 131.726 120.631C132.29 120.347 132.921 120.205 133.618 120.205C134.349 120.205 134.997 120.348 135.561 120.636C136.129 120.924 136.588 121.318 136.936 121.818C137.285 122.314 137.5 122.875 137.584 123.5H135.51C135.404 123.053 135.186 122.697 134.857 122.432C134.531 122.163 134.118 122.028 133.618 122.028C132.811 122.028 132.19 122.379 131.754 123.08C131.322 123.78 131.105 124.742 131.101 125.966H131.18C131.366 125.633 131.607 125.347 131.902 125.108C132.197 124.869 132.531 124.686 132.902 124.557C133.277 124.424 133.673 124.358 134.089 124.358C134.771 124.358 135.383 124.521 135.925 124.847C136.47 125.172 136.902 125.621 137.22 126.193C137.538 126.761 137.696 127.413 137.692 128.148C137.696 128.913 137.521 129.6 137.169 130.21C136.817 130.816 136.326 131.294 135.697 131.642C135.069 131.991 134.336 132.163 133.499 132.159ZM133.487 130.455C133.9 130.455 134.269 130.354 134.595 130.153C134.921 129.953 135.179 129.682 135.368 129.341C135.557 129 135.65 128.617 135.646 128.193C135.65 127.777 135.559 127.4 135.374 127.062C135.192 126.725 134.94 126.458 134.618 126.261C134.296 126.064 133.929 125.966 133.516 125.966C133.209 125.966 132.923 126.025 132.658 126.142C132.393 126.259 132.161 126.422 131.964 126.631C131.768 126.835 131.612 127.074 131.499 127.347C131.389 127.616 131.332 127.903 131.328 128.21C131.332 128.616 131.427 128.989 131.612 129.33C131.798 129.67 132.054 129.943 132.379 130.148C132.705 130.352 133.074 130.455 133.487 130.455ZM141.55 130.409L141.476 131.034C141.423 131.511 141.328 131.996 141.192 132.489C141.059 132.985 140.919 133.441 140.771 133.858C140.624 134.275 140.504 134.602 140.413 134.841H139.027C139.08 134.61 139.152 134.295 139.243 133.898C139.338 133.5 139.429 133.053 139.516 132.557C139.603 132.061 139.661 131.557 139.692 131.045L139.732 130.409H141.55ZM147.736 132.159C146.978 132.159 146.3 132.017 145.702 131.733C145.103 131.445 144.628 131.051 144.276 130.551C143.927 130.051 143.741 129.479 143.719 128.835H145.764C145.802 129.312 146.009 129.703 146.384 130.006C146.759 130.305 147.209 130.455 147.736 130.455C148.149 130.455 148.516 130.36 148.838 130.17C149.16 129.981 149.414 129.718 149.599 129.381C149.785 129.044 149.876 128.659 149.872 128.227C149.876 127.788 149.783 127.398 149.594 127.057C149.404 126.716 149.145 126.449 148.815 126.256C148.486 126.059 148.107 125.96 147.679 125.96C147.33 125.956 146.988 126.021 146.651 126.153C146.313 126.286 146.046 126.46 145.849 126.676L143.946 126.364L144.554 120.364H151.304V122.125H146.298L145.963 125.21H146.031C146.247 124.956 146.552 124.746 146.946 124.58C147.34 124.409 147.772 124.324 148.241 124.324C148.946 124.324 149.575 124.491 150.128 124.824C150.681 125.153 151.116 125.608 151.435 126.188C151.753 126.767 151.912 127.43 151.912 128.176C151.912 128.945 151.734 129.631 151.378 130.233C151.026 130.831 150.535 131.303 149.906 131.648C149.281 131.989 148.558 132.159 147.736 132.159ZM157.855 120.205C158.412 120.208 158.954 120.307 159.48 120.5C160.01 120.689 160.488 121 160.912 121.432C161.336 121.86 161.673 122.434 161.923 123.153C162.173 123.873 162.298 124.763 162.298 125.824C162.302 126.824 162.196 127.718 161.98 128.506C161.768 129.29 161.463 129.953 161.065 130.494C160.668 131.036 160.188 131.449 159.628 131.733C159.067 132.017 158.437 132.159 157.736 132.159C157.001 132.159 156.349 132.015 155.781 131.727C155.217 131.439 154.76 131.045 154.412 130.545C154.063 130.045 153.849 129.473 153.77 128.83H155.844C155.95 129.292 156.166 129.659 156.491 129.932C156.821 130.201 157.236 130.335 157.736 130.335C158.543 130.335 159.164 129.985 159.599 129.284C160.035 128.583 160.253 127.61 160.253 126.364H160.173C159.988 126.697 159.747 126.985 159.452 127.227C159.156 127.466 158.821 127.65 158.446 127.778C158.075 127.907 157.681 127.972 157.264 127.972C156.582 127.972 155.969 127.809 155.423 127.483C154.882 127.157 154.452 126.71 154.134 126.142C153.819 125.574 153.66 124.924 153.656 124.193C153.656 123.436 153.83 122.756 154.179 122.153C154.531 121.547 155.022 121.07 155.651 120.722C156.279 120.369 157.014 120.197 157.855 120.205ZM157.861 121.909C157.452 121.909 157.082 122.009 156.753 122.21C156.427 122.407 156.17 122.676 155.98 123.017C155.795 123.354 155.702 123.731 155.702 124.148C155.705 124.561 155.798 124.936 155.98 125.273C156.166 125.61 156.418 125.877 156.736 126.074C157.058 126.271 157.425 126.369 157.838 126.369C158.145 126.369 158.431 126.311 158.696 126.193C158.961 126.076 159.192 125.913 159.389 125.705C159.59 125.492 159.745 125.252 159.855 124.983C159.969 124.714 160.024 124.43 160.02 124.131C160.02 123.733 159.925 123.366 159.736 123.028C159.55 122.691 159.295 122.42 158.969 122.216C158.647 122.011 158.277 121.909 157.861 121.909ZM168.491 132.222C167.556 132.222 166.753 131.985 166.082 131.511C165.416 131.034 164.902 130.347 164.543 129.449C164.187 128.547 164.009 127.462 164.009 126.193C164.012 124.924 164.192 123.845 164.548 122.955C164.908 122.061 165.421 121.379 166.088 120.909C166.759 120.439 167.56 120.205 168.491 120.205C169.423 120.205 170.224 120.439 170.895 120.909C171.565 121.379 172.079 122.061 172.435 122.955C172.795 123.848 172.974 124.928 172.974 126.193C172.974 127.466 172.795 128.553 172.435 129.455C172.079 130.352 171.565 131.038 170.895 131.511C170.228 131.985 169.427 132.222 168.491 132.222ZM168.491 130.443C169.219 130.443 169.793 130.085 170.213 129.369C170.637 128.65 170.849 127.591 170.849 126.193C170.849 125.269 170.753 124.492 170.56 123.864C170.366 123.235 170.094 122.761 169.741 122.443C169.389 122.121 168.973 121.96 168.491 121.96C167.768 121.96 167.196 122.32 166.776 123.04C166.355 123.756 166.143 124.807 166.139 126.193C166.135 127.121 166.228 127.902 166.418 128.534C166.611 129.167 166.884 129.644 167.236 129.966C167.588 130.284 168.007 130.443 168.491 130.443Z" fill="#433F4C"/>
<g filter="url(#filter0_d_46_493)">
<rect x="20" y="113" width="49" height="26" rx="10" fill="#04F255" fill-opacity="0.3" shape-rendering="crispEdges"/>
<path d="M41.0241 131.139C40.285 131.139 39.6288 131.015 39.0554 130.766C38.4853 130.518 38.0379 130.178 37.7131 129.747C37.3916 129.313 37.2325 128.821 37.2358 128.271C37.2325 127.843 37.3253 127.45 37.5142 127.092C37.7031 126.734 37.9583 126.436 38.2798 126.197C38.6046 125.955 38.9659 125.801 39.3636 125.735V125.665C38.84 125.549 38.4157 125.283 38.0909 124.865C37.7694 124.444 37.6103 123.959 37.6136 123.408C37.6103 122.885 37.7562 122.417 38.0511 122.006C38.3461 121.595 38.7505 121.272 39.2642 121.037C39.7779 120.798 40.3646 120.679 41.0241 120.679C41.6771 120.679 42.2588 120.798 42.7692 121.037C43.2829 121.272 43.6873 121.595 43.9822 122.006C44.2805 122.417 44.4297 122.885 44.4297 123.408C44.4297 123.959 44.2656 124.444 43.9375 124.865C43.6127 125.283 43.1934 125.549 42.6797 125.665V125.735C43.0774 125.801 43.4354 125.955 43.7536 126.197C44.075 126.436 44.3303 126.734 44.5192 127.092C44.7114 127.45 44.8075 127.843 44.8075 128.271C44.8075 128.821 44.6451 129.313 44.3203 129.747C43.9955 130.178 43.5481 130.518 42.978 130.766C42.4112 131.015 41.7599 131.139 41.0241 131.139ZM41.0241 129.717C41.4053 129.717 41.7367 129.653 42.0185 129.523C42.3002 129.391 42.5189 129.205 42.6747 128.967C42.8305 128.728 42.91 128.453 42.9134 128.141C42.91 127.817 42.8255 127.53 42.6598 127.281C42.4974 127.029 42.2737 126.832 41.9886 126.69C41.7069 126.547 41.3854 126.476 41.0241 126.476C40.6596 126.476 40.3348 126.547 40.0497 126.69C39.7647 126.832 39.5393 127.029 39.3736 127.281C39.2112 127.53 39.1316 127.817 39.1349 128.141C39.1316 128.453 39.2079 128.728 39.3636 128.967C39.5194 129.202 39.7382 129.386 40.0199 129.518C40.3049 129.651 40.6397 129.717 41.0241 129.717ZM41.0241 125.079C41.3357 125.079 41.6108 125.016 41.8494 124.89C42.0914 124.764 42.282 124.588 42.4212 124.363C42.5604 124.138 42.6316 123.877 42.6349 123.582C42.6316 123.291 42.562 123.036 42.4261 122.817C42.2902 122.595 42.1013 122.424 41.8594 122.305C41.6174 122.182 41.339 122.121 41.0241 122.121C40.7027 122.121 40.4193 122.182 40.174 122.305C39.9321 122.424 39.7431 122.595 39.6072 122.817C39.4747 123.036 39.41 123.291 39.4134 123.582C39.41 123.877 39.4763 124.138 39.6122 124.363C39.7514 124.585 39.942 124.761 40.1839 124.89C40.4292 125.016 40.7093 125.079 41.0241 125.079ZM51.8858 129.091V128.554C51.8858 128.16 51.9687 127.797 52.1344 127.465C52.3034 127.134 52.5487 126.867 52.8702 126.665C53.1917 126.463 53.5811 126.362 54.0385 126.362C54.5092 126.362 54.9036 126.463 55.2218 126.665C55.54 126.864 55.7802 127.129 55.9426 127.46C56.1084 127.792 56.1912 128.156 56.1912 128.554V129.091C56.1912 129.485 56.1084 129.848 55.9426 130.18C55.7769 130.511 55.5333 130.778 55.2118 130.98C54.8936 131.182 54.5025 131.283 54.0385 131.283C53.5745 131.283 53.1818 131.182 52.8603 130.98C52.5388 130.778 52.2952 130.511 52.1294 130.18C51.967 129.848 51.8858 129.485 51.8858 129.091ZM53.1834 128.554V129.091C53.1834 129.353 53.2464 129.593 53.3723 129.812C53.4983 130.031 53.7203 130.14 54.0385 130.14C54.36 130.14 54.5804 130.032 54.6998 129.817C54.8224 129.598 54.8837 129.356 54.8837 129.091V128.554C54.8837 128.289 54.8257 128.047 54.7097 127.828C54.5937 127.606 54.37 127.495 54.0385 127.495C53.727 127.495 53.5066 127.606 53.3773 127.828C53.248 128.047 53.1834 128.289 53.1834 128.554ZM46.7104 123.264V122.727C46.7104 122.33 46.7949 121.965 46.964 121.634C47.133 121.302 47.3783 121.037 47.6998 120.838C48.0212 120.636 48.4107 120.535 48.8681 120.535C49.3354 120.535 49.7282 120.636 50.0463 120.838C50.3678 121.037 50.6098 121.302 50.7722 121.634C50.9346 121.965 51.0158 122.33 51.0158 122.727V123.264C51.0158 123.662 50.9329 124.027 50.7672 124.358C50.6048 124.686 50.3629 124.95 50.0414 125.148C49.7199 125.347 49.3288 125.447 48.8681 125.447C48.4007 125.447 48.0063 125.347 47.6848 125.148C47.3667 124.95 47.1247 124.684 46.959 124.353C46.7933 124.022 46.7104 123.659 46.7104 123.264ZM48.0179 122.727V123.264C48.0179 123.529 48.0792 123.771 48.2019 123.99C48.3278 124.205 48.5499 124.313 48.8681 124.313C49.1863 124.313 49.405 124.205 49.5243 123.99C49.647 123.771 49.7083 123.529 49.7083 123.264V122.727C49.7083 122.462 49.6503 122.22 49.5343 122.001C49.4183 121.779 49.1962 121.668 48.8681 121.668C48.5532 121.668 48.3328 121.779 48.2069 122.001C48.0809 122.223 48.0179 122.465 48.0179 122.727ZM47.2772 131L54.2772 120.818H55.5201L48.5201 131H47.2772Z" fill="#04F255"/>
</g>
<g filter="url(#filter1_d_46_493)">
<path d="M155 74L159.525 65.8874C160.287 64.5196 162.255 64.5196 163.018 65.8874L166.038 71.3013C166.744 72.5681 168.522 72.6851 169.388 71.5217L173.763 65.6479C173.903 65.4594 174.076 65.2971 174.272 65.1685L182.095 60.0538C183.085 59.4063 184.418 59.7553 184.964 60.8051L190.223 70.9201C190.934 72.2876 192.859 72.3709 193.686 71.0701L199.091 62.5611C199.282 62.2616 199.548 62.0181 199.864 61.8556L219 52" stroke="url(#paint0_linear_46_493)" stroke-width="2" stroke-linecap="round" stroke-linejoin="round"/>
</g>
<rect x="1" y="1" width="246" height="158" rx="9" stroke="#CED6F0" stroke-width="2"/>
<defs>
<filter id="filter0_d_46_493" x="18" y="111" width="57" height="34" filterUnits="userSpaceOnUse" color-interpolation-filters="sRGB">
<feFlood flood-opacity="0" result="BackgroundImageFix"/>
<feColorMatrix in="SourceAlpha" type="matrix" values="0 0 0 0 0 0 0 0 0 0 0 0 0 0 0 0 0 0 127 0" result="hardAlpha"/>
<feOffset dx="2" dy="2"/>
<feGaussianBlur stdDeviation="2"/>
<feComposite in2="hardAlpha" operator="out"/>
<feColorMatrix type="matrix" values="0 0 0 0 0 0 0 0 0 0 0 0 0 0 0 0 0 0 0.25 0"/>
<feBlend mode="normal" in2="BackgroundImageFix" result="effect1_dropShadow_46_493"/>
<feBlend mode="normal" in="SourceGraphic" in2="effect1_dropShadow_46_493" result="shape"/>
</filter>
<filter id="filter1_d_46_493" x="154" y="50.9998" width="80.0004" height="38.0004" filterUnits="userSpaceOnUse" color-interpolation-filters="sRGB">
<feFlood flood-opacity="0" result="BackgroundImageFix"/>
<feColorMatrix in="SourceAlpha" type="matrix" values="0 0 0 0 0 0 0 0 0 0 0 0 0 0 0 0 0 0 127 0" result="hardAlpha"/>
<feOffset dx="10" dy="10"/>
<feGaussianBlur stdDeviation="2"/>
<feComposite in2="hardAlpha" operator="out"/>
<feColorMatrix type="matrix" values="0 0 0 0 0.0156863 0 0 0 0 0.94902 0 0 0 0 0.333333 0 0 0 1 0"/>
<feBlend mode="normal" in2="BackgroundImageFix" result="effect1_dropShadow_46_493"/>
<feBlend mode="normal" in="SourceGraphic" in2="effect1_dropShadow_46_493" result="shape"/>
</filter>
<linearGradient id="paint0_linear_46_493" x1="155" y1="74" x2="219" y2="74" gradientUnits="userSpaceOnUse">
<stop stop-color="#B4FBCC"/>
<stop offset="0.989583" stop-color="#04F255"/>
</linearGradient>
</defs>
</svg>
