<svg width="248" height="160" viewBox="0 0 248 160" fill="none" xmlns="http://www.w3.org/2000/svg">
<rect x="1" y="1" width="246" height="158" rx="9" fill="white"/>
<path d="M21.1477 36V24.3636H25.5114C26.4053 24.3636 27.1553 24.5303 27.7614 24.8636C28.3712 25.197 28.8314 25.6553 29.142 26.2386C29.4564 26.8182 29.6136 27.4773 29.6136 28.2159C29.6136 28.9621 29.4564 29.625 29.142 30.2045C28.8277 30.7841 28.3636 31.2405 27.75 31.5739C27.1364 31.9034 26.3807 32.0682 25.483 32.0682H22.5909V30.3352H25.1989C25.7216 30.3352 26.1496 30.2443 26.483 30.0625C26.8163 29.8807 27.0625 29.6307 27.2216 29.3125C27.3845 28.9943 27.4659 28.6288 27.4659 28.2159C27.4659 27.803 27.3845 27.4394 27.2216 27.125C27.0625 26.8106 26.8144 26.5663 26.4773 26.392C26.1439 26.214 25.714 26.125 25.1875 26.125H23.2557V36H21.1477ZM31.642 36H29.392L33.4886 24.3636H36.0909L40.1932 36H37.9432L34.8352 26.75H34.7443L31.642 36ZM31.7159 31.4375H37.8523V33.1307H31.7159V31.4375ZM48.9744 28.0795C48.8797 27.7727 48.7491 27.4981 48.5824 27.2557C48.4195 27.0095 48.2225 26.7992 47.9915 26.625C47.7642 26.4508 47.5028 26.3201 47.2074 26.233C46.9119 26.142 46.59 26.0966 46.2415 26.0966C45.6165 26.0966 45.0597 26.2538 44.571 26.5682C44.0824 26.8826 43.6979 27.3447 43.4176 27.9545C43.1411 28.5606 43.0028 29.2992 43.0028 30.1705C43.0028 31.0492 43.1411 31.7936 43.4176 32.4034C43.6941 33.0133 44.0786 33.4773 44.571 33.7955C45.0634 34.1098 45.6354 34.267 46.2869 34.267C46.8778 34.267 47.3892 34.1534 47.821 33.9261C48.2566 33.6989 48.5919 33.3769 48.8267 32.9602C49.0616 32.5398 49.179 32.0473 49.179 31.483L49.6562 31.5568H46.4972V29.9091H51.2188V31.3068C51.2188 32.303 51.0066 33.1648 50.5824 33.892C50.1581 34.6193 49.5748 35.1799 48.8324 35.5739C48.09 35.964 47.2377 36.1591 46.2756 36.1591C45.2036 36.1591 44.2623 35.9186 43.4517 35.4375C42.6449 34.9527 42.0142 34.2652 41.5597 33.375C41.1089 32.4811 40.8835 31.4205 40.8835 30.1932C40.8835 29.2538 41.0161 28.4148 41.2812 27.6761C41.5502 26.9375 41.9252 26.3106 42.4062 25.7955C42.8873 25.2765 43.4517 24.8826 44.0994 24.6136C44.7472 24.3409 45.4517 24.2045 46.2131 24.2045C46.857 24.2045 47.4574 24.2992 48.0142 24.4886C48.571 24.6742 49.0653 24.9394 49.4972 25.2841C49.9328 25.6288 50.2907 26.0379 50.571 26.5114C50.8513 26.9848 51.035 27.5076 51.1222 28.0795H48.9744ZM53.2571 36V24.3636H60.8253V26.1307H55.3651V29.2898H60.4332V31.0568H55.3651V34.233H60.8707V36H53.2571ZM68.5014 24.3636L71.5298 33.5227H71.6491L74.6719 24.3636H76.9901L72.8878 36H70.2855L66.1889 24.3636H68.5014ZM80.6307 24.3636V36H78.5227V24.3636H80.6307ZM82.9134 36V24.3636H90.4815V26.1307H85.0213V29.2898H90.0895V31.0568H85.0213V34.233H90.527V36H82.9134ZM95.081 36L91.7969 24.3636H94.0639L96.1605 32.9148H96.2685L98.5071 24.3636H100.57L102.814 32.9205H102.916L105.013 24.3636H107.28L103.996 36H101.916L99.5866 27.8352H99.4957L97.1605 36H95.081Z" fill="#433F4C"/>
<path d="M25.1705 82.1591C24.3258 82.1591 23.5758 82.017 22.9205 81.733C22.2689 81.4489 21.7576 81.0606 21.3864 80.5682C21.0189 80.072 20.8371 79.5095 20.8409 78.8807C20.8371 78.392 20.9432 77.9432 21.1591 77.5341C21.375 77.125 21.6667 76.7841 22.0341 76.5114C22.4053 76.2348 22.8182 76.0587 23.2727 75.983V75.9034C22.6742 75.7708 22.1894 75.4659 21.8182 74.9886C21.4508 74.5076 21.2689 73.9527 21.2727 73.3239C21.2689 72.7254 21.4356 72.1913 21.7727 71.7216C22.1098 71.2519 22.572 70.8826 23.1591 70.6136C23.7462 70.3409 24.4167 70.2045 25.1705 70.2045C25.9167 70.2045 26.5814 70.3409 27.1648 70.6136C27.7519 70.8826 28.214 71.2519 28.5511 71.7216C28.892 72.1913 29.0625 72.7254 29.0625 73.3239C29.0625 73.9527 28.875 74.5076 28.5 74.9886C28.1288 75.4659 27.6496 75.7708 27.0625 75.9034V75.983C27.517 76.0587 27.9261 76.2348 28.2898 76.5114C28.6572 76.7841 28.9489 77.125 29.1648 77.5341C29.3845 77.9432 29.4943 78.392 29.4943 78.8807C29.4943 79.5095 29.3087 80.072 28.9375 80.5682C28.5663 81.0606 28.0549 81.4489 27.4034 81.733C26.7557 82.017 26.0114 82.1591 25.1705 82.1591ZM25.1705 80.5341C25.6061 80.5341 25.9848 80.4602 26.3068 80.3125C26.6288 80.161 26.8788 79.9489 27.0568 79.6761C27.2348 79.4034 27.3258 79.089 27.3295 78.733C27.3258 78.3617 27.2292 78.0341 27.0398 77.75C26.8542 77.4621 26.5985 77.2367 26.2727 77.0739C25.9508 76.911 25.5833 76.8295 25.1705 76.8295C24.7538 76.8295 24.3826 76.911 24.0568 77.0739C23.7311 77.2367 23.4735 77.4621 23.2841 77.75C23.0985 78.0341 23.0076 78.3617 23.0114 78.733C23.0076 79.089 23.0947 79.4034 23.2727 79.6761C23.4508 79.9451 23.7008 80.1553 24.0227 80.3068C24.3485 80.4583 24.7311 80.5341 25.1705 80.5341ZM25.1705 75.233C25.5265 75.233 25.8409 75.161 26.1136 75.017C26.3902 74.8731 26.608 74.6723 26.767 74.4148C26.9261 74.1572 27.0076 73.8598 27.0114 73.5227C27.0076 73.1894 26.928 72.8977 26.7727 72.6477C26.6174 72.3939 26.4015 72.1989 26.125 72.0625C25.8485 71.9223 25.5303 71.8523 25.1705 71.8523C24.803 71.8523 24.4792 71.9223 24.1989 72.0625C23.9223 72.1989 23.7064 72.3939 23.5511 72.6477C23.3996 72.8977 23.3258 73.1894 23.3295 73.5227C23.3258 73.8598 23.4015 74.1572 23.5568 74.4148C23.7159 74.6686 23.9337 74.8693 24.2102 75.017C24.4905 75.161 24.8106 75.233 25.1705 75.233ZM35.4077 82.1591C34.6501 82.1591 33.9721 82.017 33.3736 81.733C32.7751 81.4451 32.2997 81.0511 31.9474 80.5511C31.599 80.0511 31.4134 79.4792 31.3906 78.8352H33.4361C33.474 79.3125 33.6804 79.7027 34.0554 80.0057C34.4304 80.3049 34.8812 80.4545 35.4077 80.4545C35.8205 80.4545 36.188 80.3598 36.5099 80.1705C36.8319 79.9811 37.0857 79.7178 37.2713 79.3807C37.4569 79.0436 37.5478 78.6591 37.544 78.2273C37.5478 77.7879 37.455 77.3977 37.2656 77.0568C37.0762 76.7159 36.8168 76.4489 36.4872 76.2557C36.1577 76.0587 35.7789 75.9602 35.3509 75.9602C35.0024 75.9564 34.6596 76.0208 34.3224 76.1534C33.9853 76.286 33.7183 76.4602 33.5213 76.6761L31.6179 76.3636L32.2259 70.3636H38.9759V72.125H33.9702L33.6349 75.2102H33.7031C33.919 74.9564 34.224 74.7462 34.6179 74.5795C35.0118 74.4091 35.4437 74.3239 35.9134 74.3239C36.6179 74.3239 37.2467 74.4905 37.7997 74.8239C38.3527 75.1534 38.7884 75.608 39.1065 76.1875C39.4247 76.767 39.5838 77.4299 39.5838 78.1761C39.5838 78.9451 39.4058 79.6307 39.0497 80.233C38.6974 80.8314 38.2069 81.303 37.5781 81.6477C36.9531 81.9886 36.2296 82.1591 35.4077 82.1591ZM43.5341 80.4091L43.4602 81.0341C43.4072 81.5114 43.3125 81.9962 43.1761 82.4886C43.0436 82.9848 42.9034 83.4413 42.7557 83.858C42.608 84.2746 42.4886 84.6023 42.3977 84.8409H41.0114C41.0644 84.6098 41.1364 84.2955 41.2273 83.8977C41.322 83.5 41.4129 83.053 41.5 82.5568C41.5871 82.0606 41.6458 81.5568 41.6761 81.0455L41.7159 80.4091H43.5341ZM49.6236 82.1591C49.0668 82.1553 48.5232 82.0587 47.9929 81.8693C47.4626 81.6761 46.9853 81.3636 46.5611 80.9318C46.1368 80.4962 45.7997 79.9186 45.5497 79.1989C45.2997 78.4754 45.1766 77.5795 45.1804 76.5114C45.1804 75.5152 45.2865 74.6269 45.4986 73.8466C45.7107 73.0663 46.0156 72.4072 46.4134 71.8693C46.8111 71.3277 47.2902 70.9148 47.8509 70.6307C48.4152 70.3466 49.0459 70.2045 49.7429 70.2045C50.474 70.2045 51.1217 70.3485 51.6861 70.6364C52.2543 70.9242 52.7126 71.3182 53.0611 71.8182C53.4096 72.3144 53.6255 72.875 53.7088 73.5H51.6349C51.5289 73.053 51.3111 72.697 50.9815 72.4318C50.6558 72.1629 50.2429 72.0284 49.7429 72.0284C48.9361 72.0284 48.3149 72.3788 47.8793 73.0795C47.4474 73.7803 47.2296 74.7424 47.2259 75.9659H47.3054C47.491 75.6326 47.7315 75.3466 48.027 75.108C48.3224 74.8693 48.6558 74.6856 49.027 74.5568C49.402 74.4242 49.7978 74.358 50.2145 74.358C50.8963 74.358 51.508 74.5208 52.0497 74.8466C52.5952 75.1723 53.027 75.6212 53.3452 76.1932C53.6634 76.7614 53.8205 77.4129 53.8168 78.1477C53.8205 78.9129 53.6463 79.6004 53.294 80.2102C52.9418 80.8163 52.4512 81.2936 51.8224 81.642C51.1937 81.9905 50.4607 82.1629 49.6236 82.1591ZM49.6122 80.4545C50.0251 80.4545 50.3944 80.3542 50.7202 80.1534C51.0459 79.9527 51.3035 79.6818 51.4929 79.3409C51.6823 79 51.7751 78.6174 51.7713 78.1932C51.7751 77.7765 51.6842 77.3996 51.4986 77.0625C51.3168 76.7254 51.0649 76.4583 50.7429 76.2614C50.4209 76.0644 50.0535 75.9659 49.6406 75.9659C49.3338 75.9659 49.0478 76.0246 48.7827 76.142C48.5175 76.2595 48.2865 76.4223 48.0895 76.6307C47.8925 76.8352 47.7372 77.0739 47.6236 77.3466C47.5137 77.6155 47.4569 77.9034 47.4531 78.2102C47.4569 78.6155 47.5516 78.9886 47.7372 79.3295C47.9228 79.6705 48.1785 79.9432 48.5043 80.1477C48.83 80.3523 49.1993 80.4545 49.6122 80.4545ZM59.8736 82.1591C59.0289 82.1591 58.2789 82.017 57.6236 81.733C56.9721 81.4489 56.4607 81.0606 56.0895 80.5682C55.7221 80.072 55.5402 79.5095 55.544 78.8807C55.5402 78.392 55.6463 77.9432 55.8622 77.5341C56.0781 77.125 56.3698 76.7841 56.7372 76.5114C57.1084 76.2348 57.5213 76.0587 57.9759 75.983V75.9034C57.3774 75.7708 56.8925 75.4659 56.5213 74.9886C56.1539 74.5076 55.9721 73.9527 55.9759 73.3239C55.9721 72.7254 56.1387 72.1913 56.4759 71.7216C56.813 71.2519 57.2751 70.8826 57.8622 70.6136C58.4493 70.3409 59.1198 70.2045 59.8736 70.2045C60.6198 70.2045 61.2846 70.3409 61.8679 70.6136C62.455 70.8826 62.9171 71.2519 63.2543 71.7216C63.5952 72.1913 63.7656 72.7254 63.7656 73.3239C63.7656 73.9527 63.5781 74.5076 63.2031 74.9886C62.8319 75.4659 62.3527 75.7708 61.7656 75.9034V75.983C62.2202 76.0587 62.6293 76.2348 62.9929 76.5114C63.3603 76.7841 63.652 77.125 63.8679 77.5341C64.0876 77.9432 64.1974 78.392 64.1974 78.8807C64.1974 79.5095 64.0118 80.072 63.6406 80.5682C63.2694 81.0606 62.758 81.4489 62.1065 81.733C61.4588 82.017 60.7145 82.1591 59.8736 82.1591ZM59.8736 80.5341C60.3092 80.5341 60.688 80.4602 61.0099 80.3125C61.3319 80.161 61.5819 79.9489 61.7599 79.6761C61.938 79.4034 62.0289 79.089 62.0327 78.733C62.0289 78.3617 61.9323 78.0341 61.7429 77.75C61.5573 77.4621 61.3016 77.2367 60.9759 77.0739C60.6539 76.911 60.2865 76.8295 59.8736 76.8295C59.4569 76.8295 59.0857 76.911 58.7599 77.0739C58.4342 77.2367 58.1766 77.4621 57.9872 77.75C57.8016 78.0341 57.7107 78.3617 57.7145 78.733C57.7107 79.089 57.7978 79.4034 57.9759 79.6761C58.1539 79.9451 58.4039 80.1553 58.7259 80.3068C59.0516 80.4583 59.4342 80.5341 59.8736 80.5341ZM59.8736 75.233C60.2296 75.233 60.544 75.161 60.8168 75.017C61.0933 74.8731 61.3111 74.6723 61.4702 74.4148C61.6293 74.1572 61.7107 73.8598 61.7145 73.5227C61.7107 73.1894 61.6312 72.8977 61.4759 72.6477C61.3205 72.3939 61.1046 72.1989 60.8281 72.0625C60.5516 71.9223 60.2334 71.8523 59.8736 71.8523C59.5062 71.8523 59.1823 71.9223 58.902 72.0625C58.6255 72.1989 58.4096 72.3939 58.2543 72.6477C58.1027 72.8977 58.0289 73.1894 58.0327 73.5227C58.0289 73.8598 58.1046 74.1572 58.2599 74.4148C58.419 74.6686 58.6368 74.8693 58.9134 75.017C59.1937 75.161 59.5137 75.233 59.8736 75.233ZM70.3665 82.2216C69.4309 82.2216 68.6278 81.9848 67.9574 81.5114C67.2907 81.0341 66.7775 80.3466 66.4176 79.4489C66.0616 78.5473 65.8835 77.4621 65.8835 76.1932C65.8873 74.9242 66.0672 73.8447 66.4233 72.9545C66.7831 72.0606 67.2964 71.3788 67.9631 70.9091C68.6335 70.4394 69.4347 70.2045 70.3665 70.2045C71.2983 70.2045 72.0994 70.4394 72.7699 70.9091C73.4403 71.3788 73.9536 72.0606 74.3097 72.9545C74.6695 73.8485 74.8494 74.928 74.8494 76.1932C74.8494 77.4659 74.6695 78.553 74.3097 79.4545C73.9536 80.3523 73.4403 81.0379 72.7699 81.5114C72.1032 81.9848 71.3021 82.2216 70.3665 82.2216ZM70.3665 80.4432C71.0938 80.4432 71.6676 80.0852 72.0881 79.3693C72.5123 78.6496 72.7244 77.5909 72.7244 76.1932C72.7244 75.2689 72.6278 74.4924 72.4347 73.8636C72.2415 73.2348 71.9688 72.7614 71.6165 72.4432C71.2642 72.1212 70.8475 71.9602 70.3665 71.9602C69.643 71.9602 69.071 72.3201 68.6506 73.0398C68.2301 73.7557 68.018 74.8068 68.0142 76.1932C68.0104 77.1212 68.1032 77.9015 68.2926 78.5341C68.4858 79.1667 68.7585 79.6439 69.1108 79.9659C69.4631 80.2841 69.8816 80.4432 70.3665 80.4432Z" fill="#433F4C"/>
<path d="M83.4773 123.273V124.864H78.3182V123.273H83.4773ZM79.608 132V122.449C79.608 121.862 79.7292 121.373 79.9716 120.983C80.2178 120.593 80.5473 120.301 80.9602 120.108C81.3731 119.915 81.8314 119.818 82.3352 119.818C82.6913 119.818 83.0076 119.847 83.2841 119.903C83.5606 119.96 83.7652 120.011 83.8977 120.057L83.4886 121.648C83.4015 121.621 83.2917 121.595 83.1591 121.568C83.0265 121.538 82.8788 121.523 82.7159 121.523C82.3333 121.523 82.0625 121.616 81.9034 121.801C81.7481 121.983 81.6705 122.244 81.6705 122.585V132H79.608ZM85.0881 132V123.273H87.0824V124.727H87.1733C87.3324 124.223 87.6051 123.835 87.9915 123.562C88.3816 123.286 88.8267 123.148 89.3267 123.148C89.4403 123.148 89.5672 123.153 89.7074 123.165C89.8513 123.172 89.9706 123.186 90.0653 123.205V125.097C89.9782 125.066 89.84 125.04 89.6506 125.017C89.465 124.991 89.285 124.977 89.1108 124.977C88.7358 124.977 88.3987 125.059 88.0994 125.222C87.804 125.381 87.571 125.602 87.4006 125.886C87.2301 126.17 87.1449 126.498 87.1449 126.869V132H85.0881ZM94.8793 132.17C94.027 132.17 93.2884 131.983 92.6634 131.608C92.0384 131.233 91.5535 130.708 91.2088 130.034C90.8679 129.36 90.6974 128.572 90.6974 127.67C90.6974 126.769 90.8679 125.979 91.2088 125.301C91.5535 124.623 92.0384 124.097 92.6634 123.722C93.2884 123.347 94.027 123.159 94.8793 123.159C95.7315 123.159 96.4702 123.347 97.0952 123.722C97.7202 124.097 98.2031 124.623 98.544 125.301C98.8887 125.979 99.0611 126.769 99.0611 127.67C99.0611 128.572 98.8887 129.36 98.544 130.034C98.2031 130.708 97.7202 131.233 97.0952 131.608C96.4702 131.983 95.7315 132.17 94.8793 132.17ZM94.8906 130.523C95.3527 130.523 95.7391 130.396 96.0497 130.142C96.3603 129.884 96.5914 129.54 96.7429 129.108C96.8982 128.676 96.9759 128.195 96.9759 127.665C96.9759 127.131 96.8982 126.648 96.7429 126.216C96.5914 125.78 96.3603 125.434 96.0497 125.176C95.7391 124.919 95.3527 124.79 94.8906 124.79C94.4171 124.79 94.0232 124.919 93.7088 125.176C93.3982 125.434 93.1652 125.78 93.0099 126.216C92.8584 126.648 92.7827 127.131 92.7827 127.665C92.7827 128.195 92.8584 128.676 93.0099 129.108C93.1652 129.54 93.3982 129.884 93.7088 130.142C94.0232 130.396 94.4171 130.523 94.8906 130.523ZM100.807 132V123.273H102.773V124.756H102.875C103.057 124.256 103.358 123.866 103.778 123.585C104.199 123.301 104.701 123.159 105.284 123.159C105.875 123.159 106.373 123.303 106.778 123.591C107.188 123.875 107.475 124.263 107.642 124.756H107.733C107.926 124.271 108.252 123.884 108.71 123.597C109.172 123.305 109.72 123.159 110.352 123.159C111.155 123.159 111.811 123.413 112.318 123.92C112.826 124.428 113.08 125.169 113.08 126.142V132H111.017V126.46C111.017 125.919 110.873 125.523 110.585 125.273C110.297 125.019 109.945 124.892 109.528 124.892C109.032 124.892 108.644 125.047 108.364 125.358C108.087 125.665 107.949 126.064 107.949 126.557V132H105.932V126.375C105.932 125.924 105.795 125.564 105.523 125.295C105.254 125.027 104.902 124.892 104.466 124.892C104.17 124.892 103.902 124.968 103.659 125.119C103.417 125.267 103.223 125.477 103.08 125.75C102.936 126.019 102.864 126.333 102.864 126.693V132H100.807ZM123.249 132.159C122.404 132.159 121.654 132.017 120.999 131.733C120.347 131.449 119.836 131.061 119.464 130.568C119.097 130.072 118.915 129.509 118.919 128.881C118.915 128.392 119.021 127.943 119.237 127.534C119.453 127.125 119.745 126.784 120.112 126.511C120.483 126.235 120.896 126.059 121.351 125.983V125.903C120.752 125.771 120.268 125.466 119.896 124.989C119.529 124.508 119.347 123.953 119.351 123.324C119.347 122.725 119.514 122.191 119.851 121.722C120.188 121.252 120.65 120.883 121.237 120.614C121.824 120.341 122.495 120.205 123.249 120.205C123.995 120.205 124.66 120.341 125.243 120.614C125.83 120.883 126.292 121.252 126.629 121.722C126.97 122.191 127.141 122.725 127.141 123.324C127.141 123.953 126.953 124.508 126.578 124.989C126.207 125.466 125.728 125.771 125.141 125.903V125.983C125.595 126.059 126.004 126.235 126.368 126.511C126.735 126.784 127.027 127.125 127.243 127.534C127.463 127.943 127.572 128.392 127.572 128.881C127.572 129.509 127.387 130.072 127.016 130.568C126.644 131.061 126.133 131.449 125.482 131.733C124.834 132.017 124.089 132.159 123.249 132.159ZM123.249 130.534C123.684 130.534 124.063 130.46 124.385 130.312C124.707 130.161 124.957 129.949 125.135 129.676C125.313 129.403 125.404 129.089 125.408 128.733C125.404 128.362 125.307 128.034 125.118 127.75C124.932 127.462 124.677 127.237 124.351 127.074C124.029 126.911 123.661 126.83 123.249 126.83C122.832 126.83 122.461 126.911 122.135 127.074C121.809 127.237 121.552 127.462 121.362 127.75C121.177 128.034 121.086 128.362 121.089 128.733C121.086 129.089 121.173 129.403 121.351 129.676C121.529 129.945 121.779 130.155 122.101 130.307C122.427 130.458 122.809 130.534 123.249 130.534ZM123.249 125.233C123.605 125.233 123.919 125.161 124.192 125.017C124.468 124.873 124.686 124.672 124.845 124.415C125.004 124.157 125.086 123.86 125.089 123.523C125.086 123.189 125.006 122.898 124.851 122.648C124.696 122.394 124.48 122.199 124.203 122.062C123.927 121.922 123.608 121.852 123.249 121.852C122.881 121.852 122.557 121.922 122.277 122.062C122 122.199 121.785 122.394 121.629 122.648C121.478 122.898 121.404 123.189 121.408 123.523C121.404 123.86 121.48 124.157 121.635 124.415C121.794 124.669 122.012 124.869 122.288 125.017C122.569 125.161 122.889 125.233 123.249 125.233ZM133.616 132.159C132.798 132.159 132.071 132.019 131.435 131.739C130.802 131.458 130.302 131.068 129.935 130.568C129.567 130.068 129.372 129.491 129.349 128.835H131.486C131.505 129.15 131.609 129.424 131.798 129.659C131.988 129.89 132.24 130.07 132.554 130.199C132.868 130.328 133.221 130.392 133.611 130.392C134.027 130.392 134.397 130.32 134.719 130.176C135.041 130.028 135.293 129.824 135.474 129.562C135.656 129.301 135.745 129 135.741 128.659C135.745 128.307 135.654 127.996 135.469 127.727C135.283 127.458 135.014 127.248 134.662 127.097C134.313 126.945 133.893 126.869 133.401 126.869H132.372V125.244H133.401C133.806 125.244 134.16 125.174 134.463 125.034C134.77 124.894 135.01 124.697 135.185 124.443C135.359 124.186 135.444 123.888 135.44 123.551C135.444 123.222 135.37 122.936 135.219 122.693C135.071 122.447 134.861 122.256 134.588 122.119C134.319 121.983 134.003 121.915 133.639 121.915C133.283 121.915 132.954 121.979 132.651 122.108C132.348 122.237 132.103 122.42 131.918 122.659C131.732 122.894 131.634 123.174 131.622 123.5H129.594C129.609 122.848 129.796 122.277 130.156 121.784C130.52 121.288 131.005 120.902 131.611 120.625C132.217 120.345 132.897 120.205 133.651 120.205C134.427 120.205 135.101 120.35 135.673 120.642C136.249 120.93 136.694 121.318 137.009 121.807C137.323 122.295 137.48 122.835 137.48 123.426C137.484 124.081 137.291 124.631 136.901 125.074C136.514 125.517 136.007 125.807 135.378 125.943V126.034C136.196 126.148 136.823 126.451 137.259 126.943C137.698 127.432 137.916 128.04 137.912 128.767C137.912 129.419 137.726 130.002 137.355 130.517C136.988 131.028 136.48 131.43 135.832 131.722C135.188 132.013 134.45 132.159 133.616 132.159ZM141.956 130.409L141.882 131.034C141.829 131.511 141.734 131.996 141.598 132.489C141.465 132.985 141.325 133.441 141.178 133.858C141.03 134.275 140.911 134.602 140.82 134.841H139.433C139.486 134.61 139.558 134.295 139.649 133.898C139.744 133.5 139.835 133.053 139.922 132.557C140.009 132.061 140.068 131.557 140.098 131.045L140.138 130.409H141.956ZM144.288 132L149.237 122.205V122.125H143.493V120.364H151.419V122.165L146.476 132H144.288ZM157.136 120.205C157.693 120.208 158.235 120.307 158.761 120.5C159.292 120.689 159.769 121 160.193 121.432C160.617 121.86 160.955 122.434 161.205 123.153C161.455 123.873 161.58 124.763 161.58 125.824C161.583 126.824 161.477 127.718 161.261 128.506C161.049 129.29 160.744 129.953 160.347 130.494C159.949 131.036 159.47 131.449 158.909 131.733C158.348 132.017 157.718 132.159 157.017 132.159C156.282 132.159 155.631 132.015 155.062 131.727C154.498 131.439 154.042 131.045 153.693 130.545C153.345 130.045 153.131 129.473 153.051 128.83H155.125C155.231 129.292 155.447 129.659 155.773 129.932C156.102 130.201 156.517 130.335 157.017 130.335C157.824 130.335 158.445 129.985 158.881 129.284C159.316 128.583 159.534 127.61 159.534 126.364H159.455C159.269 126.697 159.028 126.985 158.733 127.227C158.438 127.466 158.102 127.65 157.727 127.778C157.356 127.907 156.962 127.972 156.545 127.972C155.864 127.972 155.25 127.809 154.705 127.483C154.163 127.157 153.733 126.71 153.415 126.142C153.1 125.574 152.941 124.924 152.938 124.193C152.938 123.436 153.112 122.756 153.46 122.153C153.813 121.547 154.303 121.07 154.932 120.722C155.561 120.369 156.295 120.197 157.136 120.205ZM157.142 121.909C156.733 121.909 156.364 122.009 156.034 122.21C155.708 122.407 155.451 122.676 155.261 123.017C155.076 123.354 154.983 123.731 154.983 124.148C154.987 124.561 155.08 124.936 155.261 125.273C155.447 125.61 155.699 125.877 156.017 126.074C156.339 126.271 156.706 126.369 157.119 126.369C157.426 126.369 157.712 126.311 157.977 126.193C158.242 126.076 158.473 125.913 158.67 125.705C158.871 125.492 159.027 125.252 159.136 124.983C159.25 124.714 159.305 124.43 159.301 124.131C159.301 123.733 159.206 123.366 159.017 123.028C158.831 122.691 158.576 122.42 158.25 122.216C157.928 122.011 157.559 121.909 157.142 121.909ZM167.773 132.222C166.837 132.222 166.034 131.985 165.364 131.511C164.697 131.034 164.184 130.347 163.824 129.449C163.468 128.547 163.29 127.462 163.29 126.193C163.294 124.924 163.473 123.845 163.83 122.955C164.189 122.061 164.703 121.379 165.369 120.909C166.04 120.439 166.841 120.205 167.773 120.205C168.705 120.205 169.506 120.439 170.176 120.909C170.847 121.379 171.36 122.061 171.716 122.955C172.076 123.848 172.256 124.928 172.256 126.193C172.256 127.466 172.076 128.553 171.716 129.455C171.36 130.352 170.847 131.038 170.176 131.511C169.509 131.985 168.708 132.222 167.773 132.222ZM167.773 130.443C168.5 130.443 169.074 130.085 169.494 129.369C169.919 128.65 170.131 127.591 170.131 126.193C170.131 125.269 170.034 124.492 169.841 123.864C169.648 123.235 169.375 122.761 169.023 122.443C168.67 122.121 168.254 121.96 167.773 121.96C167.049 121.96 166.477 122.32 166.057 123.04C165.636 123.756 165.424 124.807 165.42 126.193C165.417 127.121 165.509 127.902 165.699 128.534C165.892 129.167 166.165 129.644 166.517 129.966C166.869 130.284 167.288 130.443 167.773 130.443Z" fill="#433F4C"/>
<g filter="url(#filter0_d_46_513)">
<rect x="20" y="113" width="49" height="26" rx="10" fill="#1E0BA6" fill-opacity="0.28" shape-rendering="crispEdges"/>
<path d="M38.0462 120.818V131H36.2017V122.613H36.142L33.7607 124.134V122.444L36.2912 120.818H38.0462ZM44.2507 131.139C43.5116 131.139 42.8554 131.015 42.282 130.766C41.7119 130.518 41.2644 130.178 40.9396 129.747C40.6181 129.313 40.459 128.821 40.4624 128.271C40.459 127.843 40.5518 127.45 40.7408 127.092C40.9297 126.734 41.1849 126.436 41.5064 126.197C41.8312 125.955 42.1925 125.801 42.5902 125.735V125.665C42.0665 125.549 41.6423 125.283 41.3175 124.865C40.996 124.444 40.8369 123.959 40.8402 123.408C40.8369 122.885 40.9827 122.417 41.2777 122.006C41.5727 121.595 41.977 121.272 42.4908 121.037C43.0045 120.798 43.5911 120.679 44.2507 120.679C44.9036 120.679 45.4853 120.798 45.9957 121.037C46.5095 121.272 46.9138 121.595 47.2088 122.006C47.5071 122.417 47.6562 122.885 47.6562 123.408C47.6562 123.959 47.4922 124.444 47.1641 124.865C46.8393 125.283 46.42 125.549 45.9062 125.665V125.735C46.304 125.801 46.6619 125.955 46.9801 126.197C47.3016 126.436 47.5568 126.734 47.7457 127.092C47.938 127.45 48.0341 127.843 48.0341 128.271C48.0341 128.821 47.8717 129.313 47.5469 129.747C47.2221 130.178 46.7746 130.518 46.2045 130.766C45.6378 131.015 44.9865 131.139 44.2507 131.139ZM44.2507 129.717C44.6319 129.717 44.9633 129.653 45.245 129.523C45.5268 129.391 45.7455 129.205 45.9013 128.967C46.0571 128.728 46.1366 128.453 46.1399 128.141C46.1366 127.817 46.0521 127.53 45.8864 127.281C45.724 127.029 45.5002 126.832 45.2152 126.69C44.9335 126.547 44.612 126.476 44.2507 126.476C43.8861 126.476 43.5613 126.547 43.2763 126.69C42.9912 126.832 42.7659 127.029 42.6001 127.281C42.4377 127.53 42.3582 127.817 42.3615 128.141C42.3582 128.453 42.4344 128.728 42.5902 128.967C42.746 129.202 42.9647 129.386 43.2464 129.518C43.5315 129.651 43.8662 129.717 44.2507 129.717ZM44.2507 125.079C44.5623 125.079 44.8374 125.016 45.076 124.89C45.3179 124.764 45.5085 124.588 45.6477 124.363C45.7869 124.138 45.8582 123.877 45.8615 123.582C45.8582 123.291 45.7886 123.036 45.6527 122.817C45.5168 122.595 45.3279 122.424 45.0859 122.305C44.844 122.182 44.5656 122.121 44.2507 122.121C43.9292 122.121 43.6458 122.182 43.4006 122.305C43.1586 122.424 42.9697 122.595 42.8338 122.817C42.7012 123.036 42.6366 123.291 42.6399 123.582C42.6366 123.877 42.7029 124.138 42.8388 124.363C42.978 124.585 43.1686 124.761 43.4105 124.89C43.6558 125.016 43.9358 125.079 44.2507 125.079ZM55.1124 129.091V128.554C55.1124 128.16 55.1953 127.797 55.361 127.465C55.53 127.134 55.7753 126.867 56.0968 126.665C56.4183 126.463 56.8077 126.362 57.2651 126.362C57.7357 126.362 58.1301 126.463 58.4483 126.665C58.7665 126.864 59.0068 127.129 59.1692 127.46C59.3349 127.792 59.4178 128.156 59.4178 128.554V129.091C59.4178 129.485 59.3349 129.848 59.1692 130.18C59.0035 130.511 58.7599 130.778 58.4384 130.98C58.1202 131.182 57.7291 131.283 57.2651 131.283C56.8011 131.283 56.4083 131.182 56.0868 130.98C55.7653 130.778 55.5217 130.511 55.356 130.18C55.1936 129.848 55.1124 129.485 55.1124 129.091ZM56.41 128.554V129.091C56.41 129.353 56.473 129.593 56.5989 129.812C56.7248 130.031 56.9469 130.14 57.2651 130.14C57.5866 130.14 57.807 130.032 57.9263 129.817C58.0489 129.598 58.1103 129.356 58.1103 129.091V128.554C58.1103 128.289 58.0523 128.047 57.9363 127.828C57.8203 127.606 57.5965 127.495 57.2651 127.495C56.9535 127.495 56.7331 127.606 56.6039 127.828C56.4746 128.047 56.41 128.289 56.41 128.554ZM49.937 123.264V122.727C49.937 122.33 50.0215 121.965 50.1905 121.634C50.3596 121.302 50.6048 121.037 50.9263 120.838C51.2478 120.636 51.6373 120.535 52.0946 120.535C52.562 120.535 52.9547 120.636 53.2729 120.838C53.5944 121.037 53.8364 121.302 53.9988 121.634C54.1612 121.965 54.2424 122.33 54.2424 122.727V123.264C54.2424 123.662 54.1595 124.027 53.9938 124.358C53.8314 124.686 53.5894 124.95 53.2679 125.148C52.9464 125.347 52.5553 125.447 52.0946 125.447C51.6273 125.447 51.2329 125.347 50.9114 125.148C50.5932 124.95 50.3513 124.684 50.1855 124.353C50.0198 124.022 49.937 123.659 49.937 123.264ZM51.2445 122.727V123.264C51.2445 123.529 51.3058 123.771 51.4284 123.99C51.5544 124.205 51.7765 124.313 52.0946 124.313C52.4128 124.313 52.6316 124.205 52.7509 123.99C52.8735 123.771 52.9348 123.529 52.9348 123.264V122.727C52.9348 122.462 52.8768 122.22 52.7608 122.001C52.6448 121.779 52.4228 121.668 52.0946 121.668C51.7798 121.668 51.5594 121.779 51.4334 122.001C51.3075 122.223 51.2445 122.465 51.2445 122.727ZM50.5037 131L57.5037 120.818H58.7466L51.7466 131H50.5037Z" fill="#1E0BA6"/>
</g>
<g filter="url(#filter1_d_46_513)">
<path d="M155 74L159.525 65.8874C160.287 64.5196 162.255 64.5196 163.018 65.8874L166.038 71.3013C166.744 72.5681 168.522 72.6851 169.388 71.5217L173.763 65.6479C173.903 65.4594 174.076 65.2971 174.272 65.1685L182.095 60.0538C183.085 59.4063 184.418 59.7553 184.964 60.8051L190.223 70.9201C190.934 72.2876 192.859 72.3709 193.686 71.0701L199.091 62.5611C199.282 62.2616 199.548 62.0181 199.864 61.8556L219 52" stroke="url(#paint0_linear_46_513)" stroke-width="2" stroke-linecap="round" stroke-linejoin="round"/>
</g>
<rect x="1" y="1" width="246" height="158" rx="9" stroke="#CED6F0" stroke-width="2"/>
<defs>
<filter id="filter0_d_46_513" x="18" y="111" width="57" height="34" filterUnits="userSpaceOnUse" color-interpolation-filters="sRGB">
<feFlood flood-opacity="0" result="BackgroundImageFix"/>
<feColorMatrix in="SourceAlpha" type="matrix" values="0 0 0 0 0 0 0 0 0 0 0 0 0 0 0 0 0 0 127 0" result="hardAlpha"/>
<feOffset dx="2" dy="2"/>
<feGaussianBlur stdDeviation="2"/>
<feComposite in2="hardAlpha" operator="out"/>
<feColorMatrix type="matrix" values="0 0 0 0 0 0 0 0 0 0 0 0 0 0 0 0 0 0 0.25 0"/>
<feBlend mode="normal" in2="BackgroundImageFix" result="effect1_dropShadow_46_513"/>
<feBlend mode="normal" in="SourceGraphic" in2="effect1_dropShadow_46_513" result="shape"/>
</filter>
<filter id="filter1_d_46_513" x="154" y="50.9998" width="80.0004" height="38.0004" filterUnits="userSpaceOnUse" color-interpolation-filters="sRGB">
<feFlood flood-opacity="0" result="BackgroundImageFix"/>
<feColorMatrix in="SourceAlpha" type="matrix" values="0 0 0 0 0 0 0 0 0 0 0 0 0 0 0 0 0 0 127 0" result="hardAlpha"/>
<feOffset dx="10" dy="10"/>
<feGaussianBlur stdDeviation="2"/>
<feComposite in2="hardAlpha" operator="out"/>
<feColorMatrix type="matrix" values="0 0 0 0 0.117647 0 0 0 0 0.0431373 0 0 0 0 0.65098 0 0 0 1 0"/>
<feBlend mode="normal" in2="BackgroundImageFix" result="effect1_dropShadow_46_513"/>
<feBlend mode="normal" in="SourceGraphic" in2="effect1_dropShadow_46_513" result="shape"/>
</filter>
<linearGradient id="paint0_linear_46_513" x1="155" y1="74" x2="219" y2="74" gradientUnits="userSpaceOnUse">
<stop stop-color="#C0BBE6"/>
<stop offset="0.989583" stop-color="#1E0BA6"/>
</linearGradient>
</defs>
</svg>
