<svg width="248" height="160" viewBox="0 0 248 160" fill="none" xmlns="http://www.w3.org/2000/svg">
<rect x="1" y="1" width="246" height="158" rx="9" fill="#9DA5D8"/>
<path d="M20.6364 26.1307V24.3636H29.9205V26.1307H26.3239V36H24.233V26.1307H20.6364ZM41.5923 30.1818C41.5923 31.4356 41.3575 32.5095 40.8878 33.4034C40.4219 34.2936 39.7855 34.9754 38.9787 35.4489C38.1757 35.9223 37.2647 36.1591 36.2457 36.1591C35.2268 36.1591 34.3139 35.9223 33.5071 35.4489C32.7041 34.9716 32.0677 34.2879 31.598 33.3977C31.1321 32.5038 30.8991 31.4318 30.8991 30.1818C30.8991 28.928 31.1321 27.8561 31.598 26.9659C32.0677 26.072 32.7041 25.3883 33.5071 24.9148C34.3139 24.4413 35.2268 24.2045 36.2457 24.2045C37.2647 24.2045 38.1757 24.4413 38.9787 24.9148C39.7855 25.3883 40.4219 26.072 40.8878 26.9659C41.3575 27.8561 41.5923 28.928 41.5923 30.1818ZM39.473 30.1818C39.473 29.2992 39.3348 28.5549 39.0582 27.9489C38.7855 27.339 38.4067 26.8788 37.9219 26.5682C37.437 26.2538 36.8783 26.0966 36.2457 26.0966C35.6132 26.0966 35.0545 26.2538 34.5696 26.5682C34.0848 26.8788 33.7041 27.339 33.4276 27.9489C33.1548 28.5549 33.0185 29.2992 33.0185 30.1818C33.0185 31.0644 33.1548 31.8106 33.4276 32.4205C33.7041 33.0265 34.0848 33.4867 34.5696 33.8011C35.0545 34.1117 35.6132 34.267 36.2457 34.267C36.8783 34.267 37.437 34.1117 37.9219 33.8011C38.4067 33.4867 38.7855 33.0265 39.0582 32.4205C39.3348 31.8106 39.473 31.0644 39.473 30.1818ZM42.5582 26.1307V24.3636H51.8423V26.1307H48.2457V36H46.1548V26.1307H42.5582ZM53.7202 36H51.4702L55.5668 24.3636H58.169L62.2713 36H60.0213L56.9134 26.75H56.8224L53.7202 36ZM53.794 31.4375H59.9304V33.1307H53.794V31.4375ZM63.804 36V24.3636H65.9119V34.233H71.0369V36H63.804ZM84.1705 24.3636H86.2784V31.9659C86.2784 32.7992 86.0814 33.5322 85.6875 34.1648C85.2973 34.7973 84.7481 35.2917 84.0398 35.6477C83.3314 36 82.5038 36.1761 81.5568 36.1761C80.6061 36.1761 79.7765 36 79.0682 35.6477C78.3598 35.2917 77.8106 34.7973 77.4205 34.1648C77.0303 33.5322 76.8352 32.7992 76.8352 31.9659V24.3636H78.9432V31.7898C78.9432 32.2746 79.0492 32.7064 79.2614 33.0852C79.4773 33.464 79.7803 33.7614 80.1705 33.9773C80.5606 34.1894 81.0227 34.2955 81.5568 34.2955C82.0909 34.2955 82.553 34.1894 82.9432 33.9773C83.3371 33.7614 83.6402 33.464 83.8523 33.0852C84.0644 32.7064 84.1705 32.2746 84.1705 31.7898V24.3636ZM94.8935 27.5625C94.8404 27.0663 94.617 26.6799 94.223 26.4034C93.8329 26.1269 93.3253 25.9886 92.7003 25.9886C92.2609 25.9886 91.884 26.0549 91.5696 26.1875C91.2552 26.3201 91.0147 26.5 90.848 26.7273C90.6813 26.9545 90.5961 27.214 90.5923 27.5057C90.5923 27.7481 90.6473 27.9583 90.7571 28.1364C90.8707 28.3144 91.0241 28.4659 91.2173 28.5909C91.4105 28.7121 91.6245 28.8144 91.8594 28.8977C92.0942 28.9811 92.331 29.0511 92.5696 29.108L93.6605 29.3807C94.0999 29.483 94.5223 29.6212 94.9276 29.7955C95.3366 29.9697 95.7022 30.1894 96.0241 30.4545C96.3499 30.7197 96.6075 31.0398 96.7969 31.4148C96.9863 31.7898 97.081 32.2292 97.081 32.733C97.081 33.4148 96.9067 34.0152 96.5582 34.5341C96.2098 35.0492 95.706 35.4527 95.0469 35.7443C94.3916 36.0322 93.598 36.1761 92.6662 36.1761C91.7609 36.1761 90.9749 36.036 90.3082 35.7557C89.6454 35.4754 89.1264 35.0663 88.7514 34.5284C88.3802 33.9905 88.1795 33.3352 88.1491 32.5625H90.223C90.2533 32.9678 90.3783 33.3049 90.598 33.5739C90.8177 33.8428 91.1037 34.0436 91.456 34.1761C91.812 34.3087 92.2098 34.375 92.6491 34.375C93.1075 34.375 93.509 34.3068 93.8537 34.1705C94.2022 34.0303 94.4749 33.8371 94.6719 33.5909C94.8688 33.3409 94.9692 33.0492 94.973 32.7159C94.9692 32.4129 94.8802 32.1629 94.706 31.9659C94.5317 31.7652 94.2874 31.5985 93.973 31.4659C93.6624 31.3295 93.2988 31.2083 92.8821 31.1023L91.5582 30.7614C90.5999 30.5152 89.8423 30.142 89.2855 29.642C88.7325 29.1383 88.456 28.4697 88.456 27.6364C88.456 26.9508 88.6416 26.3504 89.0128 25.8352C89.3878 25.3201 89.8973 24.9205 90.5412 24.6364C91.1851 24.3485 91.9143 24.2045 92.7287 24.2045C93.5545 24.2045 94.2779 24.3485 94.8991 24.6364C95.5241 24.9205 96.0147 25.3163 96.3707 25.8239C96.7268 26.3277 96.9105 26.9072 96.9219 27.5625H94.8935ZM98.9602 36V24.3636H106.528V26.1307H101.068V29.2898H106.136V31.0568H101.068V34.233H106.574V36H98.9602ZM108.679 36V24.3636H113.043C113.937 24.3636 114.687 24.5189 115.293 24.8295C115.902 25.1402 116.363 25.5758 116.673 26.1364C116.988 26.6932 117.145 27.3428 117.145 28.0852C117.145 28.8314 116.986 29.4792 116.668 30.0284C116.353 30.5739 115.889 30.9962 115.276 31.2955C114.662 31.5909 113.908 31.7386 113.014 31.7386H109.906V29.9886H112.73C113.253 29.9886 113.681 29.9167 114.014 29.7727C114.348 29.625 114.594 29.411 114.753 29.1307C114.916 28.8466 114.997 28.4981 114.997 28.0852C114.997 27.6723 114.916 27.3201 114.753 27.0284C114.59 26.733 114.342 26.5095 114.009 26.358C113.675 26.2027 113.245 26.125 112.719 26.125H110.787V36H108.679ZM114.69 30.7273L117.571 36H115.219L112.389 30.7273H114.69Z" fill="white"/>
<path d="M21.4602 82L26.4091 72.2045V72.125H20.6648V70.3636H28.5909V72.1648L23.6477 82H21.4602ZM34.3139 82.1591C33.5563 82.1591 32.8783 82.017 32.2798 81.733C31.6813 81.4451 31.206 81.0511 30.8537 80.5511C30.5052 80.0511 30.3196 79.4792 30.2969 78.8352H32.3423C32.3802 79.3125 32.5866 79.7027 32.9616 80.0057C33.3366 80.3049 33.7874 80.4545 34.3139 80.4545C34.7268 80.4545 35.0942 80.3598 35.4162 80.1705C35.7382 79.9811 35.992 79.7178 36.1776 79.3807C36.3632 79.0436 36.4541 78.6591 36.4503 78.2273C36.4541 77.7879 36.3613 77.3977 36.1719 77.0568C35.9825 76.7159 35.723 76.4489 35.3935 76.2557C35.0639 76.0587 34.6851 75.9602 34.2571 75.9602C33.9086 75.9564 33.5658 76.0208 33.2287 76.1534C32.8916 76.286 32.6245 76.4602 32.4276 76.6761L30.5241 76.3636L31.1321 70.3636H37.8821V72.125H32.8764L32.5412 75.2102H32.6094C32.8253 74.9564 33.1302 74.7462 33.5241 74.5795C33.9181 74.4091 34.3499 74.3239 34.8196 74.3239C35.5241 74.3239 36.1529 74.4905 36.706 74.8239C37.259 75.1534 37.6946 75.608 38.0128 76.1875C38.331 76.767 38.4901 77.4299 38.4901 78.1761C38.4901 78.9451 38.312 79.6307 37.956 80.233C37.6037 80.8314 37.1132 81.303 36.4844 81.6477C35.8594 81.9886 35.1359 82.1591 34.3139 82.1591ZM42.4403 80.4091L42.3665 81.0341C42.3134 81.5114 42.2188 81.9962 42.0824 82.4886C41.9498 82.9848 41.8097 83.4413 41.6619 83.858C41.5142 84.2746 41.3949 84.6023 41.304 84.8409H39.9176C39.9706 84.6098 40.0426 84.2955 40.1335 83.8977C40.2282 83.5 40.3191 83.053 40.4062 82.5568C40.4934 82.0606 40.5521 81.5568 40.5824 81.0455L40.6222 80.4091H42.4403ZM48.6264 82.1591C47.8688 82.1591 47.1908 82.017 46.5923 81.733C45.9938 81.4451 45.5185 81.0511 45.1662 80.5511C44.8177 80.0511 44.6321 79.4792 44.6094 78.8352H46.6548C46.6927 79.3125 46.8991 79.7027 47.2741 80.0057C47.6491 80.3049 48.0999 80.4545 48.6264 80.4545C49.0393 80.4545 49.4067 80.3598 49.7287 80.1705C50.0507 79.9811 50.3045 79.7178 50.4901 79.3807C50.6757 79.0436 50.7666 78.6591 50.7628 78.2273C50.7666 77.7879 50.6738 77.3977 50.4844 77.0568C50.295 76.7159 50.0355 76.4489 49.706 76.2557C49.3764 76.0587 48.9976 75.9602 48.5696 75.9602C48.2211 75.9564 47.8783 76.0208 47.5412 76.1534C47.2041 76.286 46.937 76.4602 46.7401 76.6761L44.8366 76.3636L45.4446 70.3636H52.1946V72.125H47.1889L46.8537 75.2102H46.9219C47.1378 74.9564 47.4427 74.7462 47.8366 74.5795C48.2306 74.4091 48.6624 74.3239 49.1321 74.3239C49.8366 74.3239 50.4654 74.4905 51.0185 74.8239C51.5715 75.1534 52.0071 75.608 52.3253 76.1875C52.6435 76.767 52.8026 77.4299 52.8026 78.1761C52.8026 78.9451 52.6245 79.6307 52.2685 80.233C51.9162 80.8314 51.4257 81.303 50.7969 81.6477C50.1719 81.9886 49.4484 82.1591 48.6264 82.1591ZM58.9673 82.1591C58.4105 82.1553 57.867 82.0587 57.3366 81.8693C56.8063 81.6761 56.3291 81.3636 55.9048 80.9318C55.4806 80.4962 55.1435 79.9186 54.8935 79.1989C54.6435 78.4754 54.5204 77.5795 54.5241 76.5114C54.5241 75.5152 54.6302 74.6269 54.8423 73.8466C55.0545 73.0663 55.3594 72.4072 55.7571 71.8693C56.1548 71.3277 56.634 70.9148 57.1946 70.6307C57.759 70.3466 58.3897 70.2045 59.0866 70.2045C59.8177 70.2045 60.4654 70.3485 61.0298 70.6364C61.598 70.9242 62.0563 71.3182 62.4048 71.8182C62.7533 72.3144 62.9692 72.875 63.0526 73.5H60.9787C60.8726 73.053 60.6548 72.697 60.3253 72.4318C59.9995 72.1629 59.5866 72.0284 59.0866 72.0284C58.2798 72.0284 57.6586 72.3788 57.223 73.0795C56.7912 73.7803 56.5734 74.7424 56.5696 75.9659H56.6491C56.8348 75.6326 57.0753 75.3466 57.3707 75.108C57.6662 74.8693 57.9995 74.6856 58.3707 74.5568C58.7457 74.4242 59.1416 74.358 59.5582 74.358C60.2401 74.358 60.8518 74.5208 61.3935 74.8466C61.9389 75.1723 62.3707 75.6212 62.6889 76.1932C63.0071 76.7614 63.1643 77.4129 63.1605 78.1477C63.1643 78.9129 62.9901 79.6004 62.6378 80.2102C62.2855 80.8163 61.795 81.2936 61.1662 81.642C60.5374 81.9905 59.8045 82.1629 58.9673 82.1591ZM58.956 80.4545C59.3688 80.4545 59.7382 80.3542 60.0639 80.1534C60.3897 79.9527 60.6473 79.6818 60.8366 79.3409C61.026 79 61.1188 78.6174 61.1151 78.1932C61.1188 77.7765 61.0279 77.3996 60.8423 77.0625C60.6605 76.7254 60.4086 76.4583 60.0866 76.2614C59.7647 76.0644 59.3973 75.9659 58.9844 75.9659C58.6776 75.9659 58.3916 76.0246 58.1264 76.142C57.8613 76.2595 57.6302 76.4223 57.4332 76.6307C57.2363 76.8352 57.081 77.0739 56.9673 77.3466C56.8575 77.6155 56.8007 77.9034 56.7969 78.2102C56.8007 78.6155 56.8954 78.9886 57.081 79.3295C57.2666 79.6705 57.5223 79.9432 57.848 80.1477C58.1738 80.3523 58.5431 80.4545 58.956 80.4545ZM69.3821 82.2216C68.4465 82.2216 67.6435 81.9848 66.973 81.5114C66.3063 81.0341 65.7931 80.3466 65.4332 79.4489C65.0772 78.5473 64.8991 77.4621 64.8991 76.1932C64.9029 74.9242 65.0829 73.8447 65.4389 72.9545C65.7988 72.0606 66.312 71.3788 66.9787 70.9091C67.6491 70.4394 68.4503 70.2045 69.3821 70.2045C70.3139 70.2045 71.1151 70.4394 71.7855 70.9091C72.456 71.3788 72.9692 72.0606 73.3253 72.9545C73.6851 73.8485 73.8651 74.928 73.8651 76.1932C73.8651 77.4659 73.6851 78.553 73.3253 79.4545C72.9692 80.3523 72.456 81.0379 71.7855 81.5114C71.1188 81.9848 70.3177 82.2216 69.3821 82.2216ZM69.3821 80.4432C70.1094 80.4432 70.6832 80.0852 71.1037 79.3693C71.5279 78.6496 71.7401 77.5909 71.7401 76.1932C71.7401 75.2689 71.6435 74.4924 71.4503 73.8636C71.2571 73.2348 70.9844 72.7614 70.6321 72.4432C70.2798 72.1212 69.8632 71.9602 69.3821 71.9602C68.6586 71.9602 68.0866 72.3201 67.6662 73.0398C67.2457 73.7557 67.0336 74.8068 67.0298 76.1932C67.026 77.1212 67.1188 77.9015 67.3082 78.5341C67.5014 79.1667 67.7741 79.6439 68.1264 79.9659C68.4787 80.2841 68.8973 80.4432 69.3821 80.4432Z" fill="white"/>
<path d="M83.4773 123.273V124.864H78.3182V123.273H83.4773ZM79.608 132V122.449C79.608 121.862 79.7292 121.373 79.9716 120.983C80.2178 120.593 80.5473 120.301 80.9602 120.108C81.3731 119.915 81.8314 119.818 82.3352 119.818C82.6913 119.818 83.0076 119.847 83.2841 119.903C83.5606 119.96 83.7652 120.011 83.8977 120.057L83.4886 121.648C83.4015 121.621 83.2917 121.595 83.1591 121.568C83.0265 121.538 82.8788 121.523 82.7159 121.523C82.3333 121.523 82.0625 121.616 81.9034 121.801C81.7481 121.983 81.6705 122.244 81.6705 122.585V132H79.608ZM85.0881 132V123.273H87.0824V124.727H87.1733C87.3324 124.223 87.6051 123.835 87.9915 123.562C88.3816 123.286 88.8267 123.148 89.3267 123.148C89.4403 123.148 89.5672 123.153 89.7074 123.165C89.8513 123.172 89.9706 123.186 90.0653 123.205V125.097C89.9782 125.066 89.84 125.04 89.6506 125.017C89.465 124.991 89.285 124.977 89.1108 124.977C88.7358 124.977 88.3987 125.059 88.0994 125.222C87.804 125.381 87.571 125.602 87.4006 125.886C87.2301 126.17 87.1449 126.498 87.1449 126.869V132H85.0881ZM94.8793 132.17C94.027 132.17 93.2884 131.983 92.6634 131.608C92.0384 131.233 91.5535 130.708 91.2088 130.034C90.8679 129.36 90.6974 128.572 90.6974 127.67C90.6974 126.769 90.8679 125.979 91.2088 125.301C91.5535 124.623 92.0384 124.097 92.6634 123.722C93.2884 123.347 94.027 123.159 94.8793 123.159C95.7315 123.159 96.4702 123.347 97.0952 123.722C97.7202 124.097 98.2031 124.623 98.544 125.301C98.8887 125.979 99.0611 126.769 99.0611 127.67C99.0611 128.572 98.8887 129.36 98.544 130.034C98.2031 130.708 97.7202 131.233 97.0952 131.608C96.4702 131.983 95.7315 132.17 94.8793 132.17ZM94.8906 130.523C95.3527 130.523 95.7391 130.396 96.0497 130.142C96.3603 129.884 96.5914 129.54 96.7429 129.108C96.8982 128.676 96.9759 128.195 96.9759 127.665C96.9759 127.131 96.8982 126.648 96.7429 126.216C96.5914 125.78 96.3603 125.434 96.0497 125.176C95.7391 124.919 95.3527 124.79 94.8906 124.79C94.4171 124.79 94.0232 124.919 93.7088 125.176C93.3982 125.434 93.1652 125.78 93.0099 126.216C92.8584 126.648 92.7827 127.131 92.7827 127.665C92.7827 128.195 92.8584 128.676 93.0099 129.108C93.1652 129.54 93.3982 129.884 93.7088 130.142C94.0232 130.396 94.4171 130.523 94.8906 130.523ZM100.807 132V123.273H102.773V124.756H102.875C103.057 124.256 103.358 123.866 103.778 123.585C104.199 123.301 104.701 123.159 105.284 123.159C105.875 123.159 106.373 123.303 106.778 123.591C107.188 123.875 107.475 124.263 107.642 124.756H107.733C107.926 124.271 108.252 123.884 108.71 123.597C109.172 123.305 109.72 123.159 110.352 123.159C111.155 123.159 111.811 123.413 112.318 123.92C112.826 124.428 113.08 125.169 113.08 126.142V132H111.017V126.46C111.017 125.919 110.873 125.523 110.585 125.273C110.297 125.019 109.945 124.892 109.528 124.892C109.032 124.892 108.644 125.047 108.364 125.358C108.087 125.665 107.949 126.064 107.949 126.557V132H105.932V126.375C105.932 125.924 105.795 125.564 105.523 125.295C105.254 125.027 104.902 124.892 104.466 124.892C104.17 124.892 103.902 124.968 103.659 125.119C103.417 125.267 103.223 125.477 103.08 125.75C102.936 126.019 102.864 126.333 102.864 126.693V132H100.807ZM119.538 132L124.487 122.205V122.125H118.743V120.364H126.669V122.165L121.726 132H119.538ZM132.554 132.222C131.618 132.222 130.815 131.985 130.145 131.511C129.478 131.034 128.965 130.347 128.605 129.449C128.249 128.547 128.071 127.462 128.071 126.193C128.075 124.924 128.255 123.845 128.611 122.955C128.971 122.061 129.484 121.379 130.151 120.909C130.821 120.439 131.622 120.205 132.554 120.205C133.486 120.205 134.287 120.439 134.957 120.909C135.628 121.379 136.141 122.061 136.497 122.955C136.857 123.848 137.037 124.928 137.037 126.193C137.037 127.466 136.857 128.553 136.497 129.455C136.141 130.352 135.628 131.038 134.957 131.511C134.291 131.985 133.49 132.222 132.554 132.222ZM132.554 130.443C133.281 130.443 133.855 130.085 134.276 129.369C134.7 128.65 134.912 127.591 134.912 126.193C134.912 125.269 134.815 124.492 134.622 123.864C134.429 123.235 134.156 122.761 133.804 122.443C133.452 122.121 133.035 121.96 132.554 121.96C131.83 121.96 131.259 122.32 130.838 123.04C130.418 123.756 130.205 124.807 130.202 126.193C130.198 127.121 130.291 127.902 130.48 128.534C130.673 129.167 130.946 129.644 131.298 129.966C131.651 130.284 132.069 130.443 132.554 130.443ZM140.909 130.409L140.835 131.034C140.782 131.511 140.688 131.996 140.551 132.489C140.419 132.985 140.278 133.441 140.131 133.858C139.983 134.275 139.864 134.602 139.773 134.841H138.386C138.439 134.61 138.511 134.295 138.602 133.898C138.697 133.5 138.788 133.053 138.875 132.557C138.962 132.061 139.021 131.557 139.051 131.045L139.091 130.409H140.909ZM142.98 129.841V128.165L147.918 120.364H149.315V122.75H148.463L145.139 128.017V128.108H152.031V129.841H142.98ZM148.531 132V129.33L148.554 128.58V120.364H150.543V132H148.531ZM158.108 132.159C157.551 132.155 157.008 132.059 156.477 131.869C155.947 131.676 155.47 131.364 155.045 130.932C154.621 130.496 154.284 129.919 154.034 129.199C153.784 128.475 153.661 127.58 153.665 126.511C153.665 125.515 153.771 124.627 153.983 123.847C154.195 123.066 154.5 122.407 154.898 121.869C155.295 121.328 155.775 120.915 156.335 120.631C156.9 120.347 157.53 120.205 158.227 120.205C158.958 120.205 159.606 120.348 160.17 120.636C160.739 120.924 161.197 121.318 161.545 121.818C161.894 122.314 162.11 122.875 162.193 123.5H160.119C160.013 123.053 159.795 122.697 159.466 122.432C159.14 122.163 158.727 122.028 158.227 122.028C157.42 122.028 156.799 122.379 156.364 123.08C155.932 123.78 155.714 124.742 155.71 125.966H155.79C155.975 125.633 156.216 125.347 156.511 125.108C156.807 124.869 157.14 124.686 157.511 124.557C157.886 124.424 158.282 124.358 158.699 124.358C159.381 124.358 159.992 124.521 160.534 124.847C161.08 125.172 161.511 125.621 161.83 126.193C162.148 126.761 162.305 127.413 162.301 128.148C162.305 128.913 162.131 129.6 161.778 130.21C161.426 130.816 160.936 131.294 160.307 131.642C159.678 131.991 158.945 132.163 158.108 132.159ZM158.097 130.455C158.509 130.455 158.879 130.354 159.205 130.153C159.53 129.953 159.788 129.682 159.977 129.341C160.167 129 160.259 128.617 160.256 128.193C160.259 127.777 160.169 127.4 159.983 127.062C159.801 126.725 159.549 126.458 159.227 126.261C158.905 126.064 158.538 125.966 158.125 125.966C157.818 125.966 157.532 126.025 157.267 126.142C157.002 126.259 156.771 126.422 156.574 126.631C156.377 126.835 156.222 127.074 156.108 127.347C155.998 127.616 155.941 127.903 155.938 128.21C155.941 128.616 156.036 128.989 156.222 129.33C156.407 129.67 156.663 129.943 156.989 130.148C157.314 130.352 157.684 130.455 158.097 130.455ZM168.523 132.222C167.587 132.222 166.784 131.985 166.114 131.511C165.447 131.034 164.934 130.347 164.574 129.449C164.218 128.547 164.04 127.462 164.04 126.193C164.044 124.924 164.223 123.845 164.58 122.955C164.939 122.061 165.453 121.379 166.119 120.909C166.79 120.439 167.591 120.205 168.523 120.205C169.455 120.205 170.256 120.439 170.926 120.909C171.597 121.379 172.11 122.061 172.466 122.955C172.826 123.848 173.006 124.928 173.006 126.193C173.006 127.466 172.826 128.553 172.466 129.455C172.11 130.352 171.597 131.038 170.926 131.511C170.259 131.985 169.458 132.222 168.523 132.222ZM168.523 130.443C169.25 130.443 169.824 130.085 170.244 129.369C170.669 128.65 170.881 127.591 170.881 126.193C170.881 125.269 170.784 124.492 170.591 123.864C170.398 123.235 170.125 122.761 169.773 122.443C169.42 122.121 169.004 121.96 168.523 121.96C167.799 121.96 167.227 122.32 166.807 123.04C166.386 123.756 166.174 124.807 166.17 126.193C166.167 127.121 166.259 127.902 166.449 128.534C166.642 129.167 166.915 129.644 167.267 129.966C167.619 130.284 168.038 130.443 168.523 130.443Z" fill="white"/>
<g filter="url(#filter0_d_46_462)">
<rect x="20" y="113" width="49" height="26" rx="10" fill="#F11010" fill-opacity="0.24" shape-rendering="crispEdges"/>
<path d="M38.0462 120.818V131H36.2017V122.613H36.142L33.7607 124.134V122.444L36.2912 120.818H38.0462ZM40.6314 131V129.668L44.1662 126.202C44.5043 125.861 44.786 125.558 45.0114 125.293C45.2367 125.027 45.4058 124.771 45.5185 124.522C45.6312 124.273 45.6875 124.008 45.6875 123.727C45.6875 123.405 45.6146 123.13 45.4688 122.901C45.3229 122.669 45.1224 122.49 44.8672 122.364C44.612 122.238 44.322 122.175 43.9972 122.175C43.6624 122.175 43.3691 122.245 43.1172 122.384C42.8653 122.52 42.6697 122.714 42.5305 122.966C42.3946 123.218 42.3267 123.518 42.3267 123.866H40.5717C40.5717 123.219 40.7192 122.658 41.0142 122.18C41.3092 121.703 41.7152 121.334 42.2322 121.072C42.7526 120.81 43.3492 120.679 44.022 120.679C44.7048 120.679 45.3047 120.807 45.8217 121.062C46.3388 121.317 46.7398 121.667 47.0249 122.111C47.3132 122.555 47.4574 123.062 47.4574 123.632C47.4574 124.013 47.3845 124.388 47.2386 124.756C47.0928 125.124 46.8359 125.531 46.468 125.979C46.1035 126.426 45.5914 126.968 44.9318 127.604L43.1768 129.389V129.459H47.6115V131H40.6314ZM54.7706 129.091V128.554C54.7706 128.16 54.8535 127.797 55.0192 127.465C55.1882 127.134 55.4335 126.867 55.755 126.665C56.0765 126.463 56.4659 126.362 56.9233 126.362C57.3939 126.362 57.7884 126.463 58.1065 126.665C58.4247 126.864 58.665 127.129 58.8274 127.46C58.9931 127.792 59.076 128.156 59.076 128.554V129.091C59.076 129.485 58.9931 129.848 58.8274 130.18C58.6617 130.511 58.4181 130.778 58.0966 130.98C57.7784 131.182 57.3873 131.283 56.9233 131.283C56.4593 131.283 56.0665 131.182 55.745 130.98C55.4235 130.778 55.1799 130.511 55.0142 130.18C54.8518 129.848 54.7706 129.485 54.7706 129.091ZM56.0682 128.554V129.091C56.0682 129.353 56.1312 129.593 56.2571 129.812C56.383 130.031 56.6051 130.14 56.9233 130.14C57.2448 130.14 57.4652 130.032 57.5845 129.817C57.7072 129.598 57.7685 129.356 57.7685 129.091V128.554C57.7685 128.289 57.7105 128.047 57.5945 127.828C57.4785 127.606 57.2547 127.495 56.9233 127.495C56.6117 127.495 56.3913 127.606 56.2621 127.828C56.1328 128.047 56.0682 128.289 56.0682 128.554ZM49.5952 123.264V122.727C49.5952 122.33 49.6797 121.965 49.8487 121.634C50.0178 121.302 50.263 121.037 50.5845 120.838C50.906 120.636 51.2955 120.535 51.7528 120.535C52.2202 120.535 52.6129 120.636 52.9311 120.838C53.2526 121.037 53.4946 121.302 53.657 121.634C53.8194 121.965 53.9006 122.33 53.9006 122.727V123.264C53.9006 123.662 53.8177 124.027 53.652 124.358C53.4896 124.686 53.2476 124.95 52.9261 125.148C52.6046 125.347 52.2135 125.447 51.7528 125.447C51.2855 125.447 50.8911 125.347 50.5696 125.148C50.2514 124.95 50.0095 124.684 49.8438 124.353C49.678 124.022 49.5952 123.659 49.5952 123.264ZM50.9027 122.727V123.264C50.9027 123.529 50.964 123.771 51.0866 123.99C51.2126 124.205 51.4347 124.313 51.7528 124.313C52.071 124.313 52.2898 124.205 52.4091 123.99C52.5317 123.771 52.593 123.529 52.593 123.264V122.727C52.593 122.462 52.535 122.22 52.419 122.001C52.303 121.779 52.081 121.668 51.7528 121.668C51.438 121.668 51.2176 121.779 51.0916 122.001C50.9657 122.223 50.9027 122.465 50.9027 122.727ZM50.1619 131L57.1619 120.818H58.4048L51.4048 131H50.1619Z" fill="#E60303"/>
</g>
<g filter="url(#filter1_d_46_462)">
<path d="M155 74L159.525 65.8874C160.287 64.5196 162.255 64.5196 163.018 65.8874L166.038 71.3013C166.744 72.5681 168.522 72.6851 169.388 71.5217L173.763 65.6479C173.903 65.4594 174.076 65.2971 174.272 65.1685L182.095 60.0538C183.085 59.4063 184.418 59.7553 184.964 60.8051L190.223 70.9201C190.934 72.2876 192.859 72.3709 193.686 71.0701L199.091 62.5611C199.282 62.2616 199.548 62.0181 199.864 61.8556L219 52" stroke="url(#paint0_linear_46_462)" stroke-width="2" stroke-linecap="round" stroke-linejoin="round"/>
</g>
<rect x="1" y="1" width="246" height="158" rx="9" stroke="#9DA5D8" stroke-width="2"/>
<defs>
<filter id="filter0_d_46_462" x="18" y="111" width="57" height="34" filterUnits="userSpaceOnUse" color-interpolation-filters="sRGB">
<feFlood flood-opacity="0" result="BackgroundImageFix"/>
<feColorMatrix in="SourceAlpha" type="matrix" values="0 0 0 0 0 0 0 0 0 0 0 0 0 0 0 0 0 0 127 0" result="hardAlpha"/>
<feOffset dx="2" dy="2"/>
<feGaussianBlur stdDeviation="2"/>
<feComposite in2="hardAlpha" operator="out"/>
<feColorMatrix type="matrix" values="0 0 0 0 0 0 0 0 0 0 0 0 0 0 0 0 0 0 0.25 0"/>
<feBlend mode="normal" in2="BackgroundImageFix" result="effect1_dropShadow_46_462"/>
<feBlend mode="normal" in="SourceGraphic" in2="effect1_dropShadow_46_462" result="shape"/>
</filter>
<filter id="filter1_d_46_462" x="154" y="50.9998" width="80.0004" height="38.0004" filterUnits="userSpaceOnUse" color-interpolation-filters="sRGB">
<feFlood flood-opacity="0" result="BackgroundImageFix"/>
<feColorMatrix in="SourceAlpha" type="matrix" values="0 0 0 0 0 0 0 0 0 0 0 0 0 0 0 0 0 0 127 0" result="hardAlpha"/>
<feOffset dx="10" dy="10"/>
<feGaussianBlur stdDeviation="2"/>
<feComposite in2="hardAlpha" operator="out"/>
<feColorMatrix type="matrix" values="0 0 0 0 0.898039 0 0 0 0 0.0117647 0 0 0 0 0.0117647 0 0 0 1 0"/>
<feBlend mode="normal" in2="BackgroundImageFix" result="effect1_dropShadow_46_462"/>
<feBlend mode="normal" in="SourceGraphic" in2="effect1_dropShadow_46_462" result="shape"/>
</filter>
<linearGradient id="paint0_linear_46_462" x1="155" y1="74" x2="219" y2="74" gradientUnits="userSpaceOnUse">
<stop stop-color="#B181A8"/>
<stop offset="1" stop-color="#E50303"/>
</linearGradient>
</defs>
</svg>
