<svg width="467" height="313" viewBox="0 0 467 313" fill="none" xmlns="http://www.w3.org/2000/svg">
<path d="M45.9549 17.5312H37.2447C37.0856 16.4044 36.7608 15.4034 36.2702 14.5284C35.7797 13.6401 35.15 12.8845 34.381 12.2614C33.6121 11.6383 32.7238 11.161 31.7163 10.8295C30.7219 10.4981 29.6415 10.3324 28.4748 10.3324C26.3668 10.3324 24.5307 10.8561 22.9663 11.9034C21.4019 12.9375 20.1888 14.4489 19.3271 16.4375C18.4653 18.4129 18.0344 20.8125 18.0344 23.6364C18.0344 26.5398 18.4653 28.9792 19.3271 30.9545C20.2021 32.9299 21.4218 34.4214 22.9862 35.429C24.5505 36.4366 26.3602 36.9403 28.4151 36.9403C29.5685 36.9403 30.6358 36.7879 31.6168 36.483C32.6112 36.178 33.4928 35.7339 34.2617 35.1506C35.0307 34.554 35.667 33.8314 36.1708 32.983C36.6879 32.1345 37.0458 31.1667 37.2447 30.0795L45.9549 30.1193C45.7295 31.9886 45.1661 33.7917 44.2646 35.5284C43.3763 37.2519 42.1765 38.7964 40.6651 40.1619C39.167 41.5142 37.3772 42.5881 35.2958 43.3835C33.2276 44.1657 30.8877 44.5568 28.2759 44.5568C24.6433 44.5568 21.3952 43.7348 18.5316 42.0909C15.6812 40.447 13.4274 38.0672 11.7702 34.9517C10.1263 31.8362 9.30433 28.0644 9.30433 23.6364C9.30433 19.1951 10.1396 15.4167 11.81 12.3011C13.4805 9.18561 15.7475 6.8125 18.6112 5.18182C21.4748 3.53788 24.6964 2.71591 28.2759 2.71591C30.6358 2.71591 32.8233 3.04735 34.8384 3.71023C36.8668 4.37311 38.6632 5.34091 40.2276 6.61363C41.792 7.8731 43.0647 9.41761 44.0458 11.2472C45.0401 13.0767 45.6765 15.1714 45.9549 17.5312ZM51.9705 44V13.4545H60.1836V18.7841H60.5018C61.0586 16.8883 61.9933 15.4564 63.3058 14.4886C64.6183 13.5076 66.1296 13.017 67.8398 13.017C68.2641 13.017 68.7215 13.0436 69.212 13.0966C69.7025 13.1496 70.1334 13.2225 70.5046 13.3153V20.8324C70.1069 20.7131 69.5567 20.607 68.854 20.5142C68.1514 20.4214 67.5084 20.375 66.9251 20.375C65.6789 20.375 64.5652 20.6468 63.5842 21.1903C62.6164 21.7206 61.8474 22.4631 61.2773 23.4176C60.7205 24.3722 60.4421 25.4725 60.4421 26.7188V44H51.9705ZM87.3832 44.5966C84.2411 44.5966 81.5366 43.9602 79.2695 42.6875C77.0157 41.4015 75.279 39.5852 74.0593 37.2386C72.8396 34.8788 72.2298 32.0881 72.2298 28.8665C72.2298 25.7244 72.8396 22.9669 74.0593 20.5938C75.279 18.2206 76.9959 16.3712 79.2099 15.0455C81.4371 13.7197 84.0489 13.0568 87.0451 13.0568C89.0603 13.0568 90.9362 13.3816 92.6729 14.0312C94.4229 14.6676 95.9476 15.6288 97.2468 16.9148C98.5593 18.2008 99.5801 19.8182 100.309 21.767C101.038 23.7027 101.403 25.9697 101.403 28.5682V30.8949H75.6104V25.6449H93.4286C93.4286 24.4252 93.1635 23.3447 92.6332 22.4034C92.1029 21.4621 91.3671 20.7263 90.4258 20.196C89.4978 19.6525 88.4173 19.3807 87.1843 19.3807C85.8983 19.3807 84.7582 19.679 83.7638 20.2756C82.7828 20.8589 82.0138 21.6477 81.457 22.642C80.9002 23.6231 80.6152 24.7169 80.6019 25.9233V30.9148C80.6019 32.4261 80.8803 33.732 81.4371 34.8324C82.0072 35.9328 82.8093 36.7812 83.8434 37.3778C84.8775 37.9744 86.1038 38.2727 87.5224 38.2727C88.4637 38.2727 89.3254 38.1402 90.1076 37.875C90.8898 37.6098 91.5593 37.2121 92.1161 36.6818C92.6729 36.1515 93.0972 35.5019 93.3888 34.733L101.224 35.25C100.826 37.1326 100.011 38.7765 98.7781 40.1818C97.5584 41.5739 95.9807 42.661 94.0451 43.4432C92.1228 44.2121 89.9021 44.5966 87.3832 44.5966ZM115.642 44.5767C113.693 44.5767 111.956 44.2386 110.431 43.5625C108.907 42.8731 107.7 41.8589 106.812 40.5199C105.937 39.1676 105.5 37.4839 105.5 35.4688C105.5 33.7718 105.811 32.3466 106.434 31.1932C107.057 30.0398 107.906 29.1117 108.98 28.4091C110.054 27.7064 111.273 27.1761 112.639 26.8182C114.018 26.4602 115.463 26.2083 116.974 26.0625C118.751 25.8769 120.182 25.7045 121.27 25.5455C122.357 25.3731 123.145 25.1212 123.636 24.7898C124.127 24.4583 124.372 23.9678 124.372 23.3182V23.1989C124.372 21.9394 123.974 20.965 123.179 20.2756C122.396 19.5862 121.283 19.2415 119.838 19.2415C118.313 19.2415 117.1 19.5795 116.199 20.2557C115.297 20.9186 114.7 21.7538 114.409 22.7614L106.574 22.125C106.971 20.2689 107.753 18.6648 108.92 17.3125C110.087 15.947 111.592 14.8996 113.434 14.1705C115.29 13.428 117.438 13.0568 119.877 13.0568C121.574 13.0568 123.199 13.2557 124.75 13.6534C126.314 14.0511 127.699 14.6676 128.906 15.5028C130.126 16.3381 131.087 17.4119 131.789 18.7244C132.492 20.0237 132.843 21.5814 132.843 23.3977V44H124.809V39.7642H124.571C124.08 40.7188 123.424 41.5606 122.602 42.2898C121.78 43.0057 120.792 43.5691 119.639 43.9801C118.485 44.3778 117.153 44.5767 115.642 44.5767ZM118.068 38.7301C119.314 38.7301 120.414 38.4848 121.369 37.9943C122.324 37.4905 123.073 36.8144 123.616 35.9659C124.16 35.1174 124.431 34.1562 124.431 33.0824V29.8409C124.166 30.0133 123.802 30.1723 123.338 30.3182C122.887 30.4508 122.377 30.5767 121.806 30.696C121.236 30.8021 120.666 30.9015 120.096 30.9943C119.526 31.0739 119.009 31.1468 118.545 31.2131C117.551 31.3589 116.682 31.5909 115.94 31.9091C115.198 32.2273 114.621 32.6581 114.21 33.2017C113.799 33.732 113.593 34.3949 113.593 35.1903C113.593 36.3438 114.011 37.2254 114.846 37.8352C115.695 38.4318 116.769 38.7301 118.068 38.7301ZM155.663 13.4545V19.8182H137.268V13.4545H155.663ZM141.444 6.13636H149.916V34.6136C149.916 35.3958 150.035 36.0057 150.274 36.4432C150.512 36.8674 150.844 37.1657 151.268 37.3381C151.706 37.5104 152.209 37.5966 152.779 37.5966C153.177 37.5966 153.575 37.5634 153.973 37.4972C154.37 37.4176 154.675 37.358 154.887 37.3182L156.22 43.6222C155.796 43.7547 155.199 43.9072 154.43 44.0795C153.661 44.2652 152.726 44.3778 151.626 44.4176C149.584 44.4972 147.795 44.2254 146.257 43.6023C144.732 42.9792 143.546 42.0114 142.697 40.6989C141.849 39.3864 141.431 37.7292 141.444 35.7273V6.13636ZM161.181 44V13.4545H169.653V44H161.181ZM165.437 9.51704C164.178 9.51704 163.097 9.09943 162.196 8.2642C161.307 7.41572 160.863 6.40151 160.863 5.22159C160.863 4.05492 161.307 3.05398 162.196 2.21875C163.097 1.37026 164.178 0.946021 165.437 0.946021C166.697 0.946021 167.77 1.37026 168.659 2.21875C169.56 3.05398 170.011 4.05492 170.011 5.22159C170.011 6.40151 169.56 7.41572 168.659 8.2642C167.77 9.09943 166.697 9.51704 165.437 9.51704ZM204.917 13.4545L194.238 44H184.692L174.013 13.4545H182.962L189.306 35.3097H189.624L195.948 13.4545H204.917ZM222.188 44.5966C219.046 44.5966 216.341 43.9602 214.074 42.6875C211.82 41.4015 210.084 39.5852 208.864 37.2386C207.644 34.8788 207.034 32.0881 207.034 28.8665C207.034 25.7244 207.644 22.9669 208.864 20.5938C210.084 18.2206 211.801 16.3712 214.015 15.0455C216.242 13.7197 218.854 13.0568 221.85 13.0568C223.865 13.0568 225.741 13.3816 227.478 14.0312C229.228 14.6676 230.752 15.6288 232.051 16.9148C233.364 18.2008 234.385 19.8182 235.114 21.767C235.843 23.7027 236.208 25.9697 236.208 28.5682V30.8949H210.415V25.6449H228.233C228.233 24.4252 227.968 23.3447 227.438 22.4034C226.908 21.4621 226.172 20.7263 225.23 20.196C224.302 19.6525 223.222 19.3807 221.989 19.3807C220.703 19.3807 219.563 19.679 218.569 20.2756C217.587 20.8589 216.819 21.6477 216.262 22.642C215.705 23.6231 215.42 24.7169 215.407 25.9233V30.9148C215.407 32.4261 215.685 33.732 216.242 34.8324C216.812 35.9328 217.614 36.7812 218.648 37.3778C219.682 37.9744 220.908 38.2727 222.327 38.2727C223.268 38.2727 224.13 38.1402 224.912 37.875C225.694 37.6098 226.364 37.2121 226.921 36.6818C227.478 36.1515 227.902 35.5019 228.194 34.733L236.029 35.25C235.631 37.1326 234.816 38.7765 233.583 40.1818C232.363 41.5739 230.785 42.661 228.85 43.4432C226.927 44.2121 224.707 44.5966 222.188 44.5966ZM260.723 44L252.41 13.4545H260.981L265.714 33.9773H265.993L270.924 13.4545H279.336L284.348 33.858H284.606L289.26 13.4545H297.811L289.518 44H280.549L275.299 24.7898H274.922L269.672 44H260.723ZM302.33 44V13.4545H310.801V44H302.33ZM306.586 9.51704C305.326 9.51704 304.246 9.09943 303.344 8.2642C302.456 7.41572 302.012 6.40151 302.012 5.22159C302.012 4.05492 302.456 3.05398 303.344 2.21875C304.246 1.37026 305.326 0.946021 306.586 0.946021C307.845 0.946021 308.919 1.37026 309.807 2.21875C310.709 3.05398 311.159 4.05492 311.159 5.22159C311.159 6.40151 310.709 7.41572 309.807 8.2642C308.919 9.09943 307.845 9.51704 306.586 9.51704ZM333.835 13.4545V19.8182H315.44V13.4545H333.835ZM319.616 6.13636H328.088V34.6136C328.088 35.3958 328.207 36.0057 328.446 36.4432C328.684 36.8674 329.016 37.1657 329.44 37.3381C329.877 37.5104 330.381 37.5966 330.951 37.5966C331.349 37.5966 331.747 37.5634 332.145 37.4972C332.542 37.4176 332.847 37.358 333.059 37.3182L334.392 43.6222C333.967 43.7547 333.371 43.9072 332.602 44.0795C331.833 44.2652 330.898 44.3778 329.798 44.4176C327.756 44.4972 325.967 44.2254 324.429 43.6023C322.904 42.9792 321.717 42.0114 320.869 40.6989C320.02 39.3864 319.603 37.7292 319.616 35.7273V6.13636ZM348.481 26.3409V44H340.01V3.27273H348.243V18.8438H348.6C349.29 17.0407 350.404 15.6288 351.941 14.608C353.479 13.5739 355.408 13.0568 357.728 13.0568C359.85 13.0568 361.699 13.5208 363.277 14.4489C364.868 15.3636 366.1 16.6828 366.975 18.4062C367.864 20.1165 368.301 22.1648 368.288 24.5511V44H359.816V26.0625C359.83 24.1799 359.352 22.715 358.385 21.6676C357.43 20.6203 356.091 20.0966 354.368 20.0966C353.214 20.0966 352.193 20.3419 351.305 20.8324C350.43 21.3229 349.741 22.0388 349.237 22.9801C348.746 23.9081 348.494 25.0284 348.481 26.3409ZM388.756 44.5966C385.667 44.5966 382.996 43.9403 380.742 42.6278C378.501 41.3021 376.771 39.4593 375.551 37.0994C374.332 34.7263 373.722 31.9754 373.722 28.8466C373.722 25.6913 374.332 22.9337 375.551 20.5739C376.771 18.2008 378.501 16.358 380.742 15.0455C382.996 13.7197 385.667 13.0568 388.756 13.0568C391.845 13.0568 394.51 13.7197 396.75 15.0455C399.004 16.358 400.741 18.2008 401.961 20.5739C403.18 22.9337 403.79 25.6913 403.79 28.8466C403.79 31.9754 403.18 34.7263 401.961 37.0994C400.741 39.4593 399.004 41.3021 396.75 42.6278C394.51 43.9403 391.845 44.5966 388.756 44.5966ZM388.796 38.0341C390.201 38.0341 391.374 37.6364 392.316 36.8409C393.257 36.0322 393.966 34.9318 394.444 33.5398C394.934 32.1477 395.179 30.5634 395.179 28.7869C395.179 27.0104 394.934 25.4261 394.444 24.0341C393.966 22.642 393.257 21.5417 392.316 20.733C391.374 19.9242 390.201 19.5199 388.796 19.5199C387.377 19.5199 386.184 19.9242 385.216 20.733C384.262 21.5417 383.539 22.642 383.049 24.0341C382.571 25.4261 382.333 27.0104 382.333 28.7869C382.333 30.5634 382.571 32.1477 383.049 33.5398C383.539 34.9318 384.262 36.0322 385.216 36.8409C386.184 37.6364 387.377 38.0341 388.796 38.0341ZM428.887 30.9943V13.4545H437.358V44H429.225V38.4517H428.907C428.217 40.2415 427.07 41.6799 425.466 42.767C423.875 43.8542 421.933 44.3977 419.64 44.3977C417.598 44.3977 415.801 43.9337 414.25 43.0057C412.699 42.0777 411.486 40.7585 410.611 39.0483C409.749 37.3381 409.312 35.2898 409.299 32.9034V13.4545H417.77V31.392C417.783 33.1951 418.267 34.6203 419.222 35.6676C420.176 36.715 421.456 37.2386 423.06 37.2386C424.081 37.2386 425.035 37.0066 425.924 36.5426C426.812 36.0653 427.528 35.3627 428.071 34.4347C428.628 33.5066 428.9 32.3598 428.887 30.9943ZM460.382 13.4545V19.8182H441.987V13.4545H460.382ZM446.163 6.13636H454.635V34.6136C454.635 35.3958 454.754 36.0057 454.993 36.4432C455.231 36.8674 455.563 37.1657 455.987 37.3381C456.424 37.5104 456.928 37.5966 457.498 37.5966C457.896 37.5966 458.294 37.5634 458.691 37.4972C459.089 37.4176 459.394 37.358 459.606 37.3182L460.939 43.6222C460.514 43.7547 459.918 43.9072 459.149 44.0795C458.38 44.2652 457.445 44.3778 456.345 44.4176C454.303 44.4972 452.513 44.2254 450.975 43.6023C449.451 42.9792 448.264 42.0114 447.416 40.6989C446.567 39.3864 446.15 37.7292 446.163 35.7273V6.13636ZM29.0689 86.1648L21.3132 86.642C21.1806 85.9792 20.8956 85.3826 20.4581 84.8523C20.0206 84.3087 19.4439 83.8778 18.728 83.5597C18.0253 83.2282 17.1835 83.0625 16.2024 83.0625C14.8899 83.0625 13.7829 83.3409 12.8814 83.8977C11.9799 84.4413 11.5291 85.1705 11.5291 86.0852C11.5291 86.8144 11.8208 87.4309 12.4041 87.9347C12.9875 88.4384 13.9884 88.8428 15.407 89.1477L20.9354 90.2614C23.9051 90.8712 26.1191 91.8523 27.5774 93.2045C29.0357 94.5568 29.7649 96.3333 29.7649 98.5341C29.7649 100.536 29.175 102.293 27.995 103.804C26.8284 105.315 25.2242 106.495 23.1825 107.344C21.1541 108.179 18.8142 108.597 16.1626 108.597C12.1191 108.597 8.89749 107.755 6.49787 106.071C4.11151 104.374 2.71283 102.067 2.30185 99.1506L10.6342 98.7131C10.8861 99.946 11.496 100.887 12.4638 101.537C13.4316 102.173 14.6712 102.491 16.1825 102.491C17.6674 102.491 18.8606 102.206 19.7621 101.636C20.6768 101.053 21.1409 100.304 21.1541 99.3892C21.1409 98.6203 20.8161 97.9905 20.1797 97.5C19.5433 96.9962 18.5623 96.6117 17.2365 96.3466L11.9467 95.2926C8.96378 94.696 6.74313 93.6619 5.2848 92.1903C3.83973 90.7187 3.11719 88.8428 3.11719 86.5625C3.11719 84.6004 3.64749 82.91 4.7081 81.4915C5.78196 80.0729 7.2867 78.9792 9.2223 78.2102C11.1712 77.4413 13.4515 77.0568 16.0632 77.0568C19.9212 77.0568 22.9572 77.8722 25.1712 79.5028C27.3984 81.1335 28.6977 83.3542 29.0689 86.1648ZM51.3466 77.4545V83.8182H32.9517V77.4545H51.3466ZM37.1278 70.1364H45.5994V98.6136C45.5994 99.3958 45.7188 100.006 45.9574 100.443C46.196 100.867 46.5275 101.166 46.9517 101.338C47.3892 101.51 47.893 101.597 48.4631 101.597C48.8608 101.597 49.2585 101.563 49.6562 101.497C50.054 101.418 50.3589 101.358 50.571 101.318L51.9034 107.622C51.4792 107.755 50.8826 107.907 50.1136 108.08C49.3447 108.265 48.41 108.378 47.3097 108.418C45.268 108.497 43.4782 108.225 41.9403 107.602C40.4157 106.979 39.2292 106.011 38.3807 104.699C37.5322 103.386 37.1146 101.729 37.1278 99.7273V70.1364ZM56.8651 108V77.4545H65.0781V82.7841H65.3963C65.9531 80.8883 66.8878 79.4564 68.2003 78.4886C69.5128 77.5076 71.0241 77.017 72.7344 77.017C73.1586 77.017 73.616 77.0436 74.1065 77.0966C74.5971 77.1496 75.0279 77.2225 75.3991 77.3153V84.8324C75.0014 84.7131 74.4512 84.607 73.7486 84.5142C73.0459 84.4214 72.4029 84.375 71.8196 84.375C70.5734 84.375 69.4598 84.6468 68.4787 85.1903C67.5109 85.7206 66.742 86.4631 66.1719 87.4176C65.6151 88.3722 65.3366 89.4725 65.3366 90.7188V108H56.8651ZM87.6143 108.577C85.6655 108.577 83.9287 108.239 82.4041 107.562C80.8795 106.873 79.6731 105.859 78.7848 104.52C77.9098 103.168 77.4723 101.484 77.4723 99.4688C77.4723 97.7718 77.7839 96.3466 78.407 95.1932C79.0301 94.0398 79.8786 93.1117 80.9524 92.4091C82.0263 91.7064 83.246 91.1761 84.6115 90.8182C85.9903 90.4602 87.4354 90.2083 88.9467 90.0625C90.7232 89.8769 92.1551 89.7045 93.2422 89.5455C94.3293 89.3731 95.1181 89.1212 95.6087 88.7898C96.0992 88.4583 96.3445 87.9678 96.3445 87.3182V87.1989C96.3445 85.9394 95.9467 84.965 95.1513 84.2756C94.3691 83.5862 93.2554 83.2415 91.8104 83.2415C90.2857 83.2415 89.0727 83.5795 88.1712 84.2557C87.2696 84.9186 86.6731 85.7538 86.3814 86.7614L78.5462 86.125C78.9439 84.2689 79.7261 82.6648 80.8928 81.3125C82.0594 79.947 83.5642 78.8996 85.407 78.1705C87.263 77.428 89.4107 77.0568 91.8501 77.0568C93.5471 77.0568 95.1712 77.2557 96.7223 77.6534C98.2867 78.0511 99.6721 78.6676 100.879 79.5028C102.098 80.3381 103.059 81.4119 103.762 82.7244C104.465 84.0237 104.816 85.5814 104.816 87.3977V108H96.782V103.764H96.5433C96.0528 104.719 95.3965 105.561 94.5746 106.29C93.7526 107.006 92.7649 107.569 91.6115 107.98C90.4581 108.378 89.1257 108.577 87.6143 108.577ZM90.0405 102.73C91.2867 102.73 92.3871 102.485 93.3416 101.994C94.2962 101.491 95.0452 100.814 95.5888 99.9659C96.1323 99.1174 96.4041 98.1562 96.4041 97.0824V93.8409C96.139 94.0133 95.7744 94.1723 95.3104 94.3182C94.8596 94.4508 94.3492 94.5767 93.7791 94.696C93.209 94.8021 92.639 94.9015 92.0689 94.9943C91.4988 95.0739 90.9818 95.1468 90.5178 95.2131C89.5234 95.3589 88.6551 95.5909 87.9126 95.9091C87.1702 96.2273 86.5935 96.6581 86.1825 97.2017C85.7715 97.732 85.5661 98.3949 85.5661 99.1903C85.5661 100.344 85.9837 101.225 86.8189 101.835C87.6674 102.432 88.7412 102.73 90.0405 102.73ZM127.636 77.4545V83.8182H109.241V77.4545H127.636ZM113.417 70.1364H121.888V98.6136C121.888 99.3958 122.008 100.006 122.246 100.443C122.485 100.867 122.817 101.166 123.241 101.338C123.678 101.51 124.182 101.597 124.752 101.597C125.15 101.597 125.548 101.563 125.945 101.497C126.343 101.418 126.648 101.358 126.86 101.318L128.192 107.622C127.768 107.755 127.172 107.907 126.403 108.08C125.634 108.265 124.699 108.378 123.599 108.418C121.557 108.497 119.767 108.225 118.229 107.602C116.705 106.979 115.518 106.011 114.67 104.699C113.821 103.386 113.404 101.729 113.417 99.7273V70.1364ZM146.746 108.597C143.604 108.597 140.9 107.96 138.633 106.688C136.379 105.402 134.642 103.585 133.423 101.239C132.203 98.8788 131.593 96.0881 131.593 92.8665C131.593 89.7244 132.203 86.9669 133.423 84.5938C134.642 82.2206 136.359 80.3712 138.573 79.0455C140.8 77.7197 143.412 77.0568 146.408 77.0568C148.424 77.0568 150.299 77.3816 152.036 78.0312C153.786 78.6676 155.311 79.6288 156.61 80.9148C157.923 82.2008 158.943 83.8182 159.673 85.767C160.402 87.7027 160.766 89.9697 160.766 92.5682V94.8949H134.974V89.6449H152.792C152.792 88.4252 152.527 87.3447 151.996 86.4034C151.466 85.4621 150.73 84.7263 149.789 84.196C148.861 83.6525 147.781 83.3807 146.548 83.3807C145.262 83.3807 144.121 83.679 143.127 84.2756C142.146 84.8589 141.377 85.6477 140.82 86.642C140.263 87.6231 139.978 88.7169 139.965 89.9233V94.9148C139.965 96.4261 140.244 97.732 140.8 98.8324C141.371 99.9328 142.173 100.781 143.207 101.378C144.241 101.974 145.467 102.273 146.886 102.273C147.827 102.273 148.689 102.14 149.471 101.875C150.253 101.61 150.923 101.212 151.479 100.682C152.036 100.152 152.46 99.5019 152.752 98.733L160.587 99.25C160.19 101.133 159.374 102.777 158.141 104.182C156.922 105.574 155.344 106.661 153.408 107.443C151.486 108.212 149.265 108.597 146.746 108.597ZM180.056 120.091C177.312 120.091 174.959 119.713 172.996 118.957C171.048 118.215 169.496 117.201 168.343 115.915C167.19 114.629 166.441 113.184 166.096 111.58L173.931 110.526C174.17 111.135 174.548 111.705 175.065 112.236C175.582 112.766 176.264 113.19 177.113 113.509C177.975 113.84 179.022 114.006 180.255 114.006C182.098 114.006 183.616 113.555 184.809 112.653C186.015 111.765 186.619 110.274 186.619 108.179V102.591H186.261C185.889 103.439 185.333 104.241 184.59 104.997C183.848 105.753 182.893 106.369 181.727 106.847C180.56 107.324 179.168 107.562 177.55 107.562C175.257 107.562 173.169 107.032 171.286 105.972C169.417 104.898 167.925 103.26 166.812 101.06C165.711 98.8456 165.161 96.0483 165.161 92.6676C165.161 89.2074 165.725 86.3172 166.852 83.9972C167.978 81.6771 169.477 79.9403 171.346 78.7869C173.228 77.6335 175.29 77.0568 177.531 77.0568C179.241 77.0568 180.673 77.3485 181.826 77.9318C182.979 78.5019 183.907 79.2178 184.61 80.0795C185.326 80.928 185.876 81.7633 186.261 82.5852H186.579V77.4545H194.991V108.298C194.991 110.897 194.354 113.071 193.082 114.821C191.809 116.571 190.046 117.884 187.792 118.759C185.551 119.647 182.973 120.091 180.056 120.091ZM180.235 101.199C181.601 101.199 182.754 100.861 183.695 100.185C184.65 99.4953 185.379 98.5142 185.883 97.2415C186.4 95.9555 186.658 94.4176 186.658 92.6278C186.658 90.8381 186.406 89.2869 185.903 87.9744C185.399 86.6487 184.67 85.6212 183.715 84.892C182.761 84.1629 181.601 83.7983 180.235 83.7983C178.843 83.7983 177.67 84.1761 176.715 84.9318C175.761 85.6742 175.038 86.7083 174.548 88.0341C174.057 89.3598 173.812 90.8911 173.812 92.6278C173.812 94.3911 174.057 95.9157 174.548 97.2017C175.051 98.4744 175.774 99.4621 176.715 100.165C177.67 100.854 178.843 101.199 180.235 101.199ZM206.962 119.455C205.888 119.455 204.881 119.368 203.94 119.196C203.012 119.037 202.243 118.831 201.633 118.58L203.542 112.256C204.536 112.561 205.431 112.726 206.227 112.753C207.035 112.779 207.731 112.594 208.315 112.196C208.911 111.798 209.395 111.122 209.766 110.168L210.263 108.875L199.306 77.4545H208.215L214.539 99.8864H214.857L221.241 77.4545H230.21L218.337 111.301C217.767 112.945 216.992 114.377 216.011 115.597C215.043 116.83 213.817 117.777 212.332 118.44C210.847 119.116 209.057 119.455 206.962 119.455ZM247.506 108V77.4545H255.977V108H247.506ZM251.761 73.517C250.502 73.517 249.421 73.0994 248.52 72.2642C247.632 71.4157 247.188 70.4015 247.188 69.2216C247.188 68.0549 247.632 67.054 248.52 66.2188C249.421 65.3703 250.502 64.946 251.761 64.946C253.021 64.946 254.095 65.3703 254.983 66.2188C255.884 67.054 256.335 68.0549 256.335 69.2216C256.335 70.4015 255.884 71.4157 254.983 72.2642C254.095 73.0994 253.021 73.517 251.761 73.517ZM288.178 86.1648L280.423 86.642C280.29 85.9792 280.005 85.3826 279.567 84.8523C279.13 84.3087 278.553 83.8778 277.837 83.5597C277.135 83.2282 276.293 83.0625 275.312 83.0625C273.999 83.0625 272.892 83.3409 271.991 83.8977C271.089 84.4413 270.638 85.1705 270.638 86.0852C270.638 86.8144 270.93 87.4309 271.513 87.9347C272.097 88.4384 273.098 88.8428 274.516 89.1477L280.045 90.2614C283.014 90.8712 285.228 91.8523 286.687 93.2045C288.145 94.5568 288.874 96.3333 288.874 98.5341C288.874 100.536 288.284 102.293 287.104 103.804C285.938 105.315 284.334 106.495 282.292 107.344C280.263 108.179 277.924 108.597 275.272 108.597C271.228 108.597 268.007 107.755 265.607 106.071C263.221 104.374 261.822 102.067 261.411 99.1506L269.744 98.7131C269.996 99.946 270.605 100.887 271.573 101.537C272.541 102.173 273.781 102.491 275.292 102.491C276.777 102.491 277.97 102.206 278.871 101.636C279.786 101.053 280.25 100.304 280.263 99.3892C280.25 98.6203 279.925 97.9905 279.289 97.5C278.653 96.9962 277.672 96.6117 276.346 96.3466L271.056 95.2926C268.073 94.696 265.853 93.6619 264.394 92.1903C262.949 90.7187 262.227 88.8428 262.227 86.5625C262.227 84.6004 262.757 82.91 263.817 81.4915C264.891 80.0729 266.396 78.9792 268.332 78.2102C270.281 77.4413 272.561 77.0568 275.173 77.0568C279.031 77.0568 282.067 77.8722 284.281 79.5028C286.508 81.1335 287.807 83.3542 288.178 86.1648ZM320.971 108.597C317.842 108.597 315.151 107.934 312.897 106.608C310.656 105.269 308.933 103.413 307.727 101.04C306.533 98.6667 305.937 95.9356 305.937 92.8466C305.937 89.7178 306.54 86.9735 307.746 84.6136C308.966 82.2405 310.696 80.3911 312.937 79.0653C315.177 77.7263 317.842 77.0568 320.931 77.0568C323.596 77.0568 325.929 77.5407 327.931 78.5085C329.933 79.4763 331.517 80.8352 332.684 82.5852C333.851 84.3352 334.494 86.3902 334.613 88.75H326.619C326.393 87.2254 325.797 85.9991 324.829 85.071C323.874 84.1297 322.621 83.6591 321.07 83.6591C319.758 83.6591 318.611 84.017 317.63 84.733C316.662 85.4356 315.906 86.4631 315.363 87.8153C314.819 89.1676 314.548 90.8049 314.548 92.7273C314.548 94.6761 314.813 96.3333 315.343 97.6989C315.887 99.0644 316.649 100.105 317.63 100.821C318.611 101.537 319.758 101.895 321.07 101.895C322.038 101.895 322.906 101.696 323.675 101.298C324.458 100.901 325.101 100.324 325.604 99.5682C326.121 98.7992 326.46 97.8778 326.619 96.804H334.613C334.48 99.1373 333.844 101.192 332.704 102.969C331.577 104.732 330.019 106.111 328.031 107.105C326.042 108.099 323.689 108.597 320.971 108.597ZM348.747 108.577C346.798 108.577 345.062 108.239 343.537 107.562C342.012 106.873 340.806 105.859 339.918 104.52C339.043 103.168 338.605 101.484 338.605 99.4688C338.605 97.7718 338.917 96.3466 339.54 95.1932C340.163 94.0398 341.011 93.1117 342.085 92.4091C343.159 91.7064 344.379 91.1761 345.744 90.8182C347.123 90.4602 348.568 90.2083 350.08 90.0625C351.856 89.8769 353.288 89.7045 354.375 89.5455C355.462 89.3731 356.251 89.1212 356.741 88.7898C357.232 88.4583 357.477 87.9678 357.477 87.3182V87.1989C357.477 85.9394 357.08 84.965 356.284 84.2756C355.502 83.5862 354.388 83.2415 352.943 83.2415C351.419 83.2415 350.205 83.5795 349.304 84.2557C348.402 84.9186 347.806 85.7538 347.514 86.7614L339.679 86.125C340.077 84.2689 340.859 82.6648 342.026 81.3125C343.192 79.947 344.697 78.8996 346.54 78.1705C348.396 77.428 350.544 77.0568 352.983 77.0568C354.68 77.0568 356.304 77.2557 357.855 77.6534C359.42 78.0511 360.805 78.6676 362.011 79.5028C363.231 80.3381 364.192 81.4119 364.895 82.7244C365.598 84.0237 365.949 85.5814 365.949 87.3977V108H357.915V103.764H357.676C357.186 104.719 356.529 105.561 355.707 106.29C354.885 107.006 353.898 107.569 352.744 107.98C351.591 108.378 350.259 108.577 348.747 108.577ZM351.173 102.73C352.42 102.73 353.52 102.485 354.474 101.994C355.429 101.491 356.178 100.814 356.722 99.9659C357.265 99.1174 357.537 98.1562 357.537 97.0824V93.8409C357.272 94.0133 356.907 94.1723 356.443 94.3182C355.992 94.4508 355.482 94.5767 354.912 94.696C354.342 94.8021 353.772 94.9015 353.202 94.9943C352.632 95.0739 352.115 95.1468 351.651 95.2131C350.656 95.3589 349.788 95.5909 349.045 95.9091C348.303 96.2273 347.726 96.6581 347.315 97.2017C346.904 97.732 346.699 98.3949 346.699 99.1903C346.699 100.344 347.116 101.225 347.952 101.835C348.8 102.432 349.874 102.73 351.173 102.73ZM380.993 67.2727V108H372.521V67.2727H380.993ZM396.251 67.2727V108H387.779V67.2727H396.251ZM416.957 108.597C413.815 108.597 411.111 107.96 408.844 106.688C406.59 105.402 404.853 103.585 403.634 101.239C402.414 98.8788 401.804 96.0881 401.804 92.8665C401.804 89.7244 402.414 86.9669 403.634 84.5938C404.853 82.2206 406.57 80.3712 408.784 79.0455C411.011 77.7197 413.623 77.0568 416.619 77.0568C418.634 77.0568 420.51 77.3816 422.247 78.0312C423.997 78.6676 425.522 79.6288 426.821 80.9148C428.134 82.2008 429.154 83.8182 429.884 85.767C430.613 87.7027 430.977 89.9697 430.977 92.5682V94.8949H405.185V89.6449H423.003C423.003 88.4252 422.738 87.3447 422.207 86.4034C421.677 85.4621 420.941 84.7263 420 84.196C419.072 83.6525 417.991 83.3807 416.759 83.3807C415.473 83.3807 414.332 83.679 413.338 84.2756C412.357 84.8589 411.588 85.6477 411.031 86.642C410.474 87.6231 410.189 88.7169 410.176 89.9233V94.9148C410.176 96.4261 410.455 97.732 411.011 98.8324C411.581 99.9328 412.384 100.781 413.418 101.378C414.452 101.974 415.678 102.273 417.097 102.273C418.038 102.273 418.9 102.14 419.682 101.875C420.464 101.61 421.134 101.212 421.69 100.682C422.247 100.152 422.671 99.5019 422.963 98.733L430.798 99.25C430.401 101.133 429.585 102.777 428.352 104.182C427.133 105.574 425.555 106.661 423.619 107.443C421.697 108.212 419.476 108.597 416.957 108.597ZM447.761 108.497C445.441 108.497 443.34 107.901 441.457 106.707C439.588 105.501 438.103 103.731 437.003 101.398C435.916 99.0511 435.372 96.1742 435.372 92.767C435.372 89.267 435.936 86.357 437.062 84.0369C438.189 81.7036 439.688 79.9602 441.557 78.8068C443.439 77.6402 445.501 77.0568 447.741 77.0568C449.452 77.0568 450.877 77.3485 452.017 77.9318C453.17 78.5019 454.098 79.2178 454.801 80.0795C455.517 80.928 456.061 81.7633 456.432 82.5852H456.69V67.2727H465.142V108H456.79V103.108H456.432C456.034 103.956 455.471 104.798 454.741 105.634C454.026 106.455 453.091 107.138 451.938 107.682C450.797 108.225 449.405 108.497 447.761 108.497ZM450.446 101.756C451.812 101.756 452.965 101.384 453.906 100.642C454.861 99.8864 455.59 98.8324 456.094 97.4801C456.611 96.1278 456.869 94.5436 456.869 92.7273C456.869 90.911 456.617 89.3333 456.114 87.9943C455.61 86.6553 454.881 85.6212 453.926 84.892C452.972 84.1629 451.812 83.7983 450.446 83.7983C449.054 83.7983 447.881 84.1761 446.926 84.9318C445.972 85.6875 445.249 86.7348 444.759 88.0739C444.268 89.4129 444.023 90.964 444.023 92.7273C444.023 94.5038 444.268 96.0748 444.759 97.4403C445.262 98.7926 445.985 99.8532 446.926 100.622C447.881 101.378 449.054 101.756 450.446 101.756ZM10.8331 172.577C8.88423 172.577 7.14749 172.239 5.62287 171.562C4.09825 170.873 2.89181 169.859 2.00355 168.52C1.12855 167.168 0.691051 165.484 0.691051 163.469C0.691051 161.772 1.0026 160.347 1.62571 159.193C2.24882 158.04 3.0973 157.112 4.17116 156.409C5.24503 155.706 6.46473 155.176 7.83026 154.818C9.20904 154.46 10.6541 154.208 12.1655 154.062C13.942 153.877 15.3738 153.705 16.4609 153.545C17.5481 153.373 18.3369 153.121 18.8274 152.79C19.3179 152.458 19.5632 151.968 19.5632 151.318V151.199C19.5632 149.939 19.1655 148.965 18.37 148.276C17.5878 147.586 16.4742 147.241 15.0291 147.241C13.5045 147.241 12.2914 147.58 11.3899 148.256C10.4884 148.919 9.89181 149.754 9.60014 150.761L1.76491 150.125C2.16264 148.269 2.94484 146.665 4.11151 145.312C5.27817 143.947 6.78291 142.9 8.62571 142.17C10.4818 141.428 12.6295 141.057 15.0689 141.057C16.7659 141.057 18.3899 141.256 19.9411 141.653C21.5054 142.051 22.8909 142.668 24.0973 143.503C25.317 144.338 26.2782 145.412 26.9808 146.724C27.6835 148.024 28.0348 149.581 28.0348 151.398V172H20.0007V167.764H19.7621C19.2715 168.719 18.6153 169.561 17.7933 170.29C16.9714 171.006 15.9837 171.569 14.8303 171.98C13.6768 172.378 12.3445 172.577 10.8331 172.577ZM13.2592 166.73C14.5054 166.73 15.6058 166.485 16.5604 165.994C17.5149 165.491 18.264 164.814 18.8075 163.966C19.3511 163.117 19.6229 162.156 19.6229 161.082V157.841C19.3577 158.013 18.9931 158.172 18.5291 158.318C18.0784 158.451 17.5679 158.577 16.9979 158.696C16.4278 158.802 15.8577 158.902 15.2876 158.994C14.7176 159.074 14.2005 159.147 13.7365 159.213C12.7422 159.359 11.8738 159.591 11.1314 159.909C10.389 160.227 9.81226 160.658 9.40128 161.202C8.99029 161.732 8.7848 162.395 8.7848 163.19C8.7848 164.344 9.20241 165.225 10.0376 165.835C10.8861 166.432 11.96 166.73 13.2592 166.73ZM34.6072 172V141.455H42.8203V146.784H43.1385C43.6953 144.888 44.63 143.456 45.9425 142.489C47.255 141.508 48.7663 141.017 50.4766 141.017C50.9008 141.017 51.3582 141.044 51.8487 141.097C52.3393 141.15 52.7701 141.223 53.1413 141.315V148.832C52.7436 148.713 52.1934 148.607 51.4908 148.514C50.7881 148.421 50.1451 148.375 49.5618 148.375C48.3156 148.375 47.2019 148.647 46.2209 149.19C45.2531 149.721 44.4841 150.463 43.9141 151.418C43.3572 152.372 43.0788 153.473 43.0788 154.719V172H34.6072ZM75.2997 141.455V147.818H56.9048V141.455H75.2997ZM61.081 134.136H69.5526V162.614C69.5526 163.396 69.6719 164.006 69.9105 164.443C70.1491 164.867 70.4806 165.166 70.9048 165.338C71.3423 165.51 71.8461 165.597 72.4162 165.597C72.8139 165.597 73.2116 165.563 73.6094 165.497C74.0071 165.418 74.312 165.358 74.5241 165.318L75.8565 171.622C75.4323 171.755 74.8357 171.907 74.0668 172.08C73.2978 172.265 72.3632 172.378 71.2628 172.418C69.2211 172.497 67.4313 172.225 65.8935 171.602C64.3688 170.979 63.1823 170.011 62.3338 168.699C61.4853 167.386 61.0677 165.729 61.081 163.727V134.136ZM85.7699 172.517C84.4574 172.517 83.3305 172.053 82.3892 171.125C81.4612 170.184 80.9972 169.057 80.9972 167.744C80.9972 166.445 81.4612 165.331 82.3892 164.403C83.3305 163.475 84.4574 163.011 85.7699 163.011C87.0426 163.011 88.1563 163.475 89.1108 164.403C90.0653 165.331 90.5426 166.445 90.5426 167.744C90.5426 168.619 90.3172 169.421 89.8665 170.151C89.429 170.866 88.8523 171.443 88.1364 171.881C87.4205 172.305 86.6316 172.517 85.7699 172.517ZM144.638 145.531H135.928C135.769 144.404 135.444 143.403 134.954 142.528C134.463 141.64 133.834 140.884 133.065 140.261C132.296 139.638 131.407 139.161 130.4 138.83C129.406 138.498 128.325 138.332 127.158 138.332C125.05 138.332 123.214 138.856 121.65 139.903C120.085 140.937 118.872 142.449 118.011 144.438C117.149 146.413 116.718 148.812 116.718 151.636C116.718 154.54 117.149 156.979 118.011 158.955C118.886 160.93 120.105 162.421 121.67 163.429C123.234 164.437 125.044 164.94 127.099 164.94C128.252 164.94 129.319 164.788 130.3 164.483C131.295 164.178 132.176 163.734 132.945 163.151C133.714 162.554 134.351 161.831 134.854 160.983C135.371 160.134 135.729 159.167 135.928 158.08L144.638 158.119C144.413 159.989 143.85 161.792 142.948 163.528C142.06 165.252 140.86 166.796 139.349 168.162C137.851 169.514 136.061 170.588 133.979 171.384C131.911 172.166 129.571 172.557 126.96 172.557C123.327 172.557 120.079 171.735 117.215 170.091C114.365 168.447 112.111 166.067 110.454 162.952C108.81 159.836 107.988 156.064 107.988 151.636C107.988 147.195 108.823 143.417 110.494 140.301C112.164 137.186 114.431 134.812 117.295 133.182C120.158 131.538 123.38 130.716 126.96 130.716C129.319 130.716 131.507 131.047 133.522 131.71C135.55 132.373 137.347 133.341 138.911 134.614C140.476 135.873 141.748 137.418 142.729 139.247C143.724 141.077 144.36 143.171 144.638 145.531ZM150.654 172V141.455H158.867V146.784H159.185C159.742 144.888 160.677 143.456 161.989 142.489C163.302 141.508 164.813 141.017 166.523 141.017C166.948 141.017 167.405 141.044 167.896 141.097C168.386 141.15 168.817 141.223 169.188 141.315V148.832C168.79 148.713 168.24 148.607 167.538 148.514C166.835 148.421 166.192 148.375 165.609 148.375C164.362 148.375 163.249 148.647 162.268 149.19C161.3 149.721 160.531 150.463 159.961 151.418C159.404 152.372 159.126 153.473 159.126 154.719V172H150.654ZM186.067 172.597C182.925 172.597 180.22 171.96 177.953 170.688C175.699 169.402 173.963 167.585 172.743 165.239C171.523 162.879 170.913 160.088 170.913 156.866C170.913 153.724 171.523 150.967 172.743 148.594C173.963 146.221 175.679 144.371 177.893 143.045C180.121 141.72 182.732 141.057 185.729 141.057C187.744 141.057 189.62 141.382 191.357 142.031C193.107 142.668 194.631 143.629 195.93 144.915C197.243 146.201 198.264 147.818 198.993 149.767C199.722 151.703 200.087 153.97 200.087 156.568V158.895H174.294V153.645H192.112C192.112 152.425 191.847 151.345 191.317 150.403C190.786 149.462 190.051 148.726 189.109 148.196C188.181 147.652 187.101 147.381 185.868 147.381C184.582 147.381 183.442 147.679 182.447 148.276C181.466 148.859 180.697 149.648 180.141 150.642C179.584 151.623 179.299 152.717 179.286 153.923V158.915C179.286 160.426 179.564 161.732 180.121 162.832C180.691 163.933 181.493 164.781 182.527 165.378C183.561 165.974 184.787 166.273 186.206 166.273C187.147 166.273 188.009 166.14 188.791 165.875C189.573 165.61 190.243 165.212 190.8 164.682C191.357 164.152 191.781 163.502 192.072 162.733L199.908 163.25C199.51 165.133 198.695 166.777 197.462 168.182C196.242 169.574 194.664 170.661 192.729 171.443C190.806 172.212 188.586 172.597 186.067 172.597ZM214.325 172.577C212.376 172.577 210.64 172.239 209.115 171.562C207.59 170.873 206.384 169.859 205.496 168.52C204.621 167.168 204.183 165.484 204.183 163.469C204.183 161.772 204.495 160.347 205.118 159.193C205.741 158.04 206.589 157.112 207.663 156.409C208.737 155.706 209.957 155.176 211.322 154.818C212.701 154.46 214.146 154.208 215.658 154.062C217.434 153.877 218.866 153.705 219.953 153.545C221.04 153.373 221.829 153.121 222.32 152.79C222.81 152.458 223.055 151.968 223.055 151.318V151.199C223.055 149.939 222.658 148.965 221.862 148.276C221.08 147.586 219.966 147.241 218.521 147.241C216.997 147.241 215.784 147.58 214.882 148.256C213.981 148.919 213.384 149.754 213.092 150.761L205.257 150.125C205.655 148.269 206.437 146.665 207.604 145.312C208.77 143.947 210.275 142.9 212.118 142.17C213.974 141.428 216.122 141.057 218.561 141.057C220.258 141.057 221.882 141.256 223.433 141.653C224.998 142.051 226.383 142.668 227.589 143.503C228.809 144.338 229.77 145.412 230.473 146.724C231.176 148.024 231.527 149.581 231.527 151.398V172H223.493V167.764H223.254C222.764 168.719 222.107 169.561 221.286 170.29C220.464 171.006 219.476 171.569 218.322 171.98C217.169 172.378 215.837 172.577 214.325 172.577ZM216.751 166.73C217.998 166.73 219.098 166.485 220.053 165.994C221.007 165.491 221.756 164.814 222.3 163.966C222.843 163.117 223.115 162.156 223.115 161.082V157.841C222.85 158.013 222.485 158.172 222.021 158.318C221.571 158.451 221.06 158.577 220.49 158.696C219.92 158.802 219.35 158.902 218.78 158.994C218.21 159.074 217.693 159.147 217.229 159.213C216.234 159.359 215.366 159.591 214.624 159.909C213.881 160.227 213.304 160.658 212.893 161.202C212.482 161.732 212.277 162.395 212.277 163.19C212.277 164.344 212.695 165.225 213.53 165.835C214.378 166.432 215.452 166.73 216.751 166.73ZM254.347 141.455V147.818H235.952V141.455H254.347ZM240.128 134.136H248.599V162.614C248.599 163.396 248.719 164.006 248.957 164.443C249.196 164.867 249.527 165.166 249.952 165.338C250.389 165.51 250.893 165.597 251.463 165.597C251.861 165.597 252.259 165.563 252.656 165.497C253.054 165.418 253.359 165.358 253.571 165.318L254.903 171.622C254.479 171.755 253.883 171.907 253.114 172.08C252.345 172.265 251.41 172.378 250.31 172.418C248.268 172.497 246.478 172.225 244.94 171.602C243.416 170.979 242.229 170.011 241.381 168.699C240.532 167.386 240.115 165.729 240.128 163.727V134.136ZM259.865 172V141.455H268.337V172H259.865ZM264.121 137.517C262.861 137.517 261.781 137.099 260.879 136.264C259.991 135.416 259.547 134.402 259.547 133.222C259.547 132.055 259.991 131.054 260.879 130.219C261.781 129.37 262.861 128.946 264.121 128.946C265.38 128.946 266.454 129.37 267.342 130.219C268.244 131.054 268.695 132.055 268.695 133.222C268.695 134.402 268.244 135.416 267.342 136.264C266.454 137.099 265.38 137.517 264.121 137.517ZM303.6 141.455L292.921 172H283.376L272.697 141.455H281.646L287.989 163.31H288.308L294.631 141.455H303.6ZM320.871 172.597C317.729 172.597 315.025 171.96 312.758 170.688C310.504 169.402 308.767 167.585 307.548 165.239C306.328 162.879 305.718 160.088 305.718 156.866C305.718 153.724 306.328 150.967 307.548 148.594C308.767 146.221 310.484 144.371 312.698 143.045C314.925 141.72 317.537 141.057 320.533 141.057C322.549 141.057 324.424 141.382 326.161 142.031C327.911 142.668 329.436 143.629 330.735 144.915C332.048 146.201 333.068 147.818 333.798 149.767C334.527 151.703 334.891 153.97 334.891 156.568V158.895H309.099V153.645H326.917C326.917 152.425 326.652 151.345 326.121 150.403C325.591 149.462 324.855 148.726 323.914 148.196C322.986 147.652 321.906 147.381 320.673 147.381C319.387 147.381 318.246 147.679 317.252 148.276C316.271 148.859 315.502 149.648 314.945 150.642C314.388 151.623 314.103 152.717 314.09 153.923V158.915C314.09 160.426 314.369 161.732 314.925 162.832C315.496 163.933 316.298 164.781 317.332 165.378C318.366 165.974 319.592 166.273 321.011 166.273C321.952 166.273 322.814 166.14 323.596 165.875C324.378 165.61 325.048 165.212 325.604 164.682C326.161 164.152 326.585 163.502 326.877 162.733L334.712 163.25C334.315 165.133 333.499 166.777 332.266 168.182C331.047 169.574 329.469 170.661 327.533 171.443C325.611 172.212 323.39 172.597 320.871 172.597ZM359.406 172L351.094 141.455H359.665L364.398 161.977H364.676L369.608 141.455H378.02L383.031 161.858H383.29L387.943 141.455H396.494L388.202 172H379.233L373.983 152.79H373.605L368.355 172H359.406ZM401.013 172V141.455H409.485V172H401.013ZM405.269 137.517C404.01 137.517 402.929 137.099 402.028 136.264C401.139 135.416 400.695 134.402 400.695 133.222C400.695 132.055 401.139 131.054 402.028 130.219C402.929 129.37 404.01 128.946 405.269 128.946C406.529 128.946 407.603 129.37 408.491 130.219C409.392 131.054 409.843 132.055 409.843 133.222C409.843 134.402 409.392 135.416 408.491 136.264C407.603 137.099 406.529 137.517 405.269 137.517ZM432.518 141.455V147.818H414.124V141.455H432.518ZM418.3 134.136H426.771V162.614C426.771 163.396 426.891 164.006 427.129 164.443C427.368 164.867 427.699 165.166 428.124 165.338C428.561 165.51 429.065 165.597 429.635 165.597C430.033 165.597 430.43 165.563 430.828 165.497C431.226 165.418 431.531 165.358 431.743 165.318L433.075 171.622C432.651 171.755 432.054 171.907 431.286 172.08C430.517 172.265 429.582 172.378 428.482 172.418C426.44 172.497 424.65 172.225 423.112 171.602C421.588 170.979 420.401 170.011 419.553 168.699C418.704 167.386 418.286 165.729 418.3 163.727V134.136ZM447.165 154.341V172H438.693V131.273H446.926V146.844H447.284C447.973 145.041 449.087 143.629 450.625 142.608C452.163 141.574 454.092 141.057 456.412 141.057C458.533 141.057 460.383 141.521 461.96 142.449C463.551 143.364 464.784 144.683 465.659 146.406C466.547 148.116 466.985 150.165 466.972 152.551V172H458.5V154.062C458.513 152.18 458.036 150.715 457.068 149.668C456.114 148.62 454.775 148.097 453.051 148.097C451.898 148.097 450.877 148.342 449.989 148.832C449.114 149.323 448.424 150.039 447.92 150.98C447.43 151.908 447.178 153.028 447.165 154.341ZM29.0689 214.165L21.3132 214.642C21.1806 213.979 20.8956 213.383 20.4581 212.852C20.0206 212.309 19.4439 211.878 18.728 211.56C18.0253 211.228 17.1835 211.062 16.2024 211.062C14.8899 211.062 13.7829 211.341 12.8814 211.898C11.9799 212.441 11.5291 213.17 11.5291 214.085C11.5291 214.814 11.8208 215.431 12.4041 215.935C12.9875 216.438 13.9884 216.843 15.407 217.148L20.9354 218.261C23.9051 218.871 26.1191 219.852 27.5774 221.205C29.0357 222.557 29.7649 224.333 29.7649 226.534C29.7649 228.536 29.175 230.293 27.995 231.804C26.8284 233.315 25.2242 234.495 23.1825 235.344C21.1541 236.179 18.8142 236.597 16.1626 236.597C12.1191 236.597 8.89749 235.755 6.49787 234.071C4.11151 232.374 2.71283 230.067 2.30185 227.151L10.6342 226.713C10.8861 227.946 11.496 228.887 12.4638 229.537C13.4316 230.173 14.6712 230.491 16.1825 230.491C17.6674 230.491 18.8606 230.206 19.7621 229.636C20.6768 229.053 21.1409 228.304 21.1541 227.389C21.1409 226.62 20.8161 225.991 20.1797 225.5C19.5433 224.996 18.5623 224.612 17.2365 224.347L11.9467 223.293C8.96378 222.696 6.74313 221.662 5.2848 220.19C3.83973 218.719 3.11719 216.843 3.11719 214.562C3.11719 212.6 3.64749 210.91 4.7081 209.491C5.78196 208.073 7.2867 206.979 9.2223 206.21C11.1712 205.441 13.4515 205.057 16.0632 205.057C19.9212 205.057 22.9572 205.872 25.1712 207.503C27.3984 209.134 28.6977 211.354 29.0689 214.165ZM51.3466 205.455V211.818H32.9517V205.455H51.3466ZM37.1278 198.136H45.5994V226.614C45.5994 227.396 45.7188 228.006 45.9574 228.443C46.196 228.867 46.5275 229.166 46.9517 229.338C47.3892 229.51 47.893 229.597 48.4631 229.597C48.8608 229.597 49.2585 229.563 49.6562 229.497C50.054 229.418 50.3589 229.358 50.571 229.318L51.9034 235.622C51.4792 235.755 50.8826 235.907 50.1136 236.08C49.3447 236.265 48.41 236.378 47.3097 236.418C45.268 236.497 43.4782 236.225 41.9403 235.602C40.4157 234.979 39.2292 234.011 38.3807 232.699C37.5322 231.386 37.1146 229.729 37.1278 227.727V198.136ZM56.8651 236V205.455H65.0781V210.784H65.3963C65.9531 208.888 66.8878 207.456 68.2003 206.489C69.5128 205.508 71.0241 205.017 72.7344 205.017C73.1586 205.017 73.616 205.044 74.1065 205.097C74.5971 205.15 75.0279 205.223 75.3991 205.315V212.832C75.0014 212.713 74.4512 212.607 73.7486 212.514C73.0459 212.421 72.4029 212.375 71.8196 212.375C70.5734 212.375 69.4598 212.647 68.4787 213.19C67.5109 213.721 66.742 214.463 66.1719 215.418C65.6151 216.372 65.3366 217.473 65.3366 218.719V236H56.8651ZM87.6143 236.577C85.6655 236.577 83.9287 236.239 82.4041 235.562C80.8795 234.873 79.6731 233.859 78.7848 232.52C77.9098 231.168 77.4723 229.484 77.4723 227.469C77.4723 225.772 77.7839 224.347 78.407 223.193C79.0301 222.04 79.8786 221.112 80.9524 220.409C82.0263 219.706 83.246 219.176 84.6115 218.818C85.9903 218.46 87.4354 218.208 88.9467 218.062C90.7232 217.877 92.1551 217.705 93.2422 217.545C94.3293 217.373 95.1181 217.121 95.6087 216.79C96.0992 216.458 96.3445 215.968 96.3445 215.318V215.199C96.3445 213.939 95.9467 212.965 95.1513 212.276C94.3691 211.586 93.2554 211.241 91.8104 211.241C90.2857 211.241 89.0727 211.58 88.1712 212.256C87.2696 212.919 86.6731 213.754 86.3814 214.761L78.5462 214.125C78.9439 212.269 79.7261 210.665 80.8928 209.312C82.0594 207.947 83.5642 206.9 85.407 206.17C87.263 205.428 89.4107 205.057 91.8501 205.057C93.5471 205.057 95.1712 205.256 96.7223 205.653C98.2867 206.051 99.6721 206.668 100.879 207.503C102.098 208.338 103.059 209.412 103.762 210.724C104.465 212.024 104.816 213.581 104.816 215.398V236H96.782V231.764H96.5433C96.0528 232.719 95.3965 233.561 94.5746 234.29C93.7526 235.006 92.7649 235.569 91.6115 235.98C90.4581 236.378 89.1257 236.577 87.6143 236.577ZM90.0405 230.73C91.2867 230.73 92.3871 230.485 93.3416 229.994C94.2962 229.491 95.0452 228.814 95.5888 227.966C96.1323 227.117 96.4041 226.156 96.4041 225.082V221.841C96.139 222.013 95.7744 222.172 95.3104 222.318C94.8596 222.451 94.3492 222.577 93.7791 222.696C93.209 222.802 92.639 222.902 92.0689 222.994C91.4988 223.074 90.9818 223.147 90.5178 223.213C89.5234 223.359 88.6551 223.591 87.9126 223.909C87.1702 224.227 86.5935 224.658 86.1825 225.202C85.7715 225.732 85.5661 226.395 85.5661 227.19C85.5661 228.344 85.9837 229.225 86.8189 229.835C87.6674 230.432 88.7412 230.73 90.0405 230.73ZM127.636 205.455V211.818H109.241V205.455H127.636ZM113.417 198.136H121.888V226.614C121.888 227.396 122.008 228.006 122.246 228.443C122.485 228.867 122.817 229.166 123.241 229.338C123.678 229.51 124.182 229.597 124.752 229.597C125.15 229.597 125.548 229.563 125.945 229.497C126.343 229.418 126.648 229.358 126.86 229.318L128.192 235.622C127.768 235.755 127.172 235.907 126.403 236.08C125.634 236.265 124.699 236.378 123.599 236.418C121.557 236.497 119.767 236.225 118.229 235.602C116.705 234.979 115.518 234.011 114.67 232.699C113.821 231.386 113.404 229.729 113.417 227.727V198.136ZM146.746 236.597C143.604 236.597 140.9 235.96 138.633 234.688C136.379 233.402 134.642 231.585 133.423 229.239C132.203 226.879 131.593 224.088 131.593 220.866C131.593 217.724 132.203 214.967 133.423 212.594C134.642 210.221 136.359 208.371 138.573 207.045C140.8 205.72 143.412 205.057 146.408 205.057C148.424 205.057 150.299 205.382 152.036 206.031C153.786 206.668 155.311 207.629 156.61 208.915C157.923 210.201 158.943 211.818 159.673 213.767C160.402 215.703 160.766 217.97 160.766 220.568V222.895H134.974V217.645H152.792C152.792 216.425 152.527 215.345 151.996 214.403C151.466 213.462 150.73 212.726 149.789 212.196C148.861 211.652 147.781 211.381 146.548 211.381C145.262 211.381 144.121 211.679 143.127 212.276C142.146 212.859 141.377 213.648 140.82 214.642C140.263 215.623 139.978 216.717 139.965 217.923V222.915C139.965 224.426 140.244 225.732 140.8 226.832C141.371 227.933 142.173 228.781 143.207 229.378C144.241 229.974 145.467 230.273 146.886 230.273C147.827 230.273 148.689 230.14 149.471 229.875C150.253 229.61 150.923 229.212 151.479 228.682C152.036 228.152 152.46 227.502 152.752 226.733L160.587 227.25C160.19 229.133 159.374 230.777 158.141 232.182C156.922 233.574 155.344 234.661 153.408 235.443C151.486 236.212 149.265 236.597 146.746 236.597ZM180.056 248.091C177.312 248.091 174.959 247.713 172.996 246.957C171.048 246.215 169.496 245.201 168.343 243.915C167.19 242.629 166.441 241.184 166.096 239.58L173.931 238.526C174.17 239.135 174.548 239.705 175.065 240.236C175.582 240.766 176.264 241.19 177.113 241.509C177.975 241.84 179.022 242.006 180.255 242.006C182.098 242.006 183.616 241.555 184.809 240.653C186.015 239.765 186.619 238.274 186.619 236.179V230.591H186.261C185.889 231.439 185.333 232.241 184.59 232.997C183.848 233.753 182.893 234.369 181.727 234.847C180.56 235.324 179.168 235.562 177.55 235.562C175.257 235.562 173.169 235.032 171.286 233.972C169.417 232.898 167.925 231.26 166.812 229.06C165.711 226.846 165.161 224.048 165.161 220.668C165.161 217.207 165.725 214.317 166.852 211.997C167.978 209.677 169.477 207.94 171.346 206.787C173.228 205.634 175.29 205.057 177.531 205.057C179.241 205.057 180.673 205.348 181.826 205.932C182.979 206.502 183.907 207.218 184.61 208.08C185.326 208.928 185.876 209.763 186.261 210.585H186.579V205.455H194.991V236.298C194.991 238.897 194.354 241.071 193.082 242.821C191.809 244.571 190.046 245.884 187.792 246.759C185.551 247.647 182.973 248.091 180.056 248.091ZM180.235 229.199C181.601 229.199 182.754 228.861 183.695 228.185C184.65 227.495 185.379 226.514 185.883 225.241C186.4 223.955 186.658 222.418 186.658 220.628C186.658 218.838 186.406 217.287 185.903 215.974C185.399 214.649 184.67 213.621 183.715 212.892C182.761 212.163 181.601 211.798 180.235 211.798C178.843 211.798 177.67 212.176 176.715 212.932C175.761 213.674 175.038 214.708 174.548 216.034C174.057 217.36 173.812 218.891 173.812 220.628C173.812 222.391 174.057 223.916 174.548 225.202C175.051 226.474 175.774 227.462 176.715 228.165C177.67 228.854 178.843 229.199 180.235 229.199ZM206.962 247.455C205.888 247.455 204.881 247.368 203.94 247.196C203.012 247.037 202.243 246.831 201.633 246.58L203.542 240.256C204.536 240.561 205.431 240.726 206.227 240.753C207.035 240.779 207.731 240.594 208.315 240.196C208.911 239.798 209.395 239.122 209.766 238.168L210.263 236.875L199.306 205.455H208.215L214.539 227.886H214.857L221.241 205.455H230.21L218.337 239.301C217.767 240.945 216.992 242.377 216.011 243.597C215.043 244.83 213.817 245.777 212.332 246.44C210.847 247.116 209.057 247.455 206.962 247.455ZM247.506 236V205.455H255.977V236H247.506ZM251.761 201.517C250.502 201.517 249.421 201.099 248.52 200.264C247.632 199.416 247.188 198.402 247.188 197.222C247.188 196.055 247.632 195.054 248.52 194.219C249.421 193.37 250.502 192.946 251.761 192.946C253.021 192.946 254.095 193.37 254.983 194.219C255.884 195.054 256.335 196.055 256.335 197.222C256.335 198.402 255.884 199.416 254.983 200.264C254.095 201.099 253.021 201.517 251.761 201.517ZM288.178 214.165L280.423 214.642C280.29 213.979 280.005 213.383 279.567 212.852C279.13 212.309 278.553 211.878 277.837 211.56C277.135 211.228 276.293 211.062 275.312 211.062C273.999 211.062 272.892 211.341 271.991 211.898C271.089 212.441 270.638 213.17 270.638 214.085C270.638 214.814 270.93 215.431 271.513 215.935C272.097 216.438 273.098 216.843 274.516 217.148L280.045 218.261C283.014 218.871 285.228 219.852 286.687 221.205C288.145 222.557 288.874 224.333 288.874 226.534C288.874 228.536 288.284 230.293 287.104 231.804C285.938 233.315 284.334 234.495 282.292 235.344C280.263 236.179 277.924 236.597 275.272 236.597C271.228 236.597 268.007 235.755 265.607 234.071C263.221 232.374 261.822 230.067 261.411 227.151L269.744 226.713C269.996 227.946 270.605 228.887 271.573 229.537C272.541 230.173 273.781 230.491 275.292 230.491C276.777 230.491 277.97 230.206 278.871 229.636C279.786 229.053 280.25 228.304 280.263 227.389C280.25 226.62 279.925 225.991 279.289 225.5C278.653 224.996 277.672 224.612 276.346 224.347L271.056 223.293C268.073 222.696 265.853 221.662 264.394 220.19C262.949 218.719 262.227 216.843 262.227 214.562C262.227 212.6 262.757 210.91 263.817 209.491C264.891 208.073 266.396 206.979 268.332 206.21C270.281 205.441 272.561 205.057 275.173 205.057C279.031 205.057 282.067 205.872 284.281 207.503C286.508 209.134 287.807 211.354 288.178 214.165ZM320.971 236.597C317.842 236.597 315.151 235.934 312.897 234.608C310.656 233.269 308.933 231.413 307.727 229.04C306.533 226.667 305.937 223.936 305.937 220.847C305.937 217.718 306.54 214.973 307.746 212.614C308.966 210.241 310.696 208.391 312.937 207.065C315.177 205.726 317.842 205.057 320.931 205.057C323.596 205.057 325.929 205.541 327.931 206.509C329.933 207.476 331.517 208.835 332.684 210.585C333.851 212.335 334.494 214.39 334.613 216.75H326.619C326.393 215.225 325.797 213.999 324.829 213.071C323.874 212.13 322.621 211.659 321.07 211.659C319.758 211.659 318.611 212.017 317.63 212.733C316.662 213.436 315.906 214.463 315.363 215.815C314.819 217.168 314.548 218.805 314.548 220.727C314.548 222.676 314.813 224.333 315.343 225.699C315.887 227.064 316.649 228.105 317.63 228.821C318.611 229.537 319.758 229.895 321.07 229.895C322.038 229.895 322.906 229.696 323.675 229.298C324.458 228.901 325.101 228.324 325.604 227.568C326.121 226.799 326.46 225.878 326.619 224.804H334.613C334.48 227.137 333.844 229.192 332.704 230.969C331.577 232.732 330.019 234.111 328.031 235.105C326.042 236.099 323.689 236.597 320.971 236.597ZM348.747 236.577C346.798 236.577 345.062 236.239 343.537 235.562C342.012 234.873 340.806 233.859 339.918 232.52C339.043 231.168 338.605 229.484 338.605 227.469C338.605 225.772 338.917 224.347 339.54 223.193C340.163 222.04 341.011 221.112 342.085 220.409C343.159 219.706 344.379 219.176 345.744 218.818C347.123 218.46 348.568 218.208 350.08 218.062C351.856 217.877 353.288 217.705 354.375 217.545C355.462 217.373 356.251 217.121 356.741 216.79C357.232 216.458 357.477 215.968 357.477 215.318V215.199C357.477 213.939 357.08 212.965 356.284 212.276C355.502 211.586 354.388 211.241 352.943 211.241C351.419 211.241 350.205 211.58 349.304 212.256C348.402 212.919 347.806 213.754 347.514 214.761L339.679 214.125C340.077 212.269 340.859 210.665 342.026 209.312C343.192 207.947 344.697 206.9 346.54 206.17C348.396 205.428 350.544 205.057 352.983 205.057C354.68 205.057 356.304 205.256 357.855 205.653C359.42 206.051 360.805 206.668 362.011 207.503C363.231 208.338 364.192 209.412 364.895 210.724C365.598 212.024 365.949 213.581 365.949 215.398V236H357.915V231.764H357.676C357.186 232.719 356.529 233.561 355.707 234.29C354.885 235.006 353.898 235.569 352.744 235.98C351.591 236.378 350.259 236.577 348.747 236.577ZM351.173 230.73C352.42 230.73 353.52 230.485 354.474 229.994C355.429 229.491 356.178 228.814 356.722 227.966C357.265 227.117 357.537 226.156 357.537 225.082V221.841C357.272 222.013 356.907 222.172 356.443 222.318C355.992 222.451 355.482 222.577 354.912 222.696C354.342 222.802 353.772 222.902 353.202 222.994C352.632 223.074 352.115 223.147 351.651 223.213C350.656 223.359 349.788 223.591 349.045 223.909C348.303 224.227 347.726 224.658 347.315 225.202C346.904 225.732 346.699 226.395 346.699 227.19C346.699 228.344 347.116 229.225 347.952 229.835C348.8 230.432 349.874 230.73 351.173 230.73ZM380.993 195.273V236H372.521V195.273H380.993ZM396.251 195.273V236H387.779V195.273H396.251ZM416.957 236.597C413.815 236.597 411.111 235.96 408.844 234.688C406.59 233.402 404.853 231.585 403.634 229.239C402.414 226.879 401.804 224.088 401.804 220.866C401.804 217.724 402.414 214.967 403.634 212.594C404.853 210.221 406.57 208.371 408.784 207.045C411.011 205.72 413.623 205.057 416.619 205.057C418.634 205.057 420.51 205.382 422.247 206.031C423.997 206.668 425.522 207.629 426.821 208.915C428.134 210.201 429.154 211.818 429.884 213.767C430.613 215.703 430.977 217.97 430.977 220.568V222.895H405.185V217.645H423.003C423.003 216.425 422.738 215.345 422.207 214.403C421.677 213.462 420.941 212.726 420 212.196C419.072 211.652 417.991 211.381 416.759 211.381C415.473 211.381 414.332 211.679 413.338 212.276C412.357 212.859 411.588 213.648 411.031 214.642C410.474 215.623 410.189 216.717 410.176 217.923V222.915C410.176 224.426 410.455 225.732 411.011 226.832C411.581 227.933 412.384 228.781 413.418 229.378C414.452 229.974 415.678 230.273 417.097 230.273C418.038 230.273 418.9 230.14 419.682 229.875C420.464 229.61 421.134 229.212 421.69 228.682C422.247 228.152 422.671 227.502 422.963 226.733L430.798 227.25C430.401 229.133 429.585 230.777 428.352 232.182C427.133 233.574 425.555 234.661 423.619 235.443C421.697 236.212 419.476 236.597 416.957 236.597ZM447.761 236.497C445.441 236.497 443.34 235.901 441.457 234.707C439.588 233.501 438.103 231.731 437.003 229.398C435.916 227.051 435.372 224.174 435.372 220.767C435.372 217.267 435.936 214.357 437.062 212.037C438.189 209.704 439.688 207.96 441.557 206.807C443.439 205.64 445.501 205.057 447.741 205.057C449.452 205.057 450.877 205.348 452.017 205.932C453.17 206.502 454.098 207.218 454.801 208.08C455.517 208.928 456.061 209.763 456.432 210.585H456.69V195.273H465.142V236H456.79V231.108H456.432C456.034 231.956 455.471 232.798 454.741 233.634C454.026 234.455 453.091 235.138 451.938 235.682C450.797 236.225 449.405 236.497 447.761 236.497ZM450.446 229.756C451.812 229.756 452.965 229.384 453.906 228.642C454.861 227.886 455.59 226.832 456.094 225.48C456.611 224.128 456.869 222.544 456.869 220.727C456.869 218.911 456.617 217.333 456.114 215.994C455.61 214.655 454.881 213.621 453.926 212.892C452.972 212.163 451.812 211.798 450.446 211.798C449.054 211.798 447.881 212.176 446.926 212.932C445.972 213.687 445.249 214.735 444.759 216.074C444.268 217.413 444.023 218.964 444.023 220.727C444.023 222.504 444.268 224.075 444.759 225.44C445.262 226.793 445.985 227.853 446.926 228.622C447.881 229.378 449.054 229.756 450.446 229.756ZM82.337 300.577C80.3881 300.577 78.6514 300.239 77.1268 299.562C75.6022 298.873 74.3957 297.859 73.5075 296.52C72.6325 295.168 72.195 293.484 72.195 291.469C72.195 289.772 72.5065 288.347 73.1296 287.193C73.7527 286.04 74.6012 285.112 75.6751 284.409C76.7489 283.706 77.9686 283.176 79.3342 282.818C80.7129 282.46 82.158 282.208 83.6694 282.062C85.4459 281.877 86.8777 281.705 87.9648 281.545C89.052 281.373 89.8408 281.121 90.3313 280.79C90.8219 280.458 91.0671 279.968 91.0671 279.318V279.199C91.0671 277.939 90.6694 276.965 89.8739 276.276C89.0917 275.586 87.9781 275.241 86.533 275.241C85.0084 275.241 83.7953 275.58 82.8938 276.256C81.9923 276.919 81.3957 277.754 81.104 278.761L73.2688 278.125C73.6665 276.269 74.4487 274.665 75.6154 273.312C76.7821 271.947 78.2868 270.9 80.1296 270.17C81.9857 269.428 84.1334 269.057 86.5728 269.057C88.2698 269.057 89.8938 269.256 91.445 269.653C93.0094 270.051 94.3948 270.668 95.6012 271.503C96.8209 272.338 97.7821 273.412 98.4847 274.724C99.1874 276.024 99.5387 277.581 99.5387 279.398V300H91.5046V295.764H91.266C90.7754 296.719 90.1192 297.561 89.2972 298.29C88.4753 299.006 87.4876 299.569 86.3342 299.98C85.1808 300.378 83.8484 300.577 82.337 300.577ZM84.7631 294.73C86.0094 294.73 87.1097 294.485 88.0643 293.994C89.0188 293.491 89.7679 292.814 90.3114 291.966C90.855 291.117 91.1268 290.156 91.1268 289.082V285.841C90.8616 286.013 90.497 286.172 90.033 286.318C89.5823 286.451 89.0719 286.577 88.5018 286.696C87.9317 286.802 87.3616 286.902 86.7915 286.994C86.2215 287.074 85.7044 287.147 85.2404 287.213C84.2461 287.359 83.3777 287.591 82.6353 287.909C81.8929 288.227 81.3162 288.658 80.9052 289.202C80.4942 289.732 80.2887 290.395 80.2887 291.19C80.2887 292.344 80.7063 293.225 81.5415 293.835C82.39 294.432 83.4639 294.73 84.7631 294.73ZM117.367 300.497C115.047 300.497 112.945 299.901 111.063 298.707C109.194 297.501 107.709 295.731 106.608 293.398C105.521 291.051 104.978 288.174 104.978 284.767C104.978 281.267 105.541 278.357 106.668 276.037C107.795 273.704 109.293 271.96 111.162 270.807C113.045 269.64 115.106 269.057 117.347 269.057C119.057 269.057 120.482 269.348 121.623 269.932C122.776 270.502 123.704 271.218 124.407 272.08C125.123 272.928 125.666 273.763 126.037 274.585H126.296V259.273H134.748V300H126.395V295.108H126.037C125.64 295.956 125.076 296.798 124.347 297.634C123.631 298.455 122.696 299.138 121.543 299.682C120.403 300.225 119.011 300.497 117.367 300.497ZM120.051 293.756C121.417 293.756 122.57 293.384 123.512 292.642C124.466 291.886 125.195 290.832 125.699 289.48C126.216 288.128 126.475 286.544 126.475 284.727C126.475 282.911 126.223 281.333 125.719 279.994C125.215 278.655 124.486 277.621 123.532 276.892C122.577 276.163 121.417 275.798 120.051 275.798C118.659 275.798 117.486 276.176 116.532 276.932C115.577 277.687 114.855 278.735 114.364 280.074C113.873 281.413 113.628 282.964 113.628 284.727C113.628 286.504 113.873 288.075 114.364 289.44C114.868 290.793 115.59 291.853 116.532 292.622C117.486 293.378 118.659 293.756 120.051 293.756ZM170.19 269.455L159.511 300H149.966L139.287 269.455H148.235L154.579 291.31H154.897L161.221 269.455H170.19ZM187.461 300.597C184.319 300.597 181.615 299.96 179.348 298.688C177.094 297.402 175.357 295.585 174.137 293.239C172.918 290.879 172.308 288.088 172.308 284.866C172.308 281.724 172.918 278.967 174.137 276.594C175.357 274.221 177.074 272.371 179.288 271.045C181.515 269.72 184.127 269.057 187.123 269.057C189.138 269.057 191.014 269.382 192.751 270.031C194.501 270.668 196.026 271.629 197.325 272.915C198.637 274.201 199.658 275.818 200.387 277.767C201.117 279.703 201.481 281.97 201.481 284.568V286.895H175.689V281.645H193.507C193.507 280.425 193.242 279.345 192.711 278.403C192.181 277.462 191.445 276.726 190.504 276.196C189.576 275.652 188.495 275.381 187.262 275.381C185.976 275.381 184.836 275.679 183.842 276.276C182.861 276.859 182.092 277.648 181.535 278.642C180.978 279.623 180.693 280.717 180.68 281.923V286.915C180.68 288.426 180.958 289.732 181.515 290.832C182.085 291.933 182.887 292.781 183.922 293.378C184.956 293.974 186.182 294.273 187.6 294.273C188.542 294.273 189.404 294.14 190.186 293.875C190.968 293.61 191.637 293.212 192.194 292.682C192.751 292.152 193.175 291.502 193.467 290.733L201.302 291.25C200.904 293.133 200.089 294.777 198.856 296.182C197.636 297.574 196.059 298.661 194.123 299.443C192.201 300.212 189.98 300.597 187.461 300.597ZM207.01 300V269.455H215.223V274.784H215.541C216.098 272.888 217.032 271.456 218.345 270.489C219.657 269.508 221.169 269.017 222.879 269.017C223.303 269.017 223.761 269.044 224.251 269.097C224.742 269.15 225.172 269.223 225.544 269.315V276.832C225.146 276.713 224.596 276.607 223.893 276.514C223.19 276.421 222.547 276.375 221.964 276.375C220.718 276.375 219.604 276.647 218.623 277.19C217.655 277.721 216.886 278.463 216.316 279.418C215.76 280.372 215.481 281.473 215.481 282.719V300H207.01ZM247.702 269.455V275.818H229.307V269.455H247.702ZM233.483 262.136H241.955V290.614C241.955 291.396 242.074 292.006 242.313 292.443C242.551 292.867 242.883 293.166 243.307 293.338C243.745 293.51 244.248 293.597 244.819 293.597C245.216 293.597 245.614 293.563 246.012 293.497C246.409 293.418 246.714 293.358 246.926 293.318L248.259 299.622C247.835 299.755 247.238 299.907 246.469 300.08C245.7 300.265 244.766 300.378 243.665 300.418C241.623 300.497 239.834 300.225 238.296 299.602C236.771 298.979 235.585 298.011 234.736 296.699C233.888 295.386 233.47 293.729 233.483 291.727V262.136ZM253.221 300V269.455H261.692V300H253.221ZM257.476 265.517C256.217 265.517 255.136 265.099 254.235 264.264C253.346 263.416 252.902 262.402 252.902 261.222C252.902 260.055 253.346 259.054 254.235 258.219C255.136 257.37 256.217 256.946 257.476 256.946C258.736 256.946 259.81 257.37 260.698 258.219C261.599 259.054 262.05 260.055 262.05 261.222C262.05 262.402 261.599 263.416 260.698 264.264C259.81 265.099 258.736 265.517 257.476 265.517ZM293.893 278.165L286.137 278.642C286.005 277.979 285.72 277.383 285.282 276.852C284.845 276.309 284.268 275.878 283.552 275.56C282.85 275.228 282.008 275.062 281.027 275.062C279.714 275.062 278.607 275.341 277.706 275.898C276.804 276.441 276.353 277.17 276.353 278.085C276.353 278.814 276.645 279.431 277.228 279.935C277.812 280.438 278.813 280.843 280.231 281.148L285.76 282.261C288.729 282.871 290.943 283.852 292.402 285.205C293.86 286.557 294.589 288.333 294.589 290.534C294.589 292.536 293.999 294.293 292.819 295.804C291.653 297.315 290.048 298.495 288.007 299.344C285.978 300.179 283.638 300.597 280.987 300.597C276.943 300.597 273.722 299.755 271.322 298.071C268.936 296.374 267.537 294.067 267.126 291.151L275.458 290.713C275.71 291.946 276.32 292.887 277.288 293.537C278.256 294.173 279.495 294.491 281.007 294.491C282.492 294.491 283.685 294.206 284.586 293.636C285.501 293.053 285.965 292.304 285.978 291.389C285.965 290.62 285.64 289.991 285.004 289.5C284.368 288.996 283.386 288.612 282.061 288.347L276.771 287.293C273.788 286.696 271.567 285.662 270.109 284.19C268.664 282.719 267.941 280.843 267.941 278.562C267.941 276.6 268.472 274.91 269.532 273.491C270.606 272.073 272.111 270.979 274.047 270.21C275.995 269.441 278.276 269.057 280.887 269.057C284.745 269.057 287.781 269.872 289.995 271.503C292.223 273.134 293.522 275.354 293.893 278.165ZM299.924 300V269.455H308.395V300H299.924ZM304.179 265.517C302.92 265.517 301.839 265.099 300.938 264.264C300.05 263.416 299.605 262.402 299.605 261.222C299.605 260.055 300.05 259.054 300.938 258.219C301.839 257.37 302.92 256.946 304.179 256.946C305.439 256.946 306.513 257.37 307.401 258.219C308.302 259.054 308.753 260.055 308.753 261.222C308.753 262.402 308.302 263.416 307.401 264.264C306.513 265.099 305.439 265.517 304.179 265.517ZM323.653 282.341V300H315.181V269.455H323.255V274.844H323.613C324.289 273.067 325.423 271.662 327.014 270.628C328.605 269.58 330.534 269.057 332.801 269.057C334.922 269.057 336.771 269.521 338.349 270.449C339.927 271.377 341.153 272.703 342.028 274.426C342.903 276.136 343.341 278.178 343.341 280.551V300H334.869V282.062C334.882 280.193 334.405 278.735 333.437 277.688C332.469 276.627 331.137 276.097 329.44 276.097C328.3 276.097 327.292 276.342 326.417 276.832C325.556 277.323 324.879 278.039 324.389 278.98C323.912 279.908 323.666 281.028 323.653 282.341ZM363.779 312.091C361.034 312.091 358.681 311.713 356.719 310.957C354.77 310.215 353.219 309.201 352.066 307.915C350.912 306.629 350.163 305.184 349.819 303.58L357.654 302.526C357.892 303.135 358.27 303.705 358.787 304.236C359.304 304.766 359.987 305.19 360.836 305.509C361.697 305.84 362.745 306.006 363.978 306.006C365.82 306.006 367.338 305.555 368.532 304.653C369.738 303.765 370.341 302.274 370.341 300.179V294.591H369.983C369.612 295.439 369.055 296.241 368.313 296.997C367.57 297.753 366.616 298.369 365.449 298.847C364.283 299.324 362.891 299.562 361.273 299.562C358.98 299.562 356.891 299.032 355.009 297.972C353.14 296.898 351.648 295.26 350.534 293.06C349.434 290.846 348.884 288.048 348.884 284.668C348.884 281.207 349.447 278.317 350.574 275.997C351.701 273.677 353.199 271.94 355.069 270.787C356.951 269.634 359.013 269.057 361.253 269.057C362.963 269.057 364.395 269.348 365.549 269.932C366.702 270.502 367.63 271.218 368.333 272.08C369.049 272.928 369.599 273.763 369.983 274.585H370.301V269.455H378.713V300.298C378.713 302.897 378.077 305.071 376.804 306.821C375.532 308.571 373.768 309.884 371.515 310.759C369.274 311.647 366.695 312.091 363.779 312.091ZM363.958 293.199C365.323 293.199 366.477 292.861 367.418 292.185C368.373 291.495 369.102 290.514 369.605 289.241C370.123 287.955 370.381 286.418 370.381 284.628C370.381 282.838 370.129 281.287 369.625 279.974C369.122 278.649 368.392 277.621 367.438 276.892C366.483 276.163 365.323 275.798 363.958 275.798C362.566 275.798 361.392 276.176 360.438 276.932C359.483 277.674 358.761 278.708 358.27 280.034C357.78 281.36 357.534 282.891 357.534 284.628C357.534 286.391 357.78 287.916 358.27 289.202C358.774 290.474 359.497 291.462 360.438 292.165C361.392 292.854 362.566 293.199 363.958 293.199ZM390.407 300.517C389.094 300.517 387.967 300.053 387.026 299.125C386.098 298.184 385.634 297.057 385.634 295.744C385.634 294.445 386.098 293.331 387.026 292.403C387.967 291.475 389.094 291.011 390.407 291.011C391.679 291.011 392.793 291.475 393.748 292.403C394.702 293.331 395.179 294.445 395.179 295.744C395.179 296.619 394.954 297.421 394.503 298.151C394.066 298.866 393.489 299.443 392.773 299.881C392.057 300.305 391.268 300.517 390.407 300.517Z" fill="white"/>
</svg>
