<svg width="46" height="46" viewBox="0 0 46 46" fill="none" xmlns="http://www.w3.org/2000/svg">
<g clip-path="url(#clip0_24_719)">
<path d="M46.0001 23.0314C46.0001 10.5095 35.8491 0.358459 23.3271 0.358459C10.8052 0.358459 0.654175 10.5095 0.654175 23.0314C0.654175 34.3481 8.94535 43.728 19.7845 45.4288V29.5853H14.0277V23.0314H19.7845V18.0363C19.7845 12.3539 23.1694 9.21508 28.3484 9.21508C30.829 9.21508 33.4237 9.65792 33.4237 9.65792V15.2376H30.5646C27.7481 15.2376 26.8698 16.9853 26.8698 18.7783V23.0314H33.158L32.1528 29.5853H26.8698V45.4288C37.7089 43.728 46.0001 34.3481 46.0001 23.0314Z" fill="#1877F2"/>
<path d="M32.1528 29.5853L33.158 23.0314H26.8698V18.7783C26.8698 16.9853 27.7482 15.2376 30.5647 15.2376H33.4237V9.65792C33.4237 9.65792 30.8291 9.21509 28.3484 9.21509C23.1695 9.21509 19.7845 12.3539 19.7845 18.0363V23.0314H14.0277V29.5853H19.7845V45.4288C22.132 45.7962 24.5223 45.7962 26.8698 45.4288V29.5853H32.1528Z" fill="white"/>
</g>
<defs>
<clipPath id="clip0_24_719">
<rect width="45.3459" height="45.3459" fill="white" transform="translate(0.654175 0.358459)"/>
</clipPath>
</defs>
</svg>
