<svg width="46" height="47" viewBox="0 0 46 47" fill="none" xmlns="http://www.w3.org/2000/svg">
<g clip-path="url(#clip0_24_722)">
<path d="M45.8452 23.224C45.8452 21.3229 45.6909 19.9355 45.3571 18.4968H23.6478V27.0777H36.3907C36.1338 29.2101 34.7465 32.4215 31.6635 34.5795L31.6203 34.8668L38.4843 40.1843L38.9599 40.2318C43.3273 36.1982 45.8452 30.2634 45.8452 23.224" fill="#4285F4"/>
<path d="M23.4516 46.603C29.6945 46.603 34.9355 44.5476 38.7637 41.0023L31.4673 35.3501C29.5148 36.7117 26.8942 37.6623 23.4516 37.6623C17.3371 37.6623 12.1475 33.6289 10.2975 28.0538L10.0263 28.0769L2.88899 33.6005L2.79565 33.86C6.59794 41.4132 14.4081 46.603 23.4516 46.603Z" fill="#34A853"/>
<path d="M10.2975 28.0538C9.80938 26.6151 9.52689 25.0735 9.52689 23.4807C9.52689 21.8878 9.80938 20.3463 10.2718 18.9076L10.2589 18.6012L3.03211 12.9888L2.79566 13.1013C1.22855 16.2357 0.329346 19.7555 0.329346 23.4807C0.329346 27.206 1.22855 30.7256 2.79566 33.86L10.2975 28.0538" fill="#FBBC05"/>
<path d="M23.4516 9.29901C27.7934 9.29901 30.7221 11.1745 32.3921 12.7418L38.9177 6.37025C34.91 2.645 29.6945 0.358459 23.4516 0.358459C14.4081 0.358459 6.59794 5.54808 2.79565 13.1013L10.2718 18.9076C12.1475 13.3326 17.3371 9.29901 23.4516 9.29901" fill="#EB4335"/>
</g>
<defs>
<clipPath id="clip0_24_722">
<rect width="45.3459" height="46.4039" fill="white" transform="translate(0.327026 0.358459)"/>
</clipPath>
</defs>
</svg>
