<svg width="46" height="46" viewBox="0 0 46 46" fill="none" xmlns="http://www.w3.org/2000/svg">
<g clip-path="url(#clip0_24_727)">
<path d="M35.1678 0.654053H10.1781C4.55689 0.654053 0 5.21094 0 10.8321V35.8219C0 41.4431 4.55689 46 10.1781 46H35.1678C40.789 46 45.3459 41.4431 45.3459 35.8219V10.8321C45.3459 5.21094 40.789 0.654053 35.1678 0.654053Z" fill="url(#paint0_linear_24_727)"/>
<path d="M15.7069 8.50751H29.8432C30.1573 8.66458 30.6285 8.66458 30.9427 8.82165C32.3212 9.04505 33.61 9.64849 34.6644 10.5641C35.7188 11.4798 36.4969 12.6714 36.9113 14.0049C37.1433 14.7734 37.3011 15.5624 37.3825 16.361V30.1831C37.158 31.9348 36.5111 33.6058 35.4977 35.0522C34.6283 36.0596 33.5382 36.8528 32.3124 37.3704C31.0865 37.888 29.7578 38.1159 28.4296 38.0365H16.6494C14.5471 38.1386 12.48 37.4682 10.8378 36.1517C9.83916 35.2889 9.05107 34.2091 8.53382 32.9949C8.01657 31.7807 7.78386 30.4643 7.85348 29.1464V18.1516C7.82753 17.363 7.88015 16.5737 8.01055 15.7955C8.16916 14.1852 8.83126 12.6659 9.90275 11.4534C10.9742 10.2409 12.4006 9.39699 13.9792 9.04154L15.7069 8.50751ZM10.8378 23.4291V29.5548C10.7708 30.3349 10.8752 31.1201 11.1436 31.8556C11.4119 32.5911 11.8378 33.2591 12.3915 33.8127C12.9451 34.3663 13.613 34.7922 14.3485 35.0606C15.084 35.329 15.8693 35.4333 16.6494 35.3664C20.7332 35.5234 24.817 35.5234 28.9008 35.3664C32.5134 35.3664 34.5553 33.1674 34.7123 29.5548C34.8694 25.471 34.8694 21.3872 34.7123 17.3034C34.753 16.5295 34.6306 15.7557 34.3529 15.0321C34.0753 14.3086 33.6486 13.6515 33.1006 13.1036C32.5526 12.5556 31.8955 12.1289 31.172 11.8512C30.4485 11.5736 29.6747 11.4511 28.9008 11.4918C24.817 11.3348 20.7332 11.3348 16.6494 11.4918C15.8693 11.4249 15.084 11.5292 14.3485 11.7976C13.613 12.066 12.9451 12.4919 12.3915 13.0455C11.8378 13.5991 11.4119 14.2671 11.1436 15.0026C10.8752 15.7381 10.7708 16.5233 10.8378 17.3034V23.4291Z" fill="white"/>
<path d="M15.1415 23.4919C15.1456 21.452 15.9578 19.4968 17.4003 18.0543C18.8427 16.6119 20.7979 15.7997 22.8379 15.7955C24.8665 15.8357 26.8009 16.6595 28.2356 18.0942C29.6703 19.529 30.4941 21.4633 30.5343 23.4919C30.5301 25.5319 29.7179 27.4871 28.2755 28.9295C26.833 30.372 24.8778 31.1842 22.8379 31.1883C20.8093 31.1481 18.8749 30.3244 17.4402 28.8896C16.0054 27.4549 15.1817 25.5206 15.1415 23.4919ZM22.8379 18.6228C21.8839 18.6073 20.947 18.877 20.1472 19.3973C19.3475 19.9177 18.7214 20.665 18.3491 21.5435C17.9768 22.422 17.8753 23.3917 18.0576 24.3283C18.24 25.2648 18.6978 26.1256 19.3725 26.8002C20.0472 27.4749 20.9079 27.9328 21.8445 28.1151C22.781 28.2974 23.7507 28.1959 24.6292 27.8237C25.5077 27.4514 26.255 26.8252 26.7754 26.0255C27.2958 25.2258 27.5655 24.2889 27.55 23.3349C27.55 22.0851 27.0535 20.8866 26.1698 20.0029C25.2861 19.1192 24.0876 18.6228 22.8379 18.6228Z" fill="white"/>
<path d="M28.8065 15.4814C28.7978 15.2315 28.8405 14.9825 28.9321 14.7499C29.0237 14.5172 29.1623 14.3059 29.3391 14.1291C29.5159 13.9523 29.7272 13.8138 29.9598 13.7222C30.1925 13.6306 30.4415 13.5878 30.6914 13.5966C31.1804 13.6297 31.6408 13.8389 31.9874 14.1854C32.3339 14.532 32.5431 14.9924 32.5762 15.4814C32.5762 15.9813 32.3776 16.4607 32.0242 16.8142C31.6707 17.1677 31.1913 17.3662 30.6914 17.3662C30.1915 17.3662 29.7121 17.1677 29.3586 16.8142C29.0051 16.4607 28.8065 15.9813 28.8065 15.4814Z" fill="white"/>
</g>
<defs>
<linearGradient id="paint0_linear_24_727" x1="-2.89008" y1="48.5131" x2="50.5135" y2="-4.10515" gradientUnits="userSpaceOnUse">
<stop stop-color="#FED576"/>
<stop offset="0.26" stop-color="#F47133"/>
<stop offset="0.61" stop-color="#BC3081"/>
<stop offset="1" stop-color="#4C63D2"/>
</linearGradient>
<clipPath id="clip0_24_727">
<rect width="45.3459" height="45.3459" fill="white" transform="translate(0 0.654053)"/>
</clipPath>
</defs>
</svg>
