<svg width="244" height="318" viewBox="0 0 244 318" fill="none" xmlns="http://www.w3.org/2000/svg">
<g filter="url(#filter0_d_19_587)">
<rect x="4" width="236" height="310" rx="10" fill="url(#paint0_linear_19_587)" shape-rendering="crispEdges"/>
<path d="M51.0513 201.638C50.9945 201.065 50.7507 200.62 50.3198 200.303C49.8889 199.985 49.3042 199.827 48.5655 199.827C48.0636 199.827 47.6399 199.898 47.2942 200.04C46.9486 200.177 46.6834 200.369 46.4988 200.615C46.3188 200.861 46.2289 201.141 46.2289 201.453C46.2194 201.714 46.2739 201.941 46.3922 202.135C46.5153 202.329 46.6834 202.497 46.8965 202.639C47.1096 202.777 47.3558 202.897 47.6351 203.001C47.9145 203.101 48.2128 203.186 48.53 203.257L49.8368 203.57C50.4713 203.712 51.0537 203.901 51.584 204.138C52.1143 204.375 52.5736 204.666 52.9618 205.011C53.3501 205.357 53.6507 205.764 53.8638 206.233C54.0816 206.702 54.1929 207.239 54.1976 207.845C54.1929 208.735 53.9656 209.507 53.5158 210.161C53.0707 210.809 52.4268 211.313 51.584 211.673C50.7459 212.028 49.735 212.206 48.5513 212.206C47.3771 212.206 46.3543 212.026 45.4831 211.666C44.6167 211.306 43.9396 210.774 43.4519 210.068C42.9689 209.358 42.7156 208.48 42.6919 207.433H45.6678C45.7009 207.921 45.8406 208.328 46.0868 208.655C46.3378 208.977 46.6716 209.221 47.0882 209.386C47.5096 209.547 47.9855 209.628 48.5158 209.628C49.0366 209.628 49.4888 209.552 49.8723 209.401C50.2606 209.249 50.5613 209.038 50.7743 208.768C50.9874 208.499 51.0939 208.188 51.0939 207.838C51.0939 207.511 50.9969 207.237 50.8027 207.014C50.6133 206.792 50.334 206.602 49.9647 206.446C49.6001 206.29 49.1526 206.148 48.6223 206.02L47.0385 205.622C45.8122 205.324 44.8439 204.857 44.1337 204.223C43.4235 203.589 43.0707 202.734 43.0755 201.659C43.0707 200.778 43.3051 200.009 43.7786 199.351C44.2568 198.693 44.9126 198.179 45.7459 197.81C46.5792 197.44 47.5262 197.256 48.5868 197.256C49.6664 197.256 50.6086 197.44 51.4135 197.81C52.2232 198.179 52.8529 198.693 53.3027 199.351C53.7525 200.009 53.9846 200.771 53.9988 201.638H51.0513ZM56.2662 212V197.455H66.0673V199.99H59.3414V203.456H65.563V205.991H59.3414V209.464H66.0957V212H56.2662ZM68.5123 212V197.455H71.5875V209.464H77.8233V212H68.5123ZM79.8599 212V197.455H89.661V199.99H82.9352V203.456H89.1568V205.991H82.9352V209.464H89.6895V212H79.8599ZM104.94 202.547H101.829C101.772 202.144 101.656 201.787 101.481 201.474C101.306 201.157 101.081 200.887 100.806 200.665C100.532 200.442 100.214 200.272 99.8546 200.153C99.4995 200.035 99.1136 199.976 98.6969 199.976C97.9441 199.976 97.2883 200.163 96.7296 200.537C96.1709 200.906 95.7376 201.446 95.4299 202.156C95.1221 202.862 94.9682 203.719 94.9682 204.727C94.9682 205.764 95.1221 206.635 95.4299 207.341C95.7424 208.046 96.178 208.579 96.7367 208.939C97.2954 209.299 97.9417 209.479 98.6756 209.479C99.0875 209.479 99.4687 209.424 99.8191 209.315C100.174 209.206 100.489 209.048 100.764 208.839C101.038 208.626 101.266 208.368 101.445 208.065C101.63 207.762 101.758 207.417 101.829 207.028L104.94 207.043C104.859 207.71 104.658 208.354 104.336 208.974C104.019 209.59 103.59 210.142 103.051 210.629C102.516 211.112 101.876 211.496 101.133 211.78C100.394 212.059 99.5587 212.199 98.6259 212.199C97.3285 212.199 96.1685 211.905 95.1458 211.318C94.1278 210.731 93.3229 209.881 92.731 208.768C92.1439 207.656 91.8503 206.309 91.8503 204.727C91.8503 203.141 92.1486 201.792 92.7452 200.679C93.3418 199.566 94.1515 198.719 95.1742 198.136C96.1969 197.549 97.3475 197.256 98.6259 197.256C99.4687 197.256 100.25 197.374 100.97 197.611C101.694 197.848 102.336 198.193 102.894 198.648C103.453 199.098 103.908 199.649 104.258 200.303C104.613 200.956 104.84 201.704 104.94 202.547ZM106.591 199.99V197.455H118.537V199.99H114.084V212H111.044V199.99H106.591ZM137.967 202.547H134.856C134.8 202.144 134.684 201.787 134.508 201.474C134.333 201.157 134.108 200.887 133.834 200.665C133.559 200.442 133.242 200.272 132.882 200.153C132.527 200.035 132.141 199.976 131.724 199.976C130.971 199.976 130.316 200.163 129.757 200.537C129.198 200.906 128.765 201.446 128.457 202.156C128.149 202.862 127.996 203.719 127.996 204.727C127.996 205.764 128.149 206.635 128.457 207.341C128.77 208.046 129.205 208.579 129.764 208.939C130.323 209.299 130.969 209.479 131.703 209.479C132.115 209.479 132.496 209.424 132.846 209.315C133.202 209.206 133.516 209.048 133.791 208.839C134.066 208.626 134.293 208.368 134.473 208.065C134.657 207.762 134.785 207.417 134.856 207.028L137.967 207.043C137.887 207.71 137.685 208.354 137.363 208.974C137.046 209.59 136.618 210.142 136.078 210.629C135.543 211.112 134.904 211.496 134.16 211.78C133.422 212.059 132.586 212.199 131.653 212.199C130.356 212.199 129.196 211.905 128.173 211.318C127.155 210.731 126.35 209.881 125.758 208.768C125.171 207.656 124.878 206.309 124.878 204.727C124.878 203.141 125.176 201.792 125.773 200.679C126.369 199.566 127.179 198.719 128.202 198.136C129.224 197.549 130.375 197.256 131.653 197.256C132.496 197.256 133.277 197.374 133.997 197.611C134.721 197.848 135.363 198.193 135.922 198.648C136.48 199.098 136.935 199.649 137.285 200.303C137.64 200.956 137.868 201.704 137.967 202.547ZM153.539 204.727C153.539 206.313 153.238 207.663 152.637 208.776C152.04 209.888 151.226 210.738 150.194 211.325C149.166 211.908 148.011 212.199 146.728 212.199C145.435 212.199 144.275 211.905 143.248 211.318C142.22 210.731 141.408 209.881 140.812 208.768C140.215 207.656 139.917 206.309 139.917 204.727C139.917 203.141 140.215 201.792 140.812 200.679C141.408 199.566 142.22 198.719 143.248 198.136C144.275 197.549 145.435 197.256 146.728 197.256C148.011 197.256 149.166 197.549 150.194 198.136C151.226 198.719 152.04 199.566 152.637 200.679C153.238 201.792 153.539 203.141 153.539 204.727ZM150.421 204.727C150.421 203.7 150.267 202.833 149.959 202.128C149.656 201.422 149.228 200.887 148.674 200.523C148.12 200.158 147.471 199.976 146.728 199.976C145.984 199.976 145.336 200.158 144.782 200.523C144.228 200.887 143.797 201.422 143.489 202.128C143.186 202.833 143.035 203.7 143.035 204.727C143.035 205.755 143.186 206.621 143.489 207.327C143.797 208.032 144.228 208.567 144.782 208.932C145.336 209.296 145.984 209.479 146.728 209.479C147.471 209.479 148.12 209.296 148.674 208.932C149.228 208.567 149.656 208.032 149.959 207.327C150.267 206.621 150.421 205.755 150.421 204.727ZM155.817 212V197.455H158.892V209.464H165.128V212H155.817ZM179.965 204.727C179.965 206.313 179.664 207.663 179.063 208.776C178.466 209.888 177.652 210.738 176.619 211.325C175.592 211.908 174.437 212.199 173.154 212.199C171.861 212.199 170.701 211.905 169.673 211.318C168.646 210.731 167.834 209.881 167.237 208.768C166.641 207.656 166.343 206.309 166.343 204.727C166.343 203.141 166.641 201.792 167.237 200.679C167.834 199.566 168.646 198.719 169.673 198.136C170.701 197.549 171.861 197.256 173.154 197.256C174.437 197.256 175.592 197.549 176.619 198.136C177.652 198.719 178.466 199.566 179.063 200.679C179.664 201.792 179.965 203.141 179.965 204.727ZM176.847 204.727C176.847 203.7 176.693 202.833 176.385 202.128C176.082 201.422 175.654 200.887 175.1 200.523C174.546 200.158 173.897 199.976 173.154 199.976C172.41 199.976 171.762 200.158 171.208 200.523C170.654 200.887 170.223 201.422 169.915 202.128C169.612 202.833 169.46 203.7 169.46 204.727C169.46 205.755 169.612 206.621 169.915 207.327C170.223 208.032 170.654 208.567 171.208 208.932C171.762 209.296 172.41 209.479 173.154 209.479C173.897 209.479 174.546 209.296 175.1 208.932C175.654 208.567 176.082 208.032 176.385 207.327C176.693 206.621 176.847 205.755 176.847 204.727ZM182.243 212V197.455H187.981C189.08 197.455 190.017 197.651 190.794 198.044C191.575 198.432 192.169 198.984 192.577 199.699C192.988 200.409 193.194 201.245 193.194 202.206C193.194 203.172 192.986 204.003 192.569 204.699C192.153 205.39 191.549 205.92 190.758 206.29C189.972 206.659 189.021 206.844 187.903 206.844H184.061V204.372H187.406C187.993 204.372 188.481 204.292 188.869 204.131C189.257 203.97 189.546 203.728 189.736 203.406C189.93 203.084 190.027 202.684 190.027 202.206C190.027 201.723 189.93 201.316 189.736 200.984C189.546 200.653 189.255 200.402 188.862 200.232C188.474 200.056 187.984 199.969 187.392 199.969H185.318V212H182.243ZM190.098 205.381L193.713 212H190.318L186.781 205.381H190.098Z" fill="white"/>
<path d="M40.2124 256H36.8033V244.364H40.4169C41.5268 244.364 42.4756 244.595 43.2635 245.057C44.0552 245.519 44.6612 246.182 45.0817 247.045C45.5021 247.909 45.7124 248.945 45.7124 250.153C45.7124 251.373 45.4964 252.42 45.0646 253.295C44.6366 254.167 44.0116 254.835 43.1896 255.301C42.3714 255.767 41.379 256 40.2124 256ZM37.8658 255.045H40.1499C41.1499 255.045 41.987 254.848 42.6612 254.455C43.3355 254.061 43.8411 253.498 44.1783 252.767C44.5154 252.036 44.6839 251.165 44.6839 250.153C44.6802 249.15 44.5135 248.286 44.1839 247.562C43.8582 246.839 43.3733 246.284 42.7294 245.898C42.0893 245.511 41.2976 245.318 40.3544 245.318H37.8658V255.045ZM51.4695 256.182C50.7157 256.182 50.049 255.991 49.4695 255.608C48.8937 255.225 48.4429 254.697 48.1172 254.023C47.7914 253.345 47.6286 252.562 47.6286 251.676C47.6286 250.782 47.7914 249.996 48.1172 249.318C48.4429 248.636 48.8937 248.106 49.4695 247.727C50.049 247.345 50.7157 247.153 51.4695 247.153C52.2232 247.153 52.888 247.345 53.4638 247.727C54.0395 248.11 54.4903 248.64 54.8161 249.318C55.1456 249.996 55.3104 250.782 55.3104 251.676C55.3104 252.562 55.1475 253.345 54.8217 254.023C54.496 254.697 54.0433 255.225 53.4638 255.608C52.888 255.991 52.2232 256.182 51.4695 256.182ZM51.4695 255.256C52.0755 255.256 52.5888 255.093 53.0092 254.767C53.4297 254.441 53.7479 254.008 53.9638 253.466C54.1835 252.924 54.2933 252.328 54.2933 251.676C54.2933 251.025 54.1835 250.426 53.9638 249.881C53.7479 249.335 53.4297 248.898 53.0092 248.568C52.5888 248.239 52.0755 248.074 51.4695 248.074C50.8672 248.074 50.3539 248.239 49.9297 248.568C49.5092 248.898 49.1892 249.335 48.9695 249.881C48.7536 250.426 48.6456 251.025 48.6456 251.676C48.6456 252.328 48.7536 252.924 48.9695 253.466C49.1892 254.008 49.5092 254.441 49.9297 254.767C50.3501 255.093 50.8634 255.256 51.4695 255.256ZM62.7351 259.273C62.5343 259.273 62.3468 259.254 62.1726 259.216C61.9983 259.178 61.8601 259.136 61.7578 259.091L62.0305 258.199C62.3752 258.305 62.6821 258.343 62.951 258.312C63.2199 258.286 63.4586 258.165 63.6669 257.949C63.8752 257.737 64.0608 257.411 64.2237 256.972L64.5419 256.085L61.3317 247.273H62.4283L65.0192 254.665H65.0987L67.6896 247.273H68.7862L65.093 257.381C64.9377 257.801 64.7464 258.152 64.5192 258.432C64.2919 258.716 64.0286 258.926 63.7294 259.062C63.4339 259.203 63.1025 259.273 62.7351 259.273ZM73.8445 256.182C73.0907 256.182 72.424 255.991 71.8445 255.608C71.2687 255.225 70.8179 254.697 70.4922 254.023C70.1664 253.345 70.0036 252.562 70.0036 251.676C70.0036 250.782 70.1664 249.996 70.4922 249.318C70.8179 248.636 71.2687 248.106 71.8445 247.727C72.424 247.345 73.0907 247.153 73.8445 247.153C74.5982 247.153 75.263 247.345 75.8388 247.727C76.4145 248.11 76.8653 248.64 77.1911 249.318C77.5206 249.996 77.6854 250.782 77.6854 251.676C77.6854 252.562 77.5225 253.345 77.1967 254.023C76.871 254.697 76.4183 255.225 75.8388 255.608C75.263 255.991 74.5982 256.182 73.8445 256.182ZM73.8445 255.256C74.4505 255.256 74.9638 255.093 75.3842 254.767C75.8047 254.441 76.1229 254.008 76.3388 253.466C76.5585 252.924 76.6683 252.328 76.6683 251.676C76.6683 251.025 76.5585 250.426 76.3388 249.881C76.1229 249.335 75.8047 248.898 75.3842 248.568C74.9638 248.239 74.4505 248.074 73.8445 248.074C73.2422 248.074 72.7289 248.239 72.3047 248.568C71.8842 248.898 71.5642 249.335 71.3445 249.881C71.1286 250.426 71.0206 251.025 71.0206 251.676C71.0206 252.328 71.1286 252.924 71.3445 253.466C71.5642 254.008 71.8842 254.441 72.3047 254.767C72.7251 255.093 73.2384 255.256 73.8445 255.256ZM85.451 252.665V247.273H86.4624V256H85.451V254.551H85.3714C85.1669 254.998 84.843 255.371 84.3999 255.67C83.9567 255.966 83.415 256.114 82.7749 256.114C82.218 256.114 81.7237 255.992 81.2919 255.75C80.8601 255.504 80.5211 255.144 80.2749 254.67C80.0286 254.197 79.9055 253.616 79.9055 252.926V247.273H80.9169V252.864C80.9169 253.545 81.1177 254.095 81.5192 254.511C81.9207 254.924 82.4358 255.131 83.0646 255.131C83.4586 255.131 83.8374 255.036 84.201 254.847C84.5646 254.657 84.8639 254.381 85.0987 254.017C85.3336 253.65 85.451 253.199 85.451 252.665ZM94.6513 250.545V256H93.6399V244.364H94.6513V248.642H94.7422C94.9467 248.191 95.263 247.831 95.6911 247.562C96.1229 247.294 96.6683 247.159 97.3274 247.159C97.9183 247.159 98.4373 247.28 98.8842 247.523C99.3312 247.765 99.6797 248.123 99.9297 248.597C100.18 249.07 100.305 249.653 100.305 250.347V256H99.2876V250.409C99.2876 249.689 99.0869 249.123 98.6854 248.71C98.2876 248.294 97.7498 248.085 97.0717 248.085C96.6058 248.085 96.1911 248.184 95.8274 248.381C95.4638 248.578 95.1759 248.862 94.9638 249.233C94.7554 249.6 94.6513 250.038 94.6513 250.545ZM105.406 256.199C104.879 256.199 104.398 256.097 103.962 255.892C103.527 255.684 103.18 255.384 102.923 254.994C102.665 254.6 102.536 254.123 102.536 253.562C102.536 253.131 102.618 252.767 102.781 252.472C102.943 252.176 103.174 251.934 103.474 251.744C103.773 251.555 104.127 251.405 104.536 251.295C104.945 251.186 105.396 251.1 105.888 251.04C106.377 250.979 106.79 250.926 107.127 250.881C107.468 250.835 107.728 250.763 107.906 250.665C108.084 250.566 108.173 250.407 108.173 250.188V249.983C108.173 249.388 107.995 248.92 107.638 248.58C107.286 248.235 106.779 248.062 106.116 248.062C105.487 248.062 104.974 248.201 104.576 248.477C104.182 248.754 103.906 249.08 103.746 249.455L102.786 249.108C102.983 248.631 103.256 248.25 103.604 247.966C103.953 247.678 104.343 247.472 104.775 247.347C105.207 247.218 105.644 247.153 106.087 247.153C106.421 247.153 106.767 247.197 107.127 247.284C107.491 247.371 107.828 247.523 108.138 247.739C108.449 247.951 108.701 248.248 108.894 248.631C109.087 249.009 109.184 249.491 109.184 250.074V256H108.173V254.619H108.11C107.989 254.877 107.809 255.127 107.57 255.369C107.332 255.612 107.032 255.811 106.673 255.966C106.313 256.121 105.89 256.199 105.406 256.199ZM105.542 255.273C106.08 255.273 106.546 255.153 106.94 254.915C107.334 254.676 107.637 254.36 107.849 253.966C108.065 253.568 108.173 253.131 108.173 252.653V251.392C108.097 251.464 107.97 251.528 107.792 251.585C107.618 251.642 107.415 251.693 107.184 251.739C106.957 251.78 106.729 251.816 106.502 251.847C106.275 251.877 106.07 251.903 105.888 251.926C105.396 251.987 104.976 252.081 104.627 252.21C104.279 252.339 104.012 252.517 103.826 252.744C103.64 252.968 103.548 253.256 103.548 253.608C103.548 254.138 103.737 254.549 104.116 254.841C104.495 255.129 104.97 255.273 105.542 255.273ZM118.317 247.273L115.13 256H114.05L110.863 247.273H111.96L114.55 254.665H114.63L117.221 247.273H118.317ZM123.512 256.182C122.698 256.182 121.993 255.992 121.398 255.614C120.804 255.231 120.344 254.703 120.018 254.028C119.696 253.35 119.535 252.57 119.535 251.688C119.535 250.809 119.696 250.028 120.018 249.347C120.344 248.661 120.792 248.125 121.364 247.739C121.94 247.348 122.605 247.153 123.359 247.153C123.832 247.153 124.289 247.241 124.728 247.415C125.167 247.585 125.561 247.848 125.91 248.205C126.262 248.557 126.54 249.002 126.745 249.54C126.95 250.074 127.052 250.706 127.052 251.438V251.938H120.234V251.045H126.018C126.018 250.485 125.904 249.981 125.677 249.534C125.453 249.083 125.141 248.727 124.739 248.466C124.342 248.205 123.881 248.074 123.359 248.074C122.806 248.074 122.319 248.222 121.898 248.517C121.478 248.812 121.148 249.203 120.91 249.688C120.675 250.172 120.556 250.703 120.552 251.278V251.812C120.552 252.506 120.671 253.112 120.91 253.631C121.152 254.146 121.495 254.545 121.938 254.83C122.381 255.114 122.906 255.256 123.512 255.256C123.925 255.256 124.287 255.191 124.597 255.062C124.912 254.934 125.175 254.761 125.387 254.545C125.603 254.326 125.766 254.085 125.876 253.824L126.836 254.136C126.703 254.504 126.486 254.843 126.183 255.153C125.883 255.464 125.508 255.714 125.058 255.903C124.611 256.089 124.095 256.182 123.512 256.182ZM136.218 256.199C135.692 256.199 135.21 256.097 134.775 255.892C134.339 255.684 133.993 255.384 133.735 254.994C133.478 254.6 133.349 254.123 133.349 253.562C133.349 253.131 133.43 252.767 133.593 252.472C133.756 252.176 133.987 251.934 134.286 251.744C134.585 251.555 134.94 251.405 135.349 251.295C135.758 251.186 136.209 251.1 136.701 251.04C137.19 250.979 137.603 250.926 137.94 250.881C138.281 250.835 138.54 250.763 138.718 250.665C138.896 250.566 138.985 250.407 138.985 250.188V249.983C138.985 249.388 138.807 248.92 138.451 248.58C138.099 248.235 137.591 248.062 136.928 248.062C136.299 248.062 135.786 248.201 135.388 248.477C134.995 248.754 134.718 249.08 134.559 249.455L133.599 249.108C133.796 248.631 134.068 248.25 134.417 247.966C134.765 247.678 135.156 247.472 135.587 247.347C136.019 247.218 136.457 247.153 136.9 247.153C137.233 247.153 137.58 247.197 137.94 247.284C138.303 247.371 138.64 247.523 138.951 247.739C139.262 247.951 139.513 248.248 139.707 248.631C139.9 249.009 139.996 249.491 139.996 250.074V256H138.985V254.619H138.923C138.801 254.877 138.621 255.127 138.383 255.369C138.144 255.612 137.845 255.811 137.485 255.966C137.125 256.121 136.703 256.199 136.218 256.199ZM136.354 255.273C136.892 255.273 137.358 255.153 137.752 254.915C138.146 254.676 138.449 254.36 138.661 253.966C138.877 253.568 138.985 253.131 138.985 252.653V251.392C138.909 251.464 138.782 251.528 138.604 251.585C138.43 251.642 138.228 251.693 137.996 251.739C137.769 251.78 137.542 251.816 137.315 251.847C137.087 251.877 136.883 251.903 136.701 251.926C136.209 251.987 135.788 252.081 135.44 252.21C135.091 252.339 134.824 252.517 134.638 252.744C134.453 252.968 134.36 253.256 134.36 253.608C134.36 254.138 134.549 254.549 134.928 254.841C135.307 255.129 135.782 255.273 136.354 255.273ZM143.698 250.545V256H142.687V247.273H143.67V248.642H143.761C143.965 248.195 144.283 247.837 144.715 247.568C145.151 247.295 145.689 247.159 146.329 247.159C146.916 247.159 147.431 247.282 147.874 247.528C148.321 247.771 148.668 248.129 148.914 248.602C149.164 249.076 149.289 249.657 149.289 250.347V256H148.278V250.409C148.278 249.693 148.077 249.127 147.675 248.71C147.278 248.294 146.744 248.085 146.073 248.085C145.615 248.085 145.208 248.184 144.852 248.381C144.496 248.578 144.213 248.862 144.005 249.233C143.8 249.6 143.698 250.038 143.698 250.545ZM152.344 259.273C152.144 259.273 151.956 259.254 151.782 259.216C151.608 259.178 151.469 259.136 151.367 259.091L151.64 258.199C151.985 258.305 152.291 258.343 152.56 258.312C152.829 258.286 153.068 258.165 153.276 257.949C153.485 257.737 153.67 257.411 153.833 256.972L154.151 256.085L150.941 247.273H152.038L154.629 254.665H154.708L157.299 247.273H158.396L154.702 257.381C154.547 257.801 154.356 258.152 154.129 258.432C153.901 258.716 153.638 258.926 153.339 259.062C153.043 259.203 152.712 259.273 152.344 259.273ZM168.283 256.182C167.503 256.182 166.823 255.987 166.244 255.597C165.668 255.206 165.221 254.672 164.903 253.994C164.585 253.316 164.425 252.544 164.425 251.676C164.425 250.801 164.586 250.023 164.908 249.341C165.234 248.659 165.685 248.125 166.261 247.739C166.836 247.348 167.505 247.153 168.266 247.153C168.85 247.153 169.378 247.267 169.852 247.494C170.325 247.718 170.715 248.034 171.022 248.443C171.333 248.848 171.528 249.322 171.607 249.864H170.585C170.478 249.371 170.223 248.951 169.817 248.602C169.416 248.25 168.905 248.074 168.283 248.074C167.727 248.074 167.234 248.225 166.806 248.528C166.378 248.828 166.043 249.246 165.8 249.784C165.562 250.318 165.442 250.937 165.442 251.642C165.442 252.35 165.56 252.977 165.795 253.523C166.03 254.064 166.359 254.489 166.783 254.795C167.211 255.102 167.711 255.256 168.283 255.256C168.67 255.256 169.022 255.184 169.34 255.04C169.662 254.892 169.931 254.684 170.147 254.415C170.367 254.146 170.514 253.826 170.59 253.455H171.613C171.537 253.981 171.35 254.451 171.05 254.864C170.755 255.273 170.371 255.595 169.897 255.83C169.427 256.064 168.889 256.182 168.283 256.182ZM177.173 256.182C176.419 256.182 175.752 255.991 175.173 255.608C174.597 255.225 174.146 254.697 173.82 254.023C173.495 253.345 173.332 252.562 173.332 251.676C173.332 250.782 173.495 249.996 173.82 249.318C174.146 248.636 174.597 248.106 175.173 247.727C175.752 247.345 176.419 247.153 177.173 247.153C177.926 247.153 178.591 247.345 179.167 247.727C179.743 248.11 180.193 248.64 180.519 249.318C180.849 249.996 181.013 250.782 181.013 251.676C181.013 252.562 180.851 253.345 180.525 254.023C180.199 254.697 179.746 255.225 179.167 255.608C178.591 255.991 177.926 256.182 177.173 256.182ZM177.173 255.256C177.779 255.256 178.292 255.093 178.712 254.767C179.133 254.441 179.451 254.008 179.667 253.466C179.887 252.924 179.996 252.328 179.996 251.676C179.996 251.025 179.887 250.426 179.667 249.881C179.451 249.335 179.133 248.898 178.712 248.568C178.292 248.239 177.779 248.074 177.173 248.074C176.57 248.074 176.057 248.239 175.633 248.568C175.212 248.898 174.892 249.335 174.673 249.881C174.457 250.426 174.349 251.025 174.349 251.676C174.349 252.328 174.457 252.924 174.673 253.466C174.892 254.008 175.212 254.441 175.633 254.767C176.053 255.093 176.567 255.256 177.173 255.256ZM184.245 244.364V256H183.234V244.364H184.245ZM190.313 256.182C189.559 256.182 188.893 255.991 188.313 255.608C187.737 255.225 187.287 254.697 186.961 254.023C186.635 253.345 186.472 252.562 186.472 251.676C186.472 250.782 186.635 249.996 186.961 249.318C187.287 248.636 187.737 248.106 188.313 247.727C188.893 247.345 189.559 247.153 190.313 247.153C191.067 247.153 191.732 247.345 192.308 247.727C192.883 248.11 193.334 248.64 193.66 249.318C193.989 249.996 194.154 250.782 194.154 251.676C194.154 252.562 193.991 253.345 193.665 254.023C193.34 254.697 192.887 255.225 192.308 255.608C191.732 255.991 191.067 256.182 190.313 256.182ZM190.313 255.256C190.919 255.256 191.433 255.093 191.853 254.767C192.273 254.441 192.592 254.008 192.808 253.466C193.027 252.924 193.137 252.328 193.137 251.676C193.137 251.025 193.027 250.426 192.808 249.881C192.592 249.335 192.273 248.898 191.853 248.568C191.433 248.239 190.919 248.074 190.313 248.074C189.711 248.074 189.198 248.239 188.773 248.568C188.353 248.898 188.033 249.335 187.813 249.881C187.597 250.426 187.489 251.025 187.489 251.676C187.489 252.328 187.597 252.924 187.813 253.466C188.033 254.008 188.353 254.441 188.773 254.767C189.194 255.093 189.707 255.256 190.313 255.256ZM196.374 256V247.273H197.357V248.614H197.431C197.605 248.174 197.908 247.82 198.34 247.551C198.776 247.278 199.268 247.142 199.817 247.142C199.901 247.142 199.994 247.144 200.096 247.148C200.198 247.152 200.283 247.155 200.352 247.159V248.188C200.306 248.18 200.227 248.169 200.113 248.153C199.999 248.138 199.876 248.131 199.744 248.131C199.289 248.131 198.884 248.227 198.528 248.42C198.175 248.61 197.897 248.873 197.692 249.21C197.488 249.547 197.386 249.932 197.386 250.364V256H196.374ZM25.304 275.273V263.273H26.2869V264.938H26.4062C26.5275 264.676 26.6941 264.409 26.9062 264.136C27.1184 263.86 27.3987 263.627 27.7472 263.438C28.0994 263.248 28.5426 263.153 29.0767 263.153C29.7964 263.153 30.4252 263.343 30.9631 263.722C31.5047 264.097 31.9252 264.623 32.2244 265.301C32.5275 265.975 32.679 266.761 32.679 267.659C32.679 268.561 32.5275 269.35 32.2244 270.028C31.9252 270.706 31.5047 271.235 30.9631 271.614C30.4252 271.992 29.8002 272.182 29.0881 272.182C28.5616 272.182 28.1203 272.087 27.7642 271.898C27.4119 271.708 27.1259 271.475 26.9062 271.199C26.6903 270.919 26.5237 270.646 26.4062 270.381H26.3153V275.273H25.304ZM26.304 267.642C26.304 268.347 26.4081 268.972 26.6165 269.517C26.8286 270.059 27.1316 270.485 27.5256 270.795C27.9233 271.102 28.4044 271.256 28.9688 271.256C29.5483 271.256 30.0369 271.097 30.4347 270.778C30.8362 270.456 31.1411 270.023 31.3494 269.477C31.5616 268.932 31.6676 268.32 31.6676 267.642C31.6676 266.972 31.5634 266.367 31.3551 265.83C31.1506 265.292 30.8475 264.866 30.446 264.551C30.0445 264.233 29.5521 264.074 28.9688 264.074C28.4006 264.074 27.9176 264.227 27.5199 264.534C27.1222 264.837 26.8191 265.258 26.6108 265.795C26.4062 266.33 26.304 266.945 26.304 267.642ZM34.8977 272V263.273H35.8807V264.614H35.9545C36.1288 264.174 36.4318 263.82 36.8636 263.551C37.2992 263.278 37.7917 263.142 38.3409 263.142C38.4242 263.142 38.517 263.144 38.6193 263.148C38.7216 263.152 38.8068 263.155 38.875 263.159V264.188C38.8295 264.18 38.75 264.169 38.6364 264.153C38.5227 264.138 38.3996 264.131 38.267 264.131C37.8125 264.131 37.4072 264.227 37.0511 264.42C36.6989 264.61 36.4205 264.873 36.2159 265.21C36.0114 265.547 35.9091 265.932 35.9091 266.364V272H34.8977ZM43.8636 272.182C43.0492 272.182 42.3447 271.992 41.75 271.614C41.1553 271.231 40.6951 270.703 40.3693 270.028C40.0473 269.35 39.8864 268.57 39.8864 267.688C39.8864 266.809 40.0473 266.028 40.3693 265.347C40.6951 264.661 41.1439 264.125 41.7159 263.739C42.2917 263.348 42.9564 263.153 43.7102 263.153C44.1837 263.153 44.6402 263.241 45.0795 263.415C45.5189 263.585 45.9129 263.848 46.2614 264.205C46.6136 264.557 46.892 265.002 47.0966 265.54C47.3011 266.074 47.4034 266.706 47.4034 267.438V267.938H40.5852V267.045H46.3693C46.3693 266.485 46.2557 265.981 46.0284 265.534C45.8049 265.083 45.4924 264.727 45.0909 264.466C44.6932 264.205 44.233 264.074 43.7102 264.074C43.1572 264.074 42.6705 264.222 42.25 264.517C41.8295 264.812 41.5 265.203 41.2614 265.688C41.0265 266.172 40.9072 266.703 40.9034 267.278V267.812C40.9034 268.506 41.0227 269.112 41.2614 269.631C41.5038 270.146 41.8466 270.545 42.2898 270.83C42.733 271.114 43.2576 271.256 43.8636 271.256C44.2765 271.256 44.6383 271.191 44.9489 271.062C45.2633 270.934 45.5265 270.761 45.7386 270.545C45.9545 270.326 46.1174 270.085 46.2273 269.824L47.1875 270.136C47.0549 270.504 46.8371 270.843 46.5341 271.153C46.2348 271.464 45.8598 271.714 45.4091 271.903C44.9621 272.089 44.447 272.182 43.8636 272.182ZM53.223 263.273V264.153H48.9332V263.273H53.223ZM50.2741 272V261.994C50.2741 261.525 50.3821 261.129 50.598 260.807C50.8177 260.485 51.1037 260.241 51.456 260.074C51.8082 259.907 52.1813 259.824 52.5753 259.824C52.8404 259.824 53.0601 259.847 53.2344 259.892C53.4124 259.934 53.5526 259.975 53.6548 260.017L53.3594 260.903C53.2836 260.881 53.1908 260.854 53.081 260.824C52.9711 260.794 52.8329 260.778 52.6662 260.778C52.2268 260.778 51.8878 260.902 51.6491 261.148C51.4105 261.394 51.2912 261.746 51.2912 262.205L51.2855 272H50.2741ZM58.4105 272.182C57.5961 272.182 56.8916 271.992 56.2969 271.614C55.7022 271.231 55.242 270.703 54.9162 270.028C54.5942 269.35 54.4332 268.57 54.4332 267.688C54.4332 266.809 54.5942 266.028 54.9162 265.347C55.242 264.661 55.6908 264.125 56.2628 263.739C56.8385 263.348 57.5033 263.153 58.2571 263.153C58.7306 263.153 59.187 263.241 59.6264 263.415C60.0658 263.585 60.4598 263.848 60.8082 264.205C61.1605 264.557 61.4389 265.002 61.6435 265.54C61.848 266.074 61.9503 266.706 61.9503 267.438V267.938H55.1321V267.045H60.9162C60.9162 266.485 60.8026 265.981 60.5753 265.534C60.3518 265.083 60.0393 264.727 59.6378 264.466C59.2401 264.205 58.7798 264.074 58.2571 264.074C57.7041 264.074 57.2173 264.222 56.7969 264.517C56.3764 264.812 56.0469 265.203 55.8082 265.688C55.5734 266.172 55.4541 266.703 55.4503 267.278V267.812C55.4503 268.506 55.5696 269.112 55.8082 269.631C56.0507 270.146 56.3935 270.545 56.8366 270.83C57.2798 271.114 57.8045 271.256 58.4105 271.256C58.8234 271.256 59.1851 271.191 59.4957 271.062C59.8101 270.934 60.0734 270.761 60.2855 270.545C60.5014 270.326 60.6643 270.085 60.7741 269.824L61.7344 270.136C61.6018 270.504 61.384 270.843 61.081 271.153C60.7817 271.464 60.4067 271.714 59.956 271.903C59.509 272.089 58.9938 272.182 58.4105 272.182ZM64.179 272V263.273H65.1619V264.614H65.2358C65.41 264.174 65.7131 263.82 66.1449 263.551C66.5805 263.278 67.0729 263.142 67.6222 263.142C67.7055 263.142 67.7983 263.144 67.9006 263.148C68.0028 263.152 68.0881 263.155 68.1562 263.159V264.188C68.1108 264.18 68.0313 264.169 67.9176 264.153C67.804 264.138 67.6809 264.131 67.5483 264.131C67.0938 264.131 66.6884 264.227 66.3324 264.42C65.9801 264.61 65.7017 264.873 65.4972 265.21C65.2926 265.547 65.1903 265.932 65.1903 266.364V272H64.179ZM73.1449 272.182C72.3305 272.182 71.6259 271.992 71.0312 271.614C70.4366 271.231 69.9763 270.703 69.6506 270.028C69.3286 269.35 69.1676 268.57 69.1676 267.688C69.1676 266.809 69.3286 266.028 69.6506 265.347C69.9763 264.661 70.4252 264.125 70.9972 263.739C71.5729 263.348 72.2377 263.153 72.9915 263.153C73.465 263.153 73.9214 263.241 74.3608 263.415C74.8002 263.585 75.1941 263.848 75.5426 264.205C75.8949 264.557 76.1733 265.002 76.3778 265.54C76.5824 266.074 76.6847 266.706 76.6847 267.438V267.938H69.8665V267.045H75.6506C75.6506 266.485 75.5369 265.981 75.3097 265.534C75.0862 265.083 74.7737 264.727 74.3722 264.466C73.9744 264.205 73.5142 264.074 72.9915 264.074C72.4384 264.074 71.9517 264.222 71.5312 264.517C71.1108 264.812 70.7813 265.203 70.5426 265.688C70.3078 266.172 70.1884 266.703 70.1847 267.278V267.812C70.1847 268.506 70.304 269.112 70.5426 269.631C70.785 270.146 71.1278 270.545 71.571 270.83C72.0142 271.114 72.5388 271.256 73.1449 271.256C73.5578 271.256 73.9195 271.191 74.2301 271.062C74.5445 270.934 74.8078 270.761 75.0199 270.545C75.2358 270.326 75.3987 270.085 75.5085 269.824L76.4688 270.136C76.3362 270.504 76.1184 270.843 75.8153 271.153C75.5161 271.464 75.1411 271.714 74.6903 271.903C74.2434 272.089 73.7282 272.182 73.1449 272.182ZM79.9247 266.545V272H78.9134V263.273H79.8963V264.642H79.9872C80.1918 264.195 80.5099 263.837 80.9418 263.568C81.3774 263.295 81.9152 263.159 82.5554 263.159C83.1425 263.159 83.6577 263.282 84.1009 263.528C84.5478 263.771 84.8944 264.129 85.1406 264.602C85.3906 265.076 85.5156 265.657 85.5156 266.347V272H84.5043V266.409C84.5043 265.693 84.3035 265.127 83.902 264.71C83.5043 264.294 82.9702 264.085 82.2997 264.085C81.8414 264.085 81.4342 264.184 81.0781 264.381C80.7221 264.578 80.4399 264.862 80.2315 265.233C80.027 265.6 79.9247 266.038 79.9247 266.545ZM91.5881 272.182C90.8078 272.182 90.1278 271.987 89.5483 271.597C88.9725 271.206 88.5256 270.672 88.2074 269.994C87.8892 269.316 87.7301 268.544 87.7301 267.676C87.7301 266.801 87.8911 266.023 88.2131 265.341C88.5388 264.659 88.9896 264.125 89.5653 263.739C90.1411 263.348 90.8097 263.153 91.571 263.153C92.1544 263.153 92.6828 263.267 93.1562 263.494C93.6297 263.718 94.0199 264.034 94.3267 264.443C94.6373 264.848 94.8324 265.322 94.9119 265.864H93.8892C93.7831 265.371 93.5275 264.951 93.1222 264.602C92.7206 264.25 92.2093 264.074 91.5881 264.074C91.0313 264.074 90.5388 264.225 90.1108 264.528C89.6828 264.828 89.3475 265.246 89.1051 265.784C88.8665 266.318 88.7472 266.937 88.7472 267.642C88.7472 268.35 88.8646 268.977 89.0994 269.523C89.3343 270.064 89.6638 270.489 90.0881 270.795C90.5161 271.102 91.0161 271.256 91.5881 271.256C91.9744 271.256 92.3267 271.184 92.6449 271.04C92.9669 270.892 93.2358 270.684 93.4517 270.415C93.6714 270.146 93.8191 269.826 93.8949 269.455H94.9176C94.8419 269.981 94.6544 270.451 94.3551 270.864C94.0597 271.273 93.6752 271.595 93.2017 271.83C92.732 272.064 92.1941 272.182 91.5881 272.182ZM100.614 272.182C99.7992 272.182 99.0947 271.992 98.5 271.614C97.9053 271.231 97.4451 270.703 97.1193 270.028C96.7973 269.35 96.6364 268.57 96.6364 267.688C96.6364 266.809 96.7973 266.028 97.1193 265.347C97.4451 264.661 97.8939 264.125 98.4659 263.739C99.0417 263.348 99.7064 263.153 100.46 263.153C100.934 263.153 101.39 263.241 101.83 263.415C102.269 263.585 102.663 263.848 103.011 264.205C103.364 264.557 103.642 265.002 103.847 265.54C104.051 266.074 104.153 266.706 104.153 267.438V267.938H97.3352V267.045H103.119C103.119 266.485 103.006 265.981 102.778 265.534C102.555 265.083 102.242 264.727 101.841 264.466C101.443 264.205 100.983 264.074 100.46 264.074C99.9072 264.074 99.4205 264.222 99 264.517C98.5795 264.812 98.25 265.203 98.0114 265.688C97.7765 266.172 97.6572 266.703 97.6534 267.278V267.812C97.6534 268.506 97.7727 269.112 98.0114 269.631C98.2538 270.146 98.5966 270.545 99.0398 270.83C99.483 271.114 100.008 271.256 100.614 271.256C101.027 271.256 101.388 271.191 101.699 271.062C102.013 270.934 102.277 270.761 102.489 270.545C102.705 270.326 102.867 270.085 102.977 269.824L103.938 270.136C103.805 270.504 103.587 270.843 103.284 271.153C102.985 271.464 102.61 271.714 102.159 271.903C101.712 272.089 101.197 272.182 100.614 272.182ZM108.138 268.665V268.358C108.142 267.759 108.208 267.273 108.337 266.898C108.465 266.523 108.655 266.206 108.905 265.949C109.159 265.687 109.473 265.437 109.848 265.199C110.128 265.017 110.363 264.826 110.553 264.625C110.746 264.42 110.892 264.197 110.99 263.955C111.092 263.708 111.143 263.441 111.143 263.153C111.143 262.744 111.047 262.386 110.854 262.08C110.664 261.773 110.407 261.536 110.081 261.369C109.755 261.199 109.393 261.114 108.996 261.114C108.617 261.114 108.263 261.197 107.933 261.364C107.607 261.527 107.34 261.769 107.132 262.091C106.928 262.409 106.816 262.803 106.797 263.273H105.723C105.742 262.648 105.897 262.106 106.189 261.648C106.481 261.189 106.871 260.835 107.359 260.585C107.848 260.331 108.393 260.205 108.996 260.205C109.625 260.205 110.178 260.335 110.655 260.597C111.132 260.854 111.505 261.208 111.774 261.659C112.043 262.106 112.178 262.619 112.178 263.199C112.178 263.581 112.117 263.93 111.996 264.244C111.875 264.559 111.693 264.848 111.45 265.114C111.212 265.379 110.912 265.629 110.553 265.864C110.212 266.091 109.941 266.316 109.74 266.54C109.539 266.763 109.395 267.019 109.308 267.307C109.221 267.591 109.174 267.941 109.166 268.358V268.665H108.138ZM108.683 272.085C108.46 272.085 108.267 272.006 108.104 271.847C107.945 271.684 107.865 271.491 107.865 271.267C107.865 271.04 107.945 270.847 108.104 270.688C108.267 270.528 108.46 270.449 108.683 270.449C108.907 270.449 109.098 270.528 109.257 270.688C109.42 270.847 109.501 271.04 109.501 271.267C109.501 271.415 109.464 271.551 109.388 271.676C109.316 271.801 109.217 271.902 109.092 271.977C108.971 272.049 108.835 272.085 108.683 272.085ZM119.045 272V260.364H120.108V271.045H125.653V272H119.045ZM131.364 272.182C130.549 272.182 129.845 271.992 129.25 271.614C128.655 271.231 128.195 270.703 127.869 270.028C127.547 269.35 127.386 268.57 127.386 267.688C127.386 266.809 127.547 266.028 127.869 265.347C128.195 264.661 128.644 264.125 129.216 263.739C129.792 263.348 130.456 263.153 131.21 263.153C131.684 263.153 132.14 263.241 132.58 263.415C133.019 263.585 133.413 263.848 133.761 264.205C134.114 264.557 134.392 265.002 134.597 265.54C134.801 266.074 134.903 266.706 134.903 267.438V267.938H128.085V267.045H133.869C133.869 266.485 133.756 265.981 133.528 265.534C133.305 265.083 132.992 264.727 132.591 264.466C132.193 264.205 131.733 264.074 131.21 264.074C130.657 264.074 130.17 264.222 129.75 264.517C129.33 264.812 129 265.203 128.761 265.688C128.527 266.172 128.407 266.703 128.403 267.278V267.812C128.403 268.506 128.523 269.112 128.761 269.631C129.004 270.146 129.347 270.545 129.79 270.83C130.233 271.114 130.758 271.256 131.364 271.256C131.777 271.256 132.138 271.191 132.449 271.062C132.763 270.934 133.027 270.761 133.239 270.545C133.455 270.326 133.617 270.085 133.727 269.824L134.688 270.136C134.555 270.504 134.337 270.843 134.034 271.153C133.735 271.464 133.36 271.714 132.909 271.903C132.462 272.089 131.947 272.182 131.364 272.182ZM140.57 263.273V264.153H136.405V263.273H140.57ZM137.706 261.182H138.723V269.722C138.723 270.085 138.786 270.371 138.911 270.58C139.036 270.784 139.198 270.93 139.399 271.017C139.6 271.1 139.814 271.142 140.041 271.142C140.174 271.142 140.287 271.134 140.382 271.119C140.477 271.1 140.56 271.081 140.632 271.062L140.848 271.977C140.75 272.015 140.628 272.049 140.484 272.08C140.34 272.114 140.162 272.131 139.95 272.131C139.579 272.131 139.221 272.049 138.876 271.886C138.536 271.723 138.255 271.481 138.036 271.159C137.816 270.837 137.706 270.438 137.706 269.96V261.182ZM152.912 268.665V263.273H153.923V272H152.912V270.551H152.832C152.628 270.998 152.304 271.371 151.861 271.67C151.418 271.966 150.876 272.114 150.236 272.114C149.679 272.114 149.185 271.992 148.753 271.75C148.321 271.504 147.982 271.144 147.736 270.67C147.49 270.197 147.366 269.616 147.366 268.926V263.273H148.378V268.864C148.378 269.545 148.579 270.095 148.98 270.511C149.382 270.924 149.897 271.131 150.526 271.131C150.92 271.131 151.298 271.036 151.662 270.847C152.026 270.657 152.325 270.381 152.56 270.017C152.795 269.65 152.912 269.199 152.912 268.665ZM162.464 265.188L161.538 265.449C161.447 265.187 161.319 264.951 161.152 264.739C160.985 264.527 160.768 264.358 160.499 264.233C160.233 264.108 159.904 264.045 159.51 264.045C158.919 264.045 158.434 264.186 158.055 264.466C157.677 264.746 157.487 265.108 157.487 265.551C157.487 265.926 157.616 266.231 157.874 266.466C158.135 266.697 158.536 266.881 159.078 267.017L160.396 267.341C161.127 267.519 161.675 267.801 162.038 268.188C162.406 268.574 162.589 269.059 162.589 269.642C162.589 270.134 162.453 270.572 162.18 270.955C161.908 271.337 161.527 271.638 161.038 271.858C160.554 272.074 159.991 272.182 159.351 272.182C158.499 272.182 157.796 271.991 157.243 271.608C156.69 271.222 156.336 270.665 156.18 269.938L157.152 269.699C157.277 270.218 157.521 270.61 157.885 270.875C158.252 271.14 158.735 271.273 159.334 271.273C160.004 271.273 160.54 271.123 160.942 270.824C161.343 270.521 161.544 270.142 161.544 269.688C161.544 269.335 161.427 269.04 161.192 268.801C160.957 268.559 160.601 268.381 160.124 268.267L158.697 267.926C157.94 267.744 157.379 267.456 157.016 267.062C156.652 266.669 156.47 266.18 156.47 265.597C156.47 265.116 156.601 264.693 156.862 264.33C157.124 263.962 157.483 263.674 157.942 263.466C158.4 263.258 158.923 263.153 159.51 263.153C160.309 263.153 160.947 263.335 161.425 263.699C161.906 264.059 162.252 264.555 162.464 265.188ZM170.224 268.705L170.213 267.381H170.44L174.531 263.273H175.81L171.77 267.318L171.679 267.335L170.224 268.705ZM169.304 272V260.364H170.315V272H169.304ZM174.741 272L171.196 267.517L171.923 266.818L176.037 272H174.741ZM178.722 266.545V272H177.71V263.273H178.693V264.642H178.784C178.989 264.195 179.307 263.837 179.739 263.568C180.174 263.295 180.712 263.159 181.352 263.159C181.939 263.159 182.455 263.282 182.898 263.528C183.345 263.771 183.691 264.129 183.938 264.602C184.188 265.076 184.312 265.657 184.312 266.347V272H183.301V266.409C183.301 265.693 183.1 265.127 182.699 264.71C182.301 264.294 181.767 264.085 181.097 264.085C180.638 264.085 180.231 264.184 179.875 264.381C179.519 264.578 179.237 264.862 179.028 265.233C178.824 265.6 178.722 266.038 178.722 266.545ZM190.368 272.182C189.614 272.182 188.947 271.991 188.368 271.608C187.792 271.225 187.341 270.697 187.016 270.023C186.69 269.345 186.527 268.562 186.527 267.676C186.527 266.782 186.69 265.996 187.016 265.318C187.341 264.636 187.792 264.106 188.368 263.727C188.947 263.345 189.614 263.153 190.368 263.153C191.122 263.153 191.786 263.345 192.362 263.727C192.938 264.11 193.389 264.64 193.714 265.318C194.044 265.996 194.209 266.782 194.209 267.676C194.209 268.562 194.046 269.345 193.72 270.023C193.394 270.697 192.942 271.225 192.362 271.608C191.786 271.991 191.122 272.182 190.368 272.182ZM190.368 271.256C190.974 271.256 191.487 271.093 191.908 270.767C192.328 270.441 192.646 270.008 192.862 269.466C193.082 268.924 193.192 268.328 193.192 267.676C193.192 267.025 193.082 266.426 192.862 265.881C192.646 265.335 192.328 264.898 191.908 264.568C191.487 264.239 190.974 264.074 190.368 264.074C189.766 264.074 189.252 264.239 188.828 264.568C188.408 264.898 188.088 265.335 187.868 265.881C187.652 266.426 187.544 267.025 187.544 267.676C187.544 268.328 187.652 268.924 187.868 269.466C188.088 270.008 188.408 270.441 188.828 270.767C189.249 271.093 189.762 271.256 190.368 271.256ZM198.07 272L195.433 263.273H196.501L198.57 270.472H198.643L200.706 263.273H201.78L203.825 270.455H203.905L205.973 263.273H207.041L204.405 272H203.359L201.291 264.847H201.183L199.115 272H198.07ZM210.428 260.364L210.354 268.665H209.354L209.28 260.364H210.428ZM209.854 272.085C209.63 272.085 209.437 272.006 209.274 271.847C209.115 271.684 209.036 271.491 209.036 271.267C209.036 271.04 209.115 270.847 209.274 270.688C209.437 270.528 209.63 270.449 209.854 270.449C210.077 270.449 210.268 270.528 210.428 270.688C210.59 270.847 210.672 271.04 210.672 271.267C210.672 271.415 210.634 271.551 210.558 271.676C210.486 271.801 210.388 271.902 210.263 271.977C210.142 272.049 210.005 272.085 209.854 272.085Z" fill="white"/>
<path d="M107.725 81.4312C107.599 81.4312 107.478 81.4813 107.389 81.5704C107.3 81.6595 107.25 81.7803 107.25 81.9062V89.0625C107.25 89.325 107.463 89.5375 107.725 89.5375C107.844 89.5375 107.944 89.5 108.025 89.4375L109.219 88.4688L110.256 90.7312C110.338 90.9 110.506 91 110.688 91C110.756 91 110.825 91 110.894 90.95L112.619 90.15C112.856 90.0375 112.969 89.75 112.844 89.5187L111.8 87.25L113.306 86.9688C113.41 86.9419 113.503 86.8854 113.575 86.8063C113.744 86.6063 113.719 86.3125 113.5 86.1312L108.038 81.5375L108.031 81.5437C107.946 81.4711 107.837 81.4312 107.725 81.4312ZM110.375 82.25V81H113.5V82.25H110.375ZM109.644 78.975L111.413 77.2062L112.294 78.0875L110.525 79.8563L109.644 78.975ZM107.25 76H108.5V79.125H107.25V76ZM103.456 85.1625L105.225 83.3938L106.106 84.275L104.338 86.0437L103.456 85.1625ZM103.456 78.0875L104.338 77.2062L106.106 78.975L105.225 79.8563L103.456 78.0875ZM105.375 82.25H102.25V81H105.375V82.25Z" fill="#433F4C"/>
<path d="M176.417 141.98L176.065 141.905C176.139 141.557 176.207 141.203 176.267 140.852L176.622 140.913C176.56 141.268 176.491 141.627 176.417 141.98Z" fill="#292A2E"/>
<path d="M148.336 164.956L148.333 164.596C149.047 164.59 149.769 164.557 150.481 164.497L150.511 164.856C149.791 164.916 149.059 164.95 148.336 164.956ZM146.159 164.891C145.438 164.842 144.71 164.765 143.993 164.664L144.044 164.308C144.752 164.409 145.472 164.484 146.184 164.532L146.159 164.891ZM152.672 164.592L152.615 164.237C153.319 164.124 154.029 163.982 154.723 163.815L154.807 164.165C154.103 164.334 153.385 164.477 152.672 164.592ZM141.85 164.277C141.142 164.122 140.433 163.939 139.742 163.732L139.845 163.388C140.528 163.592 141.228 163.773 141.927 163.926L141.85 164.277ZM156.904 163.578L156.793 163.237C157.472 163.019 158.152 162.772 158.815 162.503L158.95 162.836C158.279 163.108 157.59 163.358 156.904 163.578ZM137.68 163.031C137.004 162.772 136.33 162.484 135.676 162.175L135.83 161.85C136.475 162.156 137.141 162.439 137.808 162.695L137.68 163.031ZM160.936 161.941L160.776 161.619C161.415 161.302 162.05 160.956 162.664 160.591L162.847 160.9C162.226 161.27 161.583 161.619 160.936 161.941H160.936ZM133.744 161.171C133.115 160.814 132.492 160.428 131.891 160.023L132.092 159.725C132.686 160.124 133.3 160.506 133.92 160.858L133.744 161.171ZM164.678 159.719L164.472 159.425C165.058 159.015 165.635 158.58 166.187 158.127L166.415 158.406C165.855 158.863 165.271 159.305 164.678 159.719H164.678ZM130.133 158.739C129.566 158.291 129.008 157.816 128.475 157.326L128.719 157.061C129.245 157.545 129.796 158.014 130.355 158.457L130.133 158.739ZM168.048 156.965L167.8 156.705C168.318 156.213 168.823 155.695 169.303 155.166L169.569 155.407C169.084 155.943 168.572 156.467 168.048 156.965ZM126.928 155.793C126.434 155.265 125.953 154.711 125.5 154.148L125.781 153.923C126.228 154.479 126.702 155.026 127.19 155.547L126.928 155.793ZM170.97 153.739L170.686 153.518C171.124 152.954 171.546 152.367 171.94 151.771L172.24 151.97C171.841 152.572 171.413 153.167 170.97 153.739L170.97 153.739ZM124.2 152.402C123.79 151.806 123.397 151.188 123.033 150.563L123.344 150.382C123.703 150.999 124.091 151.61 124.496 152.198L124.2 152.402ZM173.373 150.11L173.059 149.935C173.408 149.312 173.736 148.667 174.037 148.019L174.363 148.17C174.059 148.826 173.726 149.479 173.373 150.11ZM122.007 148.643C121.69 147.992 121.394 147.322 121.127 146.651L121.462 146.518C121.725 147.181 122.017 147.843 122.33 148.485L122.007 148.643ZM175.202 146.161L174.866 146.035C175.115 145.368 175.343 144.681 175.542 143.994L175.888 144.095C175.686 144.789 175.455 145.484 175.202 146.16V146.161Z" fill="#292A2E"/>
<path d="M120.396 144.583C120.288 144.239 120.186 143.888 120.092 143.539L120.439 143.445C120.532 143.789 120.633 144.135 120.739 144.475L120.396 144.583Z" fill="#292A2E"/>
<path d="M37.712 113.106C37.3641 113.003 37.0156 112.888 36.6766 112.765L36.7994 112.427C37.1315 112.548 37.473 112.661 37.8142 112.761L37.712 113.106Z" fill="#292A2E"/>
<path d="M34.6749 111.896C34.0263 111.566 33.3988 111.195 32.7958 110.787L32.9974 110.49C33.5881 110.889 34.2029 111.252 34.8383 111.576L34.6749 111.896ZM31.0682 109.455C30.5206 108.976 30.0031 108.463 29.5184 107.92L29.7867 107.68C30.2615 108.212 30.7686 108.715 31.305 109.184L31.0682 109.455ZM28.1688 106.206C27.7545 105.608 27.3771 104.985 27.0387 104.341L27.357 104.174C27.6887 104.805 28.0585 105.415 28.4644 106.002L28.1688 106.206ZM26.1446 102.352C25.8875 101.671 25.6724 100.975 25.5005 100.268L25.8501 100.184C26.0184 100.876 26.2291 101.558 26.4811 102.225L26.1446 102.352ZM25.1171 98.1222C25.0396 97.4512 25.0005 96.7764 25 96.101V95.944L25.3597 95.9471V96.101C25.3599 96.7626 25.398 97.4236 25.4739 98.0808L25.1171 98.1222ZM25.5127 93.8158L25.1563 93.7683C25.2527 93.047 25.3931 92.3324 25.5767 91.6283L25.9247 91.7182C25.7447 92.4084 25.6069 93.1088 25.5122 93.8158H25.5127ZM26.5874 89.6872L26.2527 89.5548C26.5203 88.878 26.8291 88.2182 27.1776 87.5792L27.4934 87.7515C27.1519 88.3775 26.8494 89.024 26.5874 89.6872ZM28.6308 85.9428L28.3387 85.7327C28.7638 85.1419 29.2249 84.5779 29.7195 84.0439L29.9831 84.2885C29.4987 84.8116 29.0471 85.364 28.6308 85.9428ZM31.5291 82.8137L31.2973 82.5386C31.8538 82.0698 32.4384 81.6353 33.0478 81.2377L33.2443 81.5389C32.6472 81.9284 32.0744 82.354 31.5291 82.8134V82.8137ZM35.1022 80.4831L34.9439 80.1594C35.5976 79.8393 36.2702 79.5594 36.958 79.3212L37.0756 79.6611C36.4017 79.8946 35.7427 80.169 35.1022 80.4828V80.4831Z" fill="#292A2E"/>
<path d="M39.1406 79.0862L39.0656 78.7344C39.4194 78.6591 39.7803 78.5938 40.1383 78.5402L40.1923 78.8961C39.8407 78.9484 39.4872 79.0123 39.1406 79.0862Z" fill="#292A2E"/>
<path d="M43.8103 50.8327L43.4887 50.6717C43.6506 50.348 43.8256 50.0243 44.0072 49.7123L44.3181 49.8933C44.1403 50.1988 43.9692 50.5149 43.8103 50.8327Z" fill="#292A2E"/>
<path d="M75.1209 55.651C75.0126 54.9787 74.8635 54.3135 74.6744 53.6592L75.0199 53.5592C75.213 54.2276 75.3654 54.907 75.4761 55.5938L75.1209 55.651ZM73.988 51.7365C73.7203 51.1103 73.4148 50.5009 73.0732 49.9117L73.3841 49.7319C73.7334 50.3337 74.0457 50.9562 74.3192 51.596L73.988 51.7365ZM71.9422 48.2118C71.5307 47.6696 71.0863 47.1531 70.6115 46.6653L70.8692 46.4135C71.3546 46.912 71.8088 47.4399 72.2294 47.9942L71.9422 48.2118ZM45.4509 48.1938L45.1646 47.9762C45.5858 47.4224 46.0407 46.8949 46.5266 46.3968L46.784 46.6485C46.3085 47.136 45.8635 47.6522 45.4516 48.1944L45.4509 48.1938ZM69.0986 45.2937C68.5667 44.8683 68.0091 44.4759 67.429 44.1189L67.6177 43.8131C68.2102 44.178 68.7799 44.5788 69.3234 45.0133L69.0986 45.2937ZM48.2976 45.2786L48.0732 44.9975C48.6169 44.5635 49.1869 44.1632 49.7798 43.7991L49.968 44.1048C49.3879 44.4617 48.8303 44.8539 48.2983 45.2791L48.2976 45.2786ZM65.6291 43.1566C65.0104 42.8721 64.3749 42.6256 63.7261 42.4184L63.8353 42.0758C64.4981 42.2874 65.1473 42.5392 65.7795 42.8298L65.6291 43.1566ZM51.7705 43.1471L51.6212 42.8199C52.2541 42.5312 52.9041 42.2812 53.5673 42.0713L53.6752 42.4142C53.0261 42.6197 52.39 42.8644 51.7705 43.1471ZM61.748 41.9197C61.0787 41.7943 60.4022 41.7103 59.7226 41.6679L59.7449 41.3083C60.4393 41.3513 61.1304 41.4371 61.8142 41.5651L61.748 41.9197ZM55.6559 41.9186L55.5901 41.5645C56.274 41.4374 56.9651 41.352 57.6594 41.309L57.6815 41.6687C57.0019 41.7105 56.3254 41.7938 55.6559 41.9181V41.9186Z" fill="#292A2E"/>
<path d="M75.6852 58.7671L75.3256 58.7571C75.3355 58.4035 75.334 58.0444 75.3211 57.6898L75.6807 57.6766C75.6942 58.039 75.6953 58.406 75.6852 58.7671Z" fill="#292A2E"/>
<path d="M126.301 65.3628L125.96 65.2525C126.07 64.9109 126.186 64.565 126.307 64.2252L126.646 64.3453C126.526 64.6819 126.41 65.0241 126.301 65.3628Z" fill="#292A2E"/>
<path d="M195.817 68.7824C195.668 68.0949 195.496 67.4033 195.307 66.7266L195.653 66.6297C195.845 67.313 196.018 68.0118 196.169 68.706L195.817 68.7824ZM194.677 64.704C194.448 64.0387 194.197 63.3722 193.93 62.7216L194.262 62.5849C194.532 63.242 194.786 63.9157 195.018 64.587L194.677 64.704ZM127.411 62.3688L127.079 62.229C127.355 61.5748 127.654 60.92 127.967 60.2827L128.29 60.4415C127.979 61.0725 127.683 61.721 127.411 62.3688ZM193.067 60.7863C192.761 60.1522 192.434 59.5192 192.093 58.9047L192.408 58.7301C192.752 59.3505 193.083 59.99 193.391 60.6303L193.067 60.7863ZM129.281 58.5695L128.968 58.392C129.319 57.7741 129.693 57.1589 130.079 56.5635L130.381 56.7602C129.999 57.3488 129.629 57.9579 129.281 58.5695H129.281ZM191.012 57.0839C190.634 56.4905 190.236 55.8992 189.825 55.3284L190.117 55.1184C190.532 55.6938 190.935 56.2912 191.315 56.8911L191.012 57.0839ZM131.588 55.0159L131.298 54.8024C131.72 54.2302 132.164 53.6632 132.619 53.117L132.895 53.3472C132.445 53.888 132.005 54.4492 131.588 55.0159ZM188.538 53.6446C188.095 53.099 187.629 52.5594 187.153 52.0404L187.418 51.7974C187.898 52.3216 188.369 52.8669 188.816 53.4177L188.538 53.6446ZM134.299 51.7591L134.037 51.5129C134.523 50.9948 135.031 50.4843 135.548 49.9957L135.795 50.2568C135.284 50.7407 134.78 51.2461 134.299 51.7591ZM185.677 50.5201C185.172 50.0297 184.646 49.549 184.112 49.0897L184.347 48.8173C184.885 49.2807 185.416 49.7668 185.927 50.262L185.677 50.5201ZM137.376 48.8455L137.145 48.5702C137.688 48.1134 138.252 47.6662 138.822 47.2411L139.038 47.5288C138.472 47.9503 137.913 48.3931 137.376 48.8455ZM182.468 47.7543C181.909 47.3274 181.33 46.9116 180.746 46.5185L180.947 46.2202C181.537 46.6172 182.122 47.0373 182.686 47.4684L182.468 47.7543ZM140.771 46.3131L140.574 46.0128C141.167 45.6224 141.78 45.2444 142.395 44.8892L142.575 45.2007C141.965 45.5523 141.359 45.9267 140.771 46.3131ZM178.953 45.3866C178.349 45.0295 177.724 44.6853 177.098 44.3638L177.263 44.0437C177.895 44.3686 178.525 44.7164 179.136 45.077L178.953 45.3866ZM144.44 44.1954L144.278 43.8739C144.913 43.5554 145.565 43.2515 146.217 42.9706L146.36 43.301C145.714 43.5786 145.068 43.88 144.44 44.1954ZM175.187 43.4527C174.544 43.1692 173.884 42.9005 173.225 42.6543L173.351 42.3173C174.016 42.566 174.683 42.8372 175.332 43.1237L175.187 43.4527ZM148.33 42.5201L148.207 42.1821C148.874 41.9397 149.558 41.7145 150.239 41.5113L150.342 41.856C149.667 42.0569 148.99 42.2803 148.33 42.5201ZM171.22 41.97C170.546 41.762 169.859 41.5715 169.178 41.4039L169.264 41.0545C169.952 41.2239 170.646 41.4163 171.326 41.6264L171.22 41.97ZM152.388 41.3113L152.305 40.9612C152.997 40.7993 153.702 40.6555 154.401 40.5334L154.463 40.8878C153.771 41.0071 153.073 41.1509 152.388 41.3113ZM167.106 40.9576C166.414 40.8296 165.709 40.7206 165.012 40.6339L165.057 40.2771C165.761 40.3647 166.472 40.4749 167.172 40.6041L167.106 40.9576ZM156.558 40.587L156.518 40.2296C157.223 40.1496 157.94 40.0897 158.649 40.0516L158.668 40.4113C157.967 40.4485 157.257 40.5078 156.558 40.587ZM162.903 40.4341C162.202 40.3886 161.49 40.3634 160.786 40.3597L160.788 40C161.499 40.0038 162.218 40.0291 162.926 40.0752L162.903 40.4341Z" fill="#292A2E"/>
<path d="M196.357 71.9388C196.313 71.5851 196.262 71.2272 196.207 70.8756L196.563 70.8204C196.618 71.1754 196.669 71.5367 196.714 71.894L196.357 71.9388Z" fill="#292A2E"/>
<path d="M202.679 84.1421C202.419 83.9002 202.149 83.6607 201.878 83.4298L202.112 83.1561C202.387 83.3898 202.66 83.6332 202.924 83.8784L202.679 84.1421Z" fill="#292A2E"/>
<path d="M186.359 127.699L186.35 127.34C187.049 127.322 187.757 127.273 188.452 127.196L188.492 127.553C187.786 127.631 187.069 127.68 186.359 127.699ZM184.221 127.666C183.512 127.625 182.796 127.553 182.094 127.453L182.145 127.097C182.837 127.196 183.543 127.266 184.242 127.307L184.221 127.666ZM190.605 127.229L190.536 126.876C191.223 126.74 191.912 126.574 192.585 126.382L192.684 126.727C192.001 126.923 191.302 127.092 190.605 127.229H190.605ZM194.712 126.053L194.585 125.717C195.24 125.468 195.891 125.188 196.521 124.885L196.677 125.209C196.037 125.516 195.376 125.8 194.712 126.053H194.712ZM198.563 124.201L198.381 123.891C198.984 123.535 199.579 123.148 200.148 122.743L200.357 123.036C199.778 123.448 199.175 123.84 198.563 124.201L198.563 124.201ZM202.046 121.723L201.813 121.448C202.346 120.996 202.867 120.515 203.362 120.017L203.617 120.271C203.114 120.776 202.586 121.265 202.045 121.723L202.046 121.723ZM205.06 118.694L204.785 118.463C205.236 117.926 205.67 117.366 206.073 116.795L206.367 117.003C205.957 117.582 205.517 118.151 205.059 118.695L205.06 118.694ZM207.527 115.208L207.217 115.026C207.571 114.423 207.904 113.797 208.206 113.166L208.529 113.321C208.223 113.962 207.886 114.597 207.526 115.209L207.527 115.208ZM209.371 111.355L209.035 111.228C209.282 110.574 209.504 109.9 209.695 109.227L210.041 109.326C209.847 110.009 209.621 110.691 209.37 111.357L209.371 111.355ZM210.536 107.246L210.183 107.177C210.316 106.491 210.422 105.79 210.496 105.094L210.854 105.132C210.778 105.839 210.671 106.55 210.536 107.247L210.536 107.246ZM210.993 102.999L210.633 102.991C210.637 102.8 210.64 102.61 210.64 102.42C210.64 101.909 210.624 101.393 210.592 100.884L210.952 100.862C210.984 101.378 211 101.902 211 102.42C210.999 102.613 210.997 102.806 210.992 102.999L210.993 102.999ZM210.375 98.7875C210.274 98.0944 210.142 97.3977 209.983 96.7169L210.333 96.6349C210.495 97.3258 210.628 98.0323 210.731 98.7353L210.375 98.7875ZM209.416 94.6864C209.2 94.021 208.953 93.3557 208.682 92.7113L209.013 92.5716C209.289 93.226 209.539 93.9002 209.758 94.5755L209.416 94.6864ZM207.782 90.8051C207.457 90.1854 207.101 89.5722 206.724 88.9826L207.027 88.7889C207.409 89.387 207.771 90.0092 208.101 90.6381L207.782 90.8051ZM205.514 87.2564C205.089 86.7016 204.635 86.1574 204.163 85.6391L204.428 85.3969C204.907 85.9229 205.369 86.4748 205.8 87.0377L205.514 87.2564Z" fill="#292A2E"/>
<path d="M179.987 127.06C179.636 126.979 179.281 126.889 178.933 126.793L179.029 126.446C179.372 126.541 179.722 126.629 180.068 126.709L179.987 127.06Z" fill="#292A2E"/>
<path d="M178.38 50.4731H57.0505C54.0709 50.4731 51.6555 52.8885 51.6555 55.8681V144.7C51.6555 147.679 54.0709 150.095 57.0505 150.095H178.38C181.359 150.095 183.775 147.679 183.775 144.7V55.8681C183.775 52.8885 181.359 50.4731 178.38 50.4731Z" fill="white"/>
<path d="M178.38 50.4731H57.0505C54.0709 50.4731 51.6555 52.8885 51.6555 55.8681V144.7C51.6555 147.679 54.0709 150.095 57.0505 150.095H178.38C181.359 150.095 183.775 147.679 183.775 144.7V55.8681C183.775 52.8885 181.359 50.4731 178.38 50.4731Z" fill="white"/>
<path d="M178.38 50.4731H57.0505C54.0709 50.4731 51.6555 52.8885 51.6555 55.8681V144.7C51.6555 147.679 54.0709 150.095 57.0505 150.095H178.38C181.359 150.095 183.775 147.679 183.775 144.7V55.8681C183.775 52.8885 181.359 50.4731 178.38 50.4731Z" fill="white"/>
<path d="M178.38 150.275H57.0505C55.5725 150.273 54.1555 149.685 53.1104 148.64C52.0653 147.595 51.4775 146.178 51.4757 144.7V55.8681C51.4775 54.3901 52.0653 52.9731 53.1104 51.928C54.1555 50.8829 55.5725 50.295 57.0505 50.2933H178.38C179.858 50.295 181.275 50.8829 182.32 51.928C183.365 52.9731 183.953 54.3901 183.955 55.8681V144.7C183.953 146.178 183.365 147.595 182.32 148.64C181.275 149.685 179.858 150.273 178.38 150.275ZM57.0505 50.653C55.6678 50.6545 54.3422 51.2045 53.3645 52.1821C52.3869 53.1598 51.8369 54.4854 51.8354 55.8681V144.7C51.837 146.083 52.3869 147.408 53.3646 148.386C54.3423 149.363 55.6678 149.913 57.0505 149.915H178.38C179.763 149.913 181.088 149.363 182.066 148.386C183.044 147.408 183.594 146.082 183.595 144.7V55.8681C183.594 54.4854 183.044 53.1599 182.066 52.1822C181.088 51.2045 179.763 50.6546 178.38 50.653H57.0505Z" fill="#292A2E"/>
<path d="M174.914 123.029H60.1499C58.558 123.029 57.2675 124.319 57.2675 125.911V141.794C57.2675 143.386 58.558 144.676 60.1499 144.676H174.914C176.505 144.676 177.796 143.386 177.796 141.794V125.911C177.796 124.319 176.505 123.029 174.914 123.029Z" fill="#367CFF"/>
<g opacity="0.9">
<path d="M174.914 123.029H60.1499C58.558 123.029 57.2675 124.319 57.2675 125.911V141.794C57.2675 143.386 58.558 144.676 60.1499 144.676H174.914C176.505 144.676 177.796 143.386 177.796 141.794V125.911C177.796 124.319 176.505 123.029 174.914 123.029Z" fill="white"/>
</g>
<g opacity="0.9">
<path d="M174.914 95.1501H60.1499C58.558 95.1501 57.2675 95.4966 57.2675 95.924V100.189C57.2675 100.616 58.558 100.963 60.1499 100.963H174.914C176.505 100.963 177.796 100.616 177.796 100.189V95.924C177.796 95.4966 176.505 95.1501 174.914 95.1501Z" fill="white"/>
</g>
<g opacity="0.9">
<path d="M174.962 103.84H60.1979C58.606 103.84 57.3156 104.186 57.3156 104.614V108.878C57.3156 109.306 58.606 109.652 60.1979 109.652H174.962C176.553 109.652 177.844 109.306 177.844 108.878V104.614C177.844 104.186 176.553 103.84 174.962 103.84Z" fill="white"/>
</g>
<path d="M174.914 67.2714H60.1498C58.558 67.2714 57.2675 68.5619 57.2675 70.1537V86.0371C57.2675 87.629 58.558 88.9194 60.1498 88.9194H174.914C176.505 88.9194 177.796 87.629 177.796 86.0371V70.1537C177.796 68.5619 176.505 67.2714 174.914 67.2714Z" fill="#367CFF"/>
<path opacity="0.2" d="M174.914 67.2714H60.1498C58.558 67.2714 57.2675 68.5619 57.2675 70.1537V86.0371C57.2675 87.629 58.558 88.9194 60.1498 88.9194H174.914C176.505 88.9194 177.796 87.629 177.796 86.0371V70.1537C177.796 68.5619 176.505 67.2714 174.914 67.2714Z" fill="white"/>
<path d="M174.914 89.0993H60.1498C59.3379 89.0984 58.5595 88.7754 57.9855 88.2012C57.4114 87.627 57.0886 86.8486 57.0879 86.0366V70.154C57.0887 69.3422 57.4116 68.5638 57.9856 67.9897C58.5597 67.4156 59.338 67.0926 60.1498 67.0917H174.914C175.725 67.0926 176.504 67.4155 177.078 67.9896C177.652 68.5637 177.975 69.3421 177.976 70.154V86.0366C177.975 86.8486 177.652 87.6271 177.078 88.2013C176.504 88.7755 175.726 89.0984 174.914 89.0993ZM60.1498 67.4513C59.4333 67.4522 58.7464 67.7372 58.2398 68.2439C57.7332 68.7506 57.4483 69.4375 57.4475 70.154V86.0366C57.4483 86.7531 57.7332 87.4401 58.2398 87.9468C58.7464 88.4534 59.4333 88.7385 60.1498 88.7393H174.914C175.63 88.7385 176.317 88.4535 176.824 87.9468C177.33 87.4402 177.615 86.7532 177.616 86.0366V70.154C177.615 69.4375 177.33 68.7505 176.824 68.2438C176.317 67.7371 175.63 67.4521 174.914 67.4513H60.1498Z" fill="#292A2E"/>
<path d="M129.118 71.1107H64.8179C63.1574 71.1107 61.8113 73.4859 61.8113 76.4157C61.8113 79.3456 63.1574 81.7207 64.8179 81.7207H129.118C130.779 81.7207 132.125 79.3456 132.125 76.4157C132.125 73.4859 130.779 71.1107 129.118 71.1107Z" fill="white"/>
<path d="M174.921 100.963H60.1966C59.3851 100.962 58.607 100.875 58.0332 100.72C57.4593 100.566 57.1366 100.356 57.1357 100.137V95.8539C57.1366 95.6349 57.4593 95.4251 58.0332 95.2703C58.607 95.1155 59.3851 95.0284 60.1966 95.0281H174.921C175.732 95.0284 176.51 95.1154 177.084 95.2702C177.658 95.425 177.981 95.6349 177.982 95.8539V100.137C177.981 100.356 177.658 100.566 177.084 100.72C176.51 100.875 175.732 100.962 174.921 100.963ZM60.1966 95.1251C59.4804 95.1253 58.7937 95.2022 58.2873 95.3388C57.7809 95.4754 57.496 95.6607 57.4952 95.8539V100.137C57.496 100.33 57.7809 100.515 58.2873 100.652C58.7937 100.788 59.4804 100.865 60.1966 100.866H174.921C175.637 100.865 176.324 100.788 176.83 100.652C177.337 100.515 177.621 100.33 177.622 100.137V95.8539C177.621 95.6606 177.337 95.4754 176.83 95.3388C176.324 95.2022 175.637 95.1253 174.921 95.1251H60.1966Z" fill="#292A2E"/>
<path d="M174.921 108.515H60.1966C59.3851 108.515 58.607 108.428 58.0332 108.273C57.4593 108.119 57.1366 107.909 57.1357 107.69V103.407C57.1366 103.188 57.4593 102.978 58.0332 102.823C58.607 102.668 59.3851 102.581 60.1966 102.581H174.921C175.732 102.581 176.51 102.668 177.084 102.823C177.658 102.978 177.981 103.188 177.982 103.407V107.69C177.981 107.909 177.658 108.119 177.084 108.273C176.51 108.428 175.732 108.515 174.921 108.515ZM60.1966 102.678C59.4804 102.678 58.7937 102.755 58.2873 102.892C57.7809 103.028 57.496 103.214 57.4952 103.407V107.69C57.496 107.883 57.7809 108.068 58.2873 108.205C58.7937 108.341 59.4804 108.418 60.1966 108.418H174.921C175.637 108.418 176.324 108.341 176.83 108.205C177.337 108.068 177.621 107.883 177.622 107.69V103.407C177.621 103.214 177.337 103.028 176.83 102.892C176.324 102.755 175.637 102.678 174.921 102.678H60.1966Z" fill="#292A2E"/>
<path d="M174.921 144.841H60.1966C59.3851 144.84 58.6071 144.357 58.0332 143.499C57.4594 142.64 57.1366 141.476 57.1357 140.262V116.512C57.1364 115.298 57.4591 114.134 58.033 113.275C58.6068 112.417 59.385 111.934 60.1966 111.932H174.921C175.732 111.934 176.51 112.416 177.084 113.275C177.658 114.133 177.981 115.297 177.982 116.511V140.261C177.981 141.476 177.658 142.64 177.084 143.498C176.51 144.357 175.732 144.84 174.921 144.841ZM60.1966 112.47C59.4804 112.471 58.7938 112.898 58.2873 113.655C57.7809 114.413 57.4961 115.44 57.4952 116.511V140.261C57.4961 141.333 57.7809 142.36 58.2873 143.117C58.7938 143.875 59.4804 144.301 60.1966 144.302H174.921C175.637 144.301 176.324 143.875 176.83 143.117C177.337 142.36 177.621 141.333 177.622 140.261V116.512C177.622 115.441 177.337 114.413 176.83 113.655C176.324 112.898 175.637 112.471 174.921 112.47H60.1966Z" fill="#292A2E"/>
<path d="M183.775 55.8673V61.2961H51.6563V55.8673C51.6563 54.4365 52.2247 53.0643 53.2364 52.0525C54.2482 51.0408 55.6204 50.4724 57.0512 50.4724H178.38C179.811 50.4724 181.183 51.0408 182.195 52.0525C183.207 53.0643 183.775 54.4365 183.775 55.8673Z" fill="#292A2E"/>
<path d="M173.908 105.411L172.342 102.904L169.809 104.427L174.46 85.0508L178.559 86.0346L173.908 105.411Z" fill="#367CFF"/>
<path d="M173.908 105.59C173.878 105.59 173.848 105.583 173.821 105.568C173.794 105.553 173.772 105.532 173.756 105.506L172.283 103.15L169.902 104.582C169.871 104.6 169.836 104.609 169.801 104.607C169.765 104.606 169.731 104.594 169.703 104.573C169.674 104.552 169.652 104.523 169.64 104.49C169.628 104.456 169.626 104.42 169.634 104.386L174.285 85.0096C174.296 84.9634 174.325 84.9236 174.365 84.8987C174.406 84.8738 174.454 84.8659 174.5 84.8767L178.601 85.8607C178.624 85.8662 178.645 85.8762 178.664 85.8901C178.683 85.904 178.7 85.9215 178.712 85.9416C178.724 85.9618 178.733 85.9841 178.736 86.0075C178.74 86.0308 178.739 86.0546 178.734 86.0776L174.083 105.453C174.075 105.487 174.056 105.518 174.03 105.542C174.005 105.567 173.972 105.582 173.937 105.588C173.928 105.59 173.918 105.59 173.908 105.59ZM172.342 102.724C172.372 102.724 172.402 102.732 172.429 102.747C172.456 102.762 172.478 102.783 172.494 102.809L173.833 104.952L178.342 86.1675L174.592 85.2684L170.084 104.052L172.249 102.75C172.277 102.733 172.309 102.725 172.342 102.725V102.724Z" fill="#292A2E"/>
<path d="M179.408 105.411L180.974 102.904L183.507 104.427L178.856 85.0508L174.757 86.0346L179.408 105.411Z" fill="#367CFF"/>
<path d="M179.408 105.591C179.398 105.591 179.388 105.59 179.379 105.588C179.344 105.582 179.311 105.567 179.285 105.542C179.259 105.518 179.241 105.487 179.233 105.453L174.583 86.0768C174.578 86.0538 174.577 86.03 174.58 86.0066C174.584 85.9833 174.592 85.9609 174.605 85.9408C174.617 85.9206 174.633 85.9031 174.652 85.8893C174.671 85.8754 174.693 85.8654 174.716 85.8599L178.816 84.8758C178.862 84.8648 178.911 84.8725 178.952 84.8974C178.993 84.9224 179.022 84.9624 179.033 85.0087L183.682 104.385C183.691 104.419 183.689 104.455 183.676 104.489C183.664 104.522 183.642 104.551 183.614 104.572C183.585 104.593 183.551 104.605 183.516 104.606C183.48 104.608 183.445 104.599 183.415 104.581L181.033 103.149L179.561 105.505C179.545 105.531 179.522 105.553 179.495 105.568C179.469 105.583 179.438 105.591 179.408 105.591ZM174.974 86.1676L179.482 104.952L180.821 102.809C180.846 102.769 180.886 102.74 180.932 102.729C180.978 102.718 181.026 102.726 181.066 102.75L183.232 104.052L178.723 85.2675L174.974 86.1676Z" fill="#292A2E"/>
<path d="M187.163 88.7724C187.163 89.8407 185.822 90.6843 185.509 91.6484C185.185 92.6477 185.762 94.1162 185.157 94.9479C184.545 95.7879 182.966 95.689 182.126 96.3002C181.294 96.9056 180.903 98.4415 179.905 98.7659C178.941 99.079 177.726 98.0763 176.658 98.0763C175.589 98.0763 174.374 99.079 173.41 98.7659C172.411 98.4422 172.021 96.9056 171.189 96.3002C170.349 95.6888 168.77 95.7877 168.158 94.9477C167.553 94.116 168.131 92.6475 167.807 91.6484C167.493 90.6843 166.152 89.8407 166.152 88.7724C166.152 87.704 167.493 86.8604 167.807 85.8963C168.13 84.897 167.553 83.4285 168.158 82.5968C168.77 81.7568 170.349 81.8557 171.189 81.2443C172.021 80.639 172.412 79.1031 173.411 78.7786C174.375 78.4657 175.589 79.4685 176.658 79.4685C177.726 79.4685 178.941 78.4657 179.905 78.7786C180.904 79.1032 181.295 80.6392 182.126 81.2445C182.966 81.8559 184.546 81.7568 185.157 82.5968C185.762 83.4285 185.184 84.897 185.509 85.8963C185.823 86.8604 187.163 87.7038 187.163 88.7724Z" fill="#0CBC8B"/>
<path d="M179.503 99.0062C179.029 99.0062 178.53 98.813 178.044 98.6249C177.576 98.4436 177.091 98.2561 176.658 98.2561C176.225 98.2561 175.74 98.4436 175.271 98.6249C174.626 98.8747 173.958 99.1329 173.355 98.9369C172.723 98.7315 172.328 98.1151 171.946 97.5188C171.672 97.0901 171.412 96.6849 171.083 96.4457C170.748 96.2021 170.256 96.0726 169.781 95.9474C169.101 95.7676 168.398 95.5833 168.013 95.0537C167.632 94.5302 167.671 93.8083 167.71 93.1102C167.737 92.6159 167.765 92.1046 167.635 91.704C167.513 91.3263 167.212 90.9604 166.893 90.5725C166.441 90.0213 165.972 89.4512 165.972 88.7724C165.972 88.0935 166.44 87.5234 166.893 86.9721C167.212 86.5844 167.513 86.218 167.635 85.8408C167.766 85.4401 167.737 84.9287 167.71 84.4343C167.672 83.7362 167.632 83.0136 168.013 82.4911C168.398 81.9613 169.101 81.7762 169.781 81.5973C170.256 81.4714 170.748 81.3427 171.083 81.0988C171.412 80.8596 171.671 80.4545 171.946 80.0258C172.328 79.4296 172.723 78.813 173.355 78.6076C173.96 78.412 174.626 78.67 175.272 78.9196C175.74 79.1011 176.225 79.2886 176.658 79.2886C177.091 79.2886 177.575 79.1011 178.045 78.9196C178.69 78.67 179.357 78.4118 179.961 78.6076C180.593 78.8132 180.988 79.4296 181.37 80.0259C181.644 80.4547 181.904 80.8596 182.233 81.099C182.568 81.3427 183.06 81.4721 183.535 81.5973C184.215 81.7771 184.918 81.9615 185.303 82.4911C185.684 83.0145 185.645 83.7362 185.606 84.4343C185.579 84.9288 185.551 85.4401 185.681 85.8408C185.803 86.2184 186.104 86.5844 186.423 86.9723C186.876 87.5234 187.344 88.0935 187.344 88.7724C187.344 89.4512 186.876 90.0213 186.423 90.5725C186.104 90.9604 185.803 91.3267 185.681 91.704C185.551 92.1046 185.579 92.6159 185.606 93.1104C185.644 93.8085 185.684 94.5302 185.303 95.0537C184.918 95.5833 184.215 95.7683 183.535 95.9474C183.06 96.0733 182.568 96.2021 182.233 96.4457C181.904 96.6851 181.645 97.0901 181.37 97.5188C180.988 98.1151 180.593 98.7317 179.96 98.9369C179.813 98.984 179.658 99.0073 179.503 99.0062ZM176.658 97.8964C177.158 97.8964 177.675 98.0964 178.174 98.2895C178.788 98.5271 179.367 98.7515 179.849 98.5952C180.359 98.4296 180.703 97.8939 181.067 97.3251C181.347 96.8872 181.637 96.4344 182.02 96.1562C182.409 95.8726 182.934 95.7345 183.442 95.6009C184.089 95.4304 184.701 95.2693 185.011 94.8433C185.317 94.4233 185.282 93.7959 185.245 93.1314C185.216 92.604 185.186 92.0586 185.337 91.5941C185.48 91.1521 185.817 90.742 186.143 90.3455C186.555 89.8432 186.982 89.3237 186.982 88.7736C186.982 88.2235 186.555 87.704 186.143 87.2017C185.817 86.8061 185.48 86.395 185.337 85.953C185.186 85.4887 185.216 84.9432 185.245 84.4158C185.281 83.7515 185.317 83.1239 185.011 82.704C184.701 82.278 184.09 82.1168 183.442 81.9463C182.935 81.8127 182.41 81.6744 182.02 81.391C181.637 81.1119 181.347 80.6591 181.067 80.2211C180.703 79.6531 180.36 79.1167 179.85 78.9511C179.367 78.7945 178.789 79.0189 178.174 79.2568C177.675 79.4499 177.159 79.6499 176.658 79.6499C176.158 79.6499 175.641 79.4499 175.142 79.2566C174.528 79.0191 173.948 78.7946 173.466 78.9509C172.956 79.1165 172.613 79.6531 172.249 80.2211C171.969 80.6589 171.679 81.1118 171.296 81.391C170.907 81.6744 170.382 81.8127 169.874 81.9463C169.227 82.1168 168.615 82.2778 168.305 82.7038C167.999 83.1237 168.034 83.7513 168.071 84.4156C168.1 84.9432 168.13 85.4885 167.979 85.953C167.836 86.395 167.499 86.8052 167.173 87.2017C166.76 87.704 166.334 88.2233 166.334 88.7736C166.334 89.3239 166.761 89.8432 167.173 90.3455C167.499 90.7411 167.836 91.1521 167.979 91.5941C168.13 92.0586 168.1 92.604 168.071 93.1313C168.035 93.7957 167.999 94.4233 168.305 94.8433C168.615 95.2693 169.227 95.4302 169.874 95.6009C170.382 95.7345 170.907 95.8726 171.296 96.1562C171.68 96.4353 171.97 96.8881 172.249 97.3251C172.613 97.8932 172.956 98.4296 173.466 98.5952C173.948 98.7515 174.527 98.5274 175.142 98.2895C175.641 98.0964 176.157 97.8964 176.658 97.8964Z" fill="#292A2E"/>
<path d="M176.658 93.4316C179.231 93.4316 181.317 91.3456 181.317 88.7724C181.317 86.1992 179.231 84.1132 176.658 84.1132C174.085 84.1132 171.999 86.1992 171.999 88.7724C171.999 91.3456 174.085 93.4316 176.658 93.4316Z" fill="white"/>
<path d="M176.658 93.6114C175.701 93.6114 174.765 93.3276 173.969 92.7959C173.174 92.2642 172.553 91.5084 172.187 90.6242C171.821 89.74 171.725 88.767 171.912 87.8283C172.099 86.8896 172.559 86.0274 173.236 85.3506C173.913 84.6739 174.775 84.213 175.714 84.0263C176.653 83.8396 177.626 83.9354 178.51 84.3016C179.394 84.6679 180.15 85.2881 180.681 86.0839C181.213 86.8797 181.497 87.8153 181.497 88.7724C181.496 90.0553 180.985 91.2853 180.078 92.1925C179.171 93.0997 177.941 93.61 176.658 93.6114ZM176.658 84.293C175.772 84.293 174.906 84.5557 174.169 85.0479C173.433 85.5401 172.859 86.2397 172.519 87.0582C172.18 87.8767 172.092 88.7773 172.265 89.6462C172.437 90.5152 172.864 91.3133 173.49 91.9398C174.117 92.5662 174.915 92.9928 175.784 93.1657C176.653 93.3385 177.554 93.2498 178.372 92.9108C179.191 92.5717 179.89 91.9976 180.382 91.261C180.875 90.5243 181.137 89.6583 181.137 88.7724C181.136 87.5846 180.664 86.4459 179.824 85.6059C178.984 84.766 177.846 84.2936 176.658 84.2922V84.293Z" fill="#292A2E"/>
<path d="M152 86.3334C147.408 86.3334 143.667 82.5917 143.667 78C143.667 73.4084 147.408 69.6667 152 69.6667C156.592 69.6667 160.333 73.0334 160.333 77.1667C160.333 79.925 158.092 82.1667 155.333 82.1667H153.858C153.625 82.1667 153.442 82.35 153.442 82.5834C153.442 82.6834 153.483 82.775 153.55 82.8584C153.892 83.25 154.083 83.7417 154.083 84.25C154.083 84.8026 153.864 85.3325 153.473 85.7232C153.082 86.1139 152.553 86.3334 152 86.3334ZM152 71.3334C148.325 71.3334 145.333 74.325 145.333 78C145.333 81.675 148.325 84.6667 152 84.6667C152.233 84.6667 152.417 84.4834 152.417 84.25C152.414 84.1419 152.373 84.0384 152.3 83.9584C151.958 83.575 151.775 83.0834 151.775 82.5834C151.775 82.0308 151.994 81.5009 152.385 81.1102C152.776 80.7195 153.306 80.5 153.858 80.5H155.333C157.175 80.5 158.667 79.0084 158.667 77.1667C158.667 73.95 155.675 71.3334 152 71.3334Z" fill="black"/>
<path d="M147.417 78.8333C148.107 78.8333 148.667 78.2737 148.667 77.5833C148.667 76.893 148.107 76.3333 147.417 76.3333C146.726 76.3333 146.167 76.893 146.167 77.5833C146.167 78.2737 146.726 78.8333 147.417 78.8333Z" fill="black"/>
<path d="M149.917 75.5C150.607 75.5 151.167 74.9404 151.167 74.25C151.167 73.5596 150.607 73 149.917 73C149.226 73 148.667 73.5596 148.667 74.25C148.667 74.9404 149.226 75.5 149.917 75.5Z" fill="black"/>
<path d="M154.083 75.5C154.774 75.5 155.333 74.9404 155.333 74.25C155.333 73.5596 154.774 73 154.083 73C153.393 73 152.833 73.5596 152.833 74.25C152.833 74.9404 153.393 75.5 154.083 75.5Z" fill="black"/>
<path d="M156.583 78.8333C157.274 78.8333 157.833 78.2737 157.833 77.5833C157.833 76.893 157.274 76.3333 156.583 76.3333C155.893 76.3333 155.333 76.893 155.333 77.5833C155.333 78.2737 155.893 78.8333 156.583 78.8333Z" fill="black"/>
</g>
<defs>
<filter id="filter0_d_19_587" x="0" y="0" width="244" height="318" filterUnits="userSpaceOnUse" color-interpolation-filters="sRGB">
<feFlood flood-opacity="0" result="BackgroundImageFix"/>
<feColorMatrix in="SourceAlpha" type="matrix" values="0 0 0 0 0 0 0 0 0 0 0 0 0 0 0 0 0 0 127 0" result="hardAlpha"/>
<feOffset dy="4"/>
<feGaussianBlur stdDeviation="2"/>
<feComposite in2="hardAlpha" operator="out"/>
<feColorMatrix type="matrix" values="0 0 0 0 0 0 0 0 0 0 0 0 0 0 0 0 0 0 0.25 0"/>
<feBlend mode="normal" in2="BackgroundImageFix" result="effect1_dropShadow_19_587"/>
<feBlend mode="normal" in="SourceGraphic" in2="effect1_dropShadow_19_587" result="shape"/>
</filter>
<linearGradient id="paint0_linear_19_587" x1="122" y1="0" x2="122" y2="310" gradientUnits="userSpaceOnUse">
<stop stop-color="white" stop-opacity="0"/>
<stop offset="0.619792" stop-color="#5F4FC1"/>
</linearGradient>
</defs>
</svg>
