<svg width="236" height="310" viewBox="0 0 236 310" fill="none" xmlns="http://www.w3.org/2000/svg">
<rect width="236" height="310" rx="10" fill="url(#paint0_linear_19_536)"/>
<path d="M34.2642 167.455H37.3395V176.901C37.3395 177.961 37.0862 178.889 36.5795 179.685C36.0777 180.48 35.3745 181.1 34.4702 181.545C33.5658 181.986 32.5123 182.206 31.3097 182.206C30.1023 182.206 29.0464 181.986 28.142 181.545C27.2377 181.1 26.5346 180.48 26.0327 179.685C25.5308 178.889 25.2798 177.961 25.2798 176.901V167.455H28.3551V176.638C28.3551 177.192 28.4759 177.684 28.7173 178.115C28.9635 178.546 29.3092 178.884 29.7543 179.131C30.1993 179.377 30.7178 179.5 31.3097 179.5C31.9063 179.5 32.4247 179.377 32.8651 179.131C33.3101 178.884 33.6534 178.546 33.8949 178.115C34.1411 177.684 34.2642 177.192 34.2642 176.638V167.455ZM39.8697 182V167.455H45.6083C46.7115 167.455 47.6514 167.665 48.4279 168.087C49.2044 168.503 49.7963 169.083 50.2035 169.827C50.6154 170.565 50.8214 171.418 50.8214 172.384C50.8214 173.349 50.613 174.202 50.1964 174.94C49.7797 175.679 49.176 176.254 48.3853 176.666C47.5993 177.078 46.6476 177.284 45.5302 177.284H41.8725V174.82H45.033C45.6249 174.82 46.1126 174.718 46.4961 174.514C46.8844 174.306 47.1732 174.019 47.3626 173.655C47.5567 173.286 47.6538 172.862 47.6538 172.384C47.6538 171.901 47.5567 171.479 47.3626 171.119C47.1732 170.755 46.8844 170.473 46.4961 170.274C46.1078 170.071 45.6154 169.969 45.0188 169.969H42.945V182H39.8697ZM52.8189 182V167.455H55.8942V179.464H62.13V182H52.8189ZM76.9666 174.727C76.9666 176.313 76.666 177.663 76.0646 178.776C75.468 179.888 74.6536 180.738 73.6214 181.325C72.594 181.908 71.4387 182.199 70.1555 182.199C68.8629 182.199 67.7029 181.905 66.6754 181.318C65.648 180.731 64.8359 179.881 64.2393 178.768C63.6428 177.656 63.3445 176.309 63.3445 174.727C63.3445 173.141 63.6428 171.792 64.2393 170.679C64.8359 169.566 65.648 168.719 66.6754 168.136C67.7029 167.549 68.8629 167.256 70.1555 167.256C71.4387 167.256 72.594 167.549 73.6214 168.136C74.6536 168.719 75.468 169.566 76.0646 170.679C76.666 171.792 76.9666 173.141 76.9666 174.727ZM73.8487 174.727C73.8487 173.7 73.6948 172.833 73.3871 172.128C73.084 171.422 72.6555 170.887 72.1016 170.523C71.5476 170.158 70.8989 169.976 70.1555 169.976C69.4122 169.976 68.7635 170.158 68.2095 170.523C67.6555 170.887 67.2247 171.422 66.9169 172.128C66.6139 172.833 66.4624 173.7 66.4624 174.727C66.4624 175.755 66.6139 176.621 66.9169 177.327C67.2247 178.032 67.6555 178.567 68.2095 178.932C68.7635 179.296 69.4122 179.479 70.1555 179.479C70.8989 179.479 71.5476 179.296 72.1016 178.932C72.6555 178.567 73.084 178.032 73.3871 177.327C73.6948 176.621 73.8487 175.755 73.8487 174.727ZM80.9315 182H77.636L82.6573 167.455H86.6204L91.6346 182H88.3391L84.6957 170.778H84.582L80.9315 182ZM80.7255 176.283H88.5096V178.683H80.7255V176.283ZM98.5415 182H93.3853V167.455H98.5842C100.047 167.455 101.307 167.746 102.363 168.328C103.418 168.906 104.23 169.737 104.799 170.821C105.372 171.905 105.658 173.203 105.658 174.713C105.658 176.228 105.372 177.53 104.799 178.619C104.23 179.708 103.414 180.544 102.348 181.126C101.288 181.709 100.019 182 98.5415 182ZM96.4606 179.365H98.4137C99.3228 179.365 100.087 179.204 100.708 178.882C101.333 178.555 101.801 178.051 102.114 177.369C102.431 176.683 102.59 175.797 102.59 174.713C102.59 173.638 102.431 172.76 102.114 172.078C101.801 171.396 101.335 170.894 100.715 170.572C100.095 170.25 99.3299 170.089 98.4208 170.089H96.4606V179.365ZM112.565 182V167.455H115.64V179.464H121.876V182H112.565ZM136.713 174.727C136.713 176.313 136.412 177.663 135.811 178.776C135.214 179.888 134.4 180.738 133.368 181.325C132.34 181.908 131.185 182.199 129.902 182.199C128.609 182.199 127.449 181.905 126.422 181.318C125.394 180.731 124.582 179.881 123.985 178.768C123.389 177.656 123.091 176.309 123.091 174.727C123.091 173.141 123.389 171.792 123.985 170.679C124.582 169.566 125.394 168.719 126.422 168.136C127.449 167.549 128.609 167.256 129.902 167.256C131.185 167.256 132.34 167.549 133.368 168.136C134.4 168.719 135.214 169.566 135.811 170.679C136.412 171.792 136.713 173.141 136.713 174.727ZM133.595 174.727C133.595 173.7 133.441 172.833 133.133 172.128C132.83 171.422 132.402 170.887 131.848 170.523C131.294 170.158 130.645 169.976 129.902 169.976C129.158 169.976 128.51 170.158 127.956 170.523C127.402 170.887 126.971 171.422 126.663 172.128C126.36 172.833 126.208 173.7 126.208 174.727C126.208 175.755 126.36 176.621 126.663 177.327C126.971 178.032 127.402 178.567 127.956 178.932C128.51 179.296 129.158 179.479 129.902 179.479C130.645 179.479 131.294 179.296 131.848 178.932C132.402 178.567 132.83 178.032 133.133 177.327C133.441 176.621 133.595 175.755 133.595 174.727ZM148.636 172.156C148.536 171.811 148.397 171.505 148.217 171.24C148.037 170.97 147.817 170.743 147.556 170.558C147.3 170.369 147.007 170.224 146.675 170.125C146.349 170.026 145.987 169.976 145.589 169.976C144.845 169.976 144.192 170.161 143.629 170.53C143.07 170.899 142.634 171.437 142.322 172.142C142.009 172.843 141.853 173.7 141.853 174.713C141.853 175.726 142.007 176.588 142.315 177.298C142.622 178.009 143.058 178.551 143.621 178.925C144.185 179.294 144.85 179.479 145.617 179.479C146.313 179.479 146.907 179.356 147.4 179.109C147.897 178.858 148.276 178.506 148.536 178.051C148.801 177.597 148.934 177.059 148.934 176.439L149.559 176.531H145.809V174.216H151.896V176.048C151.896 177.327 151.626 178.425 151.086 179.344C150.546 180.258 149.803 180.963 148.856 181.46C147.909 181.953 146.825 182.199 145.603 182.199C144.239 182.199 143.041 181.898 142.009 181.297C140.977 180.691 140.172 179.831 139.594 178.719C139.022 177.601 138.735 176.276 138.735 174.741C138.735 173.562 138.906 172.511 139.246 171.588C139.592 170.66 140.075 169.874 140.695 169.23C141.316 168.586 142.038 168.096 142.862 167.76C143.685 167.424 144.578 167.256 145.539 167.256C146.363 167.256 147.13 167.376 147.84 167.618C148.55 167.855 149.18 168.191 149.729 168.626C150.283 169.062 150.736 169.58 151.086 170.182C151.436 170.778 151.661 171.437 151.761 172.156H148.636ZM167.572 174.727C167.572 176.313 167.271 177.663 166.67 178.776C166.074 179.888 165.259 180.738 164.227 181.325C163.199 181.908 162.044 182.199 160.761 182.199C159.468 182.199 158.308 181.905 157.281 181.318C156.253 180.731 155.441 179.881 154.845 178.768C154.248 177.656 153.95 176.309 153.95 174.727C153.95 173.141 154.248 171.792 154.845 170.679C155.441 169.566 156.253 168.719 157.281 168.136C158.308 167.549 159.468 167.256 160.761 167.256C162.044 167.256 163.199 167.549 164.227 168.136C165.259 168.719 166.074 169.566 166.67 170.679C167.271 171.792 167.572 173.141 167.572 174.727ZM164.454 174.727C164.454 173.7 164.3 172.833 163.993 172.128C163.69 171.422 163.261 170.887 162.707 170.523C162.153 170.158 161.504 169.976 160.761 169.976C160.018 169.976 159.369 170.158 158.815 170.523C158.261 170.887 157.83 171.422 157.522 172.128C157.219 172.833 157.068 173.7 157.068 174.727C157.068 175.755 157.219 176.621 157.522 177.327C157.83 178.032 158.261 178.567 158.815 178.932C159.369 179.296 160.018 179.479 160.761 179.479C161.504 179.479 162.153 179.296 162.707 178.932C163.261 178.567 163.69 178.032 163.993 177.327C164.3 176.621 164.454 175.755 164.454 174.727ZM187.846 174.727C187.846 176.313 187.545 177.663 186.944 178.776C186.347 179.888 185.533 180.738 184.5 181.325C183.473 181.908 182.318 182.199 181.034 182.199C179.742 182.199 178.582 181.905 177.554 181.318C176.527 180.731 175.715 179.881 175.118 178.768C174.522 177.656 174.223 176.309 174.223 174.727C174.223 173.141 174.522 171.792 175.118 170.679C175.715 169.566 176.527 168.719 177.554 168.136C178.582 167.549 179.742 167.256 181.034 167.256C182.318 167.256 183.473 167.549 184.5 168.136C185.533 168.719 186.347 169.566 186.944 170.679C187.545 171.792 187.846 173.141 187.846 174.727ZM184.728 174.727C184.728 173.7 184.574 172.833 184.266 172.128C183.963 171.422 183.534 170.887 182.98 170.523C182.426 170.158 181.778 169.976 181.034 169.976C180.291 169.976 179.642 170.158 179.088 170.523C178.534 170.887 178.104 171.422 177.796 172.128C177.493 172.833 177.341 173.7 177.341 174.727C177.341 175.755 177.493 176.621 177.796 177.327C178.104 178.032 178.534 178.567 179.088 178.932C179.642 179.296 180.291 179.479 181.034 179.479C181.778 179.479 182.426 179.296 182.98 178.932C183.534 178.567 183.963 178.032 184.266 177.327C184.574 176.621 184.728 175.755 184.728 174.727ZM190.124 182V167.455H195.862C196.961 167.455 197.898 167.651 198.675 168.044C199.456 168.432 200.05 168.984 200.457 169.699C200.869 170.409 201.075 171.245 201.075 172.206C201.075 173.172 200.867 174.003 200.45 174.699C200.034 175.39 199.43 175.92 198.639 176.29C197.853 176.659 196.902 176.844 195.784 176.844H191.942V174.372H195.287C195.874 174.372 196.362 174.292 196.75 174.131C197.138 173.97 197.427 173.728 197.616 173.406C197.811 173.084 197.908 172.684 197.908 172.206C197.908 171.723 197.811 171.316 197.616 170.984C197.427 170.653 197.136 170.402 196.743 170.232C196.355 170.056 195.865 169.969 195.273 169.969H193.199V182H190.124ZM197.979 175.381L201.594 182H198.199L194.662 175.381H197.979ZM46.5591 206V191.455H52.383C53.4531 191.455 54.3456 191.613 55.0605 191.93C55.7755 192.248 56.3129 192.688 56.6728 193.251C57.0326 193.81 57.2125 194.454 57.2125 195.183C57.2125 195.751 57.0989 196.251 56.8716 196.682C56.6444 197.108 56.3319 197.458 55.9341 197.733C55.5411 198.003 55.0913 198.195 54.5847 198.308V198.45C55.1387 198.474 55.6571 198.63 56.1401 198.919C56.6278 199.208 57.0231 199.613 57.3262 200.134C57.6292 200.65 57.7807 201.265 57.7807 201.98C57.7807 202.752 57.589 203.441 57.2054 204.047C56.8266 204.648 56.2656 205.124 55.5222 205.474C54.7788 205.825 53.8626 206 52.7736 206H46.5591ZM49.6344 203.486H52.1415C52.9985 203.486 53.6235 203.322 54.0165 202.996C54.4095 202.664 54.606 202.224 54.606 201.675C54.606 201.272 54.5089 200.917 54.3148 200.609C54.1207 200.302 53.8437 200.06 53.4838 199.885C53.1287 199.71 52.705 199.622 52.2125 199.622H49.6344V203.486ZM49.6344 197.541H51.9142C52.3356 197.541 52.7097 197.468 53.0364 197.321C53.3678 197.17 53.6283 196.956 53.8176 196.682C54.0118 196.407 54.1088 196.078 54.1088 195.695C54.1088 195.169 53.9218 194.745 53.5478 194.423C53.1784 194.101 52.6529 193.94 51.9711 193.94H49.6344V197.541ZM59.7818 206V191.455H65.5204C66.6189 191.455 67.5564 191.651 68.3329 192.044C69.1142 192.432 69.7084 192.984 70.1156 193.699C70.5275 194.409 70.7335 195.245 70.7335 196.206C70.7335 197.172 70.5252 198.003 70.1085 198.699C69.6918 199.39 69.0881 199.92 68.2974 200.29C67.5114 200.659 66.5597 200.844 65.4423 200.844H61.6V198.372H64.9451C65.5323 198.372 66.0199 198.292 66.4082 198.131C66.7965 197.97 67.0853 197.728 67.2747 197.406C67.4688 197.084 67.5659 196.684 67.5659 196.206C67.5659 195.723 67.4688 195.316 67.2747 194.984C67.0853 194.653 66.7941 194.402 66.4011 194.232C66.0128 194.056 65.5228 193.969 64.9309 193.969H62.8571V206H59.7818ZM67.6369 199.381L71.252 206H67.8571L64.3201 199.381H67.6369ZM75.4139 206H72.1184L77.1397 191.455H81.1028L86.117 206H82.8216L79.1781 194.778H79.0645L75.4139 206ZM75.2079 200.283H82.992V202.683H75.2079V200.283ZM100.034 191.455V206H97.3777L91.0495 196.845H90.943V206H87.8677V191.455H90.5666L96.845 200.602H96.9728V191.455H100.034ZM107.731 206H102.575V191.455H107.774C109.237 191.455 110.496 191.746 111.552 192.328C112.608 192.906 113.42 193.737 113.988 194.821C114.561 195.905 114.847 197.203 114.847 198.713C114.847 200.228 114.561 201.53 113.988 202.619C113.42 203.708 112.603 204.544 111.538 205.126C110.477 205.709 109.208 206 107.731 206ZM105.65 203.365H107.603C108.512 203.365 109.277 203.204 109.897 202.882C110.522 202.555 110.991 202.051 111.303 201.369C111.621 200.683 111.779 199.797 111.779 198.713C111.779 197.638 111.621 196.76 111.303 196.078C110.991 195.396 110.525 194.894 109.904 194.572C109.284 194.25 108.519 194.089 107.61 194.089H105.65V203.365ZM133.921 191.455V206H131.264L124.936 196.845H124.83V206H121.754V191.455H124.453L130.732 200.602H130.86V191.455H133.921ZM138.969 206H135.673L140.694 191.455H144.657L149.672 206H146.376L142.733 194.778H142.619L138.969 206ZM138.763 200.283H146.547V202.683H138.763V200.283ZM151.422 191.455H155.215L159.221 201.227H159.391L163.397 191.455H167.189V206H164.206V196.533H164.086L160.322 205.929H158.29L154.526 196.497H154.405V206H151.422V191.455ZM169.723 206V191.455H179.524V193.99H172.798V197.456H179.02V199.991H172.798V203.464H179.553V206H169.723Z" fill="white"/>
<path d="M31.4751 236.364V248H30.4126V236.364H31.4751ZM37.7962 239.273V240.153H33.6314V239.273H37.7962ZM34.9325 237.182H35.9496V245.722C35.9496 246.085 36.0121 246.371 36.1371 246.58C36.2621 246.784 36.425 246.93 36.6257 247.017C36.8265 247.1 37.0405 247.142 37.2678 247.142C37.4003 247.142 37.514 247.134 37.6087 247.119C37.7034 247.1 37.7867 247.081 37.8587 247.062L38.0746 247.977C37.9761 248.015 37.8549 248.049 37.7109 248.08C37.567 248.114 37.389 248.131 37.1768 248.131C36.8056 248.131 36.4477 248.049 36.103 247.886C35.7621 247.723 35.4818 247.481 35.2621 247.159C35.0424 246.837 34.9325 246.438 34.9325 245.96V237.182ZM46.5305 248L43.8942 239.273H44.9624L47.0305 246.472H47.1044L49.1669 239.273H50.2408L52.2862 246.455H52.3658L54.4339 239.273H55.5021L52.8658 248H51.8203L49.7521 240.847H49.6442L47.576 248H46.5305ZM57.4794 248V239.273H58.4964V248H57.4794ZM57.9964 237.773C57.7881 237.773 57.6101 237.703 57.4624 237.562C57.3146 237.419 57.2408 237.246 57.2408 237.045C57.2408 236.845 57.3146 236.674 57.4624 236.534C57.6101 236.39 57.7881 236.318 57.9964 236.318C58.2048 236.318 58.3828 236.39 58.5305 236.534C58.6783 236.674 58.7521 236.845 58.7521 237.045C58.7521 237.246 58.6783 237.419 58.5305 237.562C58.3828 237.703 58.2048 237.773 57.9964 237.773ZM62.1825 236.364V248H61.1712V236.364H62.1825ZM65.87 236.364V248H64.8587V236.364H65.87ZM74.0575 242.545V248H73.0462V236.364H74.0575V240.642H74.1484C74.353 240.191 74.6693 239.831 75.0973 239.562C75.5291 239.294 76.0746 239.159 76.7337 239.159C77.3246 239.159 77.8435 239.28 78.2905 239.523C78.7375 239.765 79.0859 240.123 79.3359 240.597C79.5859 241.07 79.7109 241.653 79.7109 242.347V248H78.6939V242.409C78.6939 241.689 78.4931 241.123 78.0916 240.71C77.6939 240.294 77.156 240.085 76.478 240.085C76.0121 240.085 75.5973 240.184 75.2337 240.381C74.87 240.578 74.5821 240.862 74.37 241.233C74.1617 241.6 74.0575 242.038 74.0575 242.545ZM85.9027 248.182C85.0883 248.182 84.3838 247.992 83.7891 247.614C83.1944 247.231 82.7341 246.703 82.4084 246.028C82.0864 245.35 81.9254 244.57 81.9254 243.688C81.9254 242.809 82.0864 242.028 82.4084 241.347C82.7341 240.661 83.183 240.125 83.755 239.739C84.3307 239.348 84.9955 239.153 85.7493 239.153C86.2228 239.153 86.6792 239.241 87.1186 239.415C87.558 239.585 87.9519 239.848 88.3004 240.205C88.6527 240.557 88.9311 241.002 89.1357 241.54C89.3402 242.074 89.4425 242.706 89.4425 243.438V243.938H82.6243V243.045H88.4084C88.4084 242.485 88.2947 241.981 88.0675 241.534C87.844 241.083 87.5315 240.727 87.13 240.466C86.7322 240.205 86.272 240.074 85.7493 240.074C85.1963 240.074 84.7095 240.222 84.2891 240.517C83.8686 240.812 83.5391 241.203 83.3004 241.688C83.0656 242.172 82.9463 242.703 82.9425 243.278V243.812C82.9425 244.506 83.0618 245.112 83.3004 245.631C83.5429 246.146 83.8857 246.545 84.3288 246.83C84.772 247.114 85.2966 247.256 85.9027 247.256C86.3156 247.256 86.6773 247.191 86.9879 247.062C87.3023 246.934 87.5656 246.761 87.7777 246.545C87.9936 246.326 88.1565 246.085 88.2663 245.824L89.2266 246.136C89.094 246.504 88.8762 246.843 88.5732 247.153C88.2739 247.464 87.8989 247.714 87.4482 247.903C87.0012 248.089 86.486 248.182 85.9027 248.182ZM92.6825 236.364V248H91.6712V236.364H92.6825ZM95.3587 251.273V239.273H96.3416V240.938H96.4609C96.5821 240.676 96.7488 240.409 96.9609 240.136C97.1731 239.86 97.4534 239.627 97.8018 239.438C98.1541 239.248 98.5973 239.153 99.1314 239.153C99.8511 239.153 100.48 239.343 101.018 239.722C101.559 240.097 101.98 240.623 102.279 241.301C102.582 241.975 102.734 242.761 102.734 243.659C102.734 244.561 102.582 245.35 102.279 246.028C101.98 246.706 101.559 247.235 101.018 247.614C100.48 247.992 99.8549 248.182 99.1428 248.182C98.6162 248.182 98.175 248.087 97.8189 247.898C97.4666 247.708 97.1806 247.475 96.9609 247.199C96.745 246.919 96.5784 246.646 96.4609 246.381H96.37V251.273H95.3587ZM96.3587 243.642C96.3587 244.347 96.4628 244.972 96.6712 245.517C96.8833 246.059 97.1863 246.485 97.5803 246.795C97.978 247.102 98.459 247.256 99.0234 247.256C99.603 247.256 100.092 247.097 100.489 246.778C100.891 246.456 101.196 246.023 101.404 245.477C101.616 244.932 101.722 244.32 101.722 243.642C101.722 242.972 101.618 242.367 101.41 241.83C101.205 241.292 100.902 240.866 100.501 240.551C100.099 240.233 99.6068 240.074 99.0234 240.074C98.4553 240.074 97.9723 240.227 97.5746 240.534C97.1768 240.837 96.8738 241.258 96.6655 241.795C96.4609 242.33 96.3587 242.945 96.3587 243.642ZM114.998 244.665V239.273H116.009V248H114.998V246.551H114.918C114.714 246.998 114.39 247.371 113.947 247.67C113.504 247.966 112.962 248.114 112.322 248.114C111.765 248.114 111.271 247.992 110.839 247.75C110.407 247.504 110.068 247.144 109.822 246.67C109.576 246.197 109.452 245.616 109.452 244.926V239.273H110.464V244.864C110.464 245.545 110.665 246.095 111.066 246.511C111.468 246.924 111.983 247.131 112.612 247.131C113.005 247.131 113.384 247.036 113.748 246.847C114.112 246.657 114.411 246.381 114.646 246.017C114.88 245.65 114.998 245.199 114.998 244.665ZM124.55 241.188L123.624 241.449C123.533 241.187 123.405 240.951 123.238 240.739C123.071 240.527 122.853 240.358 122.585 240.233C122.319 240.108 121.99 240.045 121.596 240.045C121.005 240.045 120.52 240.186 120.141 240.466C119.763 240.746 119.573 241.108 119.573 241.551C119.573 241.926 119.702 242.231 119.96 242.466C120.221 242.697 120.622 242.881 121.164 243.017L122.482 243.341C123.213 243.519 123.761 243.801 124.124 244.188C124.492 244.574 124.675 245.059 124.675 245.642C124.675 246.134 124.539 246.572 124.266 246.955C123.994 247.337 123.613 247.638 123.124 247.858C122.639 248.074 122.077 248.182 121.437 248.182C120.585 248.182 119.882 247.991 119.329 247.608C118.776 247.222 118.422 246.665 118.266 245.938L119.238 245.699C119.363 246.218 119.607 246.61 119.971 246.875C120.338 247.14 120.821 247.273 121.42 247.273C122.09 247.273 122.626 247.123 123.028 246.824C123.429 246.521 123.63 246.142 123.63 245.688C123.63 245.335 123.513 245.04 123.278 244.801C123.043 244.559 122.687 244.381 122.21 244.267L120.783 243.926C120.026 243.744 119.465 243.456 119.102 243.062C118.738 242.669 118.556 242.18 118.556 241.597C118.556 241.116 118.687 240.693 118.948 240.33C119.21 239.962 119.569 239.674 120.028 239.466C120.486 239.258 121.009 239.153 121.596 239.153C122.395 239.153 123.033 239.335 123.511 239.699C123.992 240.059 124.338 240.555 124.55 241.188ZM134.827 239.273V240.153H130.663V239.273H134.827ZM131.964 237.182H132.981V245.722C132.981 246.085 133.043 246.371 133.168 246.58C133.293 246.784 133.456 246.93 133.657 247.017C133.858 247.1 134.072 247.142 134.299 247.142C134.432 247.142 134.545 247.134 134.64 247.119C134.735 247.1 134.818 247.081 134.89 247.062L135.106 247.977C135.007 248.015 134.886 248.049 134.742 248.08C134.598 248.114 134.42 248.131 134.208 248.131C133.837 248.131 133.479 248.049 133.134 247.886C132.793 247.723 132.513 247.481 132.293 247.159C132.074 246.837 131.964 246.438 131.964 245.96V237.182ZM140.423 248.182C139.669 248.182 139.002 247.991 138.423 247.608C137.847 247.225 137.396 246.697 137.07 246.023C136.745 245.345 136.582 244.562 136.582 243.676C136.582 242.782 136.745 241.996 137.07 241.318C137.396 240.636 137.847 240.106 138.423 239.727C139.002 239.345 139.669 239.153 140.423 239.153C141.176 239.153 141.841 239.345 142.417 239.727C142.993 240.11 143.443 240.64 143.769 241.318C144.099 241.996 144.263 242.782 144.263 243.676C144.263 244.562 144.101 245.345 143.775 246.023C143.449 246.697 142.996 247.225 142.417 247.608C141.841 247.991 141.176 248.182 140.423 248.182ZM140.423 247.256C141.029 247.256 141.542 247.093 141.962 246.767C142.383 246.441 142.701 246.008 142.917 245.466C143.137 244.924 143.246 244.328 143.246 243.676C143.246 243.025 143.137 242.426 142.917 241.881C142.701 241.335 142.383 240.898 141.962 240.568C141.542 240.239 141.029 240.074 140.423 240.074C139.82 240.074 139.307 240.239 138.883 240.568C138.462 240.898 138.142 241.335 137.923 241.881C137.707 242.426 137.599 243.025 137.599 243.676C137.599 244.328 137.707 244.924 137.923 245.466C138.142 246.008 138.462 246.441 138.883 246.767C139.303 247.093 139.817 247.256 140.423 247.256ZM154.393 248.182C153.612 248.182 152.933 247.987 152.353 247.597C151.777 247.206 151.33 246.672 151.012 245.994C150.694 245.316 150.535 244.544 150.535 243.676C150.535 242.801 150.696 242.023 151.018 241.341C151.344 240.659 151.794 240.125 152.37 239.739C152.946 239.348 153.614 239.153 154.376 239.153C154.959 239.153 155.487 239.267 155.961 239.494C156.434 239.718 156.825 240.034 157.131 240.443C157.442 240.848 157.637 241.322 157.717 241.864H156.694C156.588 241.371 156.332 240.951 155.927 240.602C155.525 240.25 155.014 240.074 154.393 240.074C153.836 240.074 153.344 240.225 152.915 240.528C152.487 240.828 152.152 241.246 151.91 241.784C151.671 242.318 151.552 242.937 151.552 243.642C151.552 244.35 151.669 244.977 151.904 245.523C152.139 246.064 152.469 246.489 152.893 246.795C153.321 247.102 153.821 247.256 154.393 247.256C154.779 247.256 155.131 247.184 155.45 247.04C155.772 246.892 156.04 246.684 156.256 246.415C156.476 246.146 156.624 245.826 156.7 245.455H157.722C157.647 245.981 157.459 246.451 157.16 246.864C156.864 247.273 156.48 247.595 156.006 247.83C155.537 248.064 154.999 248.182 154.393 248.182ZM159.89 248V239.273H160.873V240.614H160.947C161.121 240.174 161.424 239.82 161.856 239.551C162.291 239.278 162.784 239.142 163.333 239.142C163.416 239.142 163.509 239.144 163.612 239.148C163.714 239.152 163.799 239.155 163.867 239.159V240.188C163.822 240.18 163.742 240.169 163.629 240.153C163.515 240.138 163.392 240.131 163.259 240.131C162.805 240.131 162.399 240.227 162.043 240.42C161.691 240.61 161.413 240.873 161.208 241.21C161.004 241.547 160.901 241.932 160.901 242.364V248H159.89ZM168.856 248.182C168.041 248.182 167.337 247.992 166.742 247.614C166.147 247.231 165.687 246.703 165.362 246.028C165.04 245.35 164.879 244.57 164.879 243.688C164.879 242.809 165.04 242.028 165.362 241.347C165.687 240.661 166.136 240.125 166.708 239.739C167.284 239.348 167.949 239.153 168.702 239.153C169.176 239.153 169.632 239.241 170.072 239.415C170.511 239.585 170.905 239.848 171.254 240.205C171.606 240.557 171.884 241.002 172.089 241.54C172.293 242.074 172.396 242.706 172.396 243.438V243.938H165.577V243.045H171.362C171.362 242.485 171.248 241.981 171.021 241.534C170.797 241.083 170.485 240.727 170.083 240.466C169.685 240.205 169.225 240.074 168.702 240.074C168.149 240.074 167.663 240.222 167.242 240.517C166.822 240.812 166.492 241.203 166.254 241.688C166.019 242.172 165.899 242.703 165.896 243.278V243.812C165.896 244.506 166.015 245.112 166.254 245.631C166.496 246.146 166.839 246.545 167.282 246.83C167.725 247.114 168.25 247.256 168.856 247.256C169.269 247.256 169.63 247.191 169.941 247.062C170.255 246.934 170.519 246.761 170.731 246.545C170.947 246.326 171.11 246.085 171.219 245.824L172.18 246.136C172.047 246.504 171.829 246.843 171.526 247.153C171.227 247.464 170.852 247.714 170.401 247.903C169.954 248.089 169.439 248.182 168.856 248.182ZM177.062 248.199C176.535 248.199 176.054 248.097 175.619 247.892C175.183 247.684 174.836 247.384 174.579 246.994C174.321 246.6 174.192 246.123 174.192 245.562C174.192 245.131 174.274 244.767 174.437 244.472C174.6 244.176 174.831 243.934 175.13 243.744C175.429 243.555 175.783 243.405 176.192 243.295C176.602 243.186 177.052 243.1 177.545 243.04C178.033 242.979 178.446 242.926 178.783 242.881C179.124 242.835 179.384 242.763 179.562 242.665C179.74 242.566 179.829 242.407 179.829 242.188V241.983C179.829 241.388 179.651 240.92 179.295 240.58C178.942 240.235 178.435 240.062 177.772 240.062C177.143 240.062 176.63 240.201 176.232 240.477C175.838 240.754 175.562 241.08 175.403 241.455L174.442 241.108C174.639 240.631 174.912 240.25 175.261 239.966C175.609 239.678 175.999 239.472 176.431 239.347C176.863 239.218 177.3 239.153 177.744 239.153C178.077 239.153 178.424 239.197 178.783 239.284C179.147 239.371 179.484 239.523 179.795 239.739C180.105 239.951 180.357 240.248 180.55 240.631C180.744 241.009 180.84 241.491 180.84 242.074V248H179.829V246.619H179.766C179.645 246.877 179.465 247.127 179.227 247.369C178.988 247.612 178.689 247.811 178.329 247.966C177.969 248.121 177.547 248.199 177.062 248.199ZM177.198 247.273C177.736 247.273 178.202 247.153 178.596 246.915C178.99 246.676 179.293 246.36 179.505 245.966C179.721 245.568 179.829 245.131 179.829 244.653V243.392C179.753 243.464 179.626 243.528 179.448 243.585C179.274 243.642 179.071 243.693 178.84 243.739C178.613 243.78 178.386 243.816 178.158 243.847C177.931 243.877 177.727 243.903 177.545 243.926C177.052 243.987 176.632 244.081 176.283 244.21C175.935 244.339 175.668 244.517 175.482 244.744C175.297 244.968 175.204 245.256 175.204 245.608C175.204 246.138 175.393 246.549 175.772 246.841C176.151 247.129 176.626 247.273 177.198 247.273ZM186.968 239.273V240.153H182.803V239.273H186.968ZM184.104 237.182H185.121V245.722C185.121 246.085 185.184 246.371 185.309 246.58C185.434 246.784 185.597 246.93 185.798 247.017C185.998 247.1 186.212 247.142 186.44 247.142C186.572 247.142 186.686 247.134 186.781 247.119C186.875 247.1 186.959 247.081 187.031 247.062L187.246 247.977C187.148 248.015 187.027 248.049 186.883 248.08C186.739 248.114 186.561 248.131 186.349 248.131C185.978 248.131 185.62 248.049 185.275 247.886C184.934 247.723 184.654 247.481 184.434 247.159C184.214 246.837 184.104 246.438 184.104 245.96V237.182ZM192.7 248.182C191.885 248.182 191.181 247.992 190.586 247.614C189.991 247.231 189.531 246.703 189.205 246.028C188.883 245.35 188.722 244.57 188.722 243.688C188.722 242.809 188.883 242.028 189.205 241.347C189.531 240.661 189.98 240.125 190.552 239.739C191.128 239.348 191.792 239.153 192.546 239.153C193.02 239.153 193.476 239.241 193.915 239.415C194.355 239.585 194.749 239.848 195.097 240.205C195.45 240.557 195.728 241.002 195.933 241.54C196.137 242.074 196.239 242.706 196.239 243.438V243.938H189.421V243.045H195.205C195.205 242.485 195.092 241.981 194.864 241.534C194.641 241.083 194.328 240.727 193.927 240.466C193.529 240.205 193.069 240.074 192.546 240.074C191.993 240.074 191.506 240.222 191.086 240.517C190.665 240.812 190.336 241.203 190.097 241.688C189.862 242.172 189.743 242.703 189.739 243.278V243.812C189.739 244.506 189.859 245.112 190.097 245.631C190.34 246.146 190.683 246.545 191.126 246.83C191.569 247.114 192.094 247.256 192.7 247.256C193.112 247.256 193.474 247.191 193.785 247.062C194.099 246.934 194.362 246.761 194.575 246.545C194.79 246.326 194.953 246.085 195.063 245.824L196.023 246.136C195.891 246.504 195.673 246.843 195.37 247.153C195.071 247.464 194.696 247.714 194.245 247.903C193.798 248.089 193.283 248.182 192.7 248.182ZM32.8132 267.455C32.2185 267.455 31.6977 267.377 31.2507 267.222C30.8037 267.07 30.4268 266.862 30.12 266.597C29.8132 266.331 29.5746 266.034 29.4041 265.705L30.2337 265.159C30.3587 265.379 30.5253 265.595 30.7337 265.807C30.9458 266.019 31.2204 266.195 31.5575 266.335C31.8984 266.475 32.317 266.545 32.8132 266.545C33.5859 266.545 34.209 266.352 34.6825 265.966C35.1598 265.58 35.3984 264.979 35.3984 264.165V262.199H35.3075C35.1901 262.464 35.0215 262.729 34.8018 262.994C34.5821 263.256 34.2943 263.473 33.9382 263.648C33.5859 263.822 33.1484 263.909 32.6257 263.909C31.9287 263.909 31.3094 263.737 30.7678 263.392C30.2299 263.047 29.8056 262.555 29.495 261.915C29.1882 261.271 29.0348 260.504 29.0348 259.614C29.0348 258.731 29.1844 257.955 29.4837 257.284C29.7867 256.614 30.209 256.091 30.7507 255.716C31.2924 255.341 31.9231 255.153 32.6428 255.153C33.1768 255.153 33.62 255.248 33.9723 255.438C34.3246 255.623 34.6068 255.854 34.8189 256.131C35.0348 256.407 35.2034 256.676 35.3246 256.938H35.4268V255.273H36.4155V264.227C36.4155 264.966 36.2583 265.574 35.9439 266.051C35.6295 266.528 35.2015 266.881 34.6598 267.108C34.1181 267.339 33.5026 267.455 32.8132 267.455ZM32.745 262.983C33.3056 262.983 33.7848 262.848 34.1825 262.58C34.5803 262.307 34.8852 261.917 35.0973 261.409C35.3094 260.902 35.4155 260.297 35.4155 259.597C35.4155 258.915 35.3113 258.311 35.103 257.784C34.8946 257.254 34.5916 256.837 34.1939 256.534C33.8 256.227 33.317 256.074 32.745 256.074C32.1617 256.074 31.6693 256.231 31.2678 256.545C30.8662 256.86 30.5632 257.284 30.3587 257.818C30.1541 258.348 30.0518 258.941 30.0518 259.597C30.0518 260.263 30.156 260.852 30.3643 261.364C30.5727 261.871 30.8776 262.269 31.2791 262.557C31.6806 262.841 32.1693 262.983 32.745 262.983ZM42.6214 264.182C41.8071 264.182 41.1025 263.992 40.5078 263.614C39.9131 263.231 39.4529 262.703 39.1271 262.028C38.8052 261.35 38.6442 260.57 38.6442 259.688C38.6442 258.809 38.8052 258.028 39.1271 257.347C39.4529 256.661 39.9018 256.125 40.4737 255.739C41.0495 255.348 41.7143 255.153 42.468 255.153C42.9415 255.153 43.398 255.241 43.8374 255.415C44.2768 255.585 44.6707 255.848 45.0192 256.205C45.3714 256.557 45.6499 257.002 45.8544 257.54C46.0589 258.074 46.1612 258.706 46.1612 259.438V259.938H39.343V259.045H45.1271C45.1271 258.485 45.0135 257.981 44.7862 257.534C44.5627 257.083 44.2502 256.727 43.8487 256.466C43.451 256.205 42.9908 256.074 42.468 256.074C41.915 256.074 41.4283 256.222 41.0078 256.517C40.5874 256.812 40.2578 257.203 40.0192 257.688C39.7843 258.172 39.665 258.703 39.6612 259.278V259.812C39.6612 260.506 39.7805 261.112 40.0192 261.631C40.2616 262.146 40.6044 262.545 41.0476 262.83C41.4908 263.114 42.0154 263.256 42.6214 263.256C43.0343 263.256 43.3961 263.191 43.7067 263.062C44.0211 262.934 44.2843 262.761 44.4964 262.545C44.7124 262.326 44.8752 262.085 44.9851 261.824L45.9453 262.136C45.8127 262.504 45.5949 262.843 45.2919 263.153C44.9927 263.464 44.6177 263.714 44.1669 263.903C43.7199 264.089 43.2048 264.182 42.6214 264.182ZM49.4013 258.545V264H48.3899V255.273H49.3729V256.642H49.4638C49.6683 256.195 49.9865 255.837 50.4183 255.568C50.8539 255.295 51.3918 255.159 52.032 255.159C52.6191 255.159 53.1342 255.282 53.5774 255.528C54.0244 255.771 54.371 256.129 54.6172 256.602C54.8672 257.076 54.9922 257.657 54.9922 258.347V264H53.9808V258.409C53.9808 257.693 53.7801 257.127 53.3786 256.71C52.9808 256.294 52.4467 256.085 51.7763 256.085C51.3179 256.085 50.9107 256.184 50.5547 256.381C50.1986 256.578 49.9164 256.862 49.7081 257.233C49.5036 257.6 49.4013 258.038 49.4013 258.545ZM61.1839 264.182C60.3696 264.182 59.665 263.992 59.0703 263.614C58.4756 263.231 58.0154 262.703 57.6896 262.028C57.3677 261.35 57.2067 260.57 57.2067 259.688C57.2067 258.809 57.3677 258.028 57.6896 257.347C58.0154 256.661 58.4643 256.125 59.0362 255.739C59.612 255.348 60.2768 255.153 61.0305 255.153C61.504 255.153 61.9605 255.241 62.3999 255.415C62.8393 255.585 63.2332 255.848 63.5817 256.205C63.9339 256.557 64.2124 257.002 64.4169 257.54C64.6214 258.074 64.7237 258.706 64.7237 259.438V259.938H57.9055V259.045H63.6896C63.6896 258.485 63.576 257.981 63.3487 257.534C63.1252 257.083 62.8127 256.727 62.4112 256.466C62.0135 256.205 61.5533 256.074 61.0305 256.074C60.4775 256.074 59.9908 256.222 59.5703 256.517C59.1499 256.812 58.8203 257.203 58.5817 257.688C58.3468 258.172 58.2275 258.703 58.2237 259.278V259.812C58.2237 260.506 58.343 261.112 58.5817 261.631C58.8241 262.146 59.1669 262.545 59.6101 262.83C60.0533 263.114 60.5779 263.256 61.1839 263.256C61.5968 263.256 61.9586 263.191 62.2692 263.062C62.5836 262.934 62.8468 262.761 63.0589 262.545C63.2749 262.326 63.4377 262.085 63.5476 261.824L64.5078 262.136C64.3752 262.504 64.1574 262.843 63.8544 263.153C63.5552 263.464 63.1802 263.714 62.7294 263.903C62.2824 264.089 61.7673 264.182 61.1839 264.182ZM66.9524 264V255.273H67.9354V256.614H68.0092C68.1835 256.174 68.4865 255.82 68.9183 255.551C69.3539 255.278 69.8464 255.142 70.3956 255.142C70.4789 255.142 70.5717 255.144 70.674 255.148C70.7763 255.152 70.8615 255.155 70.9297 255.159V256.188C70.8842 256.18 70.8047 256.169 70.6911 256.153C70.5774 256.138 70.4543 256.131 70.3217 256.131C69.8672 256.131 69.4619 256.227 69.1058 256.42C68.7536 256.61 68.4751 256.873 68.2706 257.21C68.0661 257.547 67.9638 257.932 67.9638 258.364V264H66.9524ZM75.093 264.199C74.5665 264.199 74.0855 264.097 73.6499 263.892C73.2143 263.684 72.8677 263.384 72.6101 262.994C72.3525 262.6 72.2237 262.123 72.2237 261.562C72.2237 261.131 72.3052 260.767 72.468 260.472C72.6309 260.176 72.862 259.934 73.1612 259.744C73.4605 259.555 73.8146 259.405 74.2237 259.295C74.6328 259.186 75.0836 259.1 75.576 259.04C76.0646 258.979 76.4775 258.926 76.8146 258.881C77.1555 258.835 77.415 258.763 77.593 258.665C77.7711 258.566 77.8601 258.407 77.8601 258.188V257.983C77.8601 257.388 77.6821 256.92 77.326 256.58C76.9737 256.235 76.4661 256.062 75.8033 256.062C75.1745 256.062 74.6612 256.201 74.2635 256.477C73.8696 256.754 73.593 257.08 73.4339 257.455L72.4737 257.108C72.6707 256.631 72.9434 256.25 73.2919 255.966C73.6404 255.678 74.0305 255.472 74.4624 255.347C74.8942 255.218 75.3317 255.153 75.7749 255.153C76.1082 255.153 76.4548 255.197 76.8146 255.284C77.1783 255.371 77.5154 255.523 77.826 255.739C78.1366 255.951 78.3885 256.248 78.5817 256.631C78.7749 257.009 78.8714 257.491 78.8714 258.074V264H77.8601V262.619H77.7976C77.6764 262.877 77.4964 263.127 77.2578 263.369C77.0192 263.612 76.7199 263.811 76.3601 263.966C76.0002 264.121 75.5779 264.199 75.093 264.199ZM75.2294 263.273C75.7673 263.273 76.2332 263.153 76.6271 262.915C77.0211 262.676 77.3241 262.36 77.5362 261.966C77.7521 261.568 77.8601 261.131 77.8601 260.653V259.392C77.7843 259.464 77.6574 259.528 77.4794 259.585C77.3052 259.642 77.1025 259.693 76.8714 259.739C76.6442 259.78 76.4169 259.816 76.1896 259.847C75.9624 259.877 75.7578 259.903 75.576 259.926C75.0836 259.987 74.6631 260.081 74.3146 260.21C73.9661 260.339 73.6991 260.517 73.5135 260.744C73.3279 260.968 73.2351 261.256 73.2351 261.608C73.2351 262.138 73.4245 262.549 73.8033 262.841C74.1821 263.129 74.6574 263.273 75.2294 263.273ZM84.9993 255.273V256.153H80.8345V255.273H84.9993ZM82.1357 253.182H83.1527V261.722C83.1527 262.085 83.2152 262.371 83.3402 262.58C83.4652 262.784 83.6281 262.93 83.8288 263.017C84.0296 263.1 84.2436 263.142 84.4709 263.142C84.6035 263.142 84.7171 263.134 84.8118 263.119C84.9065 263.1 84.9898 263.081 85.0618 263.062L85.2777 263.977C85.1792 264.015 85.058 264.049 84.9141 264.08C84.7701 264.114 84.5921 264.131 84.38 264.131C84.0088 264.131 83.6508 264.049 83.3061 263.886C82.9652 263.723 82.6849 263.481 82.4652 263.159C82.2455 262.837 82.1357 262.438 82.1357 261.96V253.182ZM90.7308 264.182C89.9164 264.182 89.2119 263.992 88.6172 263.614C88.0225 263.231 87.5623 262.703 87.2365 262.028C86.9145 261.35 86.7536 260.57 86.7536 259.688C86.7536 258.809 86.9145 258.028 87.2365 257.347C87.5623 256.661 88.0111 256.125 88.5831 255.739C89.1589 255.348 89.8236 255.153 90.5774 255.153C91.0509 255.153 91.5073 255.241 91.9467 255.415C92.3861 255.585 92.7801 255.848 93.1286 256.205C93.4808 256.557 93.7592 257.002 93.9638 257.54C94.1683 258.074 94.2706 258.706 94.2706 259.438V259.938H87.4524V259.045H93.2365C93.2365 258.485 93.1229 257.981 92.8956 257.534C92.6721 257.083 92.3596 256.727 91.9581 256.466C91.5604 256.205 91.1001 256.074 90.5774 256.074C90.0244 256.074 89.5376 256.222 89.1172 256.517C88.6967 256.812 88.3672 257.203 88.1286 257.688C87.8937 258.172 87.7744 258.703 87.7706 259.278V259.812C87.7706 260.506 87.8899 261.112 88.1286 261.631C88.371 262.146 88.7138 262.545 89.157 262.83C89.6001 263.114 90.1248 263.256 90.7308 263.256C91.1437 263.256 91.5054 263.191 91.8161 263.062C92.1304 262.934 92.3937 262.761 92.6058 262.545C92.8217 262.326 92.9846 262.085 93.0945 261.824L94.0547 262.136C93.9221 262.504 93.7043 262.843 93.4013 263.153C93.102 263.464 92.727 263.714 92.2763 263.903C91.8293 264.089 91.3142 264.182 90.7308 264.182ZM103.437 264.199C102.91 264.199 102.429 264.097 101.994 263.892C101.558 263.684 101.211 263.384 100.954 262.994C100.696 262.6 100.567 262.123 100.567 261.562C100.567 261.131 100.649 260.767 100.812 260.472C100.975 260.176 101.206 259.934 101.505 259.744C101.804 259.555 102.158 259.405 102.567 259.295C102.977 259.186 103.427 259.1 103.92 259.04C104.408 258.979 104.821 258.926 105.158 258.881C105.499 258.835 105.759 258.763 105.937 258.665C106.115 258.566 106.204 258.407 106.204 258.188V257.983C106.204 257.388 106.026 256.92 105.67 256.58C105.317 256.235 104.81 256.062 104.147 256.062C103.518 256.062 103.005 256.201 102.607 256.477C102.213 256.754 101.937 257.08 101.778 257.455L100.817 257.108C101.014 256.631 101.287 256.25 101.636 255.966C101.984 255.678 102.374 255.472 102.806 255.347C103.238 255.218 103.675 255.153 104.119 255.153C104.452 255.153 104.799 255.197 105.158 255.284C105.522 255.371 105.859 255.523 106.17 255.739C106.48 255.951 106.732 256.248 106.925 256.631C107.119 257.009 107.215 257.491 107.215 258.074V264H106.204V262.619H106.141C106.02 262.877 105.84 263.127 105.602 263.369C105.363 263.612 105.064 263.811 104.704 263.966C104.344 264.121 103.922 264.199 103.437 264.199ZM103.573 263.273C104.111 263.273 104.577 263.153 104.971 262.915C105.365 262.676 105.668 262.36 105.88 261.966C106.096 261.568 106.204 261.131 106.204 260.653V259.392C106.128 259.464 106.001 259.528 105.823 259.585C105.649 259.642 105.446 259.693 105.215 259.739C104.988 259.78 104.761 259.816 104.533 259.847C104.306 259.877 104.102 259.903 103.92 259.926C103.427 259.987 103.007 260.081 102.658 260.21C102.31 260.339 102.043 260.517 101.857 260.744C101.672 260.968 101.579 261.256 101.579 261.608C101.579 262.138 101.768 262.549 102.147 262.841C102.526 263.129 103.001 263.273 103.573 263.273ZM113.048 264.182C112.332 264.182 111.705 263.992 111.167 263.614C110.629 263.235 110.209 262.706 109.906 262.028C109.606 261.35 109.457 260.561 109.457 259.659C109.457 258.761 109.606 257.975 109.906 257.301C110.209 256.623 110.631 256.097 111.173 255.722C111.714 255.343 112.345 255.153 113.065 255.153C113.595 255.153 114.036 255.248 114.388 255.438C114.741 255.623 115.023 255.854 115.235 256.131C115.447 256.407 115.612 256.676 115.729 256.938H115.82V252.364H116.837V264H115.849V262.381H115.729C115.612 262.646 115.445 262.919 115.229 263.199C115.013 263.475 114.728 263.708 114.371 263.898C114.019 264.087 113.578 264.182 113.048 264.182ZM113.167 263.256C113.731 263.256 114.212 263.102 114.61 262.795C115.008 262.485 115.311 262.059 115.519 261.517C115.731 260.972 115.837 260.347 115.837 259.642C115.837 258.945 115.733 258.33 115.525 257.795C115.317 257.258 115.013 256.837 114.616 256.534C114.218 256.227 113.735 256.074 113.167 256.074C112.584 256.074 112.091 256.233 111.69 256.551C111.292 256.866 110.989 257.292 110.781 257.83C110.576 258.367 110.474 258.972 110.474 259.642C110.474 260.32 110.578 260.932 110.786 261.477C110.995 262.023 111.298 262.456 111.695 262.778C112.097 263.097 112.587 263.256 113.167 263.256ZM125.582 257.188L124.656 257.449C124.565 257.187 124.436 256.951 124.269 256.739C124.103 256.527 123.885 256.358 123.616 256.233C123.351 256.108 123.021 256.045 122.627 256.045C122.036 256.045 121.551 256.186 121.173 256.466C120.794 256.746 120.604 257.108 120.604 257.551C120.604 257.926 120.733 258.231 120.991 258.466C121.252 258.697 121.654 258.881 122.195 259.017L123.513 259.341C124.245 259.519 124.792 259.801 125.156 260.188C125.523 260.574 125.707 261.059 125.707 261.642C125.707 262.134 125.57 262.572 125.298 262.955C125.025 263.337 124.644 263.638 124.156 263.858C123.671 264.074 123.108 264.182 122.468 264.182C121.616 264.182 120.913 263.991 120.36 263.608C119.807 263.222 119.453 262.665 119.298 261.938L120.269 261.699C120.394 262.218 120.638 262.61 121.002 262.875C121.37 263.14 121.853 263.273 122.451 263.273C123.121 263.273 123.657 263.123 124.059 262.824C124.46 262.521 124.661 262.142 124.661 261.688C124.661 261.335 124.544 261.04 124.309 260.801C124.074 260.559 123.718 260.381 123.241 260.267L121.815 259.926C121.057 259.744 120.496 259.456 120.133 259.062C119.769 258.669 119.587 258.18 119.587 257.597C119.587 257.116 119.718 256.693 119.979 256.33C120.241 255.962 120.601 255.674 121.059 255.466C121.517 255.258 122.04 255.153 122.627 255.153C123.426 255.153 124.065 255.335 124.542 255.699C125.023 256.059 125.37 256.555 125.582 257.188ZM135.859 255.273V256.153H131.694V255.273H135.859ZM132.995 253.182H134.012V261.722C134.012 262.085 134.075 262.371 134.2 262.58C134.325 262.784 134.487 262.93 134.688 263.017C134.889 263.1 135.103 263.142 135.33 263.142C135.463 263.142 135.576 263.134 135.671 263.119C135.766 263.1 135.849 263.081 135.921 263.062L136.137 263.977C136.039 264.015 135.917 264.049 135.773 264.08C135.629 264.114 135.451 264.131 135.239 264.131C134.868 264.131 134.51 264.049 134.165 263.886C133.825 263.723 133.544 263.481 133.325 263.159C133.105 262.837 132.995 262.438 132.995 261.96V253.182ZM139.354 258.545V264H138.343V252.364H139.354V256.642H139.445C139.65 256.191 139.966 255.831 140.394 255.562C140.826 255.294 141.371 255.159 142.031 255.159C142.621 255.159 143.14 255.28 143.587 255.523C144.034 255.765 144.383 256.123 144.633 256.597C144.883 257.07 145.008 257.653 145.008 258.347V264H143.991V258.409C143.991 257.689 143.79 257.123 143.388 256.71C142.991 256.294 142.453 256.085 141.775 256.085C141.309 256.085 140.894 256.184 140.531 256.381C140.167 256.578 139.879 256.862 139.667 257.233C139.459 257.6 139.354 258.038 139.354 258.545ZM150.109 264.199C149.582 264.199 149.101 264.097 148.665 263.892C148.23 263.684 147.883 263.384 147.626 262.994C147.368 262.6 147.239 262.123 147.239 261.562C147.239 261.131 147.321 260.767 147.484 260.472C147.647 260.176 147.878 259.934 148.177 259.744C148.476 259.555 148.83 259.405 149.239 259.295C149.648 259.186 150.099 259.1 150.592 259.04C151.08 258.979 151.493 258.926 151.83 258.881C152.171 258.835 152.431 258.763 152.609 258.665C152.787 258.566 152.876 258.407 152.876 258.188V257.983C152.876 257.388 152.698 256.92 152.342 256.58C151.989 256.235 151.482 256.062 150.819 256.062C150.19 256.062 149.677 256.201 149.279 256.477C148.885 256.754 148.609 257.08 148.45 257.455L147.489 257.108C147.686 256.631 147.959 256.25 148.308 255.966C148.656 255.678 149.046 255.472 149.478 255.347C149.91 255.218 150.347 255.153 150.79 255.153C151.124 255.153 151.47 255.197 151.83 255.284C152.194 255.371 152.531 255.523 152.842 255.739C153.152 255.951 153.404 256.248 153.597 256.631C153.79 257.009 153.887 257.491 153.887 258.074V264H152.876V262.619H152.813C152.692 262.877 152.512 263.127 152.273 263.369C152.035 263.612 151.736 263.811 151.376 263.966C151.016 264.121 150.594 264.199 150.109 264.199ZM150.245 263.273C150.783 263.273 151.249 263.153 151.643 262.915C152.037 262.676 152.34 262.36 152.552 261.966C152.768 261.568 152.876 261.131 152.876 260.653V259.392C152.8 259.464 152.673 259.528 152.495 259.585C152.321 259.642 152.118 259.693 151.887 259.739C151.66 259.78 151.433 259.816 151.205 259.847C150.978 259.877 150.773 259.903 150.592 259.926C150.099 259.987 149.679 260.081 149.33 260.21C148.982 260.339 148.715 260.517 148.529 260.744C148.344 260.968 148.251 261.256 148.251 261.608C148.251 262.138 148.44 262.549 148.819 262.841C149.198 263.129 149.673 263.273 150.245 263.273ZM160.015 255.273V256.153H155.85V255.273H160.015ZM157.151 253.182H158.168V261.722C158.168 262.085 158.231 262.371 158.356 262.58C158.481 262.784 158.644 262.93 158.844 263.017C159.045 263.1 159.259 263.142 159.487 263.142C159.619 263.142 159.733 263.134 159.827 263.119C159.922 263.1 160.005 263.081 160.077 263.062L160.293 263.977C160.195 264.015 160.074 264.049 159.93 264.08C159.786 264.114 159.608 264.131 159.396 264.131C159.024 264.131 158.666 264.049 158.322 263.886C157.981 263.723 157.701 263.481 157.481 263.159C157.261 262.837 157.151 262.438 157.151 261.96V253.182ZM172.675 257.188L171.749 257.449C171.658 257.187 171.53 256.951 171.363 256.739C171.196 256.527 170.978 256.358 170.71 256.233C170.444 256.108 170.115 256.045 169.721 256.045C169.13 256.045 168.645 256.186 168.266 256.466C167.888 256.746 167.698 257.108 167.698 257.551C167.698 257.926 167.827 258.231 168.085 258.466C168.346 258.697 168.747 258.881 169.289 259.017L170.607 259.341C171.338 259.519 171.886 259.801 172.249 260.188C172.617 260.574 172.8 261.059 172.8 261.642C172.8 262.134 172.664 262.572 172.391 262.955C172.119 263.337 171.738 263.638 171.249 263.858C170.764 264.074 170.202 264.182 169.562 264.182C168.71 264.182 168.007 263.991 167.454 263.608C166.901 263.222 166.547 262.665 166.391 261.938L167.363 261.699C167.488 262.218 167.732 262.61 168.096 262.875C168.463 263.14 168.946 263.273 169.545 263.273C170.215 263.273 170.751 263.123 171.153 262.824C171.554 262.521 171.755 262.142 171.755 261.688C171.755 261.335 171.638 261.04 171.403 260.801C171.168 260.559 170.812 260.381 170.335 260.267L168.908 259.926C168.151 259.744 167.59 259.456 167.227 259.062C166.863 258.669 166.681 258.18 166.681 257.597C166.681 257.116 166.812 256.693 167.073 256.33C167.335 255.962 167.694 255.674 168.153 255.466C168.611 255.258 169.134 255.153 169.721 255.153C170.52 255.153 171.158 255.335 171.636 255.699C172.117 256.059 172.463 256.555 172.675 257.188ZM180.56 260.665V255.273H181.572V264H180.56V262.551H180.481C180.276 262.998 179.952 263.371 179.509 263.67C179.066 263.966 178.524 264.114 177.884 264.114C177.327 264.114 176.833 263.992 176.401 263.75C175.969 263.504 175.63 263.144 175.384 262.67C175.138 262.197 175.015 261.616 175.015 260.926V255.273H176.026V260.864C176.026 261.545 176.227 262.095 176.629 262.511C177.03 262.924 177.545 263.131 178.174 263.131C178.568 263.131 178.947 263.036 179.31 262.847C179.674 262.657 179.973 262.381 180.208 262.017C180.443 261.65 180.56 261.199 180.56 260.665ZM187.687 255.273V256.153H183.522V255.273H187.687ZM184.823 253.182H185.84V261.722C185.84 262.085 185.903 262.371 186.028 262.58C186.153 262.784 186.316 262.93 186.516 263.017C186.717 263.1 186.931 263.142 187.158 263.142C187.291 263.142 187.405 263.134 187.499 263.119C187.594 263.1 187.677 263.081 187.749 263.062L187.965 263.977C187.867 264.015 187.746 264.049 187.602 264.08C187.458 264.114 187.28 264.131 187.067 264.131C186.696 264.131 186.338 264.049 185.994 263.886C185.653 263.723 185.372 263.481 185.153 263.159C184.933 262.837 184.823 262.438 184.823 261.96V253.182ZM193.418 264.182C192.604 264.182 191.899 263.992 191.305 263.614C190.71 263.231 190.25 262.703 189.924 262.028C189.602 261.35 189.441 260.57 189.441 259.688C189.441 258.809 189.602 258.028 189.924 257.347C190.25 256.661 190.699 256.125 191.271 255.739C191.846 255.348 192.511 255.153 193.265 255.153C193.738 255.153 194.195 255.241 194.634 255.415C195.074 255.585 195.468 255.848 195.816 256.205C196.168 256.557 196.447 257.002 196.651 257.54C196.856 258.074 196.958 258.706 196.958 259.438V259.938H190.14V259.045H195.924C195.924 258.485 195.81 257.981 195.583 257.534C195.36 257.083 195.047 256.727 194.646 256.466C194.248 256.205 193.788 256.074 193.265 256.074C192.712 256.074 192.225 256.222 191.805 256.517C191.384 256.812 191.055 257.203 190.816 257.688C190.581 258.172 190.462 258.703 190.458 259.278V259.812C190.458 260.506 190.577 261.112 190.816 261.631C191.058 262.146 191.401 262.545 191.844 262.83C192.288 263.114 192.812 263.256 193.418 263.256C193.831 263.256 194.193 263.191 194.504 263.062C194.818 262.934 195.081 262.761 195.293 262.545C195.509 262.326 195.672 262.085 195.782 261.824L196.742 262.136C196.61 262.504 196.392 262.843 196.089 263.153C195.79 263.464 195.415 263.714 194.964 263.903C194.517 264.089 194.002 264.182 193.418 264.182ZM74.6335 283.273C74.4328 283.273 74.2453 283.254 74.071 283.216C73.8968 283.178 73.7585 283.136 73.6562 283.091L73.929 282.199C74.2737 282.305 74.5805 282.343 74.8494 282.312C75.1184 282.286 75.357 282.165 75.5653 281.949C75.7737 281.737 75.9593 281.411 76.1222 280.972L76.4403 280.085L73.2301 271.273H74.3267L76.9176 278.665H76.9972L79.5881 271.273H80.6847L76.9915 281.381C76.8362 281.801 76.6449 282.152 76.4176 282.432C76.1903 282.716 75.9271 282.926 75.6278 283.062C75.3324 283.203 75.0009 283.273 74.6335 283.273ZM85.7429 280.182C84.9891 280.182 84.3224 279.991 83.7429 279.608C83.1671 279.225 82.7164 278.697 82.3906 278.023C82.0649 277.345 81.902 276.562 81.902 275.676C81.902 274.782 82.0649 273.996 82.3906 273.318C82.7164 272.636 83.1671 272.106 83.7429 271.727C84.3224 271.345 84.9891 271.153 85.7429 271.153C86.4967 271.153 87.1615 271.345 87.7372 271.727C88.313 272.11 88.7637 272.64 89.0895 273.318C89.419 273.996 89.5838 274.782 89.5838 275.676C89.5838 276.562 89.4209 277.345 89.0952 278.023C88.7694 278.697 88.3168 279.225 87.7372 279.608C87.1615 279.991 86.4967 280.182 85.7429 280.182ZM85.7429 279.256C86.349 279.256 86.8622 279.093 87.2827 278.767C87.7031 278.441 88.0213 278.008 88.2372 277.466C88.4569 276.924 88.5668 276.328 88.5668 275.676C88.5668 275.025 88.4569 274.426 88.2372 273.881C88.0213 273.335 87.7031 272.898 87.2827 272.568C86.8622 272.239 86.349 272.074 85.7429 272.074C85.1406 272.074 84.6274 272.239 84.2031 272.568C83.7827 272.898 83.4626 273.335 83.2429 273.881C83.027 274.426 82.919 275.025 82.919 275.676C82.919 276.328 83.027 276.924 83.2429 277.466C83.4626 278.008 83.7827 278.441 84.2031 278.767C84.6236 279.093 85.1368 279.256 85.7429 279.256ZM97.3494 276.665V271.273H98.3608V280H97.3494V278.551H97.2699C97.0653 278.998 96.7415 279.371 96.2983 279.67C95.8551 279.966 95.3134 280.114 94.6733 280.114C94.1165 280.114 93.6222 279.992 93.1903 279.75C92.7585 279.504 92.4195 279.144 92.1733 278.67C91.9271 278.197 91.804 277.616 91.804 276.926V271.273H92.8153V276.864C92.8153 277.545 93.0161 278.095 93.4176 278.511C93.8191 278.924 94.3343 279.131 94.9631 279.131C95.357 279.131 95.7358 279.036 96.0994 278.847C96.4631 278.657 96.7623 278.381 96.9972 278.017C97.232 277.65 97.3494 277.199 97.3494 276.665ZM101.038 280V271.273H102.021V272.614H102.095C102.269 272.174 102.572 271.82 103.004 271.551C103.44 271.278 103.932 271.142 104.482 271.142C104.565 271.142 104.658 271.144 104.76 271.148C104.862 271.152 104.947 271.155 105.016 271.159V272.188C104.97 272.18 104.891 272.169 104.777 272.153C104.663 272.138 104.54 272.131 104.408 272.131C103.953 272.131 103.548 272.227 103.192 272.42C102.839 272.61 102.561 272.873 102.357 273.21C102.152 273.547 102.05 273.932 102.05 274.364V280H101.038ZM111.452 280V268.364H112.469V272.938H112.56C112.673 272.676 112.836 272.407 113.048 272.131C113.264 271.854 113.546 271.623 113.895 271.438C114.247 271.248 114.69 271.153 115.224 271.153C115.94 271.153 116.569 271.343 117.111 271.722C117.652 272.097 118.075 272.623 118.378 273.301C118.681 273.975 118.832 274.761 118.832 275.659C118.832 276.561 118.681 277.35 118.378 278.028C118.079 278.706 117.658 279.235 117.116 279.614C116.579 279.992 115.954 280.182 115.241 280.182C114.711 280.182 114.268 280.087 113.912 279.898C113.56 279.708 113.276 279.475 113.06 279.199C112.844 278.919 112.677 278.646 112.56 278.381H112.435V280H111.452ZM112.452 275.642C112.452 276.347 112.556 276.972 112.764 277.517C112.976 278.059 113.279 278.485 113.673 278.795C114.071 279.102 114.552 279.256 115.116 279.256C115.696 279.256 116.187 279.097 116.588 278.778C116.99 278.456 117.295 278.023 117.503 277.477C117.711 276.932 117.815 276.32 117.815 275.642C117.815 274.972 117.711 274.367 117.503 273.83C117.298 273.292 116.995 272.866 116.594 272.551C116.192 272.233 115.7 272.074 115.116 272.074C114.548 272.074 114.065 272.227 113.668 272.534C113.274 272.837 112.973 273.258 112.764 273.795C112.556 274.33 112.452 274.945 112.452 275.642ZM121.054 280V271.273H122.037V272.614H122.111C122.285 272.174 122.588 271.82 123.02 271.551C123.455 271.278 123.948 271.142 124.497 271.142C124.58 271.142 124.673 271.144 124.776 271.148C124.878 271.152 124.963 271.155 125.031 271.159V272.188C124.986 272.18 124.906 272.169 124.793 272.153C124.679 272.138 124.556 272.131 124.423 272.131C123.969 272.131 123.563 272.227 123.207 272.42C122.855 272.61 122.577 272.873 122.372 273.21C122.168 273.547 122.065 273.932 122.065 274.364V280H121.054ZM129.195 280.199C128.668 280.199 128.187 280.097 127.751 279.892C127.316 279.684 126.969 279.384 126.712 278.994C126.454 278.6 126.325 278.123 126.325 277.562C126.325 277.131 126.407 276.767 126.57 276.472C126.732 276.176 126.964 275.934 127.263 275.744C127.562 275.555 127.916 275.405 128.325 275.295C128.734 275.186 129.185 275.1 129.678 275.04C130.166 274.979 130.579 274.926 130.916 274.881C131.257 274.835 131.517 274.763 131.695 274.665C131.873 274.566 131.962 274.407 131.962 274.188V273.983C131.962 273.388 131.784 272.92 131.428 272.58C131.075 272.235 130.568 272.062 129.905 272.062C129.276 272.062 128.763 272.201 128.365 272.477C127.971 272.754 127.695 273.08 127.536 273.455L126.575 273.108C126.772 272.631 127.045 272.25 127.393 271.966C127.742 271.678 128.132 271.472 128.564 271.347C128.996 271.218 129.433 271.153 129.876 271.153C130.21 271.153 130.556 271.197 130.916 271.284C131.28 271.371 131.617 271.523 131.928 271.739C132.238 271.951 132.49 272.248 132.683 272.631C132.876 273.009 132.973 273.491 132.973 274.074V280H131.962V278.619H131.899C131.778 278.877 131.598 279.127 131.359 279.369C131.121 279.612 130.821 279.811 130.462 279.966C130.102 280.121 129.679 280.199 129.195 280.199ZM129.331 279.273C129.869 279.273 130.335 279.153 130.729 278.915C131.123 278.676 131.426 278.36 131.638 277.966C131.854 277.568 131.962 277.131 131.962 276.653V275.392C131.886 275.464 131.759 275.528 131.581 275.585C131.407 275.642 131.204 275.693 130.973 275.739C130.746 275.78 130.518 275.816 130.291 275.847C130.064 275.877 129.859 275.903 129.678 275.926C129.185 275.987 128.765 276.081 128.416 276.21C128.068 276.339 127.801 276.517 127.615 276.744C127.429 276.968 127.337 277.256 127.337 277.608C127.337 278.138 127.526 278.549 127.905 278.841C128.284 279.129 128.759 279.273 129.331 279.273ZM136.675 274.545V280H135.663V271.273H136.646V272.642H136.737C136.942 272.195 137.26 271.837 137.692 271.568C138.127 271.295 138.665 271.159 139.305 271.159C139.893 271.159 140.408 271.282 140.851 271.528C141.298 271.771 141.644 272.129 141.891 272.602C142.141 273.076 142.266 273.657 142.266 274.347V280H141.254V274.409C141.254 273.693 141.054 273.127 140.652 272.71C140.254 272.294 139.72 272.085 139.05 272.085C138.591 272.085 138.184 272.184 137.828 272.381C137.472 272.578 137.19 272.862 136.982 273.233C136.777 273.6 136.675 274.038 136.675 274.545ZM148.071 280.182C147.355 280.182 146.728 279.992 146.19 279.614C145.652 279.235 145.232 278.706 144.929 278.028C144.63 277.35 144.48 276.561 144.48 275.659C144.48 274.761 144.63 273.975 144.929 273.301C145.232 272.623 145.654 272.097 146.196 271.722C146.738 271.343 147.368 271.153 148.088 271.153C148.618 271.153 149.06 271.248 149.412 271.438C149.764 271.623 150.046 271.854 150.259 272.131C150.471 272.407 150.635 272.676 150.753 272.938H150.844V268.364H151.861V280H150.872V278.381H150.753C150.635 278.646 150.469 278.919 150.253 279.199C150.037 279.475 149.751 279.708 149.395 279.898C149.043 280.087 148.601 280.182 148.071 280.182ZM148.19 279.256C148.755 279.256 149.236 279.102 149.634 278.795C150.031 278.485 150.334 278.059 150.543 277.517C150.755 276.972 150.861 276.347 150.861 275.642C150.861 274.945 150.757 274.33 150.548 273.795C150.34 273.258 150.037 272.837 149.639 272.534C149.241 272.227 148.759 272.074 148.19 272.074C147.607 272.074 147.115 272.233 146.713 272.551C146.315 272.866 146.012 273.292 145.804 273.83C145.599 274.367 145.497 274.972 145.497 275.642C145.497 276.32 145.601 276.932 145.81 277.477C146.018 278.023 146.321 278.456 146.719 278.778C147.12 279.097 147.611 279.256 148.19 279.256Z" fill="white"/>
<path d="M103.725 81.4312C103.599 81.4312 103.478 81.4813 103.389 81.5704C103.3 81.6595 103.25 81.7803 103.25 81.9062V89.0625C103.25 89.325 103.463 89.5375 103.725 89.5375C103.844 89.5375 103.944 89.5 104.025 89.4375L105.219 88.4688L106.256 90.7312C106.338 90.9 106.506 91 106.688 91C106.756 91 106.825 91 106.894 90.95L108.619 90.15C108.856 90.0375 108.969 89.75 108.844 89.5187L107.8 87.25L109.306 86.9688C109.41 86.9419 109.503 86.8854 109.575 86.8063C109.744 86.6063 109.719 86.3125 109.5 86.1312L104.038 81.5375L104.031 81.5437C103.946 81.4711 103.837 81.4312 103.725 81.4312ZM106.375 82.25V81H109.5V82.25H106.375ZM105.644 78.975L107.413 77.2062L108.294 78.0875L106.525 79.8563L105.644 78.975ZM103.25 76H104.5V79.125H103.25V76ZM99.4563 85.1625L101.225 83.3938L102.106 84.275L100.338 86.0437L99.4563 85.1625ZM99.4563 78.0875L100.338 77.2062L102.106 78.975L101.225 79.8563L99.4563 78.0875ZM101.375 82.25H98.25V81H101.375V82.25Z" fill="#433F4C"/>
<path d="M171.417 125.98L171.065 125.905C171.139 125.557 171.207 125.203 171.268 124.852L171.622 124.913C171.56 125.268 171.491 125.627 171.417 125.98Z" fill="#292A2E"/>
<path d="M143.336 148.956L143.333 148.596C144.047 148.59 144.769 148.557 145.481 148.497L145.511 148.856C144.791 148.916 144.059 148.95 143.336 148.956ZM141.159 148.891C140.438 148.842 139.71 148.765 138.993 148.664L139.044 148.308C139.752 148.409 140.472 148.484 141.184 148.532L141.159 148.891ZM147.672 148.592L147.615 148.237C148.319 148.124 149.029 147.982 149.723 147.815L149.807 148.165C149.103 148.334 148.385 148.477 147.672 148.592ZM136.85 148.277C136.142 148.122 135.433 147.939 134.742 147.732L134.845 147.388C135.528 147.592 136.228 147.773 136.927 147.926L136.85 148.277ZM151.904 147.578L151.793 147.237C152.472 147.019 153.152 146.772 153.815 146.503L153.95 146.836C153.279 147.108 152.59 147.358 151.904 147.578ZM132.68 147.031C132.004 146.772 131.33 146.484 130.676 146.175L130.83 145.85C131.475 146.156 132.141 146.439 132.808 146.695L132.68 147.031ZM155.936 145.941L155.776 145.619C156.415 145.302 157.05 144.956 157.664 144.591L157.847 144.9C157.226 145.27 156.583 145.619 155.936 145.941H155.936ZM128.744 145.171C128.115 144.814 127.492 144.428 126.891 144.023L127.092 143.725C127.686 144.124 128.3 144.506 128.92 144.858L128.744 145.171ZM159.679 143.719L159.472 143.425C160.058 143.015 160.635 142.58 161.187 142.127L161.415 142.406C160.855 142.863 160.271 143.305 159.678 143.719H159.679ZM125.133 142.739C124.566 142.291 124.008 141.816 123.475 141.326L123.719 141.061C124.245 141.545 124.796 142.014 125.355 142.457L125.133 142.739ZM163.048 140.965L162.8 140.705C163.318 140.213 163.823 139.695 164.303 139.166L164.569 139.407C164.084 139.943 163.572 140.467 163.048 140.965ZM121.928 139.793C121.434 139.265 120.953 138.711 120.5 138.148L120.781 137.923C121.228 138.479 121.702 139.026 122.191 139.547L121.928 139.793ZM165.97 137.739L165.686 137.518C166.124 136.954 166.546 136.367 166.94 135.771L167.24 135.97C166.841 136.572 166.413 137.167 165.97 137.739L165.97 137.739ZM119.2 136.402C118.79 135.806 118.397 135.188 118.033 134.563L118.344 134.382C118.703 134.999 119.091 135.61 119.496 136.198L119.2 136.402ZM168.374 134.11L168.06 133.935C168.408 133.312 168.736 132.667 169.037 132.019L169.363 132.17C169.059 132.826 168.726 133.479 168.374 134.11ZM117.007 132.643C116.69 131.992 116.394 131.322 116.127 130.651L116.462 130.518C116.725 131.181 117.017 131.843 117.33 132.485L117.007 132.643ZM170.202 130.161L169.866 130.035C170.115 129.368 170.343 128.681 170.542 127.994L170.888 128.095C170.686 128.789 170.455 129.484 170.202 130.16V130.161Z" fill="#292A2E"/>
<path d="M115.396 128.583C115.288 128.239 115.186 127.888 115.092 127.539L115.439 127.445C115.532 127.789 115.633 128.135 115.739 128.475L115.396 128.583Z" fill="#292A2E"/>
<path d="M32.712 97.106C32.3641 97.0029 32.0156 96.8882 31.6766 96.7652L31.7994 96.4271C32.1315 96.5478 32.473 96.6609 32.8142 96.7611L32.712 97.106Z" fill="#292A2E"/>
<path d="M29.6749 95.8963C29.0263 95.5657 28.3988 95.1954 27.7958 94.7874L27.9974 94.4896C28.5881 94.8893 29.2029 95.252 29.8383 95.5758L29.6749 95.8963ZM26.0682 93.4551C25.5206 92.9756 25.0031 92.4629 24.5184 91.9199L24.7867 91.6803C25.2615 92.2123 25.7686 92.7147 26.305 93.1844L26.0682 93.4551ZM23.1688 90.2064C22.7545 89.6082 22.3771 88.9853 22.0387 88.3411L22.357 88.1738C22.6887 88.805 23.0585 89.4154 23.4644 90.0016L23.1688 90.2064ZM21.1446 86.3519C20.8875 85.6713 20.6724 84.9755 20.5005 84.2684L20.8501 84.1835C21.0184 84.8763 21.2291 85.558 21.4811 86.2248L21.1446 86.3519ZM20.1171 82.1222C20.0396 81.4512 20.0005 80.7764 20 80.101V79.944L20.3597 79.9471V80.101C20.3599 80.7626 20.398 81.4236 20.4739 82.0808L20.1171 82.1222ZM20.5127 77.8158L20.1563 77.7683C20.2527 77.047 20.3931 76.3324 20.5767 75.6283L20.9247 75.7182C20.7447 76.4084 20.6069 77.1088 20.5122 77.8158H20.5127ZM21.5874 73.6872L21.2527 73.5548C21.5203 72.878 21.8291 72.2182 22.1776 71.5792L22.4934 71.7515C22.1519 72.3775 21.8494 73.024 21.5874 73.6872ZM23.6308 69.9428L23.3387 69.7327C23.7638 69.1419 24.2249 68.5779 24.7195 68.0439L24.9831 68.2885C24.4987 68.8116 24.0471 69.364 23.6308 69.9428ZM26.5291 66.8137L26.2973 66.5386C26.8538 66.0698 27.4384 65.6353 28.0478 65.2377L28.2443 65.5389C27.6472 65.9284 27.0744 66.354 26.5291 66.8134V66.8137ZM30.1022 64.4831L29.9439 64.1594C30.5976 63.8393 31.2702 63.5594 31.958 63.3212L32.0756 63.6611C31.4017 63.8946 30.7427 64.169 30.1022 64.4828V64.4831Z" fill="#292A2E"/>
<path d="M34.1406 63.0862L34.0656 62.7344C34.4194 62.6591 34.7803 62.5938 35.1383 62.5402L35.1923 62.8961C34.8407 62.9484 34.4872 63.0123 34.1406 63.0862Z" fill="#292A2E"/>
<path d="M38.8103 34.8327L38.4887 34.6717C38.6506 34.348 38.8256 34.0243 39.0072 33.7123L39.3181 33.8933C39.1403 34.1988 38.9693 34.5149 38.8103 34.8327Z" fill="#292A2E"/>
<path d="M70.1209 39.651C70.0126 38.9787 69.8635 38.3135 69.6744 37.6592L70.0199 37.5592C70.213 38.2276 70.3654 38.907 70.4761 39.5938L70.1209 39.651ZM68.988 35.7365C68.7203 35.1103 68.4148 34.5009 68.0732 33.9117L68.3841 33.7319C68.7334 34.3337 69.0457 34.9562 69.3192 35.596L68.988 35.7365ZM66.9422 32.2118C66.5307 31.6696 66.0863 31.1531 65.6115 30.6653L65.8692 30.4135C66.3546 30.912 66.8088 31.4399 67.2294 31.9942L66.9422 32.2118ZM40.4509 32.1938L40.1646 31.9762C40.5858 31.4224 41.0407 30.8949 41.5266 30.3968L41.784 30.6485C41.3085 31.136 40.8635 31.6522 40.4516 32.1944L40.4509 32.1938ZM64.0986 29.2937C63.5667 28.8683 63.0091 28.4759 62.429 28.1189L62.6177 27.8131C63.2102 28.178 63.7799 28.5788 64.3234 29.0133L64.0986 29.2937ZM43.2976 29.2786L43.0732 28.9975C43.6169 28.5635 44.1869 28.1632 44.7798 27.7991L44.968 28.1048C44.3879 28.4617 43.8303 28.8539 43.2983 29.2791L43.2976 29.2786ZM60.6291 27.1566C60.0104 26.8721 59.3749 26.6256 58.7261 26.4184L58.8353 26.0758C59.4981 26.2874 60.1473 26.5392 60.7795 26.8298L60.6291 27.1566ZM46.7705 27.1471L46.6212 26.8199C47.2541 26.5312 47.9041 26.2812 48.5673 26.0713L48.6752 26.4142C48.0261 26.6197 47.39 26.8644 46.7705 27.1471ZM56.748 25.9197C56.0787 25.7943 55.4022 25.7103 54.7226 25.6679L54.7449 25.3083C55.4393 25.3513 56.1304 25.4371 56.8142 25.5651L56.748 25.9197ZM50.6559 25.9186L50.5901 25.5645C51.274 25.4374 51.9651 25.352 52.6594 25.309L52.6815 25.6687C52.0019 25.7105 51.3254 25.7938 50.6559 25.9181V25.9186Z" fill="#292A2E"/>
<path d="M70.6852 42.7671L70.3256 42.7571C70.3355 42.4035 70.334 42.0444 70.3211 41.6898L70.6807 41.6766C70.6942 42.039 70.6953 42.406 70.6852 42.7671Z" fill="#292A2E"/>
<path d="M121.301 49.3628L120.96 49.2525C121.07 48.9109 121.186 48.565 121.307 48.2252L121.646 48.3453C121.526 48.6819 121.41 49.0241 121.301 49.3628Z" fill="#292A2E"/>
<path d="M190.817 52.7824C190.668 52.0949 190.496 51.4033 190.307 50.7266L190.653 50.6297C190.845 51.313 191.018 52.0118 191.169 52.706L190.817 52.7824ZM189.677 48.704C189.448 48.0387 189.197 47.3722 188.93 46.7216L189.262 46.5849C189.532 47.242 189.786 47.9157 190.018 48.587L189.677 48.704ZM122.411 46.3688L122.079 46.229C122.355 45.5748 122.654 44.92 122.967 44.2827L123.29 44.4415C122.979 45.0725 122.683 45.721 122.411 46.3688ZM188.067 44.7863C187.761 44.1522 187.434 43.5192 187.093 42.9047L187.408 42.7301C187.752 43.3505 188.083 43.99 188.391 44.6303L188.067 44.7863ZM124.281 42.5695L123.968 42.392C124.319 41.7741 124.693 41.1589 125.079 40.5635L125.381 40.7602C124.999 41.3488 124.629 41.9579 124.281 42.5695H124.281ZM186.012 41.0839C185.634 40.4905 185.236 39.8992 184.825 39.3284L185.117 39.1184C185.532 39.6938 185.935 40.2912 186.315 40.8911L186.012 41.0839ZM126.588 39.0159L126.298 38.8024C126.72 38.2302 127.164 37.6632 127.619 37.117L127.895 37.3472C127.445 37.888 127.005 38.4492 126.588 39.0159ZM183.538 37.6446C183.095 37.099 182.629 36.5594 182.153 36.0404L182.418 35.7974C182.898 36.3216 183.369 36.8669 183.816 37.4177L183.538 37.6446ZM129.299 35.7591L129.037 35.5129C129.523 34.9948 130.031 34.4843 130.548 33.9957L130.795 34.2568C130.284 34.7407 129.78 35.2461 129.299 35.7591ZM180.677 34.5201C180.172 34.0297 179.646 33.549 179.112 33.0897L179.347 32.8173C179.885 33.2807 180.416 33.7668 180.927 34.262L180.677 34.5201ZM132.376 32.8455L132.145 32.5702C132.688 32.1134 133.252 31.6662 133.822 31.2411L134.038 31.5288C133.472 31.9503 132.913 32.3931 132.376 32.8455ZM177.468 31.7543C176.909 31.3274 176.33 30.9116 175.746 30.5185L175.947 30.2202C176.537 30.6172 177.122 31.0373 177.686 31.4684L177.468 31.7543ZM135.771 30.3131L135.574 30.0128C136.167 29.6224 136.78 29.2444 137.395 28.8892L137.575 29.2007C136.965 29.5523 136.359 29.9267 135.771 30.3131ZM173.953 29.3866C173.349 29.0295 172.724 28.6853 172.098 28.3638L172.263 28.0437C172.895 28.3686 173.525 28.7164 174.136 29.077L173.953 29.3866ZM139.44 28.1954L139.278 27.8739C139.913 27.5554 140.565 27.2515 141.217 26.9706L141.36 27.301C140.714 27.5786 140.068 27.88 139.44 28.1954ZM170.187 27.4527C169.544 27.1692 168.884 26.9005 168.225 26.6543L168.351 26.3173C169.016 26.566 169.683 26.8372 170.332 27.1237L170.187 27.4527ZM143.33 26.5201L143.207 26.1821C143.874 25.9397 144.558 25.7145 145.239 25.5113L145.342 25.856C144.667 26.0569 143.99 26.2803 143.33 26.5201ZM166.22 25.97C165.546 25.762 164.859 25.5715 164.178 25.4039L164.264 25.0545C164.952 25.2239 165.646 25.4163 166.326 25.6264L166.22 25.97ZM147.388 25.3113L147.305 24.9612C147.997 24.7993 148.702 24.6555 149.401 24.5334L149.463 24.8878C148.771 25.0071 148.073 25.1509 147.388 25.3113ZM162.106 24.9576C161.414 24.8296 160.709 24.7206 160.012 24.6339L160.057 24.2771C160.761 24.3647 161.472 24.4749 162.172 24.6041L162.106 24.9576ZM151.558 24.587L151.518 24.2296C152.223 24.1496 152.94 24.0897 153.649 24.0516L153.668 24.4113C152.967 24.4485 152.257 24.5078 151.558 24.587ZM157.903 24.4341C157.202 24.3886 156.49 24.3634 155.786 24.3597L155.788 24C156.499 24.0038 157.218 24.0291 157.926 24.0752L157.903 24.4341Z" fill="#292A2E"/>
<path d="M191.357 55.9388C191.313 55.5851 191.262 55.2272 191.207 54.8756L191.563 54.8204C191.618 55.1754 191.669 55.5367 191.714 55.894L191.357 55.9388Z" fill="#292A2E"/>
<path d="M197.679 68.1421C197.418 67.9002 197.149 67.6607 196.878 67.4298L197.112 67.1561C197.387 67.3898 197.66 67.6332 197.924 67.8784L197.679 68.1421Z" fill="#292A2E"/>
<path d="M181.359 111.699L181.35 111.34C182.049 111.322 182.757 111.273 183.452 111.196L183.492 111.553C182.786 111.631 182.069 111.68 181.359 111.699ZM179.221 111.666C178.512 111.625 177.796 111.553 177.094 111.453L177.145 111.097C177.837 111.196 178.543 111.266 179.242 111.307L179.221 111.666ZM185.605 111.229L185.536 110.876C186.223 110.74 186.912 110.574 187.585 110.382L187.684 110.727C187.001 110.923 186.302 111.092 185.605 111.229H185.605ZM189.712 110.053L189.585 109.717C190.24 109.468 190.891 109.188 191.521 108.885L191.677 109.209C191.037 109.516 190.376 109.8 189.712 110.053H189.712ZM193.563 108.201L193.381 107.891C193.984 107.535 194.579 107.148 195.148 106.743L195.357 107.036C194.778 107.448 194.175 107.84 193.563 108.201L193.563 108.201ZM197.046 105.723L196.813 105.448C197.346 104.996 197.867 104.515 198.362 104.017L198.617 104.271C198.114 104.776 197.586 105.265 197.045 105.723L197.046 105.723ZM200.06 102.694L199.785 102.463C200.236 101.926 200.67 101.366 201.073 100.795L201.367 101.003C200.957 101.582 200.517 102.151 200.059 102.695L200.06 102.694ZM202.527 99.2078L202.217 99.0256C202.571 98.4228 202.904 97.7972 203.206 97.1658L203.529 97.321C203.223 97.9623 202.886 98.5971 202.526 99.2085L202.527 99.2078ZM204.371 95.3555L204.035 95.2283C204.282 94.5737 204.504 93.9004 204.695 93.2273L205.041 93.3255C204.847 94.0091 204.621 94.6913 204.37 95.3567L204.371 95.3555ZM205.536 91.246L205.183 91.1775C205.316 90.4912 205.422 89.7901 205.496 89.0936L205.854 89.1321C205.778 89.8392 205.671 90.5504 205.536 91.2467L205.536 91.246ZM205.993 86.9987L205.633 86.9906C205.637 86.8004 205.64 86.6102 205.64 86.42C205.64 85.9095 205.624 85.3927 205.592 84.8836L205.952 84.8616C205.984 85.3779 206 85.9021 206 86.42C205.999 86.6133 205.997 86.8064 205.992 86.9994L205.993 86.9987ZM205.375 82.7875C205.274 82.0944 205.142 81.3977 204.983 80.7169L205.333 80.6349C205.495 81.3258 205.628 82.0323 205.731 82.7353L205.375 82.7875ZM204.416 78.6864C204.2 78.021 203.953 77.3557 203.682 76.7113L204.013 76.5716C204.289 77.226 204.539 77.9002 204.758 78.5755L204.416 78.6864ZM202.782 74.8051C202.457 74.1854 202.101 73.5722 201.724 72.9826L202.027 72.7889C202.409 73.387 202.771 74.0092 203.101 74.6381L202.782 74.8051ZM200.514 71.2564C200.089 70.7016 199.635 70.1574 199.163 69.6391L199.428 69.3969C199.907 69.9229 200.369 70.4748 200.8 71.0377L200.514 71.2564Z" fill="#292A2E"/>
<path d="M174.987 111.06C174.636 110.979 174.281 110.889 173.933 110.793L174.029 110.446C174.372 110.541 174.722 110.629 175.068 110.709L174.987 111.06Z" fill="#292A2E"/>
<path d="M173.38 34.4731H52.0505C49.0709 34.4731 46.6556 36.8885 46.6556 39.8681V128.7C46.6556 131.679 49.0709 134.095 52.0505 134.095H173.38C176.359 134.095 178.775 131.679 178.775 128.7V39.8681C178.775 36.8885 176.359 34.4731 173.38 34.4731Z" fill="white"/>
<path d="M173.38 34.4731H52.0505C49.0709 34.4731 46.6556 36.8885 46.6556 39.8681V128.7C46.6556 131.679 49.0709 134.095 52.0505 134.095H173.38C176.359 134.095 178.775 131.679 178.775 128.7V39.8681C178.775 36.8885 176.359 34.4731 173.38 34.4731Z" fill="white"/>
<path d="M173.38 34.4731H52.0505C49.0709 34.4731 46.6556 36.8885 46.6556 39.8681V128.7C46.6556 131.679 49.0709 134.095 52.0505 134.095H173.38C176.359 134.095 178.775 131.679 178.775 128.7V39.8681C178.775 36.8885 176.359 34.4731 173.38 34.4731Z" fill="white"/>
<path d="M173.38 134.275H52.0505C50.5725 134.273 49.1555 133.685 48.1104 132.64C47.0653 131.595 46.4774 130.178 46.4757 128.7V39.8681C46.4774 38.3901 47.0653 36.9731 48.1104 35.928C49.1555 34.8829 50.5725 34.295 52.0505 34.2933H173.38C174.858 34.295 176.275 34.8829 177.32 35.928C178.365 36.9731 178.953 38.3901 178.955 39.8681V128.7C178.953 130.178 178.365 131.595 177.32 132.64C176.275 133.685 174.858 134.273 173.38 134.275ZM52.0505 34.653C50.6678 34.6545 49.3422 35.2045 48.3645 36.1821C47.3868 37.1598 46.8369 38.4854 46.8354 39.8681V128.7C46.837 130.083 47.3869 131.408 48.3646 132.386C49.3423 133.363 50.6678 133.913 52.0505 133.915H173.38C174.763 133.913 176.088 133.363 177.066 132.386C178.044 131.408 178.594 130.082 178.595 128.7V39.8681C178.594 38.4854 178.044 37.1599 177.066 36.1822C176.088 35.2045 174.763 34.6546 173.38 34.653H52.0505Z" fill="#292A2E"/>
<path d="M169.914 107.029H55.1499C53.558 107.029 52.2675 108.319 52.2675 109.911V125.794C52.2675 127.386 53.558 128.676 55.1499 128.676H169.914C171.505 128.676 172.796 127.386 172.796 125.794V109.911C172.796 108.319 171.505 107.029 169.914 107.029Z" fill="#367CFF"/>
<g opacity="0.9">
<path d="M169.914 107.029H55.1499C53.558 107.029 52.2675 108.319 52.2675 109.911V125.794C52.2675 127.386 53.558 128.676 55.1499 128.676H169.914C171.505 128.676 172.796 127.386 172.796 125.794V109.911C172.796 108.319 171.505 107.029 169.914 107.029Z" fill="white"/>
</g>
<g opacity="0.9">
<path d="M169.914 79.1501H55.1499C53.558 79.1501 52.2675 79.4966 52.2675 79.924V84.1887C52.2675 84.6161 53.558 84.9626 55.1499 84.9626H169.914C171.505 84.9626 172.796 84.6161 172.796 84.1887V79.924C172.796 79.4966 171.505 79.1501 169.914 79.1501Z" fill="white"/>
</g>
<g opacity="0.9">
<path d="M169.962 87.8398H55.1979C53.606 87.8398 52.3155 88.1863 52.3155 88.6137V92.8784C52.3155 93.3058 53.606 93.6523 55.1979 93.6523H169.962C171.553 93.6523 172.844 93.3058 172.844 92.8784V88.6137C172.844 88.1863 171.553 87.8398 169.962 87.8398Z" fill="white"/>
</g>
<path d="M169.914 51.2714H55.1499C53.558 51.2714 52.2675 52.5619 52.2675 54.1537V70.0371C52.2675 71.629 53.558 72.9194 55.1499 72.9194H169.914C171.505 72.9194 172.796 71.629 172.796 70.0371V54.1537C172.796 52.5619 171.505 51.2714 169.914 51.2714Z" fill="#367CFF"/>
<path opacity="0.2" d="M169.914 51.2714H55.1499C53.558 51.2714 52.2675 52.5619 52.2675 54.1537V70.0371C52.2675 71.629 53.558 72.9194 55.1499 72.9194H169.914C171.505 72.9194 172.796 71.629 172.796 70.0371V54.1537C172.796 52.5619 171.505 51.2714 169.914 51.2714Z" fill="white"/>
<path d="M169.914 73.0993H55.1498C54.3379 73.0984 53.5595 72.7754 52.9855 72.2012C52.4115 71.627 52.0886 70.8486 52.0879 70.0366V54.154C52.0887 53.3422 52.4116 52.5638 52.9856 51.9897C53.5597 51.4156 54.338 51.0926 55.1498 51.0917H169.914C170.725 51.0926 171.504 51.4155 172.078 51.9896C172.652 52.5637 172.975 53.3421 172.976 54.154V70.0366C172.975 70.8486 172.652 71.6271 172.078 72.2013C171.504 72.7755 170.726 73.0984 169.914 73.0993ZM55.1498 51.4513C54.4334 51.4522 53.7464 51.7372 53.2398 52.2439C52.7332 52.7506 52.4483 53.4375 52.4475 54.154V70.0366C52.4483 70.7531 52.7332 71.4401 53.2398 71.9468C53.7464 72.4534 54.4334 72.7385 55.1498 72.7393H169.914C170.63 72.7385 171.317 72.4535 171.824 71.9468C172.33 71.4402 172.615 70.7532 172.616 70.0366V54.154C172.615 53.4375 172.33 52.7505 171.824 52.2438C171.317 51.7371 170.63 51.4521 169.914 51.4513H55.1498Z" fill="#292A2E"/>
<path d="M124.118 55.1107H59.8179C58.1574 55.1107 56.8113 57.4859 56.8113 60.4157C56.8113 63.3456 58.1574 65.7207 59.8179 65.7207H124.118C125.779 65.7207 127.125 63.3456 127.125 60.4157C127.125 57.4859 125.779 55.1107 124.118 55.1107Z" fill="white"/>
<path d="M169.921 84.9625H55.1966C54.385 84.9623 53.607 84.8752 53.0332 84.7204C52.4593 84.5656 52.1366 84.3557 52.1357 84.1368V79.8539C52.1366 79.6349 52.4593 79.4251 53.0332 79.2703C53.607 79.1155 54.3851 79.0284 55.1966 79.0281H169.921C170.732 79.0284 171.51 79.1154 172.084 79.2702C172.658 79.425 172.981 79.6349 172.982 79.8539V84.1368C172.981 84.3557 172.658 84.5656 172.084 84.7204C171.51 84.8752 170.732 84.9623 169.921 84.9625ZM55.1966 79.1251C54.4804 79.1253 53.7937 79.2022 53.2873 79.3388C52.7809 79.4754 52.496 79.6607 52.4952 79.8539V84.1368C52.496 84.33 52.7808 84.5152 53.2873 84.6518C53.7937 84.7885 54.4804 84.8653 55.1966 84.8656H169.921C170.637 84.8653 171.324 84.7885 171.83 84.6519C172.337 84.5152 172.621 84.33 172.622 84.1368V79.8539C172.621 79.6606 172.337 79.4754 171.83 79.3388C171.324 79.2022 170.637 79.1253 169.921 79.1251H55.1966Z" fill="#292A2E"/>
<path d="M169.921 92.5155H55.1966C54.385 92.5152 53.607 92.4281 53.0332 92.2733C52.4593 92.1185 52.1366 91.9086 52.1357 91.6897V87.4068C52.1366 87.1879 52.4593 86.978 53.0332 86.8232C53.607 86.6684 54.3851 86.5813 55.1966 86.5811H169.921C170.732 86.5813 171.51 86.6684 172.084 86.8232C172.658 86.978 172.981 87.1878 172.982 87.4068V91.6897C172.981 91.9086 172.658 92.1185 172.084 92.2733C171.51 92.4281 170.732 92.5152 169.921 92.5155ZM55.1966 86.678C54.4804 86.6783 53.7937 86.7551 53.2873 86.8917C52.7809 87.0283 52.496 87.2136 52.4952 87.4068V91.6897C52.496 91.8829 52.7808 92.0681 53.2873 92.2048C53.7937 92.3414 54.4804 92.4182 55.1966 92.4185H169.921C170.637 92.4183 171.324 92.3414 171.83 92.2048C172.337 92.0682 172.621 91.8829 172.622 91.6897V87.4068C172.621 87.2136 172.337 87.0283 171.83 86.8917C171.324 86.7551 170.637 86.6782 169.921 86.678H55.1966Z" fill="#292A2E"/>
<path d="M169.921 128.841H55.1966C54.3851 128.84 53.6071 128.357 53.0332 127.499C52.4594 126.64 52.1366 125.476 52.1357 124.262V100.512C52.1364 99.298 52.4591 98.1339 53.033 97.2753C53.6068 96.4167 54.385 95.9337 55.1966 95.9323H169.921C170.732 95.9336 171.51 96.4164 172.084 97.2748C172.658 98.1332 172.981 99.2971 172.982 100.511V124.261C172.981 125.476 172.658 126.64 172.084 127.498C171.51 128.357 170.732 128.84 169.921 128.841ZM55.1966 96.47C54.4804 96.4713 53.7938 96.8975 53.2873 97.6551C52.7809 98.4126 52.4961 99.4397 52.4952 100.511V124.261C52.4961 125.333 52.7809 126.36 53.2873 127.117C53.7938 127.875 54.4804 128.301 55.1966 128.302H169.921C170.637 128.301 171.324 127.875 171.83 127.117C172.337 126.36 172.621 125.333 172.622 124.261V100.512C172.622 99.4406 172.337 98.4131 171.83 97.6553C171.324 96.8975 170.637 96.4713 169.921 96.47H55.1966Z" fill="#292A2E"/>
<path d="M178.775 39.8673V45.2961H46.6563V39.8673C46.6563 38.4365 47.2247 37.0643 48.2364 36.0525C49.2482 35.0408 50.6204 34.4724 52.0512 34.4724H173.38C174.811 34.4724 176.183 35.0408 177.195 36.0525C178.207 37.0643 178.775 38.4365 178.775 39.8673Z" fill="#292A2E"/>
<path d="M168.908 89.4107L167.342 86.9042L164.809 88.4268L169.46 69.0508L173.559 70.0346L168.908 89.4107Z" fill="#367CFF"/>
<path d="M168.908 89.5905C168.878 89.5905 168.848 89.5827 168.821 89.5679C168.794 89.5531 168.772 89.5318 168.756 89.5059L167.283 87.1502L164.902 88.5818C164.871 88.6001 164.836 88.609 164.801 88.6074C164.765 88.6057 164.731 88.5937 164.703 88.5728C164.674 88.5518 164.652 88.5229 164.64 88.4896C164.628 88.4564 164.626 88.4202 164.634 88.3858L169.285 69.0096C169.296 68.9634 169.325 68.9236 169.365 68.8987C169.406 68.8738 169.454 68.8659 169.5 68.8767L173.601 69.8607C173.624 69.8662 173.645 69.8762 173.664 69.8901C173.683 69.904 173.7 69.9215 173.712 69.9416C173.724 69.9618 173.733 69.9841 173.736 70.0075C173.74 70.0308 173.739 70.0546 173.734 70.0776L169.083 89.4527C169.075 89.4871 169.056 89.5183 169.03 89.5424C169.004 89.5665 168.972 89.5824 168.937 89.5881C168.928 89.5897 168.918 89.5905 168.908 89.5905ZM167.342 86.7243C167.372 86.7243 167.402 86.732 167.429 86.7468C167.456 86.7616 167.478 86.783 167.494 86.8088L168.833 88.9517L173.341 70.1675L169.592 69.2684L165.084 88.0517L167.249 86.75C167.277 86.7334 167.309 86.7247 167.342 86.7249V86.7243Z" fill="#292A2E"/>
<path d="M174.408 89.4107L175.974 86.9042L178.507 88.4268L173.856 69.0508L169.757 70.0346L174.408 89.4107Z" fill="#367CFF"/>
<path d="M174.408 89.5905C174.398 89.5905 174.388 89.5898 174.379 89.5882C174.344 89.5825 174.311 89.5666 174.285 89.5425C174.259 89.5184 174.241 89.4872 174.233 89.4528L169.583 70.0768C169.578 70.0538 169.577 70.03 169.58 70.0066C169.584 69.9833 169.592 69.9609 169.605 69.9408C169.617 69.9206 169.633 69.9031 169.652 69.8893C169.671 69.8754 169.693 69.8654 169.716 69.8599L173.816 68.8758C173.862 68.8648 173.911 68.8725 173.952 68.8974C173.993 68.9224 174.022 68.9624 174.033 69.0087L178.682 88.3849C178.691 88.4194 178.689 88.4555 178.676 88.4887C178.664 88.522 178.642 88.5508 178.614 88.5718C178.585 88.5927 178.551 88.6048 178.516 88.6064C178.48 88.608 178.445 88.5992 178.415 88.581L176.033 87.1493L174.561 89.5051C174.545 89.5312 174.522 89.5528 174.495 89.5678C174.469 89.5827 174.438 89.5906 174.408 89.5905ZM169.974 70.1676L174.482 88.9518L175.821 86.8089C175.846 86.7689 175.886 86.7403 175.932 86.7293C175.978 86.7183 176.026 86.7258 176.066 86.7501L178.232 88.0517L173.723 69.2675L169.974 70.1676Z" fill="#292A2E"/>
<path d="M182.163 72.7724C182.163 73.8407 180.822 74.6843 180.509 75.6484C180.185 76.6477 180.762 78.1162 180.157 78.9479C179.545 79.7879 177.966 79.689 177.126 80.3002C176.294 80.9056 175.903 82.4415 174.905 82.7659C173.941 83.079 172.726 82.0763 171.658 82.0763C170.589 82.0763 169.374 83.079 168.41 82.7659C167.411 82.4422 167.021 80.9056 166.189 80.3002C165.349 79.6888 163.77 79.7877 163.158 78.9477C162.553 78.116 163.131 76.6475 162.807 75.6484C162.493 74.6843 161.152 73.8407 161.152 72.7724C161.152 71.704 162.493 70.8604 162.807 69.8963C163.13 68.897 162.553 67.4285 163.158 66.5968C163.77 65.7568 165.349 65.8557 166.189 65.2443C167.021 64.639 167.412 63.1031 168.411 62.7786C169.375 62.4657 170.589 63.4685 171.658 63.4685C172.726 63.4685 173.941 62.4657 174.905 62.7786C175.904 63.1032 176.295 64.6392 177.126 65.2445C177.966 65.8559 179.546 65.7568 180.157 66.5968C180.762 67.4285 180.184 68.897 180.509 69.8963C180.822 70.8604 182.163 71.7038 182.163 72.7724Z" fill="#0CBC8B"/>
<path d="M174.503 83.0062C174.029 83.0062 173.53 82.813 173.044 82.6249C172.576 82.4436 172.091 82.2561 171.658 82.2561C171.225 82.2561 170.74 82.4436 170.271 82.6249C169.626 82.8747 168.958 83.1329 168.355 82.9369C167.723 82.7315 167.328 82.1151 166.946 81.5188C166.672 81.0901 166.412 80.6849 166.083 80.4457C165.748 80.2021 165.256 80.0726 164.781 79.9474C164.101 79.7676 163.398 79.5833 163.013 79.0537C162.632 78.5302 162.671 77.8083 162.71 77.1102C162.737 76.6159 162.765 76.1046 162.635 75.704C162.513 75.3263 162.212 74.9604 161.893 74.5725C161.441 74.0213 160.972 73.4512 160.972 72.7724C160.972 72.0935 161.44 71.5234 161.893 70.9721C162.212 70.5844 162.513 70.218 162.635 69.8408C162.766 69.4401 162.737 68.9287 162.71 68.4343C162.672 67.7362 162.632 67.0136 163.013 66.4911C163.398 65.9613 164.101 65.7762 164.781 65.5973C165.256 65.4714 165.748 65.3427 166.083 65.0988C166.412 64.8596 166.671 64.4545 166.946 64.0258C167.328 63.4296 167.723 62.813 168.355 62.6076C168.96 62.412 169.626 62.67 170.272 62.9196C170.74 63.1011 171.225 63.2886 171.658 63.2886C172.091 63.2886 172.575 63.1011 173.045 62.9196C173.69 62.67 174.357 62.4118 174.961 62.6076C175.593 62.8132 175.988 63.4296 176.37 64.0259C176.644 64.4547 176.904 64.8596 177.233 65.099C177.568 65.3427 178.06 65.4721 178.535 65.5973C179.215 65.7771 179.918 65.9615 180.303 66.4911C180.684 67.0145 180.645 67.7362 180.606 68.4343C180.579 68.9288 180.551 69.4401 180.681 69.8408C180.803 70.2184 181.104 70.5844 181.423 70.9723C181.876 71.5234 182.344 72.0935 182.344 72.7724C182.344 73.4512 181.876 74.0213 181.423 74.5725C181.104 74.9604 180.803 75.3267 180.681 75.704C180.551 76.1046 180.579 76.6159 180.606 77.1104C180.644 77.8085 180.684 78.5302 180.303 79.0537C179.918 79.5833 179.215 79.7683 178.535 79.9474C178.06 80.0733 177.568 80.2021 177.233 80.4457C176.904 80.6851 176.645 81.0901 176.37 81.5188C175.988 82.1151 175.593 82.7317 174.96 82.9369C174.813 82.984 174.658 83.0073 174.503 83.0062ZM171.658 81.8964C172.158 81.8964 172.675 82.0964 173.174 82.2895C173.788 82.5271 174.367 82.7515 174.849 82.5952C175.359 82.4296 175.703 81.8939 176.067 81.3251C176.347 80.8872 176.637 80.4344 177.02 80.1562C177.409 79.8726 177.934 79.7345 178.442 79.6009C179.089 79.4304 179.701 79.2693 180.011 78.8433C180.317 78.4233 180.282 77.7959 180.245 77.1314C180.216 76.604 180.186 76.0586 180.337 75.5941C180.48 75.1521 180.817 74.742 181.143 74.3455C181.555 73.8432 181.982 73.3237 181.982 72.7736C181.982 72.2235 181.555 71.704 181.143 71.2017C180.817 70.8061 180.48 70.395 180.337 69.953C180.186 69.4887 180.216 68.9432 180.245 68.4158C180.281 67.7515 180.317 67.1239 180.011 66.704C179.701 66.278 179.09 66.1168 178.442 65.9463C177.935 65.8127 177.41 65.6744 177.02 65.391C176.637 65.1119 176.347 64.6591 176.067 64.2211C175.703 63.6531 175.36 63.1167 174.85 62.9511C174.367 62.7945 173.789 63.0189 173.174 63.2568C172.675 63.4499 172.159 63.6499 171.658 63.6499C171.158 63.6499 170.641 63.4499 170.142 63.2566C169.528 63.0191 168.948 62.7946 168.466 62.9509C167.956 63.1165 167.613 63.6531 167.249 64.2211C166.969 64.6589 166.679 65.1118 166.296 65.391C165.907 65.6744 165.382 65.8127 164.874 65.9463C164.227 66.1168 163.615 66.2778 163.305 66.7038C162.999 67.1237 163.034 67.7513 163.071 68.4156C163.1 68.9432 163.13 69.4885 162.979 69.953C162.836 70.395 162.499 70.8052 162.173 71.2017C161.76 71.704 161.334 72.2233 161.334 72.7736C161.334 73.3239 161.761 73.8432 162.173 74.3455C162.499 74.7411 162.836 75.1521 162.979 75.5941C163.13 76.0586 163.1 76.604 163.071 77.1313C163.035 77.7957 162.999 78.4233 163.305 78.8433C163.615 79.2693 164.227 79.4302 164.874 79.6009C165.382 79.7345 165.907 79.8726 166.296 80.1562C166.68 80.4353 166.97 80.8881 167.249 81.3251C167.613 81.8932 167.956 82.4296 168.466 82.5952C168.948 82.7515 169.527 82.5274 170.142 82.2895C170.641 82.0964 171.157 81.8964 171.658 81.8964Z" fill="#292A2E"/>
<path d="M171.658 77.4316C174.231 77.4316 176.317 75.3456 176.317 72.7724C176.317 70.1992 174.231 68.1132 171.658 68.1132C169.085 68.1132 166.999 70.1992 166.999 72.7724C166.999 75.3456 169.085 77.4316 171.658 77.4316Z" fill="white"/>
<path d="M171.658 77.6114C170.701 77.6114 169.765 77.3276 168.969 76.7959C168.174 76.2642 167.553 75.5084 167.187 74.6242C166.821 73.74 166.725 72.767 166.912 71.8283C167.099 70.8896 167.559 70.0274 168.236 69.3506C168.913 68.6739 169.775 68.213 170.714 68.0263C171.653 67.8396 172.626 67.9354 173.51 68.3016C174.394 68.6679 175.15 69.2881 175.681 70.0839C176.213 70.8797 176.497 71.8153 176.497 72.7724C176.496 74.0553 175.985 75.2853 175.078 76.1925C174.171 77.0997 172.941 77.61 171.658 77.6114ZM171.658 68.293C170.772 68.293 169.906 68.5557 169.169 69.0479C168.433 69.5401 167.859 70.2397 167.519 71.0582C167.18 71.8767 167.092 72.7773 167.265 73.6462C167.437 74.5152 167.864 75.3133 168.491 75.9398C169.117 76.5662 169.915 76.9928 170.784 77.1657C171.653 77.3385 172.554 77.2498 173.372 76.9108C174.191 76.5717 174.89 75.9976 175.382 75.261C175.875 74.5243 176.137 73.6583 176.137 72.7724C176.136 71.5846 175.664 70.4459 174.824 69.6059C173.984 68.766 172.846 68.2936 171.658 68.2922V68.293Z" fill="#292A2E"/>
<g clip-path="url(#clip0_19_536)">
<path d="M155.35 59.04C155.014 57.3377 154.098 55.8049 152.757 54.7032C151.417 53.6016 149.735 52.9996 148 53C145.11 53 142.6 54.64 141.35 57.04C139.88 57.1988 138.521 57.8952 137.533 58.9953C136.546 60.0954 136 61.5217 136 63C136 66.31 138.69 69 142 69H155C157.76 69 160 66.76 160 64C160 61.36 157.95 59.22 155.35 59.04ZM150 62V66H146V62H143L148 57L153 62H150Z" fill="black"/>
</g>
<defs>
<linearGradient id="paint0_linear_19_536" x1="118" y1="0" x2="118" y2="310" gradientUnits="userSpaceOnUse">
<stop stop-color="white" stop-opacity="0"/>
<stop offset="0.619792" stop-color="#5F4FC1"/>
</linearGradient>
<clipPath id="clip0_19_536">
<rect width="24" height="24" fill="white" transform="translate(136 49)"/>
</clipPath>
</defs>
</svg>
