<svg width="236" height="310" viewBox="0 0 236 310" fill="none" xmlns="http://www.w3.org/2000/svg">
<rect width="236" height="310" rx="10" fill="url(#paint0_linear_19_108)"/>
<path d="M29.2642 219V204.455H35.0028C36.1061 204.455 37.0459 204.665 37.8224 205.087C38.599 205.503 39.1908 206.083 39.598 206.827C40.0099 207.565 40.2159 208.418 40.2159 209.384C40.2159 210.349 40.0076 211.202 39.5909 211.94C39.1742 212.679 38.5705 213.254 37.7798 213.666C36.9938 214.078 36.0421 214.284 34.9247 214.284H31.267V211.82H34.4276C35.0194 211.82 35.5071 211.718 35.8906 211.514C36.2789 211.306 36.5677 211.019 36.7571 210.655C36.9512 210.286 37.0483 209.862 37.0483 209.384C37.0483 208.901 36.9512 208.479 36.7571 208.119C36.5677 207.755 36.2789 207.473 35.8906 207.274C35.5024 207.071 35.0099 206.969 34.4134 206.969H32.3395V219H29.2642ZM51.1978 204.455H54.2731V213.901C54.2731 214.961 54.0198 215.889 53.5131 216.685C53.0112 217.48 52.3081 218.1 51.4038 218.545C50.4994 218.986 49.4459 219.206 48.2433 219.206C47.0359 219.206 45.98 218.986 45.0756 218.545C44.1713 218.1 43.4682 217.48 42.9663 216.685C42.4644 215.889 42.2134 214.961 42.2134 213.901V204.455H45.2887V213.638C45.2887 214.192 45.4094 214.684 45.6509 215.115C45.8971 215.546 46.2428 215.884 46.6879 216.131C47.1329 216.377 47.6514 216.5 48.2433 216.5C48.8398 216.5 49.3583 216.377 49.7987 216.131C50.2437 215.884 50.587 215.546 50.8285 215.115C51.0747 214.684 51.1978 214.192 51.1978 213.638V204.455ZM56.2493 206.99V204.455H68.1953V206.99H63.7422V219H60.7024V206.99H56.2493ZM78.0657 219L73.9038 204.455H77.2631L79.6708 214.561H79.7915L82.4478 204.455H85.3242L87.9734 214.582H88.1012L90.5089 204.455H93.8683L89.7063 219H86.7092L83.9393 209.49H83.8256L81.0629 219H78.0657ZM95.5142 219V204.455H105.315V206.99H98.5895V210.456H104.811V212.991H98.5895V216.464H105.344V219H95.5142ZM107.76 219V204.455H113.584C114.654 204.455 115.547 204.613 116.262 204.93C116.977 205.248 117.514 205.688 117.874 206.251C118.234 206.81 118.414 207.454 118.414 208.183C118.414 208.751 118.3 209.251 118.073 209.682C117.846 210.108 117.533 210.458 117.135 210.733C116.742 211.003 116.292 211.195 115.786 211.308V211.45C116.34 211.474 116.858 211.63 117.341 211.919C117.829 212.208 118.224 212.613 118.527 213.134C118.83 213.65 118.982 214.265 118.982 214.98C118.982 215.752 118.79 216.441 118.407 217.047C118.028 217.648 117.467 218.124 116.723 218.474C115.98 218.825 115.064 219 113.975 219H107.76ZM110.836 216.486H113.343C114.2 216.486 114.825 216.322 115.218 215.996C115.611 215.664 115.807 215.224 115.807 214.675C115.807 214.272 115.71 213.917 115.516 213.609C115.322 213.302 115.045 213.06 114.685 212.885C114.33 212.71 113.906 212.622 113.414 212.622H110.836V216.486ZM110.836 210.541H113.115C113.537 210.541 113.911 210.468 114.238 210.321C114.569 210.17 114.829 209.956 115.019 209.682C115.213 209.407 115.31 209.078 115.31 208.695C115.31 208.169 115.123 207.745 114.749 207.423C114.38 207.101 113.854 206.94 113.172 206.94H110.836V210.541ZM128.874 208.638C128.817 208.065 128.573 207.62 128.142 207.303C127.711 206.985 127.126 206.827 126.388 206.827C125.886 206.827 125.462 206.898 125.116 207.04C124.771 207.177 124.506 207.369 124.321 207.615C124.141 207.861 124.051 208.141 124.051 208.453C124.042 208.714 124.096 208.941 124.214 209.135C124.338 209.329 124.506 209.497 124.719 209.639C124.932 209.777 125.178 209.897 125.457 210.001C125.737 210.101 126.035 210.186 126.352 210.257L127.659 210.57C128.294 210.712 128.876 210.901 129.406 211.138C129.937 211.375 130.396 211.666 130.784 212.011C131.172 212.357 131.473 212.764 131.686 213.233C131.904 213.702 132.015 214.239 132.02 214.845C132.015 215.735 131.788 216.507 131.338 217.161C130.893 217.809 130.249 218.313 129.406 218.673C128.568 219.028 127.557 219.206 126.374 219.206C125.199 219.206 124.177 219.026 123.305 218.666C122.439 218.306 121.762 217.774 121.274 217.068C120.791 216.358 120.538 215.48 120.514 214.433H123.49C123.523 214.921 123.663 215.328 123.909 215.655C124.16 215.977 124.494 216.221 124.911 216.386C125.332 216.547 125.808 216.628 126.338 216.628C126.859 216.628 127.311 216.552 127.695 216.401C128.083 216.249 128.384 216.038 128.597 215.768C128.81 215.499 128.916 215.188 128.916 214.838C128.916 214.511 128.819 214.237 128.625 214.014C128.436 213.792 128.156 213.602 127.787 213.446C127.422 213.29 126.975 213.148 126.445 213.02L124.861 212.622C123.634 212.324 122.666 211.857 121.956 211.223C121.246 210.589 120.893 209.734 120.898 208.659C120.893 207.778 121.127 207.009 121.601 206.351C122.079 205.693 122.735 205.179 123.568 204.81C124.402 204.44 125.348 204.256 126.409 204.256C127.489 204.256 128.431 204.44 129.236 204.81C130.045 205.179 130.675 205.693 131.125 206.351C131.575 207.009 131.807 207.771 131.821 208.638H128.874ZM137.164 204.455V219H134.088V204.455H137.164ZM139.14 206.99V204.455H151.086V206.99H146.633V219H143.593V206.99H139.14ZM153.053 219V204.455H162.854V206.99H156.129V210.456H162.35V212.991H156.129V216.464H162.883V219H153.053ZM178.913 204.455H181.988V213.901C181.988 214.961 181.735 215.889 181.228 216.685C180.726 217.48 180.023 218.1 179.119 218.545C178.214 218.986 177.161 219.206 175.958 219.206C174.751 219.206 173.695 218.986 172.79 218.545C171.886 218.1 171.183 217.48 170.681 216.685C170.179 215.889 169.928 214.961 169.928 213.901V204.455H173.004V213.638C173.004 214.192 173.124 214.684 173.366 215.115C173.612 215.546 173.958 215.884 174.403 216.131C174.848 216.377 175.366 216.5 175.958 216.5C176.555 216.5 177.073 216.377 177.513 216.131C177.959 215.884 178.302 215.546 178.543 215.115C178.79 214.684 178.913 214.192 178.913 213.638V204.455ZM184.518 219V204.455H190.257C191.355 204.455 192.293 204.651 193.069 205.044C193.85 205.432 194.445 205.984 194.852 206.699C195.264 207.409 195.47 208.245 195.47 209.206C195.47 210.172 195.261 211.003 194.845 211.699C194.428 212.39 193.824 212.92 193.034 213.29C192.248 213.659 191.296 213.844 190.179 213.844H186.336V211.372H189.681C190.269 211.372 190.756 211.292 191.145 211.131C191.533 210.97 191.822 210.728 192.011 210.406C192.205 210.084 192.302 209.684 192.302 209.206C192.302 208.723 192.205 208.316 192.011 207.984C191.822 207.653 191.53 207.402 191.137 207.232C190.749 207.056 190.259 206.969 189.667 206.969H187.593V219H184.518ZM192.373 212.381L195.988 219H192.593L189.056 212.381H192.373ZM197.643 219V204.455H200.718V216.464H206.954V219H197.643Z" fill="white"/>
<path d="M28.7401 248L25.5526 236.364H26.6321L29.2685 246.369H29.3594L31.9957 236.364H33.223L35.8594 246.369H35.9503L38.5866 236.364H39.6719L36.4844 248H35.348L32.6491 238.131H32.5753L29.8764 248H28.7401ZM44.098 248.182C43.2836 248.182 42.5791 247.992 41.9844 247.614C41.3897 247.231 40.9295 246.703 40.6037 246.028C40.2817 245.35 40.1207 244.57 40.1207 243.688C40.1207 242.809 40.2817 242.028 40.6037 241.347C40.9295 240.661 41.3783 240.125 41.9503 239.739C42.526 239.348 43.1908 239.153 43.9446 239.153C44.4181 239.153 44.8745 239.241 45.3139 239.415C45.7533 239.585 46.1473 239.848 46.4957 240.205C46.848 240.557 47.1264 241.002 47.331 241.54C47.5355 242.074 47.6378 242.706 47.6378 243.438V243.938H40.8196V243.045H46.6037C46.6037 242.485 46.4901 241.981 46.2628 241.534C46.0393 241.083 45.7268 240.727 45.3253 240.466C44.9276 240.205 44.4673 240.074 43.9446 240.074C43.3916 240.074 42.9048 240.222 42.4844 240.517C42.0639 240.812 41.7344 241.203 41.4957 241.688C41.2609 242.172 41.1416 242.703 41.1378 243.278V243.812C41.1378 244.506 41.2571 245.112 41.4957 245.631C41.7382 246.146 42.081 246.545 42.5241 246.83C42.9673 247.114 43.492 247.256 44.098 247.256C44.5109 247.256 44.8726 247.191 45.1832 247.062C45.4976 246.934 45.7609 246.761 45.973 246.545C46.1889 246.326 46.3518 246.085 46.4616 245.824L47.4219 246.136C47.2893 246.504 47.0715 246.843 46.7685 247.153C46.4692 247.464 46.0942 247.714 45.6435 247.903C45.1965 248.089 44.6813 248.182 44.098 248.182ZM56.304 248L53.6676 239.273H54.7358L56.804 246.472H56.8778L58.9403 239.273H60.0142L62.0597 246.455H62.1392L64.2074 239.273H65.2756L62.6392 248H61.5938L59.5256 240.847H59.4176L57.3494 248H56.304ZM67.2528 248V239.273H68.2699V248H67.2528ZM67.7699 237.773C67.5616 237.773 67.3835 237.703 67.2358 237.562C67.0881 237.419 67.0142 237.246 67.0142 237.045C67.0142 236.845 67.0881 236.674 67.2358 236.534C67.3835 236.39 67.5616 236.318 67.7699 236.318C67.9782 236.318 68.1563 236.39 68.304 236.534C68.4517 236.674 68.5256 236.845 68.5256 237.045C68.5256 237.246 68.4517 237.419 68.304 237.562C68.1563 237.703 67.9782 237.773 67.7699 237.773ZM71.956 236.364V248H70.9446V236.364H71.956ZM75.6435 236.364V248H74.6321V236.364H75.6435ZM86.1491 251.455C85.5545 251.455 85.0336 251.377 84.5866 251.222C84.1397 251.07 83.7628 250.862 83.456 250.597C83.1491 250.331 82.9105 250.034 82.7401 249.705L83.5696 249.159C83.6946 249.379 83.8613 249.595 84.0696 249.807C84.2817 250.019 84.5563 250.195 84.8935 250.335C85.2344 250.475 85.6529 250.545 86.1491 250.545C86.9219 250.545 87.545 250.352 88.0185 249.966C88.4957 249.58 88.7344 248.979 88.7344 248.165V246.199H88.6435C88.526 246.464 88.3575 246.729 88.1378 246.994C87.9181 247.256 87.6302 247.473 87.2741 247.648C86.9219 247.822 86.4844 247.909 85.9616 247.909C85.2647 247.909 84.6454 247.737 84.1037 247.392C83.5658 247.047 83.1416 246.555 82.831 245.915C82.5241 245.271 82.3707 244.504 82.3707 243.614C82.3707 242.731 82.5204 241.955 82.8196 241.284C83.1226 240.614 83.545 240.091 84.0866 239.716C84.6283 239.341 85.259 239.153 85.9787 239.153C86.5128 239.153 86.956 239.248 87.3082 239.438C87.6605 239.623 87.9427 239.854 88.1548 240.131C88.3707 240.407 88.5393 240.676 88.6605 240.938H88.7628V239.273H89.7514V248.227C89.7514 248.966 89.5942 249.574 89.2798 250.051C88.9654 250.528 88.5374 250.881 87.9957 251.108C87.4541 251.339 86.8385 251.455 86.1491 251.455ZM86.081 246.983C86.6416 246.983 87.1207 246.848 87.5185 246.58C87.9162 246.307 88.2211 245.917 88.4332 245.409C88.6454 244.902 88.7514 244.297 88.7514 243.597C88.7514 242.915 88.6473 242.311 88.4389 241.784C88.2306 241.254 87.9276 240.837 87.5298 240.534C87.1359 240.227 86.6529 240.074 86.081 240.074C85.4976 240.074 85.0052 240.231 84.6037 240.545C84.2022 240.86 83.8991 241.284 83.6946 241.818C83.4901 242.348 83.3878 242.941 83.3878 243.597C83.3878 244.263 83.492 244.852 83.7003 245.364C83.9086 245.871 84.2135 246.269 84.6151 246.557C85.0166 246.841 85.5052 246.983 86.081 246.983ZM95.9574 248.182C95.143 248.182 94.4384 247.992 93.8438 247.614C93.2491 247.231 92.7888 246.703 92.4631 246.028C92.1411 245.35 91.9801 244.57 91.9801 243.688C91.9801 242.809 92.1411 242.028 92.4631 241.347C92.7888 240.661 93.2377 240.125 93.8097 239.739C94.3854 239.348 95.0502 239.153 95.804 239.153C96.2775 239.153 96.7339 239.241 97.1733 239.415C97.6127 239.585 98.0066 239.848 98.3551 240.205C98.7074 240.557 98.9858 241.002 99.1903 241.54C99.3949 242.074 99.4972 242.706 99.4972 243.438V243.938H92.679V243.045H98.4631C98.4631 242.485 98.3494 241.981 98.1222 241.534C97.8987 241.083 97.5862 240.727 97.1847 240.466C96.7869 240.205 96.3267 240.074 95.804 240.074C95.2509 240.074 94.7642 240.222 94.3438 240.517C93.9233 240.812 93.5938 241.203 93.3551 241.688C93.1203 242.172 93.0009 242.703 92.9972 243.278V243.812C92.9972 244.506 93.1165 245.112 93.3551 245.631C93.5975 246.146 93.9403 246.545 94.3835 246.83C94.8267 247.114 95.3513 247.256 95.9574 247.256C96.3703 247.256 96.732 247.191 97.0426 247.062C97.357 246.934 97.6203 246.761 97.8324 246.545C98.0483 246.326 98.2112 246.085 98.321 245.824L99.2812 246.136C99.1487 246.504 98.9309 246.843 98.6278 247.153C98.3286 247.464 97.9536 247.714 97.5028 247.903C97.0559 248.089 96.5407 248.182 95.9574 248.182ZM102.737 242.545V248H101.726V239.273H102.709V240.642H102.8C103.004 240.195 103.322 239.837 103.754 239.568C104.19 239.295 104.728 239.159 105.368 239.159C105.955 239.159 106.47 239.282 106.913 239.528C107.36 239.771 107.707 240.129 107.953 240.602C108.203 241.076 108.328 241.657 108.328 242.347V248H107.317V242.409C107.317 241.693 107.116 241.127 106.714 240.71C106.317 240.294 105.783 240.085 105.112 240.085C104.654 240.085 104.247 240.184 103.891 240.381C103.535 240.578 103.252 240.862 103.044 241.233C102.839 241.6 102.737 242.038 102.737 242.545ZM114.52 248.182C113.705 248.182 113.001 247.992 112.406 247.614C111.812 247.231 111.351 246.703 111.026 246.028C110.704 245.35 110.543 244.57 110.543 243.688C110.543 242.809 110.704 242.028 111.026 241.347C111.351 240.661 111.8 240.125 112.372 239.739C112.948 239.348 113.613 239.153 114.366 239.153C114.84 239.153 115.296 239.241 115.736 239.415C116.175 239.585 116.569 239.848 116.918 240.205C117.27 240.557 117.548 241.002 117.753 241.54C117.957 242.074 118.06 242.706 118.06 243.438V243.938H111.241V243.045H117.026C117.026 242.485 116.912 241.981 116.685 241.534C116.461 241.083 116.149 240.727 115.747 240.466C115.349 240.205 114.889 240.074 114.366 240.074C113.813 240.074 113.327 240.222 112.906 240.517C112.486 240.812 112.156 241.203 111.918 241.688C111.683 242.172 111.563 242.703 111.56 243.278V243.812C111.56 244.506 111.679 245.112 111.918 245.631C112.16 246.146 112.503 246.545 112.946 246.83C113.389 247.114 113.914 247.256 114.52 247.256C114.933 247.256 115.295 247.191 115.605 247.062C115.92 246.934 116.183 246.761 116.395 246.545C116.611 246.326 116.774 246.085 116.884 245.824L117.844 246.136C117.711 246.504 117.493 246.843 117.19 247.153C116.891 247.464 116.516 247.714 116.065 247.903C115.618 248.089 115.103 248.182 114.52 248.182ZM120.288 248V239.273H121.271V240.614H121.345C121.519 240.174 121.822 239.82 122.254 239.551C122.69 239.278 123.182 239.142 123.732 239.142C123.815 239.142 123.908 239.144 124.01 239.148C124.112 239.152 124.197 239.155 124.266 239.159V240.188C124.22 240.18 124.141 240.169 124.027 240.153C123.913 240.138 123.79 240.131 123.658 240.131C123.203 240.131 122.798 240.227 122.442 240.42C122.089 240.61 121.811 240.873 121.607 241.21C121.402 241.547 121.3 241.932 121.3 242.364V248H120.288ZM128.429 248.199C127.902 248.199 127.421 248.097 126.986 247.892C126.55 247.684 126.204 247.384 125.946 246.994C125.688 246.6 125.56 246.123 125.56 245.562C125.56 245.131 125.641 244.767 125.804 244.472C125.967 244.176 126.198 243.934 126.497 243.744C126.796 243.555 127.151 243.405 127.56 243.295C127.969 243.186 128.42 243.1 128.912 243.04C129.401 242.979 129.813 242.926 130.151 242.881C130.491 242.835 130.751 242.763 130.929 242.665C131.107 242.566 131.196 242.407 131.196 242.188V241.983C131.196 241.388 131.018 240.92 130.662 240.58C130.31 240.235 129.802 240.062 129.139 240.062C128.51 240.062 127.997 240.201 127.599 240.477C127.205 240.754 126.929 241.08 126.77 241.455L125.81 241.108C126.007 240.631 126.279 240.25 126.628 239.966C126.976 239.678 127.366 239.472 127.798 239.347C128.23 239.218 128.668 239.153 129.111 239.153C129.444 239.153 129.791 239.197 130.151 239.284C130.514 239.371 130.851 239.523 131.162 239.739C131.473 239.951 131.724 240.248 131.918 240.631C132.111 241.009 132.207 241.491 132.207 242.074V248H131.196V246.619H131.134C131.012 246.877 130.832 247.127 130.594 247.369C130.355 247.612 130.056 247.811 129.696 247.966C129.336 248.121 128.914 248.199 128.429 248.199ZM128.565 247.273C129.103 247.273 129.569 247.153 129.963 246.915C130.357 246.676 130.66 246.36 130.872 245.966C131.088 245.568 131.196 245.131 131.196 244.653V243.392C131.12 243.464 130.993 243.528 130.815 243.585C130.641 243.642 130.438 243.693 130.207 243.739C129.98 243.78 129.753 243.816 129.526 243.847C129.298 243.877 129.094 243.903 128.912 243.926C128.42 243.987 127.999 244.081 127.651 244.21C127.302 244.339 127.035 244.517 126.849 244.744C126.664 244.968 126.571 245.256 126.571 245.608C126.571 246.138 126.76 246.549 127.139 246.841C127.518 247.129 127.993 247.273 128.565 247.273ZM138.335 239.273V240.153H134.17V239.273H138.335ZM135.472 237.182H136.489V245.722C136.489 246.085 136.551 246.371 136.676 246.58C136.801 246.784 136.964 246.93 137.165 247.017C137.366 247.1 137.58 247.142 137.807 247.142C137.939 247.142 138.053 247.134 138.148 247.119C138.242 247.1 138.326 247.081 138.398 247.062L138.614 247.977C138.515 248.015 138.394 248.049 138.25 248.08C138.106 248.114 137.928 248.131 137.716 248.131C137.345 248.131 136.987 248.049 136.642 247.886C136.301 247.723 136.021 247.481 135.801 247.159C135.581 246.837 135.472 246.438 135.472 245.96V237.182ZM144.067 248.182C143.252 248.182 142.548 247.992 141.953 247.614C141.358 247.231 140.898 246.703 140.572 246.028C140.25 245.35 140.089 244.57 140.089 243.688C140.089 242.809 140.25 242.028 140.572 241.347C140.898 240.661 141.347 240.125 141.919 239.739C142.495 239.348 143.16 239.153 143.913 239.153C144.387 239.153 144.843 239.241 145.283 239.415C145.722 239.585 146.116 239.848 146.464 240.205C146.817 240.557 147.095 241.002 147.3 241.54C147.504 242.074 147.607 242.706 147.607 243.438V243.938H140.788V243.045H146.572C146.572 242.485 146.459 241.981 146.232 241.534C146.008 241.083 145.696 240.727 145.294 240.466C144.896 240.205 144.436 240.074 143.913 240.074C143.36 240.074 142.874 240.222 142.453 240.517C142.033 240.812 141.703 241.203 141.464 241.688C141.23 242.172 141.11 242.703 141.107 243.278V243.812C141.107 244.506 141.226 245.112 141.464 245.631C141.707 246.146 142.05 246.545 142.493 246.83C142.936 247.114 143.461 247.256 144.067 247.256C144.48 247.256 144.841 247.191 145.152 247.062C145.466 246.934 145.73 246.761 145.942 246.545C146.158 246.326 146.321 246.085 146.43 245.824L147.391 246.136C147.258 246.504 147.04 246.843 146.737 247.153C146.438 247.464 146.063 247.714 145.612 247.903C145.165 248.089 144.65 248.182 144.067 248.182ZM156.773 248.199C156.246 248.199 155.765 248.097 155.33 247.892C154.894 247.684 154.547 247.384 154.29 246.994C154.032 246.6 153.903 246.123 153.903 245.562C153.903 245.131 153.985 244.767 154.148 244.472C154.311 244.176 154.542 243.934 154.841 243.744C155.14 243.555 155.494 243.405 155.903 243.295C156.313 243.186 156.763 243.1 157.256 243.04C157.744 242.979 158.157 242.926 158.494 242.881C158.835 242.835 159.095 242.763 159.273 242.665C159.451 242.566 159.54 242.407 159.54 242.188V241.983C159.54 241.388 159.362 240.92 159.006 240.58C158.653 240.235 158.146 240.062 157.483 240.062C156.854 240.062 156.341 240.201 155.943 240.477C155.549 240.754 155.273 241.08 155.114 241.455L154.153 241.108C154.35 240.631 154.623 240.25 154.972 239.966C155.32 239.678 155.71 239.472 156.142 239.347C156.574 239.218 157.011 239.153 157.455 239.153C157.788 239.153 158.134 239.197 158.494 239.284C158.858 239.371 159.195 239.523 159.506 239.739C159.816 239.951 160.068 240.248 160.261 240.631C160.455 241.009 160.551 241.491 160.551 242.074V248H159.54V246.619H159.477C159.356 246.877 159.176 247.127 158.938 247.369C158.699 247.612 158.4 247.811 158.04 247.966C157.68 248.121 157.258 248.199 156.773 248.199ZM156.909 247.273C157.447 247.273 157.913 247.153 158.307 246.915C158.701 246.676 159.004 246.36 159.216 245.966C159.432 245.568 159.54 245.131 159.54 244.653V243.392C159.464 243.464 159.337 243.528 159.159 243.585C158.985 243.642 158.782 243.693 158.551 243.739C158.324 243.78 158.097 243.816 157.869 243.847C157.642 243.877 157.438 243.903 157.256 243.926C156.763 243.987 156.343 244.081 155.994 244.21C155.646 244.339 155.379 244.517 155.193 244.744C155.008 244.968 154.915 245.256 154.915 245.608C154.915 246.138 155.104 246.549 155.483 246.841C155.862 247.129 156.337 247.273 156.909 247.273ZM166.384 248.182C165.668 248.182 165.041 247.992 164.503 247.614C163.965 247.235 163.545 246.706 163.241 246.028C162.942 245.35 162.793 244.561 162.793 243.659C162.793 242.761 162.942 241.975 163.241 241.301C163.545 240.623 163.967 240.097 164.509 239.722C165.05 239.343 165.681 239.153 166.401 239.153C166.931 239.153 167.372 239.248 167.724 239.438C168.077 239.623 168.359 239.854 168.571 240.131C168.783 240.407 168.948 240.676 169.065 240.938H169.156V236.364H170.173V248H169.185V246.381H169.065C168.948 246.646 168.781 246.919 168.565 247.199C168.349 247.475 168.063 247.708 167.707 247.898C167.355 248.087 166.914 248.182 166.384 248.182ZM166.503 247.256C167.067 247.256 167.548 247.102 167.946 246.795C168.344 246.485 168.647 246.059 168.855 245.517C169.067 244.972 169.173 244.347 169.173 243.642C169.173 242.945 169.069 242.33 168.861 241.795C168.652 241.258 168.349 240.837 167.952 240.534C167.554 240.227 167.071 240.074 166.503 240.074C165.92 240.074 165.427 240.233 165.026 240.551C164.628 240.866 164.325 241.292 164.116 241.83C163.912 242.367 163.81 242.972 163.81 243.642C163.81 244.32 163.914 244.932 164.122 245.477C164.33 246.023 164.634 246.456 165.031 246.778C165.433 247.097 165.923 247.256 166.503 247.256ZM178.918 241.188L177.991 241.449C177.901 241.187 177.772 240.951 177.605 240.739C177.438 240.527 177.221 240.358 176.952 240.233C176.687 240.108 176.357 240.045 175.963 240.045C175.372 240.045 174.887 240.186 174.509 240.466C174.13 240.746 173.94 241.108 173.94 241.551C173.94 241.926 174.069 242.231 174.327 242.466C174.588 242.697 174.99 242.881 175.531 243.017L176.849 243.341C177.58 243.519 178.128 243.801 178.491 244.188C178.859 244.574 179.043 245.059 179.043 245.642C179.043 246.134 178.906 246.572 178.634 246.955C178.361 247.337 177.98 247.638 177.491 247.858C177.007 248.074 176.444 248.182 175.804 248.182C174.952 248.182 174.249 247.991 173.696 247.608C173.143 247.222 172.789 246.665 172.634 245.938L173.605 245.699C173.73 246.218 173.974 246.61 174.338 246.875C174.705 247.14 175.188 247.273 175.787 247.273C176.457 247.273 176.993 247.123 177.395 246.824C177.796 246.521 177.997 246.142 177.997 245.688C177.997 245.335 177.88 245.04 177.645 244.801C177.41 244.559 177.054 244.381 176.577 244.267L175.151 243.926C174.393 243.744 173.832 243.456 173.469 243.062C173.105 242.669 172.923 242.18 172.923 241.597C172.923 241.116 173.054 240.693 173.315 240.33C173.577 239.962 173.937 239.674 174.395 239.466C174.853 239.258 175.376 239.153 175.963 239.153C176.762 239.153 177.401 239.335 177.878 239.699C178.359 240.059 178.705 240.555 178.918 241.188ZM189.348 239.273V240.153H185.058V239.273H189.348ZM186.399 248V237.994C186.399 237.525 186.507 237.129 186.723 236.807C186.943 236.485 187.229 236.241 187.581 236.074C187.933 235.907 188.306 235.824 188.7 235.824C188.965 235.824 189.185 235.847 189.359 235.892C189.537 235.934 189.678 235.975 189.78 236.017L189.484 236.903C189.409 236.881 189.316 236.854 189.206 236.824C189.096 236.794 188.958 236.778 188.791 236.778C188.352 236.778 188.013 236.902 187.774 237.148C187.536 237.394 187.416 237.746 187.416 238.205L187.411 248H186.399ZM194.399 248.182C193.645 248.182 192.979 247.991 192.399 247.608C191.823 247.225 191.373 246.697 191.047 246.023C190.721 245.345 190.558 244.562 190.558 243.676C190.558 242.782 190.721 241.996 191.047 241.318C191.373 240.636 191.823 240.106 192.399 239.727C192.979 239.345 193.645 239.153 194.399 239.153C195.153 239.153 195.818 239.345 196.393 239.727C196.969 240.11 197.42 240.64 197.746 241.318C198.075 241.996 198.24 242.782 198.24 243.676C198.24 244.562 198.077 245.345 197.751 246.023C197.426 246.697 196.973 247.225 196.393 247.608C195.818 247.991 195.153 248.182 194.399 248.182ZM194.399 247.256C195.005 247.256 195.518 247.093 195.939 246.767C196.359 246.441 196.678 246.008 196.893 245.466C197.113 244.924 197.223 244.328 197.223 243.676C197.223 243.025 197.113 242.426 196.893 241.881C196.678 241.335 196.359 240.898 195.939 240.568C195.518 240.239 195.005 240.074 194.399 240.074C193.797 240.074 193.284 240.239 192.859 240.568C192.439 240.898 192.119 241.335 191.899 241.881C191.683 242.426 191.575 243.025 191.575 243.676C191.575 244.328 191.683 244.924 191.899 245.466C192.119 246.008 192.439 246.441 192.859 246.767C193.28 247.093 193.793 247.256 194.399 247.256ZM200.46 248V239.273H201.443V240.614H201.517C201.691 240.174 201.994 239.82 202.426 239.551C202.862 239.278 203.354 239.142 203.903 239.142C203.987 239.142 204.08 239.144 204.182 239.148C204.284 239.152 204.369 239.155 204.438 239.159V240.188C204.392 240.18 204.313 240.169 204.199 240.153C204.085 240.138 203.962 240.131 203.83 240.131C203.375 240.131 202.97 240.227 202.614 240.42C202.261 240.61 201.983 240.873 201.778 241.21C201.574 241.547 201.472 241.932 201.472 242.364V248H200.46ZM30.196 267.273C29.9953 267.273 29.8078 267.254 29.6335 267.216C29.4593 267.178 29.321 267.136 29.2188 267.091L29.4915 266.199C29.8362 266.305 30.143 266.343 30.4119 266.312C30.6809 266.286 30.9195 266.165 31.1278 265.949C31.3362 265.737 31.5218 265.411 31.6847 264.972L32.0028 264.085L28.7926 255.273H29.8892L32.4801 262.665H32.5597L35.1506 255.273H36.2472L32.554 265.381C32.3987 265.801 32.2074 266.152 31.9801 266.432C31.7528 266.716 31.4896 266.926 31.1903 267.062C30.8949 267.203 30.5634 267.273 30.196 267.273ZM41.3054 264.182C40.5516 264.182 39.8849 263.991 39.3054 263.608C38.7296 263.225 38.2789 262.697 37.9531 262.023C37.6274 261.345 37.4645 260.562 37.4645 259.676C37.4645 258.782 37.6274 257.996 37.9531 257.318C38.2789 256.636 38.7296 256.106 39.3054 255.727C39.8849 255.345 40.5516 255.153 41.3054 255.153C42.0592 255.153 42.724 255.345 43.2997 255.727C43.8755 256.11 44.3262 256.64 44.652 257.318C44.9815 257.996 45.1463 258.782 45.1463 259.676C45.1463 260.562 44.9834 261.345 44.6577 262.023C44.3319 262.697 43.8793 263.225 43.2997 263.608C42.724 263.991 42.0592 264.182 41.3054 264.182ZM41.3054 263.256C41.9115 263.256 42.4247 263.093 42.8452 262.767C43.2656 262.441 43.5838 262.008 43.7997 261.466C44.0194 260.924 44.1293 260.328 44.1293 259.676C44.1293 259.025 44.0194 258.426 43.7997 257.881C43.5838 257.335 43.2656 256.898 42.8452 256.568C42.4247 256.239 41.9115 256.074 41.3054 256.074C40.7031 256.074 40.1899 256.239 39.7656 256.568C39.3452 256.898 39.0251 257.335 38.8054 257.881C38.5895 258.426 38.4815 259.025 38.4815 259.676C38.4815 260.328 38.5895 260.924 38.8054 261.466C39.0251 262.008 39.3452 262.441 39.7656 262.767C40.1861 263.093 40.6993 263.256 41.3054 263.256ZM52.9119 260.665V255.273H53.9233V264H52.9119V262.551H52.8324C52.6278 262.998 52.304 263.371 51.8608 263.67C51.4176 263.966 50.8759 264.114 50.2358 264.114C49.679 264.114 49.1847 263.992 48.7528 263.75C48.321 263.504 47.982 263.144 47.7358 262.67C47.4896 262.197 47.3665 261.616 47.3665 260.926V255.273H48.3778V260.864C48.3778 261.545 48.5786 262.095 48.9801 262.511C49.3816 262.924 49.8968 263.131 50.5256 263.131C50.9195 263.131 51.2983 263.036 51.6619 262.847C52.0256 262.657 52.3248 262.381 52.5597 262.017C52.7945 261.65 52.9119 261.199 52.9119 260.665ZM64.5384 255.273V256.153H60.3736V255.273H64.5384ZM61.6747 253.182H62.6918V261.722C62.6918 262.085 62.7543 262.371 62.8793 262.58C63.0043 262.784 63.1671 262.93 63.3679 263.017C63.5687 263.1 63.7827 263.142 64.0099 263.142C64.1425 263.142 64.2562 263.134 64.3509 263.119C64.4455 263.1 64.5289 263.081 64.6009 263.062L64.8168 263.977C64.7183 264.015 64.5971 264.049 64.4531 264.08C64.3092 264.114 64.1312 264.131 63.919 264.131C63.5478 264.131 63.1899 264.049 62.8452 263.886C62.5043 263.723 62.224 263.481 62.0043 263.159C61.7846 262.837 61.6747 262.438 61.6747 261.96V253.182ZM68.0341 258.545V264H67.0227V252.364H68.0341V256.642H68.125C68.3295 256.191 68.6458 255.831 69.0739 255.562C69.5057 255.294 70.0511 255.159 70.7102 255.159C71.3011 255.159 71.8201 255.28 72.267 255.523C72.714 255.765 73.0625 256.123 73.3125 256.597C73.5625 257.07 73.6875 257.653 73.6875 258.347V264H72.6705V258.409C72.6705 257.689 72.4697 257.123 72.0682 256.71C71.6705 256.294 71.1326 256.085 70.4545 256.085C69.9886 256.085 69.5739 256.184 69.2102 256.381C68.8466 256.578 68.5587 256.862 68.3466 257.233C68.1383 257.6 68.0341 258.038 68.0341 258.545ZM78.7884 264.199C78.2618 264.199 77.7808 264.097 77.3452 263.892C76.9096 263.684 76.563 263.384 76.3054 262.994C76.0478 262.6 75.919 262.123 75.919 261.562C75.919 261.131 76.0005 260.767 76.1634 260.472C76.3262 260.176 76.5573 259.934 76.8565 259.744C77.1558 259.555 77.5099 259.405 77.919 259.295C78.3281 259.186 78.7789 259.1 79.2713 259.04C79.7599 258.979 80.1728 258.926 80.5099 258.881C80.8509 258.835 81.1103 258.763 81.2884 258.665C81.4664 258.566 81.5554 258.407 81.5554 258.188V257.983C81.5554 257.388 81.3774 256.92 81.0213 256.58C80.669 256.235 80.1615 256.062 79.4986 256.062C78.8698 256.062 78.3565 256.201 77.9588 256.477C77.5649 256.754 77.2884 257.08 77.1293 257.455L76.169 257.108C76.366 256.631 76.6387 256.25 76.9872 255.966C77.3357 255.678 77.7259 255.472 78.1577 255.347C78.5895 255.218 79.027 255.153 79.4702 255.153C79.8035 255.153 80.1501 255.197 80.5099 255.284C80.8736 255.371 81.2107 255.523 81.5213 255.739C81.8319 255.951 82.0838 256.248 82.277 256.631C82.4702 257.009 82.5668 257.491 82.5668 258.074V264H81.5554V262.619H81.4929C81.3717 262.877 81.1918 263.127 80.9531 263.369C80.7145 263.612 80.4152 263.811 80.0554 263.966C79.6955 264.121 79.2732 264.199 78.7884 264.199ZM78.9247 263.273C79.4626 263.273 79.9285 263.153 80.3224 262.915C80.7164 262.676 81.0194 262.36 81.2315 261.966C81.4474 261.568 81.5554 261.131 81.5554 260.653V259.392C81.4796 259.464 81.3527 259.528 81.1747 259.585C81.0005 259.642 80.7978 259.693 80.5668 259.739C80.3395 259.78 80.1122 259.816 79.8849 259.847C79.6577 259.877 79.4531 259.903 79.2713 259.926C78.7789 259.987 78.3584 260.081 78.0099 260.21C77.6615 260.339 77.3944 260.517 77.2088 260.744C77.0232 260.968 76.9304 261.256 76.9304 261.608C76.9304 262.138 77.1198 262.549 77.4986 262.841C77.8774 263.129 78.3527 263.273 78.9247 263.273ZM88.6946 255.273V256.153H84.5298V255.273H88.6946ZM85.831 253.182H86.848V261.722C86.848 262.085 86.9105 262.371 87.0355 262.58C87.1605 262.784 87.3234 262.93 87.5241 263.017C87.7249 263.1 87.9389 263.142 88.1662 263.142C88.2988 263.142 88.4124 263.134 88.5071 263.119C88.6018 263.1 88.6851 263.081 88.7571 263.062L88.973 263.977C88.8745 264.015 88.7533 264.049 88.6094 264.08C88.4654 264.114 88.2874 264.131 88.0753 264.131C87.7041 264.131 87.3461 264.049 87.0014 263.886C86.6605 263.723 86.3802 263.481 86.1605 263.159C85.9408 262.837 85.831 262.438 85.831 261.96V253.182ZM97.429 264L94.7926 255.273H95.8608L97.929 262.472H98.0028L100.065 255.273H101.139L103.185 262.455H103.264L105.332 255.273H106.401L103.764 264H102.719L100.651 256.847H100.543L98.4744 264H97.429ZM108.378 264V255.273H109.395V264H108.378ZM108.895 253.773C108.687 253.773 108.509 253.703 108.361 253.562C108.213 253.419 108.139 253.246 108.139 253.045C108.139 252.845 108.213 252.674 108.361 252.534C108.509 252.39 108.687 252.318 108.895 252.318C109.103 252.318 109.281 252.39 109.429 252.534C109.577 252.674 109.651 252.845 109.651 253.045C109.651 253.246 109.577 253.419 109.429 253.562C109.281 253.703 109.103 253.773 108.895 253.773ZM113.081 252.364V264H112.07V252.364H113.081ZM116.768 252.364V264H115.757V252.364H116.768ZM123.945 267.273V255.273H124.928V256.938H125.047C125.168 256.676 125.335 256.409 125.547 256.136C125.759 255.86 126.039 255.627 126.388 255.438C126.74 255.248 127.183 255.153 127.717 255.153C128.437 255.153 129.066 255.343 129.604 255.722C130.145 256.097 130.566 256.623 130.865 257.301C131.168 257.975 131.32 258.761 131.32 259.659C131.32 260.561 131.168 261.35 130.865 262.028C130.566 262.706 130.145 263.235 129.604 263.614C129.066 263.992 128.441 264.182 127.729 264.182C127.202 264.182 126.761 264.087 126.405 263.898C126.053 263.708 125.767 263.475 125.547 263.199C125.331 262.919 125.164 262.646 125.047 262.381H124.956V267.273H123.945ZM124.945 259.642C124.945 260.347 125.049 260.972 125.257 261.517C125.469 262.059 125.772 262.485 126.166 262.795C126.564 263.102 127.045 263.256 127.609 263.256C128.189 263.256 128.678 263.097 129.075 262.778C129.477 262.456 129.782 262.023 129.99 261.477C130.202 260.932 130.308 260.32 130.308 259.642C130.308 258.972 130.204 258.367 129.996 257.83C129.791 257.292 129.488 256.866 129.087 256.551C128.685 256.233 128.193 256.074 127.609 256.074C127.041 256.074 126.558 256.227 126.161 256.534C125.763 256.837 125.46 257.258 125.251 257.795C125.047 258.33 124.945 258.945 124.945 259.642ZM137.067 264.182C136.252 264.182 135.548 263.992 134.953 263.614C134.358 263.231 133.898 262.703 133.572 262.028C133.25 261.35 133.089 260.57 133.089 259.688C133.089 258.809 133.25 258.028 133.572 257.347C133.898 256.661 134.347 256.125 134.919 255.739C135.495 255.348 136.16 255.153 136.913 255.153C137.387 255.153 137.843 255.241 138.283 255.415C138.722 255.585 139.116 255.848 139.464 256.205C139.817 256.557 140.095 257.002 140.3 257.54C140.504 258.074 140.607 258.706 140.607 259.438V259.938H133.788V259.045H139.572C139.572 258.485 139.459 257.981 139.232 257.534C139.008 257.083 138.696 256.727 138.294 256.466C137.896 256.205 137.436 256.074 136.913 256.074C136.36 256.074 135.874 256.222 135.453 256.517C135.033 256.812 134.703 257.203 134.464 257.688C134.23 258.172 134.11 258.703 134.107 259.278V259.812C134.107 260.506 134.226 261.112 134.464 261.631C134.707 262.146 135.05 262.545 135.493 262.83C135.936 263.114 136.461 263.256 137.067 263.256C137.48 263.256 137.841 263.191 138.152 263.062C138.466 262.934 138.73 262.761 138.942 262.545C139.158 262.326 139.321 262.085 139.43 261.824L140.391 262.136C140.258 262.504 140.04 262.843 139.737 263.153C139.438 263.464 139.063 263.714 138.612 263.903C138.165 264.089 137.65 264.182 137.067 264.182ZM142.835 264V255.273H143.818V256.614H143.892C144.066 256.174 144.369 255.82 144.801 255.551C145.237 255.278 145.729 255.142 146.278 255.142C146.362 255.142 146.455 255.144 146.557 255.148C146.659 255.152 146.744 255.155 146.812 255.159V256.188C146.767 256.18 146.688 256.169 146.574 256.153C146.46 256.138 146.337 256.131 146.205 256.131C145.75 256.131 145.345 256.227 144.989 256.42C144.636 256.61 144.358 256.873 144.153 257.21C143.949 257.547 143.847 257.932 143.847 258.364V264H142.835ZM152.676 255.273V256.153H148.386V255.273H152.676ZM149.727 264V253.994C149.727 253.525 149.835 253.129 150.051 252.807C150.271 252.485 150.557 252.241 150.909 252.074C151.261 251.907 151.634 251.824 152.028 251.824C152.294 251.824 152.513 251.847 152.688 251.892C152.866 251.934 153.006 251.975 153.108 252.017L152.812 252.903C152.737 252.881 152.644 252.854 152.534 252.824C152.424 252.794 152.286 252.778 152.119 252.778C151.68 252.778 151.341 252.902 151.102 253.148C150.864 253.394 150.744 253.746 150.744 254.205L150.739 264H149.727ZM157.864 264.182C157.049 264.182 156.345 263.992 155.75 263.614C155.155 263.231 154.695 262.703 154.369 262.028C154.047 261.35 153.886 260.57 153.886 259.688C153.886 258.809 154.047 258.028 154.369 257.347C154.695 256.661 155.144 256.125 155.716 255.739C156.292 255.348 156.956 255.153 157.71 255.153C158.184 255.153 158.64 255.241 159.08 255.415C159.519 255.585 159.913 255.848 160.261 256.205C160.614 256.557 160.892 257.002 161.097 257.54C161.301 258.074 161.403 258.706 161.403 259.438V259.938H154.585V259.045H160.369C160.369 258.485 160.256 257.981 160.028 257.534C159.805 257.083 159.492 256.727 159.091 256.466C158.693 256.205 158.233 256.074 157.71 256.074C157.157 256.074 156.67 256.222 156.25 256.517C155.83 256.812 155.5 257.203 155.261 257.688C155.027 258.172 154.907 258.703 154.903 259.278V259.812C154.903 260.506 155.023 261.112 155.261 261.631C155.504 262.146 155.847 262.545 156.29 262.83C156.733 263.114 157.258 263.256 157.864 263.256C158.277 263.256 158.638 263.191 158.949 263.062C159.263 262.934 159.527 262.761 159.739 262.545C159.955 262.326 160.117 262.085 160.227 261.824L161.188 262.136C161.055 262.504 160.837 262.843 160.534 263.153C160.235 263.464 159.86 263.714 159.409 263.903C158.962 264.089 158.447 264.182 157.864 264.182ZM167.041 264.182C166.261 264.182 165.581 263.987 165.001 263.597C164.426 263.206 163.979 262.672 163.661 261.994C163.342 261.316 163.183 260.544 163.183 259.676C163.183 258.801 163.344 258.023 163.666 257.341C163.992 256.659 164.443 256.125 165.018 255.739C165.594 255.348 166.263 255.153 167.024 255.153C167.607 255.153 168.136 255.267 168.609 255.494C169.083 255.718 169.473 256.034 169.78 256.443C170.09 256.848 170.286 257.322 170.365 257.864H169.342C169.236 257.371 168.981 256.951 168.575 256.602C168.174 256.25 167.662 256.074 167.041 256.074C166.484 256.074 165.992 256.225 165.564 256.528C165.136 256.828 164.801 257.246 164.558 257.784C164.32 258.318 164.2 258.937 164.2 259.642C164.2 260.35 164.318 260.977 164.553 261.523C164.787 262.064 165.117 262.489 165.541 262.795C165.969 263.102 166.469 263.256 167.041 263.256C167.428 263.256 167.78 263.184 168.098 263.04C168.42 262.892 168.689 262.684 168.905 262.415C169.125 262.146 169.272 261.826 169.348 261.455H170.371C170.295 261.981 170.107 262.451 169.808 262.864C169.513 263.273 169.128 263.595 168.655 263.83C168.185 264.064 167.647 264.182 167.041 264.182ZM175.976 255.273V256.153H171.811V255.273H175.976ZM173.112 253.182H174.129V261.722C174.129 262.085 174.192 262.371 174.317 262.58C174.442 262.784 174.605 262.93 174.805 263.017C175.006 263.1 175.22 263.142 175.447 263.142C175.58 263.142 175.694 263.134 175.788 263.119C175.883 263.1 175.966 263.081 176.038 263.062L176.254 263.977C176.156 264.015 176.035 264.049 175.891 264.08C175.747 264.114 175.569 264.131 175.357 264.131C174.985 264.131 174.627 264.049 174.283 263.886C173.942 263.723 173.661 263.481 173.442 263.159C173.222 262.837 173.112 262.438 173.112 261.96V253.182ZM186.364 255.273V256.153H182.074V255.273H186.364ZM183.415 264V253.994C183.415 253.525 183.523 253.129 183.739 252.807C183.958 252.485 184.244 252.241 184.597 252.074C184.949 251.907 185.322 251.824 185.716 251.824C185.981 251.824 186.201 251.847 186.375 251.892C186.553 251.934 186.693 251.975 186.795 252.017L186.5 252.903C186.424 252.881 186.331 252.854 186.222 252.824C186.112 252.794 185.973 252.778 185.807 252.778C185.367 252.778 185.028 252.902 184.79 253.148C184.551 253.394 184.432 253.746 184.432 254.205L184.426 264H183.415ZM191.415 264.182C190.661 264.182 189.994 263.991 189.415 263.608C188.839 263.225 188.388 262.697 188.062 262.023C187.737 261.345 187.574 260.562 187.574 259.676C187.574 258.782 187.737 257.996 188.062 257.318C188.388 256.636 188.839 256.106 189.415 255.727C189.994 255.345 190.661 255.153 191.415 255.153C192.169 255.153 192.833 255.345 193.409 255.727C193.985 256.11 194.436 256.64 194.761 257.318C195.091 257.996 195.256 258.782 195.256 259.676C195.256 260.562 195.093 261.345 194.767 262.023C194.441 262.697 193.989 263.225 193.409 263.608C192.833 263.991 192.169 264.182 191.415 264.182ZM191.415 263.256C192.021 263.256 192.534 263.093 192.955 262.767C193.375 262.441 193.693 262.008 193.909 261.466C194.129 260.924 194.239 260.328 194.239 259.676C194.239 259.025 194.129 258.426 193.909 257.881C193.693 257.335 193.375 256.898 192.955 256.568C192.534 256.239 192.021 256.074 191.415 256.074C190.813 256.074 190.299 256.239 189.875 256.568C189.455 256.898 189.134 257.335 188.915 257.881C188.699 258.426 188.591 259.025 188.591 259.676C188.591 260.328 188.699 260.924 188.915 261.466C189.134 262.008 189.455 262.441 189.875 262.767C190.295 263.093 190.809 263.256 191.415 263.256ZM197.476 264V255.273H198.459V256.614H198.533C198.707 256.174 199.01 255.82 199.442 255.551C199.877 255.278 200.37 255.142 200.919 255.142C201.002 255.142 201.095 255.144 201.197 255.148C201.3 255.152 201.385 255.155 201.453 255.159V256.188C201.408 256.18 201.328 256.169 201.214 256.153C201.101 256.138 200.978 256.131 200.845 256.131C200.391 256.131 199.985 256.227 199.629 256.42C199.277 256.61 198.999 256.873 198.794 257.21C198.589 257.547 198.487 257.932 198.487 258.364V264H197.476ZM64.6491 283.273C64.4484 283.273 64.2609 283.254 64.0866 283.216C63.9124 283.178 63.7741 283.136 63.6719 283.091L63.9446 282.199C64.2893 282.305 64.5961 282.343 64.8651 282.312C65.134 282.286 65.3726 282.165 65.581 281.949C65.7893 281.737 65.9749 281.411 66.1378 280.972L66.456 280.085L63.2457 271.273H64.3423L66.9332 278.665H67.0128L69.6037 271.273H70.7003L67.0071 281.381C66.8518 281.801 66.6605 282.152 66.4332 282.432C66.206 282.716 65.9427 282.926 65.6435 283.062C65.348 283.203 65.0166 283.273 64.6491 283.273ZM75.7585 280.182C75.0047 280.182 74.3381 279.991 73.7585 279.608C73.1828 279.225 72.732 278.697 72.4062 278.023C72.0805 277.345 71.9176 276.562 71.9176 275.676C71.9176 274.782 72.0805 273.996 72.4062 273.318C72.732 272.636 73.1828 272.106 73.7585 271.727C74.3381 271.345 75.0047 271.153 75.7585 271.153C76.5123 271.153 77.1771 271.345 77.7528 271.727C78.3286 272.11 78.7794 272.64 79.1051 273.318C79.4347 273.996 79.5994 274.782 79.5994 275.676C79.5994 276.562 79.4366 277.345 79.1108 278.023C78.785 278.697 78.3324 279.225 77.7528 279.608C77.1771 279.991 76.5123 280.182 75.7585 280.182ZM75.7585 279.256C76.3646 279.256 76.8778 279.093 77.2983 278.767C77.7188 278.441 78.0369 278.008 78.2528 277.466C78.4725 276.924 78.5824 276.328 78.5824 275.676C78.5824 275.025 78.4725 274.426 78.2528 273.881C78.0369 273.335 77.7188 272.898 77.2983 272.568C76.8778 272.239 76.3646 272.074 75.7585 272.074C75.1563 272.074 74.643 272.239 74.2188 272.568C73.7983 272.898 73.4782 273.335 73.2585 273.881C73.0426 274.426 72.9347 275.025 72.9347 275.676C72.9347 276.328 73.0426 276.924 73.2585 277.466C73.4782 278.008 73.7983 278.441 74.2188 278.767C74.6392 279.093 75.1525 279.256 75.7585 279.256ZM87.3651 276.665V271.273H88.3764V280H87.3651V278.551H87.2855C87.081 278.998 86.7571 279.371 86.3139 279.67C85.8707 279.966 85.3291 280.114 84.6889 280.114C84.1321 280.114 83.6378 279.992 83.206 279.75C82.7741 279.504 82.4351 279.144 82.1889 278.67C81.9427 278.197 81.8196 277.616 81.8196 276.926V271.273H82.831V276.864C82.831 277.545 83.0317 278.095 83.4332 278.511C83.8348 278.924 84.3499 279.131 84.9787 279.131C85.3726 279.131 85.7514 279.036 86.1151 278.847C86.4787 278.657 86.7779 278.381 87.0128 278.017C87.2476 277.65 87.3651 277.199 87.3651 276.665ZM98.9631 280.182C98.1828 280.182 97.5028 279.987 96.9233 279.597C96.3475 279.206 95.9006 278.672 95.5824 277.994C95.2642 277.316 95.1051 276.544 95.1051 275.676C95.1051 274.801 95.2661 274.023 95.5881 273.341C95.9138 272.659 96.3646 272.125 96.9403 271.739C97.5161 271.348 98.1847 271.153 98.946 271.153C99.5294 271.153 100.058 271.267 100.531 271.494C101.005 271.718 101.395 272.034 101.702 272.443C102.012 272.848 102.207 273.322 102.287 273.864H101.264C101.158 273.371 100.902 272.951 100.497 272.602C100.096 272.25 99.5843 272.074 98.9631 272.074C98.4063 272.074 97.9138 272.225 97.4858 272.528C97.0578 272.828 96.7225 273.246 96.4801 273.784C96.2415 274.318 96.1222 274.937 96.1222 275.642C96.1222 276.35 96.2396 276.977 96.4744 277.523C96.7093 278.064 97.0388 278.489 97.4631 278.795C97.8911 279.102 98.3911 279.256 98.9631 279.256C99.3494 279.256 99.7017 279.184 100.02 279.04C100.342 278.892 100.611 278.684 100.827 278.415C101.046 278.146 101.194 277.826 101.27 277.455H102.293C102.217 277.981 102.029 278.451 101.73 278.864C101.435 279.273 101.05 279.595 100.577 279.83C100.107 280.064 99.5691 280.182 98.9631 280.182ZM107.852 280.182C107.098 280.182 106.432 279.991 105.852 279.608C105.277 279.225 104.826 278.697 104.5 278.023C104.174 277.345 104.011 276.562 104.011 275.676C104.011 274.782 104.174 273.996 104.5 273.318C104.826 272.636 105.277 272.106 105.852 271.727C106.432 271.345 107.098 271.153 107.852 271.153C108.606 271.153 109.271 271.345 109.847 271.727C110.422 272.11 110.873 272.64 111.199 273.318C111.528 273.996 111.693 274.782 111.693 275.676C111.693 276.562 111.53 277.345 111.205 278.023C110.879 278.697 110.426 279.225 109.847 279.608C109.271 279.991 108.606 280.182 107.852 280.182ZM107.852 279.256C108.458 279.256 108.972 279.093 109.392 278.767C109.813 278.441 110.131 278.008 110.347 277.466C110.566 276.924 110.676 276.328 110.676 275.676C110.676 275.025 110.566 274.426 110.347 273.881C110.131 273.335 109.813 272.898 109.392 272.568C108.972 272.239 108.458 272.074 107.852 272.074C107.25 272.074 106.737 272.239 106.312 272.568C105.892 272.898 105.572 273.335 105.352 273.881C105.136 274.426 105.028 275.025 105.028 275.676C105.028 276.328 105.136 276.924 105.352 277.466C105.572 278.008 105.892 278.441 106.312 278.767C106.733 279.093 107.246 279.256 107.852 279.256ZM113.913 280V271.273H114.896V272.614H114.987C115.161 272.163 115.451 271.809 115.857 271.551C116.266 271.29 116.756 271.159 117.328 271.159C117.93 271.159 118.425 271.301 118.811 271.585C119.201 271.866 119.493 272.252 119.686 272.744H119.76C119.957 272.259 120.277 271.875 120.72 271.591C121.167 271.303 121.709 271.159 122.345 271.159C123.156 271.159 123.796 271.415 124.266 271.926C124.735 272.434 124.97 273.176 124.97 274.153V280H123.959V274.153C123.959 273.464 123.783 272.947 123.43 272.602C123.078 272.258 122.614 272.085 122.038 272.085C121.372 272.085 120.858 272.29 120.499 272.699C120.139 273.108 119.959 273.627 119.959 274.256V280H118.925V274.062C118.925 273.472 118.76 272.994 118.43 272.631C118.101 272.267 117.637 272.085 117.038 272.085C116.637 272.085 116.275 272.184 115.953 272.381C115.635 272.578 115.383 272.852 115.197 273.205C115.016 273.553 114.925 273.955 114.925 274.409V280H113.913ZM127.648 283.273V271.273H128.631V272.938H128.75C128.871 272.676 129.038 272.409 129.25 272.136C129.462 271.86 129.742 271.627 130.091 271.438C130.443 271.248 130.886 271.153 131.42 271.153C132.14 271.153 132.769 271.343 133.307 271.722C133.848 272.097 134.269 272.623 134.568 273.301C134.871 273.975 135.023 274.761 135.023 275.659C135.023 276.561 134.871 277.35 134.568 278.028C134.269 278.706 133.848 279.235 133.307 279.614C132.769 279.992 132.144 280.182 131.432 280.182C130.905 280.182 130.464 280.087 130.108 279.898C129.756 279.708 129.47 279.475 129.25 279.199C129.034 278.919 128.867 278.646 128.75 278.381H128.659V283.273H127.648ZM128.648 275.642C128.648 276.347 128.752 276.972 128.96 277.517C129.172 278.059 129.475 278.485 129.869 278.795C130.267 279.102 130.748 279.256 131.312 279.256C131.892 279.256 132.381 279.097 132.778 278.778C133.18 278.456 133.485 278.023 133.693 277.477C133.905 276.932 134.011 276.32 134.011 275.642C134.011 274.972 133.907 274.367 133.699 273.83C133.494 273.292 133.191 272.866 132.79 272.551C132.388 272.233 131.896 272.074 131.312 272.074C130.744 272.074 130.261 272.227 129.864 272.534C129.466 272.837 129.163 273.258 128.955 273.795C128.75 274.33 128.648 274.945 128.648 275.642ZM139.679 280.199C139.152 280.199 138.671 280.097 138.236 279.892C137.8 279.684 137.454 279.384 137.196 278.994C136.938 278.6 136.81 278.123 136.81 277.562C136.81 277.131 136.891 276.767 137.054 276.472C137.217 276.176 137.448 275.934 137.747 275.744C138.046 275.555 138.401 275.405 138.81 275.295C139.219 275.186 139.67 275.1 140.162 275.04C140.651 274.979 141.063 274.926 141.401 274.881C141.741 274.835 142.001 274.763 142.179 274.665C142.357 274.566 142.446 274.407 142.446 274.188V273.983C142.446 273.388 142.268 272.92 141.912 272.58C141.56 272.235 141.052 272.062 140.389 272.062C139.76 272.062 139.247 272.201 138.849 272.477C138.455 272.754 138.179 273.08 138.02 273.455L137.06 273.108C137.257 272.631 137.529 272.25 137.878 271.966C138.226 271.678 138.616 271.472 139.048 271.347C139.48 271.218 139.918 271.153 140.361 271.153C140.694 271.153 141.041 271.197 141.401 271.284C141.764 271.371 142.101 271.523 142.412 271.739C142.723 271.951 142.974 272.248 143.168 272.631C143.361 273.009 143.457 273.491 143.457 274.074V280H142.446V278.619H142.384C142.262 278.877 142.082 279.127 141.844 279.369C141.605 279.612 141.306 279.811 140.946 279.966C140.586 280.121 140.164 280.199 139.679 280.199ZM139.815 279.273C140.353 279.273 140.819 279.153 141.213 278.915C141.607 278.676 141.91 278.36 142.122 277.966C142.338 277.568 142.446 277.131 142.446 276.653V275.392C142.37 275.464 142.243 275.528 142.065 275.585C141.891 275.642 141.688 275.693 141.457 275.739C141.23 275.78 141.003 275.816 140.776 275.847C140.548 275.877 140.344 275.903 140.162 275.926C139.67 275.987 139.249 276.081 138.901 276.21C138.552 276.339 138.285 276.517 138.099 276.744C137.914 276.968 137.821 277.256 137.821 277.608C137.821 278.138 138.01 278.549 138.389 278.841C138.768 279.129 139.243 279.273 139.815 279.273ZM146.159 280V271.273H147.176V280H146.159ZM146.676 269.773C146.468 269.773 146.29 269.703 146.142 269.562C145.994 269.419 145.92 269.246 145.92 269.045C145.92 268.845 145.994 268.674 146.142 268.534C146.29 268.39 146.468 268.318 146.676 268.318C146.884 268.318 147.063 268.39 147.21 268.534C147.358 268.674 147.432 268.845 147.432 269.045C147.432 269.246 147.358 269.419 147.21 269.562C147.063 269.703 146.884 269.773 146.676 269.773ZM153.18 283.455C152.586 283.455 152.065 283.377 151.618 283.222C151.171 283.07 150.794 282.862 150.487 282.597C150.18 282.331 149.942 282.034 149.771 281.705L150.601 281.159C150.726 281.379 150.893 281.595 151.101 281.807C151.313 282.019 151.588 282.195 151.925 282.335C152.266 282.475 152.684 282.545 153.18 282.545C153.953 282.545 154.576 282.352 155.05 281.966C155.527 281.58 155.766 280.979 155.766 280.165V278.199H155.675C155.557 278.464 155.389 278.729 155.169 278.994C154.949 279.256 154.661 279.473 154.305 279.648C153.953 279.822 153.516 279.909 152.993 279.909C152.296 279.909 151.677 279.737 151.135 279.392C150.597 279.047 150.173 278.555 149.862 277.915C149.555 277.271 149.402 276.504 149.402 275.614C149.402 274.731 149.552 273.955 149.851 273.284C150.154 272.614 150.576 272.091 151.118 271.716C151.66 271.341 152.29 271.153 153.01 271.153C153.544 271.153 153.987 271.248 154.339 271.438C154.692 271.623 154.974 271.854 155.186 272.131C155.402 272.407 155.571 272.676 155.692 272.938H155.794V271.273H156.783V280.227C156.783 280.966 156.625 281.574 156.311 282.051C155.997 282.528 155.569 282.881 155.027 283.108C154.485 283.339 153.87 283.455 153.18 283.455ZM153.112 278.983C153.673 278.983 154.152 278.848 154.55 278.58C154.947 278.307 155.252 277.917 155.464 277.409C155.677 276.902 155.783 276.297 155.783 275.597C155.783 274.915 155.679 274.311 155.47 273.784C155.262 273.254 154.959 272.837 154.561 272.534C154.167 272.227 153.684 272.074 153.112 272.074C152.529 272.074 152.036 272.231 151.635 272.545C151.233 272.86 150.93 273.284 150.726 273.818C150.521 274.348 150.419 274.941 150.419 275.597C150.419 276.263 150.523 276.852 150.732 277.364C150.94 277.871 151.245 278.269 151.646 278.557C152.048 278.841 152.536 278.983 153.112 278.983ZM160.472 274.545V280H159.46V271.273H160.443V272.642H160.534C160.739 272.195 161.057 271.837 161.489 271.568C161.924 271.295 162.462 271.159 163.102 271.159C163.689 271.159 164.205 271.282 164.648 271.528C165.095 271.771 165.441 272.129 165.688 272.602C165.938 273.076 166.062 273.657 166.062 274.347V280H165.051V274.409C165.051 273.693 164.85 273.127 164.449 272.71C164.051 272.294 163.517 272.085 162.847 272.085C162.388 272.085 161.981 272.184 161.625 272.381C161.269 272.578 160.987 272.862 160.778 273.233C160.574 273.6 160.472 274.038 160.472 274.545Z" fill="white"/>
<path d="M173.417 166.98L173.065 166.905C173.139 166.557 173.207 166.203 173.267 165.852L173.622 165.913C173.56 166.268 173.491 166.627 173.417 166.98Z" fill="#292A2E"/>
<path d="M145.336 189.956L145.333 189.596C146.047 189.59 146.769 189.557 147.481 189.497L147.511 189.856C146.791 189.916 146.059 189.95 145.336 189.956ZM143.159 189.891C142.438 189.842 141.71 189.765 140.993 189.664L141.044 189.308C141.752 189.409 142.472 189.484 143.184 189.532L143.159 189.891ZM149.672 189.592L149.615 189.237C150.319 189.124 151.029 188.982 151.723 188.815L151.807 189.165C151.103 189.334 150.385 189.477 149.672 189.592ZM138.85 189.277C138.142 189.122 137.433 188.939 136.742 188.732L136.845 188.388C137.528 188.592 138.228 188.773 138.927 188.926L138.85 189.277ZM153.904 188.578L153.793 188.237C154.472 188.019 155.152 187.772 155.815 187.503L155.95 187.836C155.279 188.108 154.59 188.358 153.904 188.578ZM134.68 188.031C134.004 187.772 133.33 187.484 132.676 187.175L132.83 186.85C133.475 187.156 134.141 187.439 134.808 187.695L134.68 188.031ZM157.936 186.941L157.776 186.619C158.415 186.302 159.05 185.956 159.664 185.591L159.847 185.9C159.226 186.27 158.583 186.619 157.936 186.941H157.936ZM130.744 186.171C130.115 185.814 129.492 185.428 128.891 185.023L129.092 184.725C129.686 185.124 130.3 185.506 130.92 185.858L130.744 186.171ZM161.678 184.719L161.472 184.425C162.058 184.015 162.635 183.58 163.187 183.127L163.415 183.406C162.855 183.863 162.271 184.305 161.678 184.719H161.678ZM127.133 183.739C126.566 183.291 126.008 182.816 125.475 182.326L125.719 182.061C126.245 182.545 126.796 183.014 127.355 183.457L127.133 183.739ZM165.048 181.965L164.8 181.705C165.318 181.213 165.823 180.695 166.303 180.166L166.569 180.407C166.084 180.943 165.572 181.467 165.048 181.965ZM123.928 180.793C123.434 180.265 122.953 179.711 122.5 179.148L122.781 178.923C123.228 179.479 123.702 180.026 124.19 180.547L123.928 180.793ZM167.97 178.739L167.686 178.518C168.124 177.954 168.546 177.367 168.94 176.771L169.24 176.97C168.841 177.572 168.413 178.167 167.97 178.739L167.97 178.739ZM121.2 177.402C120.79 176.806 120.397 176.188 120.033 175.563L120.344 175.382C120.703 175.999 121.091 176.61 121.496 177.198L121.2 177.402ZM170.373 175.11L170.059 174.935C170.408 174.312 170.736 173.667 171.037 173.019L171.363 173.17C171.059 173.826 170.726 174.479 170.373 175.11ZM119.007 173.643C118.69 172.992 118.394 172.322 118.127 171.651L118.462 171.518C118.725 172.181 119.017 172.843 119.33 173.485L119.007 173.643ZM172.202 171.161L171.866 171.035C172.115 170.368 172.343 169.681 172.542 168.994L172.888 169.095C172.686 169.789 172.455 170.484 172.202 171.16V171.161Z" fill="#292A2E"/>
<path d="M117.396 169.583C117.288 169.239 117.186 168.888 117.092 168.539L117.439 168.445C117.532 168.789 117.633 169.135 117.739 169.475L117.396 169.583Z" fill="#292A2E"/>
<path d="M34.712 138.106C34.3641 138.003 34.0156 137.888 33.6766 137.765L33.7994 137.427C34.1315 137.548 34.473 137.661 34.8142 137.761L34.712 138.106Z" fill="#292A2E"/>
<path d="M31.6749 136.896C31.0263 136.566 30.3988 136.195 29.7958 135.787L29.9974 135.49C30.5881 135.889 31.2029 136.252 31.8383 136.576L31.6749 136.896ZM28.0682 134.455C27.5206 133.976 27.0031 133.463 26.5184 132.92L26.7867 132.68C27.2615 133.212 27.7686 133.715 28.305 134.184L28.0682 134.455ZM25.1688 131.206C24.7545 130.608 24.3771 129.985 24.0387 129.341L24.357 129.174C24.6887 129.805 25.0585 130.415 25.4644 131.002L25.1688 131.206ZM23.1446 127.352C22.8875 126.671 22.6724 125.975 22.5005 125.268L22.8501 125.184C23.0184 125.876 23.2291 126.558 23.4811 127.225L23.1446 127.352ZM22.1171 123.122C22.0396 122.451 22.0005 121.776 22 121.101V120.944L22.3597 120.947V121.101C22.3599 121.763 22.398 122.424 22.4739 123.081L22.1171 123.122ZM22.5127 118.816L22.1563 118.768C22.2527 118.047 22.3931 117.332 22.5767 116.628L22.9247 116.718C22.7447 117.408 22.6069 118.109 22.5122 118.816H22.5127ZM23.5874 114.687L23.2527 114.555C23.5203 113.878 23.8291 113.218 24.1776 112.579L24.4934 112.752C24.1519 113.378 23.8494 114.024 23.5874 114.687ZM25.6308 110.943L25.3387 110.733C25.7638 110.142 26.2249 109.578 26.7195 109.044L26.9831 109.289C26.4987 109.812 26.0471 110.364 25.6308 110.943ZM28.5291 107.814L28.2973 107.539C28.8538 107.07 29.4384 106.635 30.0478 106.238L30.2443 106.539C29.6472 106.928 29.0744 107.354 28.5291 107.813V107.814ZM32.1022 105.483L31.9439 105.159C32.5976 104.839 33.2702 104.559 33.958 104.321L34.0756 104.661C33.4017 104.895 32.7427 105.169 32.1022 105.483V105.483Z" fill="#292A2E"/>
<path d="M36.1406 104.086L36.0656 103.734C36.4194 103.659 36.7803 103.594 37.1383 103.54L37.1923 103.896C36.8407 103.948 36.4872 104.012 36.1406 104.086Z" fill="#292A2E"/>
<path d="M40.8103 75.8327L40.4887 75.6717C40.6506 75.348 40.8256 75.0243 41.0072 74.7123L41.3181 74.8933C41.1403 75.1988 40.9692 75.5149 40.8103 75.8327Z" fill="#292A2E"/>
<path d="M72.1209 80.651C72.0126 79.9787 71.8635 79.3135 71.6744 78.6592L72.0199 78.5592C72.213 79.2276 72.3654 79.907 72.4761 80.5938L72.1209 80.651ZM70.988 76.7365C70.7203 76.1103 70.4148 75.5009 70.0732 74.9117L70.3841 74.7319C70.7334 75.3337 71.0457 75.9562 71.3192 76.596L70.988 76.7365ZM68.9422 73.2118C68.5307 72.6696 68.0863 72.1531 67.6115 71.6653L67.8692 71.4135C68.3546 71.912 68.8088 72.4399 69.2294 72.9942L68.9422 73.2118ZM42.4509 73.1938L42.1646 72.9762C42.5858 72.4224 43.0407 71.8949 43.5266 71.3968L43.784 71.6485C43.3085 72.136 42.8635 72.6522 42.4516 73.1944L42.4509 73.1938ZM66.0986 70.2937C65.5667 69.8683 65.0091 69.4759 64.429 69.1189L64.6177 68.8131C65.2102 69.178 65.7799 69.5788 66.3234 70.0133L66.0986 70.2937ZM45.2976 70.2786L45.0732 69.9975C45.6169 69.5635 46.1869 69.1632 46.7798 68.7991L46.968 69.1048C46.3879 69.4617 45.8303 69.8539 45.2983 70.2791L45.2976 70.2786ZM62.6291 68.1566C62.0104 67.8721 61.3749 67.6256 60.7261 67.4184L60.8353 67.0758C61.4981 67.2874 62.1473 67.5392 62.7795 67.8298L62.6291 68.1566ZM48.7705 68.1471L48.6212 67.8199C49.2541 67.5312 49.9041 67.2812 50.5673 67.0713L50.6752 67.4142C50.0261 67.6197 49.39 67.8644 48.7705 68.1471ZM58.748 66.9197C58.0787 66.7943 57.4022 66.7103 56.7226 66.6679L56.7449 66.3083C57.4393 66.3513 58.1304 66.4371 58.8142 66.5651L58.748 66.9197ZM52.6559 66.9186L52.5901 66.5645C53.274 66.4374 53.9651 66.352 54.6594 66.309L54.6815 66.6687C54.0019 66.7105 53.3254 66.7938 52.6559 66.9181V66.9186Z" fill="#292A2E"/>
<path d="M72.6852 83.7671L72.3256 83.7571C72.3355 83.4035 72.334 83.0444 72.3211 82.6898L72.6807 82.6766C72.6942 83.039 72.6953 83.406 72.6852 83.7671Z" fill="#292A2E"/>
<path d="M123.301 90.3628L122.96 90.2525C123.07 89.9109 123.186 89.565 123.307 89.2252L123.646 89.3453C123.526 89.6819 123.41 90.0241 123.301 90.3628Z" fill="#292A2E"/>
<path d="M192.817 93.7824C192.668 93.0949 192.496 92.4033 192.307 91.7266L192.653 91.6297C192.845 92.313 193.018 93.0118 193.169 93.706L192.817 93.7824ZM191.677 89.704C191.448 89.0387 191.197 88.3722 190.93 87.7216L191.262 87.5849C191.532 88.242 191.786 88.9157 192.018 89.587L191.677 89.704ZM124.411 87.3688L124.079 87.229C124.355 86.5748 124.654 85.92 124.967 85.2827L125.29 85.4415C124.979 86.0725 124.683 86.721 124.411 87.3688ZM190.067 85.7863C189.761 85.1522 189.434 84.5192 189.093 83.9047L189.408 83.7301C189.752 84.3505 190.083 84.99 190.391 85.6303L190.067 85.7863ZM126.281 83.5695L125.968 83.392C126.319 82.7741 126.693 82.1589 127.079 81.5635L127.381 81.7602C126.999 82.3488 126.629 82.9579 126.281 83.5695H126.281ZM188.012 82.0839C187.634 81.4905 187.236 80.8992 186.825 80.3284L187.117 80.1184C187.532 80.6938 187.935 81.2912 188.315 81.8911L188.012 82.0839ZM128.588 80.0159L128.298 79.8024C128.72 79.2302 129.164 78.6632 129.619 78.117L129.895 78.3472C129.445 78.888 129.005 79.4492 128.588 80.0159ZM185.538 78.6446C185.095 78.099 184.629 77.5594 184.153 77.0404L184.418 76.7974C184.898 77.3216 185.369 77.8669 185.816 78.4177L185.538 78.6446ZM131.299 76.7591L131.037 76.5129C131.523 75.9948 132.031 75.4843 132.548 74.9957L132.795 75.2568C132.284 75.7407 131.78 76.2461 131.299 76.7591ZM182.677 75.5201C182.172 75.0297 181.646 74.549 181.112 74.0897L181.347 73.8173C181.885 74.2807 182.416 74.7668 182.927 75.262L182.677 75.5201ZM134.376 73.8455L134.145 73.5702C134.688 73.1134 135.252 72.6662 135.822 72.2411L136.038 72.5288C135.472 72.9503 134.913 73.3931 134.376 73.8455ZM179.468 72.7543C178.909 72.3274 178.33 71.9116 177.746 71.5185L177.947 71.2202C178.537 71.6172 179.122 72.0373 179.686 72.4684L179.468 72.7543ZM137.771 71.3131L137.574 71.0128C138.167 70.6224 138.78 70.2444 139.395 69.8892L139.575 70.2007C138.965 70.5523 138.359 70.9267 137.771 71.3131ZM175.953 70.3866C175.349 70.0295 174.724 69.6853 174.098 69.3638L174.263 69.0437C174.895 69.3686 175.525 69.7164 176.136 70.077L175.953 70.3866ZM141.44 69.1954L141.278 68.8739C141.913 68.5554 142.565 68.2515 143.217 67.9706L143.36 68.301C142.714 68.5786 142.068 68.88 141.44 69.1954ZM172.187 68.4527C171.544 68.1692 170.884 67.9005 170.225 67.6543L170.351 67.3173C171.016 67.566 171.683 67.8372 172.332 68.1237L172.187 68.4527ZM145.33 67.5201L145.207 67.1821C145.874 66.9397 146.558 66.7145 147.239 66.5113L147.342 66.856C146.667 67.0569 145.99 67.2803 145.33 67.5201ZM168.22 66.97C167.546 66.762 166.859 66.5715 166.178 66.4039L166.264 66.0545C166.952 66.2239 167.646 66.4163 168.326 66.6264L168.22 66.97ZM149.388 66.3113L149.305 65.9612C149.997 65.7993 150.702 65.6555 151.401 65.5334L151.463 65.8878C150.771 66.0071 150.073 66.1509 149.388 66.3113ZM164.106 65.9576C163.414 65.8296 162.709 65.7206 162.012 65.6339L162.057 65.2771C162.761 65.3647 163.472 65.4749 164.172 65.6041L164.106 65.9576ZM153.558 65.587L153.518 65.2296C154.223 65.1496 154.94 65.0897 155.649 65.0516L155.668 65.4113C154.967 65.4485 154.257 65.5078 153.558 65.587ZM159.903 65.4341C159.202 65.3886 158.49 65.3634 157.786 65.3597L157.788 65C158.499 65.0038 159.218 65.0291 159.926 65.0752L159.903 65.4341Z" fill="#292A2E"/>
<path d="M193.357 96.9388C193.313 96.5851 193.262 96.2272 193.207 95.8756L193.563 95.8204C193.618 96.1754 193.669 96.5367 193.714 96.894L193.357 96.9388Z" fill="#292A2E"/>
<path d="M199.679 109.142C199.418 108.9 199.149 108.661 198.878 108.43L199.112 108.156C199.387 108.39 199.66 108.633 199.924 108.878L199.679 109.142Z" fill="#292A2E"/>
<path d="M183.359 152.699L183.35 152.34C184.049 152.322 184.757 152.273 185.452 152.196L185.492 152.553C184.786 152.631 184.069 152.68 183.359 152.699ZM181.221 152.666C180.512 152.625 179.796 152.553 179.094 152.453L179.145 152.097C179.837 152.196 180.543 152.266 181.242 152.307L181.221 152.666ZM187.605 152.229L187.536 151.876C188.223 151.74 188.912 151.574 189.585 151.382L189.684 151.727C189.001 151.923 188.302 152.092 187.605 152.229H187.605ZM191.712 151.053L191.585 150.717C192.24 150.468 192.891 150.188 193.521 149.885L193.677 150.209C193.037 150.516 192.376 150.8 191.712 151.053H191.712ZM195.563 149.201L195.381 148.891C195.984 148.535 196.579 148.148 197.148 147.743L197.357 148.036C196.778 148.448 196.175 148.84 195.563 149.201L195.563 149.201ZM199.046 146.723L198.813 146.448C199.346 145.996 199.867 145.515 200.362 145.017L200.617 145.271C200.114 145.776 199.586 146.265 199.045 146.723L199.046 146.723ZM202.06 143.694L201.785 143.463C202.236 142.926 202.67 142.366 203.073 141.795L203.367 142.003C202.957 142.582 202.517 143.151 202.059 143.695L202.06 143.694ZM204.527 140.208L204.217 140.026C204.571 139.423 204.904 138.797 205.206 138.166L205.529 138.321C205.223 138.962 204.886 139.597 204.526 140.209L204.527 140.208ZM206.371 136.355L206.035 136.228C206.282 135.574 206.504 134.9 206.695 134.227L207.041 134.326C206.847 135.009 206.621 135.691 206.37 136.357L206.371 136.355ZM207.536 132.246L207.183 132.177C207.316 131.491 207.422 130.79 207.496 130.094L207.854 130.132C207.778 130.839 207.671 131.55 207.536 132.247L207.536 132.246ZM207.993 127.999L207.633 127.991C207.637 127.8 207.64 127.61 207.64 127.42C207.64 126.909 207.624 126.393 207.592 125.884L207.952 125.862C207.984 126.378 208 126.902 208 127.42C207.999 127.613 207.997 127.806 207.992 127.999L207.993 127.999ZM207.375 123.787C207.274 123.094 207.142 122.398 206.983 121.717L207.333 121.635C207.495 122.326 207.628 123.032 207.731 123.735L207.375 123.787ZM206.416 119.686C206.2 119.021 205.953 118.356 205.682 117.711L206.013 117.572C206.289 118.226 206.539 118.9 206.758 119.575L206.416 119.686ZM204.782 115.805C204.457 115.185 204.101 114.572 203.724 113.983L204.027 113.789C204.409 114.387 204.771 115.009 205.101 115.638L204.782 115.805ZM202.514 112.256C202.089 111.702 201.635 111.157 201.163 110.639L201.428 110.397C201.907 110.923 202.369 111.475 202.8 112.038L202.514 112.256Z" fill="#292A2E"/>
<path d="M176.987 152.06C176.636 151.979 176.281 151.889 175.933 151.793L176.029 151.446C176.372 151.541 176.722 151.629 177.068 151.709L176.987 152.06Z" fill="#292A2E"/>
<path d="M175.38 75.4731H54.0505C51.0709 75.4731 48.6555 77.8885 48.6555 80.8681V169.7C48.6555 172.679 51.0709 175.095 54.0505 175.095H175.38C178.359 175.095 180.775 172.679 180.775 169.7V80.8681C180.775 77.8885 178.359 75.4731 175.38 75.4731Z" fill="white"/>
<path d="M175.38 75.4731H54.0505C51.0709 75.4731 48.6555 77.8885 48.6555 80.8681V169.7C48.6555 172.679 51.0709 175.095 54.0505 175.095H175.38C178.359 175.095 180.775 172.679 180.775 169.7V80.8681C180.775 77.8885 178.359 75.4731 175.38 75.4731Z" fill="white"/>
<path d="M175.38 75.4731H54.0505C51.0709 75.4731 48.6555 77.8885 48.6555 80.8681V169.7C48.6555 172.679 51.0709 175.095 54.0505 175.095H175.38C178.359 175.095 180.775 172.679 180.775 169.7V80.8681C180.775 77.8885 178.359 75.4731 175.38 75.4731Z" fill="white"/>
<path d="M175.38 175.275H54.0505C52.5725 175.273 51.1555 174.685 50.1104 173.64C49.0653 172.595 48.4775 171.178 48.4757 169.7V80.8681C48.4775 79.3901 49.0653 77.9731 50.1104 76.928C51.1555 75.8829 52.5725 75.295 54.0505 75.2933H175.38C176.858 75.295 178.275 75.8829 179.32 76.928C180.365 77.9731 180.953 79.3901 180.955 80.8681V169.7C180.953 171.178 180.365 172.595 179.32 173.64C178.275 174.685 176.858 175.273 175.38 175.275ZM54.0505 75.653C52.6678 75.6545 51.3422 76.2045 50.3645 77.1821C49.3869 78.1598 48.8369 79.4854 48.8354 80.8681V169.7C48.837 171.083 49.3869 172.408 50.3646 173.386C51.3423 174.363 52.6678 174.913 54.0505 174.915H175.38C176.763 174.913 178.088 174.363 179.066 173.386C180.044 172.408 180.594 171.082 180.595 169.7V80.8681C180.594 79.4854 180.044 78.1599 179.066 77.1822C178.088 76.2045 176.763 75.6546 175.38 75.653H54.0505Z" fill="#292A2E"/>
<path d="M171.914 148.029H57.1499C55.558 148.029 54.2675 149.319 54.2675 150.911V166.794C54.2675 168.386 55.558 169.676 57.1499 169.676H171.914C173.505 169.676 174.796 168.386 174.796 166.794V150.911C174.796 149.319 173.505 148.029 171.914 148.029Z" fill="#367CFF"/>
<g opacity="0.9">
<path d="M171.914 148.029H57.1499C55.558 148.029 54.2675 149.319 54.2675 150.911V166.794C54.2675 168.386 55.558 169.676 57.1499 169.676H171.914C173.505 169.676 174.796 168.386 174.796 166.794V150.911C174.796 149.319 173.505 148.029 171.914 148.029Z" fill="white"/>
</g>
<g opacity="0.9">
<path d="M171.914 120.15H57.1499C55.558 120.15 54.2675 120.497 54.2675 120.924V125.189C54.2675 125.616 55.558 125.963 57.1499 125.963H171.914C173.505 125.963 174.796 125.616 174.796 125.189V120.924C174.796 120.497 173.505 120.15 171.914 120.15Z" fill="white"/>
</g>
<g opacity="0.9">
<path d="M171.962 128.84H57.1979C55.606 128.84 54.3156 129.186 54.3156 129.614V133.878C54.3156 134.306 55.606 134.652 57.1979 134.652H171.962C173.553 134.652 174.844 134.306 174.844 133.878V129.614C174.844 129.186 173.553 128.84 171.962 128.84Z" fill="white"/>
</g>
<path d="M171.914 92.2714H57.1498C55.558 92.2714 54.2675 93.5619 54.2675 95.1537V111.037C54.2675 112.629 55.558 113.919 57.1498 113.919H171.914C173.505 113.919 174.796 112.629 174.796 111.037V95.1537C174.796 93.5619 173.505 92.2714 171.914 92.2714Z" fill="#367CFF"/>
<path opacity="0.2" d="M171.914 92.2714H57.1498C55.558 92.2714 54.2675 93.5619 54.2675 95.1537V111.037C54.2675 112.629 55.558 113.919 57.1498 113.919H171.914C173.505 113.919 174.796 112.629 174.796 111.037V95.1537C174.796 93.5619 173.505 92.2714 171.914 92.2714Z" fill="white"/>
<path d="M171.914 114.099H57.1498C56.3379 114.098 55.5595 113.775 54.9855 113.201C54.4114 112.627 54.0886 111.849 54.0879 111.037V95.154C54.0887 94.3422 54.4116 93.5638 54.9856 92.9897C55.5597 92.4156 56.338 92.0926 57.1498 92.0917H171.914C172.725 92.0926 173.504 92.4155 174.078 92.9896C174.652 93.5637 174.975 94.3421 174.976 95.154V111.037C174.975 111.849 174.652 112.627 174.078 113.201C173.504 113.775 172.726 114.098 171.914 114.099ZM57.1498 92.4513C56.4333 92.4522 55.7464 92.7372 55.2398 93.2439C54.7332 93.7506 54.4483 94.4375 54.4475 95.154V111.037C54.4483 111.753 54.7332 112.44 55.2398 112.947C55.7464 113.453 56.4333 113.738 57.1498 113.739H171.914C172.63 113.739 173.317 113.453 173.824 112.947C174.33 112.44 174.615 111.753 174.616 111.037V95.154C174.615 94.4375 174.33 93.7505 173.824 93.2438C173.317 92.7371 172.63 92.4521 171.914 92.4513H57.1498Z" fill="#292A2E"/>
<path d="M126.118 96.1107H61.8179C60.1574 96.1107 58.8113 98.4859 58.8113 101.416C58.8113 104.346 60.1574 106.721 61.8179 106.721H126.118C127.779 106.721 129.125 104.346 129.125 101.416C129.125 98.4859 127.779 96.1107 126.118 96.1107Z" fill="white"/>
<path d="M61.0227 103L60.1988 100.273H60.5326L61.1789 102.522H61.202L61.8466 100.273H62.1821L62.8213 102.517H62.8462L63.4925 100.273H63.8263L63.0025 103H62.6758L62.0294 100.765H61.9957L61.3494 103H61.0227ZM65.0461 103L64.2223 100.273H64.5561L65.2024 102.522H65.2255L65.87 100.273H66.2056L66.8448 102.517H66.8696L67.5159 100.273H67.8498L67.0259 103H66.6992L66.0529 100.765H66.0191L65.3728 103H65.0461ZM69.0696 103L68.2457 100.273H68.5795L69.2258 102.522H69.2489L69.8934 100.273H70.229L70.8682 102.517H70.8931L71.5394 100.273H71.8732L71.0493 103H70.7226L70.0763 100.765H70.0426L69.3963 103H69.0696ZM72.3686 103.027C72.2987 103.027 72.2384 103.002 72.1875 102.952C72.1378 102.901 72.1129 102.841 72.1129 102.771C72.1129 102.7 72.1378 102.64 72.1875 102.59C72.2384 102.54 72.2987 102.515 72.3686 102.515C72.4396 102.515 72.5 102.54 72.5497 102.59C72.5994 102.64 72.6243 102.7 72.6243 102.771C72.6243 102.817 72.6124 102.86 72.5887 102.899C72.5663 102.938 72.5355 102.969 72.4964 102.993C72.4585 103.015 72.4159 103.027 72.3686 103.027ZM74.4997 104.08C74.3139 104.08 74.1511 104.055 74.0114 104.007C73.8717 103.959 73.754 103.894 73.6581 103.811C73.5622 103.729 73.4876 103.636 73.4344 103.533L73.6936 103.362C73.7327 103.431 73.7847 103.498 73.8498 103.565C73.9161 103.631 74.002 103.686 74.1073 103.73C74.2138 103.774 74.3446 103.795 74.4997 103.795C74.7412 103.795 74.9359 103.735 75.0839 103.614C75.233 103.494 75.3076 103.306 75.3076 103.051V102.437H75.2792C75.2425 102.52 75.1898 102.603 75.1212 102.686C75.0525 102.767 74.9625 102.835 74.8513 102.89C74.7412 102.944 74.6045 102.972 74.4411 102.972C74.2233 102.972 74.0298 102.918 73.8605 102.81C73.6924 102.702 73.5598 102.548 73.4628 102.348C73.3669 102.147 73.319 101.907 73.319 101.629C73.319 101.353 73.3657 101.111 73.4592 100.901C73.5539 100.692 73.6859 100.528 73.8552 100.411C74.0244 100.294 74.2215 100.235 74.4464 100.235C74.6133 100.235 74.7518 100.265 74.8619 100.324C74.972 100.382 75.0602 100.454 75.1265 100.541C75.194 100.627 75.2466 100.711 75.2845 100.793H75.3165V100.273H75.6254V103.071C75.6254 103.302 75.5763 103.492 75.478 103.641C75.3798 103.79 75.246 103.9 75.0768 103.971C74.9075 104.043 74.7151 104.08 74.4997 104.08ZM74.4784 102.682C74.6536 102.682 74.8033 102.64 74.9276 102.556C75.0519 102.471 75.1472 102.349 75.2135 102.19C75.2798 102.032 75.3129 101.843 75.3129 101.624C75.3129 101.411 75.2804 101.222 75.2153 101.058C75.1502 100.892 75.0555 100.762 74.9312 100.667C74.8081 100.571 74.6571 100.523 74.4784 100.523C74.2961 100.523 74.1422 100.572 74.0167 100.67C73.8913 100.769 73.7966 100.901 73.7327 101.068C73.6687 101.234 73.6368 101.419 73.6368 101.624C73.6368 101.832 73.6693 102.016 73.7344 102.176C73.7995 102.335 73.8948 102.459 74.0203 102.549C74.1458 102.638 74.2985 102.682 74.4784 102.682ZM77.5222 103.057C77.2866 103.057 77.0783 102.997 76.8972 102.877C76.7172 102.758 76.5764 102.593 76.4746 102.382C76.3728 102.17 76.3219 101.926 76.3219 101.649C76.3219 101.369 76.3728 101.124 76.4746 100.912C76.5764 100.699 76.7172 100.533 76.8972 100.415C77.0783 100.295 77.2866 100.235 77.5222 100.235C77.7577 100.235 77.9655 100.295 78.1454 100.415C78.3253 100.534 78.4662 100.7 78.568 100.912C78.671 101.124 78.7224 101.369 78.7224 101.649C78.7224 101.926 78.6715 102.17 78.5697 102.382C78.468 102.593 78.3265 102.758 78.1454 102.877C77.9655 102.997 77.7577 103.057 77.5222 103.057ZM77.5222 102.767C77.7116 102.767 77.872 102.717 78.0033 102.615C78.1347 102.513 78.2342 102.377 78.3016 102.208C78.3703 102.039 78.4046 101.852 78.4046 101.649C78.4046 101.445 78.3703 101.258 78.3016 101.088C78.2342 100.917 78.1347 100.781 78.0033 100.678C77.872 100.575 77.7116 100.523 77.5222 100.523C77.334 100.523 77.1736 100.575 77.041 100.678C76.9096 100.781 76.8096 100.917 76.7409 101.088C76.6734 101.258 76.6397 101.445 76.6397 101.649C76.6397 101.852 76.6734 102.039 76.7409 102.208C76.8096 102.377 76.9096 102.513 77.041 102.615C77.1724 102.717 77.3328 102.767 77.5222 102.767ZM80.4763 103.057C80.2407 103.057 80.0324 102.997 79.8513 102.877C79.6713 102.758 79.5305 102.593 79.4287 102.382C79.3269 102.17 79.276 101.926 79.276 101.649C79.276 101.369 79.3269 101.124 79.4287 100.912C79.5305 100.699 79.6713 100.533 79.8513 100.415C80.0324 100.295 80.2407 100.235 80.4763 100.235C80.7118 100.235 80.9196 100.295 81.0995 100.415C81.2794 100.534 81.4203 100.7 81.5221 100.912C81.6251 101.124 81.6765 101.369 81.6765 101.649C81.6765 101.926 81.6257 102.17 81.5239 102.382C81.4221 102.593 81.2806 102.758 81.0995 102.877C80.9196 102.997 80.7118 103.057 80.4763 103.057ZM80.4763 102.767C80.6657 102.767 80.8261 102.717 80.9574 102.615C81.0888 102.513 81.1883 102.377 81.2557 102.208C81.3244 102.039 81.3587 101.852 81.3587 101.649C81.3587 101.445 81.3244 101.258 81.2557 101.088C81.1883 100.917 81.0888 100.781 80.9574 100.678C80.8261 100.575 80.6657 100.523 80.4763 100.523C80.2881 100.523 80.1277 100.575 79.9951 100.678C79.8637 100.781 79.7637 100.917 79.695 101.088C79.6275 101.258 79.5938 101.445 79.5938 101.649C79.5938 101.852 79.6275 102.039 79.695 102.208C79.7637 102.377 79.8637 102.513 79.9951 102.615C80.1265 102.717 80.2869 102.767 80.4763 102.767ZM83.4108 104.08C83.225 104.08 83.0622 104.055 82.9226 104.007C82.7829 103.959 82.6651 103.894 82.5692 103.811C82.4733 103.729 82.3988 103.636 82.3455 103.533L82.6047 103.362C82.6438 103.431 82.6959 103.498 82.761 103.565C82.8273 103.631 82.9131 103.686 83.0184 103.73C83.125 103.774 83.2558 103.795 83.4108 103.795C83.6523 103.795 83.847 103.735 83.995 103.614C84.1441 103.494 84.2187 103.306 84.2187 103.051V102.437H84.1903C84.1536 102.52 84.1009 102.603 84.0323 102.686C83.9636 102.767 83.8737 102.835 83.7624 102.89C83.6523 102.944 83.5156 102.972 83.3522 102.972C83.1344 102.972 82.9409 102.918 82.7716 102.81C82.6035 102.702 82.471 102.548 82.3739 102.348C82.278 102.147 82.2301 101.907 82.2301 101.629C82.2301 101.353 82.2768 101.111 82.3704 100.901C82.465 100.692 82.597 100.528 82.7663 100.411C82.9356 100.294 83.1327 100.235 83.3576 100.235C83.5245 100.235 83.663 100.265 83.7731 100.324C83.8831 100.382 83.9713 100.454 84.0376 100.541C84.1051 100.627 84.1578 100.711 84.1956 100.793H84.2276V100.273H84.5365V103.071C84.5365 103.302 84.4874 103.492 84.3892 103.641C84.2909 103.79 84.1572 103.9 83.9879 103.971C83.8186 104.043 83.6263 104.08 83.4108 104.08ZM83.3895 102.682C83.5647 102.682 83.7145 102.64 83.8387 102.556C83.963 102.471 84.0583 102.349 84.1246 102.19C84.1909 102.032 84.224 101.843 84.224 101.624C84.224 101.411 84.1915 101.222 84.1264 101.058C84.0613 100.892 83.9666 100.762 83.8423 100.667C83.7192 100.571 83.5683 100.523 83.3895 100.523C83.2072 100.523 83.0534 100.572 82.9279 100.67C82.8024 100.769 82.7077 100.901 82.6438 101.068C82.5799 101.234 82.5479 101.419 82.5479 101.624C82.5479 101.832 82.5805 102.016 82.6456 102.176C82.7107 102.335 82.806 102.459 82.9314 102.549C83.0569 102.638 83.2096 102.682 83.3895 102.682ZM85.6893 99.3636V103H85.3733V99.3636H85.6893ZM87.6283 103.057C87.3738 103.057 87.1536 102.998 86.9677 102.879C86.7819 102.76 86.6381 102.595 86.5363 102.384C86.4357 102.172 86.3854 101.928 86.3854 101.652C86.3854 101.378 86.4357 101.134 86.5363 100.921C86.6381 100.707 86.7783 100.539 86.9571 100.418C87.137 100.296 87.3448 100.235 87.5803 100.235C87.7283 100.235 87.8709 100.263 88.0082 100.317C88.1455 100.37 88.2686 100.453 88.3775 100.564C88.4876 100.674 88.5746 100.813 88.6386 100.981C88.7025 101.148 88.7344 101.346 88.7344 101.574V101.73H86.6038V101.452H88.4113C88.4113 101.277 88.3758 101.119 88.3047 100.979C88.2349 100.839 88.1373 100.727 88.0118 100.646C87.8875 100.564 87.7437 100.523 87.5803 100.523C87.4075 100.523 87.2554 100.569 87.124 100.662C86.9926 100.754 86.8896 100.876 86.815 101.027C86.7417 101.179 86.7044 101.345 86.7032 101.525V101.691C86.7032 101.908 86.7405 102.097 86.815 102.26C86.8908 102.421 86.9979 102.545 87.1364 102.634C87.2749 102.723 87.4389 102.767 87.6283 102.767C87.7573 102.767 87.8703 102.747 87.9674 102.707C88.0656 102.667 88.1479 102.613 88.2142 102.545C88.2817 102.477 88.3326 102.402 88.3669 102.32L88.667 102.418C88.6255 102.532 88.5575 102.638 88.4628 102.735C88.3693 102.833 88.2521 102.911 88.1112 102.97C87.9715 103.028 87.8105 103.057 87.6283 103.057ZM89.683 103.027C89.6132 103.027 89.5528 103.002 89.5019 102.952C89.4522 102.901 89.4273 102.841 89.4273 102.771C89.4273 102.7 89.4522 102.64 89.5019 102.59C89.5528 102.54 89.6132 102.515 89.683 102.515C89.7541 102.515 89.8144 102.54 89.8641 102.59C89.9139 102.64 89.9387 102.7 89.9387 102.771C89.9387 102.817 89.9269 102.86 89.9032 102.899C89.8807 102.938 89.8499 102.969 89.8109 102.993C89.773 103.015 89.7304 103.027 89.683 103.027ZM91.839 103.057C91.5952 103.057 91.3827 102.996 91.2016 102.874C91.0217 102.752 90.882 102.585 90.7826 102.373C90.6831 102.161 90.6334 101.92 90.6334 101.649C90.6334 101.375 90.6837 101.132 90.7843 100.919C90.8861 100.706 91.027 100.539 91.2069 100.418C91.3868 100.296 91.5958 100.235 91.8337 100.235C92.016 100.235 92.1811 100.271 92.3291 100.342C92.477 100.412 92.599 100.511 92.6948 100.638C92.7919 100.765 92.8529 100.913 92.8777 101.082H92.5581C92.525 100.929 92.4451 100.797 92.3184 100.688C92.1929 100.578 92.0331 100.523 91.839 100.523C91.665 100.523 91.5111 100.57 91.3774 100.665C91.2436 100.759 91.1388 100.889 91.0631 101.058C90.9885 101.224 90.9512 101.418 90.9512 101.638C90.9512 101.859 90.9879 102.055 91.0613 102.226C91.1347 102.395 91.2377 102.528 91.3703 102.624C91.504 102.719 91.6603 102.767 91.839 102.767C91.9598 102.767 92.0698 102.745 92.1693 102.7C92.2699 102.654 92.3539 102.589 92.4214 102.505C92.4901 102.421 92.5362 102.321 92.5599 102.205H92.8795C92.8558 102.369 92.7972 102.516 92.7037 102.645C92.6114 102.773 92.4912 102.873 92.3433 102.947C92.1965 103.02 92.0284 103.057 91.839 103.057ZM94.6169 103.057C94.3813 103.057 94.173 102.997 93.9919 102.877C93.812 102.758 93.6711 102.593 93.5693 102.382C93.4675 102.17 93.4166 101.926 93.4166 101.649C93.4166 101.369 93.4675 101.124 93.5693 100.912C93.6711 100.699 93.812 100.533 93.9919 100.415C94.173 100.295 94.3813 100.235 94.6169 100.235C94.8524 100.235 95.0602 100.295 95.2401 100.415C95.42 100.534 95.5609 100.7 95.6627 100.912C95.7657 101.124 95.8172 101.369 95.8172 101.649C95.8172 101.926 95.7663 102.17 95.6645 102.382C95.5627 102.593 95.4212 102.758 95.2401 102.877C95.0602 102.997 94.8524 103.057 94.6169 103.057ZM94.6169 102.767C94.8063 102.767 94.9667 102.717 95.0981 102.615C95.2295 102.513 95.3289 102.377 95.3964 102.208C95.465 102.039 95.4993 101.852 95.4993 101.649C95.4993 101.445 95.465 101.258 95.3964 101.088C95.3289 100.917 95.2295 100.781 95.0981 100.678C94.9667 100.575 94.8063 100.523 94.6169 100.523C94.4287 100.523 94.2683 100.575 94.1357 100.678C94.0043 100.781 93.9043 100.917 93.8356 101.088C93.7682 101.258 93.7344 101.445 93.7344 101.649C93.7344 101.852 93.7682 102.039 93.8356 102.208C93.9043 102.377 94.0043 102.513 94.1357 102.615C94.2671 102.717 94.4275 102.767 94.6169 102.767ZM96.511 103V100.273H96.8182V100.692H96.8466C96.901 100.551 96.9916 100.44 97.1182 100.36C97.2461 100.278 97.3994 100.237 97.5781 100.237C97.7663 100.237 97.9208 100.282 98.0415 100.37C98.1634 100.458 98.2546 100.579 98.315 100.733H98.338C98.3996 100.581 98.4996 100.461 98.6381 100.372C98.7778 100.282 98.9471 100.237 99.1459 100.237C99.3992 100.237 99.5993 100.317 99.7461 100.477C99.8928 100.636 99.9662 100.868 99.9662 101.173V103H99.6502V101.173C99.6502 100.958 99.5951 100.796 99.4851 100.688C99.375 100.58 99.23 100.527 99.05 100.527C98.8417 100.527 98.6813 100.591 98.5689 100.718C98.4564 100.846 98.4002 101.008 98.4002 101.205V103H98.077V101.145C98.077 100.96 98.0255 100.811 97.9226 100.697C97.8196 100.583 97.6746 100.527 97.4875 100.527C97.3621 100.527 97.249 100.557 97.1484 100.619C97.049 100.681 96.9703 100.766 96.9123 100.876C96.8554 100.985 96.827 101.111 96.827 101.253V103H96.511Z" fill="black"/>
<path d="M171.921 125.963H57.1966C56.3851 125.962 55.607 125.875 55.0332 125.72C54.4593 125.566 54.1366 125.356 54.1357 125.137V120.854C54.1366 120.635 54.4593 120.425 55.0332 120.27C55.607 120.115 56.3851 120.028 57.1966 120.028H171.921C172.732 120.028 173.51 120.115 174.084 120.27C174.658 120.425 174.981 120.635 174.982 120.854V125.137C174.981 125.356 174.658 125.566 174.084 125.72C173.51 125.875 172.732 125.962 171.921 125.963ZM57.1966 120.125C56.4804 120.125 55.7937 120.202 55.2873 120.339C54.7809 120.475 54.496 120.661 54.4952 120.854V125.137C54.496 125.33 54.7809 125.515 55.2873 125.652C55.7937 125.788 56.4804 125.865 57.1966 125.866H171.921C172.637 125.865 173.324 125.788 173.83 125.652C174.337 125.515 174.621 125.33 174.622 125.137V120.854C174.621 120.661 174.337 120.475 173.83 120.339C173.324 120.202 172.637 120.125 171.921 120.125H57.1966Z" fill="#292A2E"/>
<path d="M171.921 133.515H57.1966C56.3851 133.515 55.607 133.428 55.0332 133.273C54.4593 133.119 54.1366 132.909 54.1357 132.69V128.407C54.1366 128.188 54.4593 127.978 55.0332 127.823C55.607 127.668 56.3851 127.581 57.1966 127.581H171.921C172.732 127.581 173.51 127.668 174.084 127.823C174.658 127.978 174.981 128.188 174.982 128.407V132.69C174.981 132.909 174.658 133.119 174.084 133.273C173.51 133.428 172.732 133.515 171.921 133.515ZM57.1966 127.678C56.4804 127.678 55.7937 127.755 55.2873 127.892C54.7809 128.028 54.496 128.214 54.4952 128.407V132.69C54.496 132.883 54.7809 133.068 55.2873 133.205C55.7937 133.341 56.4804 133.418 57.1966 133.418H171.921C172.637 133.418 173.324 133.341 173.83 133.205C174.337 133.068 174.621 132.883 174.622 132.69V128.407C174.621 128.214 174.337 128.028 173.83 127.892C173.324 127.755 172.637 127.678 171.921 127.678H57.1966Z" fill="#292A2E"/>
<path d="M171.921 169.841H57.1966C56.3851 169.84 55.6071 169.357 55.0332 168.499C54.4594 167.64 54.1366 166.476 54.1357 165.262V141.512C54.1364 140.298 54.4591 139.134 55.033 138.275C55.6068 137.417 56.385 136.934 57.1966 136.932H171.921C172.732 136.934 173.51 137.416 174.084 138.275C174.658 139.133 174.981 140.297 174.982 141.511V165.261C174.981 166.476 174.658 167.64 174.084 168.498C173.51 169.357 172.732 169.84 171.921 169.841ZM57.1966 137.47C56.4804 137.471 55.7938 137.898 55.2873 138.655C54.7809 139.413 54.4961 140.44 54.4952 141.511V165.261C54.4961 166.333 54.7809 167.36 55.2873 168.117C55.7938 168.875 56.4804 169.301 57.1966 169.302H171.921C172.637 169.301 173.324 168.875 173.83 168.117C174.337 167.36 174.621 166.333 174.622 165.261V141.512C174.622 140.441 174.337 139.413 173.83 138.655C173.324 137.898 172.637 137.471 171.921 137.47H57.1966Z" fill="#292A2E"/>
<path d="M180.775 80.8673V86.2961H48.6563V80.8673C48.6563 79.4365 49.2247 78.0643 50.2364 77.0525C51.2482 76.0408 52.6204 75.4724 54.0512 75.4724H175.38C176.811 75.4724 178.183 76.0408 179.195 77.0525C180.207 78.0643 180.775 79.4365 180.775 80.8673Z" fill="#292A2E"/>
<path d="M170.908 130.411L169.342 127.904L166.809 129.427L171.46 110.051L175.559 111.035L170.908 130.411Z" fill="#367CFF"/>
<path d="M170.908 130.59C170.878 130.59 170.848 130.583 170.821 130.568C170.794 130.553 170.772 130.532 170.756 130.506L169.283 128.15L166.902 129.582C166.871 129.6 166.836 129.609 166.801 129.607C166.765 129.606 166.731 129.594 166.703 129.573C166.674 129.552 166.652 129.523 166.64 129.49C166.628 129.456 166.626 129.42 166.634 129.386L171.285 110.01C171.296 109.963 171.325 109.924 171.365 109.899C171.406 109.874 171.454 109.866 171.5 109.877L175.601 110.861C175.624 110.866 175.645 110.876 175.664 110.89C175.683 110.904 175.7 110.921 175.712 110.942C175.724 110.962 175.733 110.984 175.736 111.007C175.74 111.031 175.739 111.055 175.734 111.078L171.083 130.453C171.075 130.487 171.056 130.518 171.03 130.542C171.005 130.567 170.972 130.582 170.937 130.588C170.928 130.59 170.918 130.59 170.908 130.59ZM169.342 127.724C169.372 127.724 169.402 127.732 169.429 127.747C169.456 127.762 169.478 127.783 169.494 127.809L170.833 129.952L175.342 111.168L171.592 110.268L167.084 129.052L169.249 127.75C169.277 127.733 169.309 127.725 169.342 127.725V127.724Z" fill="#292A2E"/>
<path d="M176.408 130.411L177.974 127.904L180.507 129.427L175.856 110.051L171.757 111.035L176.408 130.411Z" fill="#367CFF"/>
<path d="M176.408 130.591C176.398 130.591 176.388 130.59 176.379 130.588C176.344 130.582 176.311 130.567 176.285 130.542C176.259 130.518 176.241 130.487 176.233 130.453L171.583 111.077C171.578 111.054 171.577 111.03 171.58 111.007C171.584 110.983 171.592 110.961 171.605 110.941C171.617 110.921 171.633 110.903 171.652 110.889C171.671 110.875 171.693 110.865 171.716 110.86L175.816 109.876C175.862 109.865 175.911 109.873 175.952 109.897C175.993 109.922 176.022 109.962 176.033 110.009L180.682 129.385C180.691 129.419 180.689 129.455 180.676 129.489C180.664 129.522 180.642 129.551 180.614 129.572C180.585 129.593 180.551 129.605 180.516 129.606C180.48 129.608 180.445 129.599 180.415 129.581L178.033 128.149L176.561 130.505C176.545 130.531 176.522 130.553 176.495 130.568C176.469 130.583 176.438 130.591 176.408 130.591ZM171.974 111.168L176.482 129.952L177.821 127.809C177.846 127.769 177.886 127.74 177.932 127.729C177.978 127.718 178.026 127.726 178.066 127.75L180.232 129.052L175.723 110.268L171.974 111.168Z" fill="#292A2E"/>
<path d="M184.163 113.772C184.163 114.841 182.822 115.684 182.509 116.648C182.185 117.648 182.762 119.116 182.157 119.948C181.545 120.788 179.966 120.689 179.126 121.3C178.294 121.906 177.903 123.441 176.905 123.766C175.941 124.079 174.726 123.076 173.658 123.076C172.589 123.076 171.374 124.079 170.41 123.766C169.411 123.442 169.021 121.906 168.189 121.3C167.349 120.689 165.77 120.788 165.158 119.948C164.553 119.116 165.131 117.648 164.807 116.648C164.493 115.684 163.152 114.841 163.152 113.772C163.152 112.704 164.493 111.86 164.807 110.896C165.13 109.897 164.553 108.429 165.158 107.597C165.77 106.757 167.349 106.856 168.189 106.244C169.021 105.639 169.412 104.103 170.411 103.779C171.375 103.466 172.589 104.468 173.658 104.468C174.726 104.468 175.941 103.466 176.905 103.779C177.904 104.103 178.295 105.639 179.126 106.244C179.966 106.856 181.546 106.757 182.157 107.597C182.762 108.429 182.184 109.897 182.509 110.896C182.823 111.86 184.163 112.704 184.163 113.772Z" fill="#0CBC8B"/>
<path d="M176.503 124.006C176.029 124.006 175.53 123.813 175.044 123.625C174.576 123.444 174.091 123.256 173.658 123.256C173.225 123.256 172.74 123.444 172.271 123.625C171.626 123.875 170.958 124.133 170.355 123.937C169.723 123.732 169.328 123.115 168.946 122.519C168.672 122.09 168.412 121.685 168.083 121.446C167.748 121.202 167.256 121.073 166.781 120.947C166.101 120.768 165.398 120.583 165.013 120.054C164.632 119.53 164.671 118.808 164.71 118.11C164.737 117.616 164.765 117.105 164.635 116.704C164.513 116.326 164.212 115.96 163.893 115.572C163.441 115.021 162.972 114.451 162.972 113.772C162.972 113.093 163.44 112.523 163.893 111.972C164.212 111.584 164.513 111.218 164.635 110.841C164.766 110.44 164.737 109.929 164.71 109.434C164.672 108.736 164.632 108.014 165.013 107.491C165.398 106.961 166.101 106.776 166.781 106.597C167.256 106.471 167.748 106.343 168.083 106.099C168.412 105.86 168.671 105.454 168.946 105.026C169.328 104.43 169.723 103.813 170.355 103.608C170.96 103.412 171.626 103.67 172.272 103.92C172.74 104.101 173.225 104.289 173.658 104.289C174.091 104.289 174.575 104.101 175.045 103.92C175.69 103.67 176.357 103.412 176.961 103.608C177.593 103.813 177.988 104.43 178.37 105.026C178.644 105.455 178.904 105.86 179.233 106.099C179.568 106.343 180.06 106.472 180.535 106.597C181.215 106.777 181.918 106.961 182.303 107.491C182.684 108.015 182.645 108.736 182.606 109.434C182.579 109.929 182.551 110.44 182.681 110.841C182.803 111.218 183.104 111.584 183.423 111.972C183.876 112.523 184.344 113.093 184.344 113.772C184.344 114.451 183.876 115.021 183.423 115.572C183.104 115.96 182.803 116.327 182.681 116.704C182.551 117.105 182.579 117.616 182.606 118.11C182.644 118.809 182.684 119.53 182.303 120.054C181.918 120.583 181.215 120.768 180.535 120.947C180.06 121.073 179.568 121.202 179.233 121.446C178.904 121.685 178.645 122.09 178.37 122.519C177.988 123.115 177.593 123.732 176.96 123.937C176.813 123.984 176.658 124.007 176.503 124.006ZM173.658 122.896C174.158 122.896 174.675 123.096 175.174 123.29C175.788 123.527 176.367 123.752 176.849 123.595C177.359 123.43 177.703 122.894 178.067 122.325C178.347 121.887 178.637 121.434 179.02 121.156C179.409 120.873 179.934 120.734 180.442 120.601C181.089 120.43 181.701 120.269 182.011 119.843C182.317 119.423 182.282 118.796 182.245 118.131C182.216 117.604 182.186 117.059 182.337 116.594C182.48 116.152 182.817 115.742 183.143 115.346C183.555 114.843 183.982 114.324 183.982 113.774C183.982 113.224 183.555 112.704 183.143 112.202C182.817 111.806 182.48 111.395 182.337 110.953C182.186 110.489 182.216 109.943 182.245 109.416C182.281 108.751 182.317 108.124 182.011 107.704C181.701 107.278 181.09 107.117 180.442 106.946C179.935 106.813 179.41 106.674 179.02 106.391C178.637 106.112 178.347 105.659 178.067 105.221C177.703 104.653 177.36 104.117 176.85 103.951C176.367 103.794 175.789 104.019 175.174 104.257C174.675 104.45 174.159 104.65 173.658 104.65C173.158 104.65 172.641 104.45 172.142 104.257C171.528 104.019 170.948 103.795 170.466 103.951C169.956 104.117 169.613 104.653 169.249 105.221C168.969 105.659 168.679 106.112 168.296 106.391C167.907 106.674 167.382 106.813 166.874 106.946C166.227 107.117 165.615 107.278 165.305 107.704C164.999 108.124 165.034 108.751 165.071 109.416C165.1 109.943 165.13 110.488 164.979 110.953C164.836 111.395 164.499 111.805 164.173 112.202C163.76 112.704 163.334 113.223 163.334 113.774C163.334 114.324 163.761 114.843 164.173 115.346C164.499 115.741 164.836 116.152 164.979 116.594C165.13 117.059 165.1 117.604 165.071 118.131C165.035 118.796 164.999 119.423 165.305 119.843C165.615 120.269 166.227 120.43 166.874 120.601C167.382 120.734 167.907 120.873 168.296 121.156C168.68 121.435 168.97 121.888 169.249 122.325C169.613 122.893 169.956 123.43 170.466 123.595C170.948 123.752 171.527 123.527 172.142 123.29C172.641 123.096 173.157 122.896 173.658 122.896Z" fill="#292A2E"/>
<path d="M173.658 118.432C176.231 118.432 178.317 116.346 178.317 113.772C178.317 111.199 176.231 109.113 173.658 109.113C171.085 109.113 168.999 111.199 168.999 113.772C168.999 116.346 171.085 118.432 173.658 118.432Z" fill="white"/>
<path d="M173.658 118.611C172.701 118.611 171.765 118.328 170.969 117.796C170.174 117.264 169.553 116.508 169.187 115.624C168.821 114.74 168.725 113.767 168.912 112.828C169.099 111.89 169.559 111.027 170.236 110.351C170.913 109.674 171.775 109.213 172.714 109.026C173.653 108.84 174.626 108.935 175.51 109.302C176.394 109.668 177.15 110.288 177.681 111.084C178.213 111.88 178.497 112.815 178.497 113.772C178.496 115.055 177.985 116.285 177.078 117.193C176.171 118.1 174.941 118.61 173.658 118.611ZM173.658 109.293C172.772 109.293 171.906 109.556 171.169 110.048C170.433 110.54 169.859 111.24 169.519 112.058C169.18 112.877 169.092 113.777 169.265 114.646C169.437 115.515 169.864 116.313 170.49 116.94C171.117 117.566 171.915 117.993 172.784 118.166C173.653 118.339 174.554 118.25 175.372 117.911C176.191 117.572 176.89 116.998 177.382 116.261C177.875 115.524 178.137 114.658 178.137 113.772C178.136 112.585 177.664 111.446 176.824 110.606C175.984 109.766 174.846 109.294 173.658 109.292V109.293Z" fill="#292A2E"/>
<path d="M103.725 81.4312C103.599 81.4312 103.478 81.4813 103.389 81.5704C103.3 81.6595 103.25 81.7803 103.25 81.9062V89.0625C103.25 89.325 103.463 89.5375 103.725 89.5375C103.844 89.5375 103.944 89.5 104.025 89.4375L105.219 88.4688L106.256 90.7312C106.338 90.9 106.506 91 106.688 91C106.756 91 106.825 91 106.894 90.95L108.619 90.15C108.856 90.0375 108.969 89.75 108.844 89.5187L107.8 87.25L109.306 86.9688C109.41 86.9419 109.503 86.8854 109.575 86.8063C109.744 86.6063 109.719 86.3125 109.5 86.1312L104.038 81.5375L104.031 81.5437C103.946 81.4711 103.837 81.4312 103.725 81.4312ZM106.375 82.25V81H109.5V82.25H106.375ZM105.644 78.975L107.413 77.2062L108.294 78.0875L106.525 79.8563L105.644 78.975ZM103.25 76H104.5V79.125H103.25V76ZM99.4563 85.1625L101.225 83.3938L102.106 84.275L100.338 86.0437L99.4563 85.1625ZM99.4563 78.0875L100.338 77.2062L102.106 78.975L101.225 79.8563L99.4563 78.0875ZM101.375 82.25H98.25V81H101.375V82.25Z" fill="#433F4C"/>
<defs>
<linearGradient id="paint0_linear_19_108" x1="118" y1="0" x2="118" y2="310" gradientUnits="userSpaceOnUse">
<stop stop-color="white" stop-opacity="0"/>
<stop offset="0.619792" stop-color="#5F4FC1"/>
</linearGradient>
</defs>
</svg>
