<svg width="25" height="25" viewBox="0 0 25 25" fill="none" xmlns="http://www.w3.org/2000/svg">
<g clip-path="url(#clip0_356_20)">
<path d="M19.3886 0H5.61136C2.51229 0 0 2.51229 0 5.61136V19.3886C0 22.4877 2.51229 25 5.61136 25H19.3886C22.4877 25 25 22.4877 25 19.3886V5.61136C25 2.51229 22.4877 0 19.3886 0Z" fill="#0B86CA"/>
<path d="M6.92772 10.3914H9.52558V18.7738H6.92772V10.3914ZM8.25263 6.2262C8.55027 6.2262 8.84124 6.31436 9.08883 6.47954C9.33642 6.64473 9.52955 6.87954 9.64384 7.15436C9.75813 7.42918 9.78847 7.73169 9.73103 8.02373C9.67359 8.31578 9.53095 8.58427 9.32109 8.79533C9.11123 9.00639 8.84356 9.15058 8.55185 9.20969C8.26015 9.2688 7.95746 9.2402 7.68199 9.12748C7.40652 9.01476 7.17061 8.82299 7.00401 8.57635C6.83741 8.3297 6.74759 8.03924 6.74587 7.74161C6.74473 7.54301 6.78286 7.34615 6.85807 7.16234C6.93328 6.97853 7.04409 6.81141 7.18412 6.67057C7.32415 6.52974 7.49064 6.41798 7.67401 6.34171C7.85739 6.26545 8.05403 6.22619 8.25263 6.2262" fill="white"/>
<path d="M11.1881 10.3914H13.6907V11.5345C13.9412 11.107 14.3031 10.7555 14.7378 10.5176C15.1724 10.2797 15.6635 10.1642 16.1587 10.1836C18.7565 10.1836 19.2847 11.9155 19.2847 14.1756V18.7738H16.6869V14.7212C16.6869 13.7513 16.6869 12.4957 15.336 12.4957C13.9851 12.4957 13.7773 13.5522 13.7773 14.6433V18.7912H11.1794L11.1881 10.3914Z" fill="white"/>
</g>
<defs>
<clipPath id="clip0_356_20">
<rect width="25" height="25" fill="white"/>
</clipPath>
</defs>
</svg>
