<svg width="25" height="25" viewBox="0 0 25 25" fill="none" xmlns="http://www.w3.org/2000/svg">
<path d="M13.6203 0C6.76875 0 3.125 4.39063 3.125 9.17813C3.125 11.3984 4.36562 14.1672 6.35156 15.0453C6.65312 15.1812 6.81719 15.1234 6.88437 14.8438C6.94375 14.6312 7.20469 13.6078 7.33125 13.125C7.35374 13.0497 7.35576 12.9697 7.33708 12.8934C7.31841 12.817 7.27972 12.7471 7.225 12.6906C6.56562 11.9281 6.04219 10.5391 6.04219 9.23594C6.04219 5.89687 8.69687 2.65469 13.2141 2.65469C17.1203 2.65469 19.8531 5.19219 19.8531 8.82187C19.8531 12.9234 17.6828 15.7609 14.8625 15.7609C13.3016 15.7609 12.1391 14.5359 12.5078 13.0203C12.9531 11.2156 13.8266 9.275 13.8266 7.97344C13.8266 6.80625 13.1672 5.84062 11.8203 5.84062C10.2312 5.84062 8.94219 7.41406 8.94219 9.52656C8.94219 10.8688 9.41719 11.775 9.41719 11.775L7.55312 19.3109C7.05937 21.3188 7.62031 24.5703 7.66875 24.85C7.69844 25.0047 7.87187 25.0531 7.96875 24.9266C8.12344 24.7234 10.0234 22.0125 10.5562 20.0531C10.75 19.3391 11.5453 16.4438 11.5453 16.4438C12.0687 17.3891 13.5797 18.1812 15.1891 18.1812C19.9766 18.1812 23.4359 13.9734 23.4359 8.75156C23.4187 3.74531 19.1344 0 13.6203 0Z" fill="#D32F2F"/>
</svg>
