<svg width="25" height="29" viewBox="0 0 25 29" fill="none" xmlns="http://www.w3.org/2000/svg">
<g clip-path="url(#clip0_55_704)">
<path d="M18.5274 10.5371C20.3514 11.8403 22.5859 12.6071 24.9993 12.6071V7.96553C24.5425 7.96562 24.087 7.91797 23.6401 7.82334V11.477C21.227 11.477 18.9927 10.7103 17.1683 9.40713V18.8794C17.1683 23.618 13.3249 27.459 8.58428 27.459C6.81544 27.459 5.1713 26.9245 3.80557 26.0078C5.36436 27.6009 7.53819 28.5891 9.94307 28.5891C14.6841 28.5891 18.5275 24.748 18.5275 20.0093V10.5371H18.5274ZM20.2041 5.8543C19.2719 4.83643 18.6598 3.521 18.5274 2.0667V1.46973H17.2394C17.5636 3.31807 18.6694 4.89717 20.204 5.8543H20.2041ZM6.80401 22.3717C6.2832 21.6892 6.00167 20.8542 6.00294 19.9957C6.00294 17.8285 7.76085 16.0713 9.92969 16.0713C10.3338 16.0711 10.7356 16.1331 11.1208 16.2552V11.5098C10.6706 11.4481 10.2163 11.4219 9.76221 11.4315V15.1251C9.37679 15.0029 8.97483 14.9409 8.57051 14.9413C6.40176 14.9413 4.64395 16.6983 4.64395 18.8658C4.64395 20.3984 5.52256 21.7253 6.80401 22.3717Z" fill="#FF004F"/>
<path d="M17.1682 9.40703C18.9928 10.7102 21.2268 11.4769 23.6401 11.4769V7.82324C22.2931 7.53643 21.1006 6.83291 20.204 5.8543C18.6693 4.89707 17.5636 3.31797 17.2393 1.46973H13.8562V20.0091C13.8485 22.1704 12.0936 23.9204 9.92948 23.9204C8.65428 23.9204 7.52128 23.3129 6.8038 22.3716C5.52255 21.7253 4.64384 20.3983 4.64384 18.8659C4.64384 16.6986 6.40165 14.9414 8.5704 14.9414C8.98593 14.9414 9.38641 15.0061 9.7621 15.1252V11.4316C5.10467 11.5278 1.35907 15.3313 1.35907 20.0092C1.35907 22.3443 2.29178 24.4612 3.80565 26.008C5.17137 26.9245 6.81542 27.4592 8.58436 27.4592C13.3251 27.4592 17.1683 23.6179 17.1683 18.8794V9.40713H17.1682V9.40703Z" fill="black"/>
<path d="M23.6401 7.82324V6.83555C22.4254 6.83739 21.2346 6.49738 20.204 5.85439C21.1163 6.85265 22.3176 7.54105 23.6401 7.82344V7.82324ZM17.2393 1.46973C17.2084 1.29313 17.1846 1.11534 17.1682 0.936816V0.339844H12.4969V18.8794C12.4895 21.0405 10.7346 22.7905 8.57031 22.7905C7.95676 22.7914 7.3516 22.648 6.80371 22.3719C7.52119 23.313 8.6542 23.9204 9.92939 23.9204C12.0935 23.9204 13.8485 22.1706 13.8562 20.0093V1.46982H17.2393V1.46973ZM9.76231 11.4316V10.38C9.37197 10.3266 8.97844 10.2999 8.58447 10.3001C3.84326 10.3001 0 14.1413 0 18.8794C0 21.85 1.51045 24.468 3.80576 26.0079C2.29189 24.4612 1.35918 22.3442 1.35918 20.0092C1.35918 15.3314 5.10469 11.5279 9.76231 11.4317V11.4316Z" fill="#00F2EA"/>
</g>
<defs>
<clipPath id="clip0_55_704">
<rect width="25" height="28.3203" fill="white" transform="translate(0 0.339844)"/>
</clipPath>
</defs>
</svg>
