<svg width="25" height="18" viewBox="0 0 25 18" fill="none" xmlns="http://www.w3.org/2000/svg">
<g clip-path="url(#clip0_356_9)">
<path d="M16.653 8.52422C14.3608 7.29926 12.166 6.1731 9.92249 4.99731V12.0312C12.2833 10.7478 14.7717 9.57245 16.6627 8.52422H16.653V8.52422Z" fill="white"/>
<path d="M16.653 8.52422C14.3608 7.29926 9.92249 4.99731 9.92249 4.99731L15.8399 8.97459C15.8404 8.97459 14.762 9.57245 16.653 8.52422Z" fill="#E8E0E0"/>
<path d="M10.3538 17.5372C5.59271 17.4495 3.96655 17.3706 2.96702 17.1647C2.29077 17.0279 1.7031 16.7241 1.27221 16.2834C0.939188 15.95 0.674346 15.4411 0.468873 14.7352C0.292621 14.1471 0.223975 13.6577 0.126108 12.4625C-0.0237062 9.76489 -0.0594205 7.55942 0.126108 5.09513C0.27917 3.73428 0.353381 2.11879 1.37008 1.1763C1.85013 0.735207 2.40858 0.451348 3.03566 0.334001C4.01526 0.148008 8.18873 0.000976562 12.5092 0.000976562C16.82 0.000976562 21.0027 0.148008 21.9833 0.334001C22.7666 0.481032 23.5013 0.921663 23.9327 1.48984C24.8603 2.94903 24.8766 4.7635 24.9707 6.18279C25.0097 6.85905 25.0097 10.699 24.9707 11.3753C24.8242 13.6183 24.7064 14.4119 24.3733 15.2347C24.1674 15.7542 23.9916 16.0283 23.6873 16.3321C23.2101 16.7997 22.6018 17.1106 21.9434 17.2236C17.8232 17.5334 14.3246 17.6007 10.3538 17.5372V17.5372ZM16.6632 8.52417C14.371 7.29921 12.1762 6.16331 9.9327 4.98753V12.0218C12.2935 10.7385 14.7824 9.56266 16.673 8.51443L16.6632 8.52417Z" fill="#CD201F"/>
</g>
<defs>
<clipPath id="clip0_356_9">
<rect width="25" height="17.56" fill="white"/>
</clipPath>
</defs>
</svg>
